<svg id="Layer_1" xmlns="http://www.w3.org/2000/svg" viewBox="0 0 138.5 139.2"><style>.st0{fill:#e6d0b2}.st1{fill:#162123}.st2{fill:#fff}.st3{opacity:5e-2}.st4{fill:#4a4a4a}.st5{fill:#fafdff}</style><path class="st0" d="M34.9 57.5s-6.3 3.4-5.3 7.4 14.7 12 14.7 12l-5-18.1-4.4-1.3z"/><path class="st1" d="M30.6 66.7s-7.3 20.8 17.3 22.8l-1.1-1.6s-18.9.2-14.8-19.7l-1.4-1.5z"/><g id="body"><path id="torso" class="st2" d="M78.9 65.9c-5.5-17.4-21.3-19.3-21.3-19.3l-14.2 13 10.8 17.5c3.9 7 8.2 7.7 8.5 7.7 1.3-5.5 7-7.4 11.9-9.4 1.7-.7 2.8-.3 3.7.5-2.2-3.4-3.2-6.9.6-10z"/><path class="st1" d="M81.5 81l.6-.4-4.7-6-.6.5z"/><g id="left-leg"><path class="st2" d="M116.5 78.6c-2.3-3.1-8.8-2.1-8.8-2.1s-8.8-9-12.7-10.2c-3.9-1.2-16.1-.4-16.1-.4-3.8 3.1-2.8 6.6-.6 10 .8.8 1.5 1.9 2.2 3 .4.4.7.9 1.1 1.3.2.2.4.4.6.5l9.4-2.9c2.3 2.4 10.3 9 10.3 9 7.2.5 16.9-5.1 14.6-8.2z"/><path class="st1" d="M90.4 65.7s-.4 8.1 1.2 12.1c1.6 3.9 7.9-8.6 7.9-8.6s-3.1-6.1-9.1-3.5z"/></g><g id="right-leg"><path class="st2" d="M74.5 75.3c-4.8 1.9-10.5 3.9-11.9 9.4l13.3 9.4c1.8 2.7 2.6 10.6 2.6 10.6 4 8.9 15.2 13.3 16.4 8.1 1.2-5.2-5.9-12.3-5.9-12.3.3-7.8-3.2-14.1-3.2-14.1-1-1.7-2.2-3.3-3.4-4.8l-.7-.9.3-.1c-2.5-1.9-3.1-7-7.5-5.3z"/><path class="st1" d="M76.5 95.3c7.7 5.6 11.9-3.1 11.3-4.8-.2-1.5-1.2-3.1-1.2-3.1-9.6-4.9-11 6.1-11 6.1s-.1.9.9 1.8z"/></g><path class="st1" d="M77.4 76.6c.4-.2.7-.7.5-1.2-1.2-5.7 1.6-8.7 1.7-8.8.4-.4.4-1.1 0-1.6-.4-.4-1.1-.4-1.6 0-.2.2-3.8 3.9-2.3 10.9.1.6.7 1 1.3.8.2 0 .3 0 .4-.1z"/><path class="st1" d="M63.2 85.7c.2-.1.4-.3.5-.5.2-.4 4.4-9.2 13.8-8.3.6.1 1.2-.4 1.2-1 .1-.6-.4-1.2-1-1.2-11-1-16 9.5-16 9.6-.3.6 0 1.2.5 1.5.4.1.7 0 1-.1zM57.7 49s12 10.6-4 22.1l-.5-2.2s12.3-9 3.5-17.8l1-2.1z"/><g id="left-hand"><path class="st2" d="M57.8 43.5s7.2-7 10.9-9.1 12.5-4.6 16.4-5.4c0 0 5.4 3.3 3.2 8 0 0-11.5 5.2-13.8 7.8-2.4 2.7-5.9 6.4-5.9 6.4l-11.7-4 .9-3.7z"/><path class="st2" d="M84.5 29.1c2.6-4.5 6-5.9 5.7-4.2-.3 1.7-.2 3.4-.2 3.4s5.3-3 5.5-2c.2 1.1-3.9 4.1-3.9 4.1s5.7-2.5 6.1-1.4c.4 1-5.6 3.4-5.6 3.4s5.9-2.7 6.3-1.6c.4 1.1-5.5 3.6-5.5 3.6s5-.8 3.5.6c-1.4 1.3-7.8 1.9-7.8 1.9l-4.1-7.8z"/><ellipse transform="rotate(-21.161 89.305 32.437)" class="st3" cx="89.3" cy="32.4" rx="1.4" ry="3.2"/><path class="st1" d="M70.8 33.4s4.2 6.2 5.6 9.9c0 0 .1 1.2-2 1.6 0 0-5.6-3.5-8.1-8.8 0-.1 1.4-2.4 4.5-2.7zm-2.5 18.1l.4-.6c-5.9-4.2-10.2-4.6-10.4-4.6l-.1.7c.1.1 4.4.5 10.1 4.5z"/></g><ellipse transform="rotate(-29.495 42.186 44.305)" class="st2" cx="42.2" cy="44.3" rx="16.5" ry="16.2"/><path class="st1" d="M47.5 58.4c1.1-.3 2.2-.8 3.2-1.4 7.4-4.2 10.1-13.5 6-20.7-1.8-3.3-4.8-5.6-8.2-6.7h-.2c-.5-.2-1.1.3-1.1.8 0 2.3-1.5 7.9-14.2 13.2-.8.3-1.1 1.2-.8 1.9 1.6 3.3 6.3 11.9 14.6 13.1l.7-.2z"/><g id="right-hand"><path class="st2" d="M55 95.7s5.4 7.1 7.2 7.8c1.8.8-.8-3.5-.8-3.5s4.6 4.3 5.4 3.5-3.9-5.1-3.9-5.1 4.5 4.6 5.3 3.8c.8-.8-3.6-5-3.6-5s4.3 2.6 5.2 2-3.9-4.2-3.9-4.2 1.5-.7 3.2-1.1-.9-2.9-6.1-3.5l-8 5.3z"/><path class="st2" d="M40.3 61.3s6.9-4.6 11.7.3c0 0 2.1 6.1 2.2 15.4 0 0 .5 2.4 2.9 5.6s6.1 7.4 6.1 7.4-1.5 4.1-8.1 5.6c0 0-8.3-5.8-11.7-13.5-3.6-7.7-3.1-20.8-3.1-20.8z"/><path class="st1" d="M55.2 79.7s-9.2 5-11.9 2.4c0 0 .4 1.8 2.9 4.8 0 0 6-1.1 9.8-5.9 0 .1.3-.3-.8-1.3zM53 63.8c.1 0 .1-.1.2-.1.6-.5.7-1.5.2-2.1-4.8-5.9-11.3-3.5-14.1-1.4-.7.5-.8 1.4-.3 2.1.5.6 1.4.8 2.1.3.6-.4 5.8-4.1 10 .9.5.5 1.3.7 1.9.3z"/></g></g><path class="st4" d="M56.6 37.7c-1.6-3.4-7.6-4.5-11.2-1.4-3.6 3.1-6.5 8.7-3.4 12 3.1 3.3 18.7-1.9 14.6-10.6"/><path class="st2" d="M49.5 36.5c3.6-.8 4 3.5 1.6 4.4-2.4.9-4.4-3.8-1.6-4.4"/><path class="st1" d="M66.1 56.5s-7.9 6.7-9.3 8.9c0 0 6.7 8.2 7.9 9.4 0 0 8.7-8.1 9.2-9.6.1 0-6.3-7.7-7.8-8.7"/><path class="st5" d="M66 57.2s-7.2 6.2-8.5 8.2c0 0 6.2 7.6 7.2 8.6 0 0 8-7.4 8.5-8.8.1.1-5.8-7-7.2-8"/><path class="st1" d="M65.7 59.2s-2 1.9-2.1 2.3c0 0 5.3 6.4 5.6 6.7 0 0 1.6-1.8 2-2.2.4-.4-5.5-6.8-5.5-6.8m-4.8 6.5c.6.1 1.2-.3 1.4-.9.1-.6-.2-1.2-.9-1.4-.6-.1-1.2.3-1.4.9-.1.6.3 1.3.9 1.4m2.3 2.3c.6.1 1.2-.3 1.4-.9.1-.6-.2-1.2-.9-1.4-.6-.1-1.2.3-1.3.9-.2.6.2 1.3.8 1.4m2.5 2.9c.6.1 1.2-.3 1.4-.9.1-.6-.2-1.2-.9-1.4-.6-.1-1.2.3-1.4.9-.1.7.3 1.3.9 1.4m5.8 3.9l3.5-3.6-1.7-1.7-3.5 3.7zM28.1 51.6c.6-2.7 6.5-1.4 8.3 1.7 1.8 3.1.8 5.3-.8 6.1-2.2 1.3-8.5-3.5-7.5-7.8"/></svg>