<svg id="Layer_1" xmlns="http://www.w3.org/2000/svg" xmlns:xlink="http://www.w3.org/1999/xlink" viewBox="0 0 768 1024"><style>.st0{fill:#d8d8d8}.st1{fill:#595959}.st2{display:none}</style><symbol id="sparkles" viewBox="-2.8 -2.9 5.6 5.8"><path class="st0" d="M0-2.9c3.7 0 3.7 5.8 0 5.8s-3.7-5.8 0-5.8z"/></symbol><symbol id="star" viewBox="-1.2 -1.3 2.4 2.5"><path class="st1" d="M0-1.3c1.6 0 1.6 2.5 0 2.5s-1.6-2.5 0-2.5z"/></symbol><path class="st2" d="M0 2.4h768v1024H0z"/><use xlink:href="#sparkles" width="5.6" height="5.8" x="-2.8" y="-2.9" transform="matrix(1 0 0 -1 6.35 18.267)" overflow="visible"/><use xlink:href="#sparkles" width="5.6" height="5.8" x="-2.8" y="-2.9" transform="matrix(1 0 0 -1 206.62 50.492)" overflow="visible"/><use xlink:href="#sparkles" width="5.6" height="5.8" x="-2.8" y="-2.9" transform="matrix(1 0 0 -1 54.947 233.185)" overflow="visible"/><use xlink:href="#sparkles" width="5.6" height="5.8" x="-2.8" y="-2.9" transform="matrix(1 0 0 -1 595.557 44.735)" overflow="visible"/><use xlink:href="#sparkles" width="5.6" height="5.8" x="-2.8" y="-2.9" transform="matrix(1 0 0 -1 747.371 30.44)" overflow="visible"/><use xlink:href="#sparkles" width="5.6" height="5.8" x="-2.8" y="-2.9" transform="matrix(1 0 0 -1 308.926 311.999)" overflow="visible"/><use xlink:href="#sparkles" width="5.6" height="5.8" x="-2.8" y="-2.9" transform="matrix(1 0 0 -1 242.615 201.428)" overflow="visible"/><use xlink:href="#sparkles" width="5.6" height="5.8" x="-2.8" y="-2.9" transform="matrix(1 0 0 -1 651.05 234.786)" overflow="visible"/><use xlink:href="#sparkles" width="5.6" height="5.8" x="-2.8" y="-2.9" transform="matrix(1 0 0 -1 750.799 434.578)" overflow="visible"/><use xlink:href="#sparkles" width="5.6" height="5.8" x="-2.8" y="-2.9" transform="matrix(1 0 0 -1 10.18 407.352)" overflow="visible"/><use xlink:href="#sparkles" width="5.6" height="5.8" x="-2.8" y="-2.9" transform="matrix(1 0 0 -1 313.58 518.307)" overflow="visible"/><use xlink:href="#sparkles" width="5.6" height="5.8" x="-2.8" y="-2.9" transform="matrix(1 0 0 -1 683.226 519.092)" overflow="visible"/><use xlink:href="#sparkles" width="5.6" height="5.8" x="-2.8" y="-2.9" transform="matrix(1 0 0 -1 516.68 417.56)" overflow="visible"/><use xlink:href="#sparkles" width="5.6" height="5.8" x="-2.8" y="-2.9" transform="matrix(1 0 0 -1 414.135 5.31)" overflow="visible"/><use xlink:href="#sparkles" width="5.6" height="5.8" x="-2.8" y="-2.9" transform="matrix(1 0 0 -1 755.909 149.582)" overflow="visible"/><use xlink:href="#star" width="2.4" height="2.5" x="-1.2" y="-1.3" transform="matrix(1 0 0 -1 23.345 37.43)" overflow="visible"/><use xlink:href="#star" width="2.4" height="2.5" x="-1.2" y="-1.3" transform="matrix(1 0 0 -1 134.191 38.445)" overflow="visible"/><use xlink:href="#star" width="2.4" height="2.5" x="-1.2" y="-1.3" transform="matrix(1 0 0 -1 88.589 187.342)" overflow="visible"/><use xlink:href="#star" width="2.4" height="2.5" x="-1.2" y="-1.3" transform="matrix(1 0 0 -1 287.064 141.01)" overflow="visible"/><use xlink:href="#star" width="2.4" height="2.5" x="-1.2" y="-1.3" transform="matrix(1 0 0 -1 82.055 108.913)" overflow="visible"/><use xlink:href="#star" width="2.4" height="2.5" x="-1.2" y="-1.3" transform="matrix(1 0 0 -1 54.16 196.446)" overflow="visible"/><use xlink:href="#star" width="2.4" height="2.5" x="-1.2" y="-1.3" transform="matrix(1 0 0 -1 177.32 315.942)" overflow="visible"/><use xlink:href="#star" width="2.4" height="2.5" x="-1.2" y="-1.3" transform="matrix(1 0 0 -1 465.493 226.556)" overflow="visible"/><use xlink:href="#star" width="2.4" height="2.5" x="-1.2" y="-1.3" transform="matrix(1 0 0 -1 602.905 335.141)" overflow="visible"/><use xlink:href="#star" width="2.4" height="2.5" x="-1.2" y="-1.3" transform="matrix(1 0 0 -1 461.117 90.005)" overflow="visible"/><use xlink:href="#star" width="2.4" height="2.5" x="-1.2" y="-1.3" transform="matrix(1 0 0 -1 291.046 56.552)" overflow="visible"/><use xlink:href="#star" width="2.4" height="2.5" x="-1.2" y="-1.3" transform="matrix(1 0 0 -1 630.82 46.574)" overflow="visible"/><use xlink:href="#star" width="2.4" height="2.5" x="-1.2" y="-1.3" transform="matrix(1 0 0 -1 714.81 152.576)" overflow="visible"/><use xlink:href="#star" width="2.4" height="2.5" x="-1.2" y="-1.3" transform="matrix(1 0 0 -1 738.284 78.176)" overflow="visible"/><use xlink:href="#star" width="2.4" height="2.5" x="-1.2" y="-1.3" transform="matrix(1 0 0 -1 572.806 139.476)" overflow="visible"/><use xlink:href="#star" width="2.4" height="2.5" x="-1.2" y="-1.3" transform="matrix(1 0 0 -1 743.745 332.976)" overflow="visible"/><use xlink:href="#star" width="2.4" height="2.5" x="-1.2" y="-1.3" transform="matrix(1 0 0 -1 613.809 478.85)" overflow="visible"/><use xlink:href="#star" width="2.4" height="2.5" x="-1.2" y="-1.3" transform="matrix(1 0 0 -1 454.49 328.942)" overflow="visible"/><use xlink:href="#star" width="2.4" height="2.5" x="-1.2" y="-1.3" transform="matrix(1 0 0 -1 348.709 515.222)" overflow="visible"/><use xlink:href="#star" width="2.4" height="2.5" x="-1.2" y="-1.3" transform="matrix(1 0 0 -1 225.74 380.447)" overflow="visible"/><use xlink:href="#star" width="2.4" height="2.5" x="-1.2" y="-1.3" transform="matrix(1 0 0 -1 504.448 506.366)" overflow="visible"/><use xlink:href="#star" width="2.4" height="2.5" x="-1.2" y="-1.3" transform="matrix(1 0 0 -1 367.037 403.637)" overflow="visible"/><use xlink:href="#star" width="2.4" height="2.5" x="-1.2" y="-1.3" transform="matrix(1 0 0 -1 77.814 341.152)" overflow="visible"/><use xlink:href="#star" width="2.4" height="2.5" x="-1.2" y="-1.3" transform="matrix(1 0 0 -1 22.464 249.117)" overflow="visible"/><use xlink:href="#star" width="2.4" height="2.5" x="-1.2" y="-1.3" transform="matrix(1 0 0 -1 28.276 247.603)" overflow="visible"/><use xlink:href="#star" width="2.4" height="2.5" x="-1.2" y="-1.3" transform="matrix(1 0 0 -1 119.03 500.239)" overflow="visible"/><use xlink:href="#star" width="2.4" height="2.5" x="-1.2" y="-1.3" transform="matrix(1 0 0 -1 42.63 459.966)" overflow="visible"/><use xlink:href="#star" width="2.4" height="2.5" x="-1.2" y="-1.3" transform="matrix(1 0 0 -1 404.343 594.576)" overflow="visible"/><use xlink:href="#star" width="2.4" height="2.5" x="-1.2" y="-1.3" transform="matrix(1 0 0 -1 177.593 611.815)" overflow="visible"/><use xlink:href="#star" width="2.4" height="2.5" x="-1.2" y="-1.3" transform="matrix(1 0 0 -1 62.356 598.683)" overflow="visible"/><use xlink:href="#star" width="2.4" height="2.5" x="-1.2" y="-1.3" transform="matrix(1 0 0 -1 708.304 592.505)" overflow="visible"/><use xlink:href="#star" width="2.4" height="2.5" x="-1.2" y="-1.3" transform="matrix(1 0 0 -1 703.016 660.684)" overflow="visible"/><use xlink:href="#star" width="2.4" height="2.5" x="-1.2" y="-1.3" transform="matrix(1 0 0 -1 169.64 508.41)" overflow="visible"/><use xlink:href="#star" width="2.4" height="2.5" x="-1.2" y="-1.3" transform="matrix(1 0 0 -1 576.618 559.61)" overflow="visible"/><use xlink:href="#star" width="2.4" height="2.5" x="-1.2" y="-1.3" transform="matrix(1 0 0 -1 700.198 385.24)" overflow="visible"/><use xlink:href="#star" width="2.4" height="2.5" x="-1.2" y="-1.3" transform="matrix(1 0 0 -1 434.288 393.55)" overflow="visible"/><use xlink:href="#star" width="2.4" height="2.5" x="-1.2" y="-1.3" transform="matrix(1 0 0 -1 381.248 245.536)" overflow="visible"/><use xlink:href="#star" width="2.4" height="2.5" x="-1.2" y="-1.3" transform="matrix(1 0 0 -1 21.767 638.918)" overflow="visible"/><use xlink:href="#star" width="2.4" height="2.5" x="-1.2" y="-1.3" transform="matrix(1 0 0 -1 394.14 640.072)" overflow="visible"/><use xlink:href="#sparkles" width="5.6" height="5.8" x="-2.8" y="-2.9" transform="rotate(180 239.954 84.634)" overflow="visible"/><use xlink:href="#sparkles" width="5.6" height="5.8" x="-2.8" y="-2.9" transform="rotate(180 279.82 335.746)" overflow="visible"/><use xlink:href="#sparkles" width="5.6" height="5.8" x="-2.8" y="-2.9" transform="rotate(180 360.656 397.092)" overflow="visible"/><use xlink:href="#sparkles" width="5.6" height="5.8" x="-2.8" y="-2.9" transform="rotate(180 39.444 335.72)" overflow="visible"/><use xlink:href="#sparkles" width="5.6" height="5.8" x="-2.8" y="-2.9" transform="rotate(180 261.822 411.214)" overflow="visible"/><use xlink:href="#sparkles" width="5.6" height="5.8" x="-2.8" y="-2.9" transform="rotate(180 92.604 432.893)" overflow="visible"/><use xlink:href="#sparkles" width="5.6" height="5.8" x="-2.8" y="-2.9" transform="rotate(180 176.062 313.155)" overflow="visible"/><use xlink:href="#star" width="2.4" height="2.5" x="-1.2" y="-1.3" transform="rotate(180 371.457 329.215)" overflow="visible"/><use xlink:href="#star" width="2.4" height="2.5" x="-1.2" y="-1.3" transform="rotate(180 316.034 329.722)" overflow="visible"/><use xlink:href="#star" width="2.4" height="2.5" x="-1.2" y="-1.3" transform="rotate(180 338.835 404.171)" overflow="visible"/><use xlink:href="#star" width="2.4" height="2.5" x="-1.2" y="-1.3" transform="rotate(180 239.597 381.005)" overflow="visible"/><use xlink:href="#star" width="2.4" height="2.5" x="-1.2" y="-1.3" transform="rotate(180 342.102 364.956)" overflow="visible"/><use xlink:href="#star" width="2.4" height="2.5" x="-1.2" y="-1.3" transform="rotate(180 356.05 408.723)" overflow="visible"/><use xlink:href="#star" width="2.4" height="2.5" x="-1.2" y="-1.3" transform="rotate(180 294.47 468.47)" overflow="visible"/><use xlink:href="#star" width="2.4" height="2.5" x="-1.2" y="-1.3" transform="rotate(180 150.383 423.778)" overflow="visible"/><use xlink:href="#star" width="2.4" height="2.5" x="-1.2" y="-1.3" transform="rotate(180 81.677 478.07)" overflow="visible"/><use xlink:href="#star" width="2.4" height="2.5" x="-1.2" y="-1.3" transform="rotate(180 152.571 355.502)" overflow="visible"/><use xlink:href="#star" width="2.4" height="2.5" x="-1.2" y="-1.3" transform="rotate(180 237.606 338.776)" overflow="visible"/><use xlink:href="#star" width="2.4" height="2.5" x="-1.2" y="-1.3" transform="rotate(180 67.72 333.787)" overflow="visible"/><use xlink:href="#star" width="2.4" height="2.5" x="-1.2" y="-1.3" transform="rotate(180 25.725 386.788)" overflow="visible"/><use xlink:href="#star" width="2.4" height="2.5" x="-1.2" y="-1.3" transform="rotate(180 13.987 349.588)" overflow="visible"/><use xlink:href="#star" width="2.4" height="2.5" x="-1.2" y="-1.3" transform="rotate(180 96.726 380.238)" overflow="visible"/><use xlink:href="#star" width="2.4" height="2.5" x="-1.2" y="-1.3" transform="rotate(180 11.257 476.988)" overflow="visible"/><use xlink:href="#star" width="2.4" height="2.5" x="-1.2" y="-1.3" transform="rotate(180 155.884 474.971)" overflow="visible"/><use xlink:href="#star" width="2.4" height="2.5" x="-1.2" y="-1.3" transform="rotate(180 270.26 500.724)" overflow="visible"/><use xlink:href="#star" width="2.4" height="2.5" x="-1.2" y="-1.3" transform="rotate(180 344.222 481.076)" overflow="visible"/><use xlink:href="#star" width="2.4" height="2.5" x="-1.2" y="-1.3" transform="rotate(180 371.898 435.058)" overflow="visible"/><use xlink:href="#star" width="2.4" height="2.5" x="-1.2" y="-1.3" transform="rotate(180 368.992 434.302)" overflow="visible"/><use xlink:href="#star" width="2.4" height="2.5" x="-1.2" y="-1.3" transform="rotate(180 31.622 640.842)" overflow="visible"/><use xlink:href="#star" width="2.4" height="2.5" x="-1.2" y="-1.3" transform="rotate(180 33.03 503.12)" overflow="visible"/><use xlink:href="#star" width="2.4" height="2.5" x="-1.2" y="-1.3" transform="rotate(180 165.985 507.275)" overflow="visible"/><use xlink:href="#star" width="2.4" height="2.5" x="-1.2" y="-1.3" transform="rotate(180 192.506 433.268)" overflow="visible"/></svg>