<svg id="Layer_1" xmlns="http://www.w3.org/2000/svg" xmlns:xlink="http://www.w3.org/1999/xlink" viewBox="0 0 1920 972"><style>.st0{fill:#d8d8d8}.st1{fill:#595959}</style><symbol id="sparkles" viewBox="-2.8 -2.9 5.6 5.8"><path class="st0" d="M0-2.9c3.7 0 3.7 5.8 0 5.8s-3.7-5.8 0-5.8z"/></symbol><symbol id="star" viewBox="-1.2 -1.3 2.4 2.5"><path class="st1" d="M0-1.3c1.6 0 1.6 2.5 0 2.5s-1.6-2.5 0-2.5z"/></symbol><use xlink:href="#sparkles" width="5.6" height="5.8" x="-2.8" y="-2.9" transform="matrix(1 0 0 -1 1716.549 366.04)" overflow="visible"/><use xlink:href="#sparkles" width="5.6" height="5.8" x="-2.8" y="-2.9" transform="matrix(1 0 0 -1 681.836 682.235)" overflow="visible"/><use xlink:href="#sparkles" width="5.6" height="5.8" x="-2.8" y="-2.9" transform="matrix(1 0 0 -1 11.336 15.439)" overflow="visible"/><use xlink:href="#sparkles" width="5.6" height="5.8" x="-2.8" y="-2.9" transform="matrix(1 0 0 -1 1872.802 189.676)" overflow="visible"/><use xlink:href="#sparkles" width="5.6" height="5.8" x="-2.8" y="-2.9" transform="matrix(1 0 0 -1 1890.777 640.26)" overflow="visible"/><use xlink:href="#sparkles" width="5.6" height="5.8" x="-2.8" y="-2.9" transform="matrix(1 0 0 -1 141.273 720.724)" overflow="visible"/><use xlink:href="#sparkles" width="5.6" height="5.8" x="-2.8" y="-2.9" transform="matrix(1 0 0 -1 73.172 378.008)" overflow="visible"/><use xlink:href="#sparkles" width="5.6" height="5.8" x="-2.8" y="-2.9" transform="matrix(1 0 0 -1 359.836 179.309)" overflow="visible"/><use xlink:href="#sparkles" width="5.6" height="5.8" x="-2.8" y="-2.9" transform="matrix(1 0 0 -1 874.037 77.323)" overflow="visible"/><use xlink:href="#sparkles" width="5.6" height="5.8" x="-2.8" y="-2.9" transform="matrix(1 0 0 -1 1384.334 760.516)" overflow="visible"/><use xlink:href="#sparkles" width="5.6" height="5.8" x="-2.8" y="-2.9" transform="matrix(1 0 0 -1 333.826 840.675)" overflow="visible"/><use xlink:href="#sparkles" width="5.6" height="5.8" x="-2.8" y="-2.9" transform="matrix(1 0 0 -1 1330.175 169.702)" overflow="visible"/><use xlink:href="#star" width="2.4" height="2.5" x="-1.2" y="-1.3" transform="matrix(1 0 0 -1 789.9 233.724)" overflow="visible"/><use xlink:href="#star" width="2.4" height="2.5" x="-1.2" y="-1.3" transform="matrix(1 0 0 -1 739.82 317.867)" overflow="visible"/><use xlink:href="#star" width="2.4" height="2.5" x="-1.2" y="-1.3" transform="matrix(1 0 0 -1 1022.116 463.825)" overflow="visible"/><use xlink:href="#star" width="2.4" height="2.5" x="-1.2" y="-1.3" transform="matrix(1 0 0 -1 1442.455 439.801)" overflow="visible"/><use xlink:href="#star" width="2.4" height="2.5" x="-1.2" y="-1.3" transform="matrix(1 0 0 -1 1624.174 325.79)" overflow="visible"/><use xlink:href="#star" width="2.4" height="2.5" x="-1.2" y="-1.3" transform="matrix(1 0 0 -1 1634.254 133.594)" overflow="visible"/><use xlink:href="#star" width="2.4" height="2.5" x="-1.2" y="-1.3" transform="matrix(1 0 0 -1 1296.038 85.178)" overflow="visible"/><use xlink:href="#star" width="2.4" height="2.5" x="-1.2" y="-1.3" transform="matrix(1 0 0 -1 1048.151 109.468)" overflow="visible"/><use xlink:href="#star" width="2.4" height="2.5" x="-1.2" y="-1.3" transform="matrix(1 0 0 -1 811.76 141.558)" overflow="visible"/><use xlink:href="#star" width="2.4" height="2.5" x="-1.2" y="-1.3" transform="matrix(1 0 0 -1 361.881 216.363)" overflow="visible"/><use xlink:href="#star" width="2.4" height="2.5" x="-1.2" y="-1.3" transform="matrix(1 0 0 -1 137.71 343.696)" overflow="visible"/><use xlink:href="#star" width="2.4" height="2.5" x="-1.2" y="-1.3" transform="matrix(1 0 0 -1 265.705 473.949)" overflow="visible"/><use xlink:href="#star" width="2.4" height="2.5" x="-1.2" y="-1.3" transform="matrix(1 0 0 -1 467.808 590.014)" overflow="visible"/><use xlink:href="#star" width="2.4" height="2.5" x="-1.2" y="-1.3" transform="matrix(1 0 0 -1 966.81 630.28)" overflow="visible"/><use xlink:href="#star" width="2.4" height="2.5" x="-1.2" y="-1.3" transform="matrix(1 0 0 -1 965.44 625.79)" overflow="visible"/><use xlink:href="#star" width="2.4" height="2.5" x="-1.2" y="-1.3" transform="matrix(1 0 0 -1 1628.336 706.39)" overflow="visible"/><use xlink:href="#star" width="2.4" height="2.5" x="-1.2" y="-1.3" transform="matrix(1 0 0 -1 1758.434 682.29)" overflow="visible"/><use xlink:href="#star" width="2.4" height="2.5" x="-1.2" y="-1.3" transform="matrix(1 0 0 -1 531.853 806.52)" overflow="visible"/><use xlink:href="#star" width="2.4" height="2.5" x="-1.2" y="-1.3" transform="matrix(1 0 0 -1 216.232 756.478)" overflow="visible"/><use xlink:href="#star" width="2.4" height="2.5" x="-1.2" y="-1.3" transform="matrix(1 0 0 -1 185.56 756.723)" overflow="visible"/><use xlink:href="#star" width="2.4" height="2.5" x="-1.2" y="-1.3" transform="matrix(1 0 0 -1 139.066 702.474)" overflow="visible"/><use xlink:href="#star" width="2.4" height="2.5" x="-1.2" y="-1.3" transform="matrix(1 0 0 -1 72.871 774.632)" overflow="visible"/><use xlink:href="#star" width="2.4" height="2.5" x="-1.2" y="-1.3" transform="matrix(1 0 0 -1 1411.993 464.18)" overflow="visible"/><use xlink:href="#star" width="2.4" height="2.5" x="-1.2" y="-1.3" transform="matrix(1 0 0 -1 1890.85 377.983)" overflow="visible"/><use xlink:href="#star" width="2.4" height="2.5" x="-1.2" y="-1.3" transform="matrix(1 0 0 -1 59.306 163.682)" overflow="visible"/><use xlink:href="#star" width="2.4" height="2.5" x="-1.2" y="-1.3" transform="matrix(1 0 0 -1 235.761 29.188)" overflow="visible"/><use xlink:href="#star" width="2.4" height="2.5" x="-1.2" y="-1.3" transform="matrix(1 0 0 -1 179.555 97.497)" overflow="visible"/><use xlink:href="#star" width="2.4" height="2.5" x="-1.2" y="-1.3" transform="matrix(1 0 0 -1 1586.181 29.23)" overflow="visible"/><use xlink:href="#star" width="2.4" height="2.5" x="-1.2" y="-1.3" transform="matrix(1 0 0 -1 1706.455 43.145)" overflow="visible"/><use xlink:href="#star" width="2.4" height="2.5" x="-1.2" y="-1.3" transform="matrix(1 0 0 -1 1742.635 99.5)" overflow="visible"/><use xlink:href="#star" width="2.4" height="2.5" x="-1.2" y="-1.3" transform="matrix(1 0 0 -1 1268.154 622.128)" overflow="visible"/><use xlink:href="#star" width="2.4" height="2.5" x="-1.2" y="-1.3" transform="matrix(1 0 0 -1 909.926 789.108)" overflow="visible"/><use xlink:href="#star" width="2.4" height="2.5" x="-1.2" y="-1.3" transform="matrix(1 0 0 -1 909.307 783.978)" overflow="visible"/><use xlink:href="#star" width="2.4" height="2.5" x="-1.2" y="-1.3" transform="matrix(1 0 0 -1 825.673 796.599)" overflow="visible"/><use xlink:href="#star" width="2.4" height="2.5" x="-1.2" y="-1.3" transform="matrix(1 0 0 -1 931.25 786.55)" overflow="visible"/><use xlink:href="#star" width="2.4" height="2.5" x="-1.2" y="-1.3" transform="matrix(1 0 0 -1 1228.135 808.57)" overflow="visible"/><use xlink:href="#star" width="2.4" height="2.5" x="-1.2" y="-1.3" transform="matrix(1 0 0 -1 1794.554 778.622)" overflow="visible"/><use xlink:href="#sparkles" width="5.6" height="5.8" x="-2.8" y="-2.9" transform="matrix(1 0 0 -1 631.703 367.896)" overflow="visible"/><use xlink:href="#sparkles" width="5.6" height="5.8" x="-2.8" y="-2.9" transform="matrix(1 0 0 -1 1216.183 492.166)" overflow="visible"/><use xlink:href="#sparkles" width="5.6" height="5.8" x="-2.8" y="-2.9" transform="matrix(1 0 0 -1 1438.439 407.947)" overflow="visible"/><use xlink:href="#sparkles" width="5.6" height="5.8" x="-2.8" y="-2.9" transform="matrix(1 0 0 -1 423.487 486.119)" overflow="visible"/><use xlink:href="#sparkles" width="5.6" height="5.8" x="-2.8" y="-2.9" transform="matrix(1 0 0 -1 1002.032 840.65)" overflow="visible"/><use xlink:href="#sparkles" width="5.6" height="5.8" x="-2.8" y="-2.9" transform="matrix(1 0 0 -1 962.03 307.817)" overflow="visible"/><use xlink:href="#sparkles" width="5.6" height="5.8" x="-2.8" y="-2.9" transform="matrix(1 0 0 -1 115.599 189.893)" overflow="visible"/><use xlink:href="#sparkles" width="5.6" height="5.8" x="-2.8" y="-2.9" transform="matrix(1 0 0 -1 1770.254 844.316)" overflow="visible"/><use xlink:href="#star" width="2.4" height="2.5" x="-1.2" y="-1.3" transform="matrix(1 0 0 -1 1068.266 710.25)" overflow="visible"/><use xlink:href="#star" width="2.4" height="2.5" x="-1.2" y="-1.3" transform="matrix(1 0 0 -1 511.65 846.525)" overflow="visible"/><use xlink:href="#star" width="2.4" height="2.5" x="-1.2" y="-1.3" transform="matrix(1 0 0 -1 821.776 924.603)" overflow="visible"/><use xlink:href="#star" width="2.4" height="2.5" x="-1.2" y="-1.3" transform="matrix(1 0 0 -1 1582.132 824.361)" overflow="visible"/><use xlink:href="#star" width="2.4" height="2.5" x="-1.2" y="-1.3" transform="matrix(1 0 0 -1 989.864 740.234)" overflow="visible"/><use xlink:href="#star" width="2.4" height="2.5" x="-1.2" y="-1.3" transform="matrix(1 0 0 -1 775.903 392.023)" overflow="visible"/><use xlink:href="#star" width="2.4" height="2.5" x="-1.2" y="-1.3" transform="matrix(1 0 0 -1 1276.261 377.755)" overflow="visible"/><use xlink:href="#star" width="2.4" height="2.5" x="-1.2" y="-1.3" transform="matrix(1 0 0 -1 957.97 500.176)" overflow="visible"/><use xlink:href="#star" width="2.4" height="2.5" x="-1.2" y="-1.3" transform="matrix(1 0 0 -1 629.797 586.319)" overflow="visible"/><use xlink:href="#star" width="2.4" height="2.5" x="-1.2" y="-1.3" transform="matrix(1 0 0 -1 505.6 668.421)" overflow="visible"/><use xlink:href="#star" width="2.4" height="2.5" x="-1.2" y="-1.3" transform="matrix(1 0 0 -1 57.464 542.205)" overflow="visible"/><use xlink:href="#star" width="2.4" height="2.5" x="-1.2" y="-1.3" transform="matrix(1 0 0 -1 209.827 109.582)" overflow="visible"/><use xlink:href="#star" width="2.4" height="2.5" x="-1.2" y="-1.3" transform="matrix(1 0 0 -1 69.497 33.5)" overflow="visible"/><use xlink:href="#star" width="2.4" height="2.5" x="-1.2" y="-1.3" transform="matrix(1 0 0 -1 25.181 211.992)" overflow="visible"/><use xlink:href="#star" width="2.4" height="2.5" x="-1.2" y="-1.3" transform="matrix(1 0 0 -1 749.824 49.388)" overflow="visible"/><use xlink:href="#star" width="2.4" height="2.5" x="-1.2" y="-1.3" transform="matrix(1 0 0 -1 1144.178 149.554)" overflow="visible"/><use xlink:href="#star" width="2.4" height="2.5" x="-1.2" y="-1.3" transform="matrix(1 0 0 -1 515.59 247.612)" overflow="visible"/><use xlink:href="#star" width="2.4" height="2.5" x="-1.2" y="-1.3" transform="matrix(1 0 0 -1 1694.377 640.026)" overflow="visible"/><use xlink:href="#star" width="2.4" height="2.5" x="-1.2" y="-1.3" transform="matrix(1 0 0 -1 1878.69 804.036)" overflow="visible"/><use xlink:href="#star" width="2.4" height="2.5" x="-1.2" y="-1.3" transform="matrix(1 0 0 -1 1870.625 892.53)" overflow="visible"/><use xlink:href="#star" width="2.4" height="2.5" x="-1.2" y="-1.3" transform="matrix(1 0 0 -1 1876.519 273.943)" overflow="visible"/><use xlink:href="#star" width="2.4" height="2.5" x="-1.2" y="-1.3" transform="matrix(1 0 0 -1 1682.368 185.785)" overflow="visible"/><use xlink:href="#star" width="2.4" height="2.5" x="-1.2" y="-1.3" transform="matrix(1 0 0 -1 1890.514 71.866)" overflow="visible"/><use xlink:href="#star" width="2.4" height="2.5" x="-1.2" y="-1.3" transform="matrix(1 0 0 -1 1874.388 9.485)" overflow="visible"/><use xlink:href="#star" width="2.4" height="2.5" x="-1.2" y="-1.3" transform="matrix(1 0 0 -1 1550.267 33.556)" overflow="visible"/><use xlink:href="#star" width="2.4" height="2.5" x="-1.2" y="-1.3" transform="matrix(1 0 0 -1 1230.248 61.421)" overflow="visible"/><use xlink:href="#star" width="2.4" height="2.5" x="-1.2" y="-1.3" transform="matrix(1 0 0 -1 1000.034 165.426)" overflow="visible"/><use xlink:href="#star" width="2.4" height="2.5" x="-1.2" y="-1.3" transform="matrix(1 0 0 -1 797.821 227.565)" overflow="visible"/></svg>