<svg id="Layer_1" xmlns="http://www.w3.org/2000/svg" xmlns:xlink="http://www.w3.org/1999/xlink" viewBox="0 0 1242 2208"><style>.st0{fill:#d8d8d8}.st1{fill:#595959}</style><symbol id="sparkles" viewBox="-2.8 -2.9 5.6 5.8"><path class="st0" d="M0-2.9c3.7 0 3.7 5.8 0 5.8s-3.7-5.8 0-5.8z"/></symbol><symbol id="star" viewBox="-1.2 -1.3 2.4 2.5"><path class="st1" d="M0-1.3c1.6 0 1.6 2.5 0 2.5s-1.6-2.5 0-2.5z"/></symbol><use xlink:href="#star" width="2.4" height="2.5" x="-1.2" y="-1.3" transform="matrix(1 0 0 -1 75.578 102.692)" overflow="visible"/><use xlink:href="#star" width="2.4" height="2.5" x="-1.2" y="-1.3" transform="matrix(1 0 0 -1 517.838 222.095)" overflow="visible"/><use xlink:href="#star" width="2.4" height="2.5" x="-1.2" y="-1.3" transform="matrix(1 0 0 -1 1046.715 152.245)" overflow="visible"/><use xlink:href="#star" width="2.4" height="2.5" x="-1.2" y="-1.3" transform="matrix(1 0 0 -1 1110.852 52.086)" overflow="visible"/><use xlink:href="#star" width="2.4" height="2.5" x="-1.2" y="-1.3" transform="matrix(1 0 0 -1 382.315 51.634)" overflow="visible"/><use xlink:href="#star" width="2.4" height="2.5" x="-1.2" y="-1.3" transform="matrix(1 0 0 -1 820.044 25.958)" overflow="visible"/><use xlink:href="#star" width="2.4" height="2.5" x="-1.2" y="-1.3" transform="matrix(1 0 0 -1 33.146 228.624)" overflow="visible"/><use xlink:href="#star" width="2.4" height="2.5" x="-1.2" y="-1.3" transform="matrix(1 0 0 -1 12.881 130.487)" overflow="visible"/><use xlink:href="#star" width="2.4" height="2.5" x="-1.2" y="-1.3" transform="matrix(1 0 0 -1 205.466 568.795)" overflow="visible"/><use xlink:href="#star" width="2.4" height="2.5" x="-1.2" y="-1.3" transform="matrix(1 0 0 -1 910.323 648.746)" overflow="visible"/><use xlink:href="#star" width="2.4" height="2.5" x="-1.2" y="-1.3" transform="matrix(1 0 0 -1 1207.22 498.583)" overflow="visible"/><use xlink:href="#star" width="2.4" height="2.5" x="-1.2" y="-1.3" transform="matrix(1 0 0 -1 1066.722 425.777)" overflow="visible"/><use xlink:href="#star" width="2.4" height="2.5" x="-1.2" y="-1.3" transform="matrix(1 0 0 -1 518.31 518.518)" overflow="visible"/><use xlink:href="#star" width="2.4" height="2.5" x="-1.2" y="-1.3" transform="matrix(1 0 0 -1 800.164 576.52)" overflow="visible"/><use xlink:href="#star" width="2.4" height="2.5" x="-1.2" y="-1.3" transform="matrix(1 0 0 -1 828.13 350.412)" overflow="visible"/><use xlink:href="#star" width="2.4" height="2.5" x="-1.2" y="-1.3" transform="matrix(1 0 0 -1 299.563 400.39)" overflow="visible"/><use xlink:href="#star" width="2.4" height="2.5" x="-1.2" y="-1.3" transform="matrix(1 0 0 -1 115.2 432.142)" overflow="visible"/><use xlink:href="#star" width="2.4" height="2.5" x="-1.2" y="-1.3" transform="matrix(1 0 0 -1 16.808 780.774)" overflow="visible"/><use xlink:href="#star" width="2.4" height="2.5" x="-1.2" y="-1.3" transform="matrix(1 0 0 -1 371.657 758.929)" overflow="visible"/><use xlink:href="#star" width="2.4" height="2.5" x="-1.2" y="-1.3" transform="matrix(1 0 0 -1 970.255 947.154)" overflow="visible"/><use xlink:href="#star" width="2.4" height="2.5" x="-1.2" y="-1.3" transform="matrix(1 0 0 -1 1106.926 758.862)" overflow="visible"/><use xlink:href="#star" width="2.4" height="2.5" x="-1.2" y="-1.3" transform="matrix(1 0 0 -1 624.091 915.033)" overflow="visible"/><use xlink:href="#star" width="2.4" height="2.5" x="-1.2" y="-1.3" transform="matrix(1 0 0 -1 624.185 910.95)" overflow="visible"/><use xlink:href="#star" width="2.4" height="2.5" x="-1.2" y="-1.3" transform="matrix(1 0 0 -1 541.806 1133.631)" overflow="visible"/><use xlink:href="#star" width="2.4" height="2.5" x="-1.2" y="-1.3" transform="matrix(1 0 0 -1 167.59 1035.44)" overflow="visible"/><use xlink:href="#star" width="2.4" height="2.5" x="-1.2" y="-1.3" transform="matrix(1 0 0 -1 491.546 913.04)" overflow="visible"/><use xlink:href="#star" width="2.4" height="2.5" x="-1.2" y="-1.3" transform="matrix(1 0 0 -1 938.233 1089.411)" overflow="visible"/><use xlink:href="#star" width="2.4" height="2.5" x="-1.2" y="-1.3" transform="matrix(1 0 0 -1 1154.4 1033.666)" overflow="visible"/><use xlink:href="#star" width="2.4" height="2.5" x="-1.2" y="-1.3" transform="matrix(1 0 0 -1 1213.149 1026.095)" overflow="visible"/><use xlink:href="#star" width="2.4" height="2.5" x="-1.2" y="-1.3" transform="matrix(1 0 0 -1 1189.26 1243.789)" overflow="visible"/><use xlink:href="#star" width="2.4" height="2.5" x="-1.2" y="-1.3" transform="matrix(1 0 0 -1 840.006 1255.702)" overflow="visible"/><use xlink:href="#star" width="2.4" height="2.5" x="-1.2" y="-1.3" transform="matrix(1 0 0 -1 345.536 1263.64)" overflow="visible"/><use xlink:href="#star" width="2.4" height="2.5" x="-1.2" y="-1.3" transform="matrix(1 0 0 -1 128 1173.426)" overflow="visible"/><use xlink:href="#star" width="2.4" height="2.5" x="-1.2" y="-1.3" transform="matrix(1 0 0 -1 127.05 1327.712)" overflow="visible"/><use xlink:href="#star" width="2.4" height="2.5" x="-1.2" y="-1.3" transform="matrix(1 0 0 -1 577.954 1476.21)" overflow="visible"/><use xlink:href="#star" width="2.4" height="2.5" x="-1.2" y="-1.3" transform="matrix(1 0 0 -1 950.308 1502.211)" overflow="visible"/><use xlink:href="#star" width="2.4" height="2.5" x="-1.2" y="-1.3" transform="matrix(1 0 0 -1 1102.397 920.903)" overflow="visible"/><use xlink:href="#sparkles" width="5.6" height="5.8" x="-2.8" y="-2.9" transform="matrix(1 0 0 -1 968.402 11.935)" overflow="visible"/><use xlink:href="#sparkles" width="5.6" height="5.8" x="-2.8" y="-2.9" transform="matrix(1 0 0 -1 347.527 76.207)" overflow="visible"/><use xlink:href="#sparkles" width="5.6" height="5.8" x="-2.8" y="-2.9" transform="matrix(1 0 0 -1 67.351 57.799)" overflow="visible"/><use xlink:href="#sparkles" width="5.6" height="5.8" x="-2.8" y="-2.9" transform="matrix(1 0 0 -1 1070.804 466.737)" overflow="visible"/><use xlink:href="#sparkles" width="5.6" height="5.8" x="-2.8" y="-2.9" transform="matrix(1 0 0 -1 109.075 494.76)" overflow="visible"/><use xlink:href="#sparkles" width="5.6" height="5.8" x="-2.8" y="-2.9" transform="matrix(1 0 0 -1 756.083 706.915)" overflow="visible"/><use xlink:href="#sparkles" width="5.6" height="5.8" x="-2.8" y="-2.9" transform="matrix(1 0 0 -1 614.015 322.288)" overflow="visible"/><use xlink:href="#sparkles" width="5.6" height="5.8" x="-2.8" y="-2.9" transform="matrix(1 0 0 -1 173.381 786.852)" overflow="visible"/><use xlink:href="#sparkles" width="5.6" height="5.8" x="-2.8" y="-2.9" transform="matrix(1 0 0 -1 1024.674 674.779)" overflow="visible"/><use xlink:href="#sparkles" width="5.6" height="5.8" x="-2.8" y="-2.9" transform="matrix(1 0 0 -1 1202.786 946.365)" overflow="visible"/><use xlink:href="#sparkles" width="5.6" height="5.8" x="-2.8" y="-2.9" transform="matrix(1 0 0 -1 1225.638 981.418)" overflow="visible"/><use xlink:href="#sparkles" width="5.6" height="5.8" x="-2.8" y="-2.9" transform="matrix(1 0 0 -1 467.556 530.696)" overflow="visible"/><use xlink:href="#sparkles" width="5.6" height="5.8" x="-2.8" y="-2.9" transform="matrix(1 0 0 -1 97.461 947.11)" overflow="visible"/><use xlink:href="#sparkles" width="5.6" height="5.8" x="-2.8" y="-2.9" transform="matrix(1 0 0 -1 32.529 957.255)" overflow="visible"/><use xlink:href="#sparkles" width="5.6" height="5.8" x="-2.8" y="-2.9" transform="matrix(1 0 0 -1 425.779 1331.991)" overflow="visible"/><use xlink:href="#sparkles" width="5.6" height="5.8" x="-2.8" y="-2.9" transform="matrix(1 0 0 -1 644.034 1277.86)" overflow="visible"/><use xlink:href="#sparkles" width="5.6" height="5.8" x="-2.8" y="-2.9" transform="matrix(1 0 0 -1 94.78 1181.704)" overflow="visible"/><use xlink:href="#sparkles" width="5.6" height="5.8" x="-2.8" y="-2.9" transform="matrix(1 0 0 -1 571.862 1001.467)" overflow="visible"/><use xlink:href="#sparkles" width="5.6" height="5.8" x="-2.8" y="-2.9" transform="matrix(1 0 0 -1 930.305 1297.928)" overflow="visible"/><use xlink:href="#sparkles" width="5.6" height="5.8" x="-2.8" y="-2.9" transform="matrix(1 0 0 -1 1116.62 1209.599)" overflow="visible"/><use xlink:href="#sparkles" width="5.6" height="5.8" x="-2.8" y="-2.9" transform="matrix(1 0 0 -1 1134.758 1354.131)" overflow="visible"/><use xlink:href="#sparkles" width="5.6" height="5.8" x="-2.8" y="-2.9" transform="matrix(1 0 0 -1 165.448 1382.165)" overflow="visible"/><use xlink:href="#sparkles" width="5.6" height="5.8" x="-2.8" y="-2.9" transform="matrix(1 0 0 -1 924.433 280.213)" overflow="visible"/></svg>