<svg id="Layer_1" xmlns="http://www.w3.org/2000/svg" xmlns:xlink="http://www.w3.org/1999/xlink" viewBox="0 0 768 1024"><style>.st0{fill:#d8d8d8}.st1{fill:#595959}</style><symbol id="sparkles" viewBox="-2.8 -2.9 5.6 5.8"><path class="st0" d="M0-2.9c3.7 0 3.7 5.8 0 5.8s-3.7-5.8 0-5.8z"/></symbol><symbol id="star" viewBox="-1.2 -1.3 2.4 2.5"><path class="st1" d="M0-1.3c1.6 0 1.6 2.5 0 2.5s-1.6-2.5 0-2.5z"/></symbol><use xlink:href="#sparkles" width="5.6" height="5.8" x="-2.8" y="-2.9" transform="matrix(1 0 0 -1 6.35 18.267)" overflow="visible"/><use xlink:href="#sparkles" width="5.6" height="5.8" x="-2.8" y="-2.9" transform="matrix(1 0 0 -1 206.62 50.492)" overflow="visible"/><use xlink:href="#sparkles" width="5.6" height="5.8" x="-2.8" y="-2.9" transform="matrix(1 0 0 -1 14.947 193.185)" overflow="visible"/><use xlink:href="#sparkles" width="5.6" height="5.8" x="-2.8" y="-2.9" transform="matrix(1 0 0 -1 535.557 84.735)" overflow="visible"/><use xlink:href="#sparkles" width="5.6" height="5.8" x="-2.8" y="-2.9" transform="matrix(1 0 0 -1 747.371 30.44)" overflow="visible"/><use xlink:href="#sparkles" width="5.6" height="5.8" x="-2.8" y="-2.9" transform="matrix(1 0 0 -1 308.926 311.999)" overflow="visible"/><use xlink:href="#sparkles" width="5.6" height="5.8" x="-2.8" y="-2.9" transform="matrix(1 0 0 -1 242.615 201.428)" overflow="visible"/><use xlink:href="#sparkles" width="5.6" height="5.8" x="-2.8" y="-2.9" transform="matrix(1 0 0 -1 651.05 234.786)" overflow="visible"/><use xlink:href="#sparkles" width="5.6" height="5.8" x="-2.8" y="-2.9" transform="matrix(1 0 0 -1 750.799 434.578)" overflow="visible"/><use xlink:href="#sparkles" width="5.6" height="5.8" x="-2.8" y="-2.9" transform="matrix(1 0 0 -1 10.18 407.352)" overflow="visible"/><use xlink:href="#sparkles" width="5.6" height="5.8" x="-2.8" y="-2.9" transform="matrix(1 0 0 -1 15.453 565.09)" overflow="visible"/><use xlink:href="#sparkles" width="5.6" height="5.8" x="-2.8" y="-2.9" transform="matrix(1 0 0 -1 313.58 518.307)" overflow="visible"/><use xlink:href="#sparkles" width="5.6" height="5.8" x="-2.8" y="-2.9" transform="matrix(1 0 0 -1 683.226 519.092)" overflow="visible"/><use xlink:href="#sparkles" width="5.6" height="5.8" x="-2.8" y="-2.9" transform="matrix(1 0 0 -1 516.68 417.56)" overflow="visible"/><use xlink:href="#sparkles" width="5.6" height="5.8" x="-2.8" y="-2.9" transform="matrix(1 0 0 -1 157.298 422.59)" overflow="visible"/><use xlink:href="#sparkles" width="5.6" height="5.8" x="-2.8" y="-2.9" transform="matrix(1 0 0 -1 414.135 5.31)" overflow="visible"/><use xlink:href="#sparkles" width="5.6" height="5.8" x="-2.8" y="-2.9" transform="matrix(1 0 0 -1 755.909 149.582)" overflow="visible"/><use xlink:href="#star" width="2.4" height="2.5" x="-1.2" y="-1.3" transform="matrix(1 0 0 -1 23.345 37.38)" overflow="visible"/><use xlink:href="#star" width="2.4" height="2.5" x="-1.2" y="-1.3" transform="matrix(1 0 0 -1 134.191 38.395)" overflow="visible"/><use xlink:href="#star" width="2.4" height="2.5" x="-1.2" y="-1.3" transform="matrix(1 0 0 -1 88.589 187.292)" overflow="visible"/><use xlink:href="#star" width="2.4" height="2.5" x="-1.2" y="-1.3" transform="matrix(1 0 0 -1 287.064 140.96)" overflow="visible"/><use xlink:href="#star" width="2.4" height="2.5" x="-1.2" y="-1.3" transform="matrix(1 0 0 -1 82.055 108.863)" overflow="visible"/><use xlink:href="#star" width="2.4" height="2.5" x="-1.2" y="-1.3" transform="matrix(1 0 0 -1 54.16 196.396)" overflow="visible"/><use xlink:href="#star" width="2.4" height="2.5" x="-1.2" y="-1.3" transform="matrix(1 0 0 -1 177.32 315.892)" overflow="visible"/><use xlink:href="#star" width="2.4" height="2.5" x="-1.2" y="-1.3" transform="matrix(1 0 0 -1 465.493 226.506)" overflow="visible"/><use xlink:href="#star" width="2.4" height="2.5" x="-1.2" y="-1.3" transform="matrix(1 0 0 -1 602.905 335.091)" overflow="visible"/><use xlink:href="#star" width="2.4" height="2.5" x="-1.2" y="-1.3" transform="matrix(1 0 0 -1 461.117 89.955)" overflow="visible"/><use xlink:href="#star" width="2.4" height="2.5" x="-1.2" y="-1.3" transform="matrix(1 0 0 -1 291.046 56.502)" overflow="visible"/><use xlink:href="#star" width="2.4" height="2.5" x="-1.2" y="-1.3" transform="matrix(1 0 0 -1 630.82 46.524)" overflow="visible"/><use xlink:href="#star" width="2.4" height="2.5" x="-1.2" y="-1.3" transform="matrix(1 0 0 -1 714.81 152.526)" overflow="visible"/><use xlink:href="#star" width="2.4" height="2.5" x="-1.2" y="-1.3" transform="matrix(1 0 0 -1 738.284 78.126)" overflow="visible"/><use xlink:href="#star" width="2.4" height="2.5" x="-1.2" y="-1.3" transform="matrix(1 0 0 -1 572.806 139.426)" overflow="visible"/><use xlink:href="#star" width="2.4" height="2.5" x="-1.2" y="-1.3" transform="matrix(1 0 0 -1 743.745 332.926)" overflow="visible"/><use xlink:href="#star" width="2.4" height="2.5" x="-1.2" y="-1.3" transform="matrix(1 0 0 -1 613.809 478.8)" overflow="visible"/><use xlink:href="#star" width="2.4" height="2.5" x="-1.2" y="-1.3" transform="matrix(1 0 0 -1 454.49 328.892)" overflow="visible"/><use xlink:href="#star" width="2.4" height="2.5" x="-1.2" y="-1.3" transform="matrix(1 0 0 -1 348.709 515.172)" overflow="visible"/><use xlink:href="#star" width="2.4" height="2.5" x="-1.2" y="-1.3" transform="matrix(1 0 0 -1 225.74 380.397)" overflow="visible"/><use xlink:href="#star" width="2.4" height="2.5" x="-1.2" y="-1.3" transform="matrix(1 0 0 -1 504.448 506.316)" overflow="visible"/><use xlink:href="#star" width="2.4" height="2.5" x="-1.2" y="-1.3" transform="matrix(1 0 0 -1 367.037 403.587)" overflow="visible"/><use xlink:href="#star" width="2.4" height="2.5" x="-1.2" y="-1.3" transform="matrix(1 0 0 -1 77.814 341.102)" overflow="visible"/><use xlink:href="#star" width="2.4" height="2.5" x="-1.2" y="-1.3" transform="matrix(1 0 0 -1 22.464 249.067)" overflow="visible"/><use xlink:href="#star" width="2.4" height="2.5" x="-1.2" y="-1.3" transform="matrix(1 0 0 -1 28.276 247.553)" overflow="visible"/><use xlink:href="#star" width="2.4" height="2.5" x="-1.2" y="-1.3" transform="matrix(1 0 0 -1 119.03 500.189)" overflow="visible"/><use xlink:href="#star" width="2.4" height="2.5" x="-1.2" y="-1.3" transform="matrix(1 0 0 -1 42.63 459.916)" overflow="visible"/><use xlink:href="#star" width="2.4" height="2.5" x="-1.2" y="-1.3" transform="matrix(1 0 0 -1 404.343 594.526)" overflow="visible"/><use xlink:href="#star" width="2.4" height="2.5" x="-1.2" y="-1.3" transform="matrix(1 0 0 -1 177.593 611.765)" overflow="visible"/><use xlink:href="#star" width="2.4" height="2.5" x="-1.2" y="-1.3" transform="matrix(1 0 0 -1 62.356 598.633)" overflow="visible"/><use xlink:href="#star" width="2.4" height="2.5" x="-1.2" y="-1.3" transform="matrix(1 0 0 -1 708.304 592.455)" overflow="visible"/><use xlink:href="#star" width="2.4" height="2.5" x="-1.2" y="-1.3" transform="matrix(1 0 0 -1 703.016 660.635)" overflow="visible"/><use xlink:href="#star" width="2.4" height="2.5" x="-1.2" y="-1.3" transform="matrix(1 0 0 -1 169.64 508.36)" overflow="visible"/><use xlink:href="#star" width="2.4" height="2.5" x="-1.2" y="-1.3" transform="matrix(1 0 0 -1 576.618 559.56)" overflow="visible"/><use xlink:href="#star" width="2.4" height="2.5" x="-1.2" y="-1.3" transform="matrix(1 0 0 -1 700.198 385.19)" overflow="visible"/><use xlink:href="#star" width="2.4" height="2.5" x="-1.2" y="-1.3" transform="matrix(1 0 0 -1 434.288 393.5)" overflow="visible"/><use xlink:href="#star" width="2.4" height="2.5" x="-1.2" y="-1.3" transform="matrix(1 0 0 -1 381.248 245.486)" overflow="visible"/><use xlink:href="#star" width="2.4" height="2.5" x="-1.2" y="-1.3" transform="matrix(1 0 0 -1 21.767 638.868)" overflow="visible"/><use xlink:href="#star" width="2.4" height="2.5" x="-1.2" y="-1.3" transform="matrix(1 0 0 -1 394.14 640.022)" overflow="visible"/></svg>