<svg id="Layer_1" xmlns="http://www.w3.org/2000/svg" xmlns:xlink="http://www.w3.org/1999/xlink" viewBox="0 0 750 1334"><style>.st0{fill:#d8d8d8}.st1{fill:#595959}</style><symbol id="sparkles" viewBox="-2.8 -2.9 5.6 5.8"><path class="st0" d="M0-2.9c3.7 0 3.7 5.8 0 5.8s-3.7-5.8 0-5.8z"/></symbol><symbol id="star" viewBox="-1.2 -1.3 2.4 2.5"><path class="st1" d="M0-1.3c1.6 0 1.6 2.5 0 2.5s-1.6-2.5 0-2.5z"/></symbol><use xlink:href="#sparkles" width="5.6" height="5.8" x="-2.8" y="-2.9" transform="matrix(1 0 0 -1 21.682 30.15)" overflow="visible"/><use xlink:href="#sparkles" width="5.6" height="5.8" x="-2.8" y="-2.9" transform="matrix(1 0 0 -1 317.986 64.734)" overflow="visible"/><use xlink:href="#sparkles" width="5.6" height="5.8" x="-2.8" y="-2.9" transform="matrix(1 0 0 -1 48.659 179.29)" overflow="visible"/><use xlink:href="#sparkles" width="5.6" height="5.8" x="-2.8" y="-2.9" transform="matrix(1 0 0 -1 511.813 192.512)" overflow="visible"/><use xlink:href="#sparkles" width="5.6" height="5.8" x="-2.8" y="-2.9" transform="matrix(1 0 0 -1 713.636 24.221)" overflow="visible"/><use xlink:href="#sparkles" width="5.6" height="5.8" x="-2.8" y="-2.9" transform="matrix(1 0 0 -1 731.778 407.722)" overflow="visible"/><use xlink:href="#sparkles" width="5.6" height="5.8" x="-2.8" y="-2.9" transform="matrix(1 0 0 -1 259.285 349.19)" overflow="visible"/><use xlink:href="#sparkles" width="5.6" height="5.8" x="-2.8" y="-2.9" transform="matrix(1 0 0 -1 51.713 528.173)" overflow="visible"/><use xlink:href="#sparkles" width="5.6" height="5.8" x="-2.8" y="-2.9" transform="matrix(1 0 0 -1 1.86 366.896)" overflow="visible"/><use xlink:href="#sparkles" width="5.6" height="5.8" x="-2.8" y="-2.9" transform="matrix(1 0 0 -1 580.957 561.384)" overflow="visible"/><use xlink:href="#sparkles" width="5.6" height="5.8" x="-2.8" y="-2.9" transform="matrix(1 0 0 -1 347.898 638.152)" overflow="visible"/><use xlink:href="#sparkles" width="5.6" height="5.8" x="-2.8" y="-2.9" transform="matrix(1 0 0 -1 546.384 380.649)" overflow="visible"/><use xlink:href="#sparkles" width="5.6" height="5.8" x="-2.8" y="-2.9" transform="matrix(1 0 0 -1 699.727 681.852)" overflow="visible"/><use xlink:href="#star" width="2.4" height="2.5" x="-1.2" y="-1.3" transform="matrix(1 0 0 -1 662.333 150.544)" overflow="visible"/><use xlink:href="#star" width="2.4" height="2.5" x="-1.2" y="-1.3" transform="matrix(1 0 0 -1 721.18 212.11)" overflow="visible"/><use xlink:href="#star" width="2.4" height="2.5" x="-1.2" y="-1.3" transform="matrix(1 0 0 -1 508.707 281.375)" overflow="visible"/><use xlink:href="#star" width="2.4" height="2.5" x="-1.2" y="-1.3" transform="matrix(1 0 0 -1 439.355 377.717)" overflow="visible"/><use xlink:href="#star" width="2.4" height="2.5" x="-1.2" y="-1.3" transform="matrix(1 0 0 -1 304.3 469.63)" overflow="visible"/><use xlink:href="#star" width="2.4" height="2.5" x="-1.2" y="-1.3" transform="matrix(1 0 0 -1 119.595 416.908)" overflow="visible"/><use xlink:href="#star" width="2.4" height="2.5" x="-1.2" y="-1.3" transform="matrix(1 0 0 -1 47.276 657.76)" overflow="visible"/><use xlink:href="#star" width="2.4" height="2.5" x="-1.2" y="-1.3" transform="matrix(1 0 0 -1 224.625 633.588)" overflow="visible"/><use xlink:href="#star" width="2.4" height="2.5" x="-1.2" y="-1.3" transform="matrix(1 0 0 -1 72.99 596.107)" overflow="visible"/><use xlink:href="#star" width="2.4" height="2.5" x="-1.2" y="-1.3" transform="matrix(1 0 0 -1 11.16 400.983)" overflow="visible"/><use xlink:href="#star" width="2.4" height="2.5" x="-1.2" y="-1.3" transform="matrix(1 0 0 -1 83.426 263.507)" overflow="visible"/><use xlink:href="#star" width="2.4" height="2.5" x="-1.2" y="-1.3" transform="matrix(1 0 0 -1 235.228 257.179)" overflow="visible"/><use xlink:href="#star" width="2.4" height="2.5" x="-1.2" y="-1.3" transform="matrix(1 0 0 -1 60.915 117.29)" overflow="visible"/><use xlink:href="#star" width="2.4" height="2.5" x="-1.2" y="-1.3" transform="matrix(1 0 0 -1 233.735 34.622)" overflow="visible"/><use xlink:href="#star" width="2.4" height="2.5" x="-1.2" y="-1.3" transform="matrix(1 0 0 -1 167.578 10.514)" overflow="visible"/><use xlink:href="#star" width="2.4" height="2.5" x="-1.2" y="-1.3" transform="matrix(1 0 0 -1 523.67 5.967)" overflow="visible"/><use xlink:href="#star" width="2.4" height="2.5" x="-1.2" y="-1.3" transform="matrix(1 0 0 -1 629.7 15.889)" overflow="visible"/><use xlink:href="#star" width="2.4" height="2.5" x="-1.2" y="-1.3" transform="matrix(1 0 0 -1 628.197 20.261)" overflow="visible"/><use xlink:href="#star" width="2.4" height="2.5" x="-1.2" y="-1.3" transform="matrix(1 0 0 -1 426.077 117.332)" overflow="visible"/><use xlink:href="#star" width="2.4" height="2.5" x="-1.2" y="-1.3" transform="matrix(1 0 0 -1 635.383 326.39)" overflow="visible"/><use xlink:href="#star" width="2.4" height="2.5" x="-1.2" y="-1.3" transform="matrix(1 0 0 -1 454.428 528.258)" overflow="visible"/><use xlink:href="#star" width="2.4" height="2.5" x="-1.2" y="-1.3" transform="matrix(1 0 0 -1 526.564 617.364)" overflow="visible"/><use xlink:href="#star" width="2.4" height="2.5" x="-1.2" y="-1.3" transform="matrix(1 0 0 -1 686.372 540.04)" overflow="visible"/><use xlink:href="#star" width="2.4" height="2.5" x="-1.2" y="-1.3" transform="matrix(1 0 0 -1 734.868 561.101)" overflow="visible"/><use xlink:href="#star" width="2.4" height="2.5" x="-1.2" y="-1.3" transform="matrix(1 0 0 -1 739.298 627.378)" overflow="visible"/><use xlink:href="#star" width="2.4" height="2.5" x="-1.2" y="-1.3" transform="matrix(1 0 0 -1 562.962 457.575)" overflow="visible"/><use xlink:href="#star" width="2.4" height="2.5" x="-1.2" y="-1.3" transform="matrix(1 0 0 -1 739.318 272.423)" overflow="visible"/></svg>