<svg xmlns="http://www.w3.org/2000/svg" viewBox="0 0 498.21 312.43"><defs><style>.cls-1{isolation:isolate}.cls-2{fill:#5e5f61}.cls-22,.cls-27,.cls-3,.cls-43{fill:none;stroke-miterlimit:10}.cls-22,.cls-3{stroke:#fff}.cls-3{stroke-width:2px}.cls-4{fill:#82cb38}.cls-5{fill:#aa5541}.cls-6{fill:#ddd}.cls-10,.cls-7{fill:#231f20}.cls-7{opacity:.1}.cls-8{fill:#96a2a4}.cls-12,.cls-9{fill:#fff}.cls-10{opacity:.3}.cls-11{fill:#809b3d}.cls-12,.cls-45{opacity:.2}.cls-13{fill:#855222}.cls-14{fill:#ad6729}.cls-15{fill:#ff9d00}.cls-16{fill:#f05152}.cls-17{fill:#4f0000}.cls-18{fill:#ff6568}.cls-19{opacity:.21}.cls-19,.cls-21{mix-blend-mode:overlay}.cls-20{fill:#9ab6b8}.cls-21{opacity:.43}.cls-23{fill:#604123}.cls-24{fill:#f39b80}.cls-25{fill:#9caca1}.cls-26{fill:#543c36}.cls-27{stroke:#543c36;stroke-linecap:square;stroke-width:4px}.cls-28{fill:#a40000}.cls-29{fill:#890000}.cls-30{fill:#ff0}.cls-31{fill:#6e3e19}.cls-32{fill:#faae40}.cls-33{fill:#cce9eb}.cls-34{fill:#b7ad4e}.cls-35{fill:#852a34}.cls-36{fill:#44130c}.cls-37{fill:#c0e0de}.cls-38{fill:#9ad4da}.cls-39{fill:#b21f24}.cls-40{fill:#c93427}.cls-41{fill:#db4126}.cls-42{fill:#f16228}.cls-43{stroke:#fdca80}.cls-44{fill:#3f8252}.cls-45{fill:#57ae62}.cls-46{fill:#e74543}.cls-47{fill:#a82d2b}.cls-48{fill:#eaf6f7}.cls-49{fill:#bc3734}.cls-50{fill:#c23c39}</style></defs><title>city-view-m</title><g class="cls-1"><g id="Layer_2" data-name="Layer 2"><g id="content"><g id="road"><path class="cls-2" d="M0 250.45h498.12v61.98H0z"/><path class="cls-3" d="M11.54 284.23h35.82m27.27 0h35.83m27.27 0h35.82m27.27 0h35.83m27.27 0h35.82m27.27 0h35.83m27.27 0h35.82m27.28 0h35.82"/></g><path class="cls-4" d="M375 229.18h123.12v7.12H375z"/><path class="cls-5" d="M375 234.33v15.61h123.12v-15.61H375z"/><path class="cls-6" d="M.9 228.94H375v21.23H.9z"/><path class="cls-7" d="M497.79 213.78q0 2-.05 4v5.19c0 1.18 0 2.36-.07 3.55v.41q0 1.55-.07 3.1v2.13H307l.31-.53H307l.39-.66 29.79-49.85 25.44-42.56.13-.21 18.52-31 28.1-47v.54l.64-1.06 25.3 44.36v.06l1.87 3.29 44.59 78.18 1.7 3 8.49 14.9.12.21.66 1.15.58 1 .38.68.23.39.24.43.24.43.78 1.36.24.43.25.43z"/><path class="cls-8" d="M497.75 152.2v-.64zm0-100.9v-1.5 1.78zm.12 147.59v14.88q0 2-.05 4v5.18c0 1.18 0 2.36-.07 3.55v.41c0 1.29-.06 2.58-.1 3.87v.71h-113.1l.23-.55.19-.44 11.15-26.26.1-.24 41-96.48 20.29-47.78v-.06l.05-.11v-.14L482.83 0l.64 1.44 14.28 32.09v50.29q0 6.17.07 12.36 0 4 .06 8.06c.13 15.91.25 31.84 0 47.87v36.54q0 5.11-.01 10.24z"/><path class="cls-8" d="M497.47 230.79c0-1.29.07-2.58.1-3.87q0 1.55-.07 3.1v1.49zm.24-11.79v-1.2 4.07c-.02-.99-.01-1.94 0-2.87zm.16-16.2v3.07c-.02-1.03-.01-2.05 0-3.07zm-.02-20.59v-3.05V183c.01-.28.01-.53 0-.79zm.01 2.65v-1.59.52zm.02 3.78v-3.75zm.33-154.09h-.01.01z"/><path class="cls-9" d="M497.65 58.36v-.16 1.08c-.01-.28-.01-.6 0-.92zm.09-6.53v-.51c.01.17 0 .35 0 .51zm.04-2.03v1.78-.28c-.02-.5-.01-1 0-1.5z"/><path class="cls-9" d="M497.75 33.53v29.45a12.28 12.28 0 0 1-14.13-4.53c-.22-.31-.44-.64-.64-1-4.72-7.89-7.56 4-9.45 6.22s-4.46 1.5-6.93-8.89c-2.24-9.44-7.83 2.37-8.83 4.61v.08L482.83 0l.64 1.44z"/><path class="cls-10" d="M497.88 189.72v24.06q0 2-.05 4v5.18c0 1.18 0 2.36-.07 3.55v.41q0 1.55-.07 3.1v.78h-14V.71l14.06 32.09v51.07q0 6.17.07 12.36 0 4 .06 8.06c.13 15.91.25 31.84 0 47.87v31.55a.51.51 0 0 0 0 .09v5.92zm-.13-138.42v-1.5 1.78zm.46-16.75h-.01.01zm-.46 117.65v-.64z"/><path class="cls-10" d="M497.71 219v-1.2 3.15c-.01-.69 0-1.34 0-1.95zm.16-17.81v1.61-1.61zm-.01 2.89zm0-21.08v-1.89 1.13zm0 .94v-.17c0-.06 0 0 0 0v-.5.52zm.02 4.7v-3.76zm-.23-130.28v-.16 4.76-3.67c-.01-.29-.01-.61 0-.93z"/><path class="cls-8" d="M336.7 87.81l20.37 39.92 52.68 103.22H267l69.7-143.14z"/><path class="cls-9" d="M355.58 124.82s-2.8-3.34-5.48 0-10.05 3.4-13.4-1.48-5.36 2.48-6.7 3.84-3.16.93-4.91-5.5-6.37 3.06-6.37 3.06l18-36.94z"/><path class="cls-10" d="M337.15 88.25l19.92 39.04 52.68 103.22h-72.6V88.25z"/><ellipse class="cls-11" cx="422.55" cy="196.2" rx="5.56" ry="4.91"/><path class="cls-12" d="M422.55 191.29c-3.07 0-5.55 2.2-5.55 4.91s2.49 4.91 5.55 4.91z"/><ellipse class="cls-11" cx="443.06" cy="179.56" rx="5.55" ry="4.91"/><path class="cls-12" d="M443.06 174.65c-3.07 0-5.55 2.2-5.55 4.91s2.49 4.91 5.55 4.91z"/><path class="cls-13" d="M434.79 214.39l-.73-.72 5.83-9.2.73.72-5.83 9.2z"/><path class="cls-14" d="M440.26 204.83l-.37-.36-5.83 9.2.36.36 5.84-9.2z"/><path class="cls-13" d="M433.84 211.02l-.73-.72 5.83-9.19.74.72-5.84 9.19z"/><path class="cls-14" d="M439.31 201.47l-.37-.36-5.83 9.19.37.36 5.83-9.19z"/><path class="cls-13" d="M426.59 200.6l-.59.9 7.3 7.4.59-.9-7.3-7.4z"/><path class="cls-14" d="M433.6 208.45l-.3.45-7.3-7.4.3-.45 7.3 7.4z"/><path class="cls-13" d="M432.65 201.47h2.82v28.71h-2.82z"/><path class="cls-14" d="M432.65 201.47h1.41v28.71h-1.41z"/><ellipse class="cls-11" cx="434.8" cy="190.31" rx="16.71" ry="14.76"/><path class="cls-12" d="M434.8 175.54c-9.23 0-16.71 6.61-16.71 14.77s7.48 14.76 16.71 14.76z"/><ellipse class="cls-11" cx="443.06" cy="201.47" rx="6.67" ry="5.89"/><path class="cls-12" d="M443.06 195.58c-3.68 0-6.67 2.64-6.67 5.89s3 5.89 6.67 5.89z"/><ellipse class="cls-11" cx="448.75" cy="197.62" rx="5.75" ry="4.84"/><path class="cls-12" d="M448.75 192.78c-3.18 0-5.75 2.17-5.75 4.84s2.57 4.84 5.75 4.84z"/><ellipse class="cls-11" cx="469.98" cy="181.21" rx="5.75" ry="4.84"/><path class="cls-12" d="M470 176.37c-3.18 0-5.75 2.17-5.75 4.84S466.8 186 470 186z"/><path class="cls-13" d="M461.42 215.57l-.76-.71 6.03-9.08.76.71-6.03 9.08z"/><path class="cls-14" d="M467.07 206.14l-.38-.36-6.03 9.08.38.35 6.03-9.07z"/><path class="cls-13" d="M460.43 212.25l-.75-.71 6.03-9.08.76.71-6.04 9.08z"/><path class="cls-14" d="M466.09 202.82l-.38-.36-6.03 9.08.37.35 6.04-9.07z"/><path class="cls-13" d="M452.93 201.96l-.61.89 7.56 7.3.61-.89-7.56-7.3z"/><path class="cls-14" d="M460.18 209.71l-.3.44-7.56-7.3.3-.44 7.56 7.3z"/><path class="cls-13" d="M459.19 202.82h2.92v28.33h-2.92z"/><path class="cls-14" d="M459.19 202.82h1.46v28.33h-1.46z"/><ellipse class="cls-11" cx="461.43" cy="191.81" rx="17.3" ry="14.57"/><path class="cls-12" d="M461.43 177.24c-9.55 0-17.3 6.52-17.3 14.57s7.75 14.57 17.3 14.57z"/><ellipse class="cls-11" cx="469.98" cy="202.82" rx="6.9" ry="5.81"/><path class="cls-12" d="M470 197c-3.81 0-6.9 2.6-6.9 5.81s3.09 5.81 6.9 5.81z"/><ellipse class="cls-11" cx="478.73" cy="201.87" rx="5.73" ry="4.04"/><path class="cls-12" d="M478.73 197.83c-3.16 0-5.73 1.81-5.73 4s2.56 4 5.73 4z"/><path class="cls-11" d="M497.39 191.82c-1.92-.65-3.25-2-3.25-3.64a3.57 3.57 0 0 1 1.74-2.89 5.82 5.82 0 0 1 1.49-.75v2.57a1.38 1.38 0 0 1 0 .16v1.43c.02 1.05.02 2.08.02 3.12zm-.01-4.53a1.38 1.38 0 0 0 0-.16v-.49.5zm.02 4.53v-3.62z"/><path class="cls-12" d="M497.39 191.82c-1.92-.65-3.25-2-3.25-3.64a3.57 3.57 0 0 1 1.74-2.89 5.82 5.82 0 0 1 1.49-.75v2.57a1.38 1.38 0 0 1 0 .16v1.43c.02 1.05.02 2.08.02 3.12zm-.01-4.53a1.38 1.38 0 0 0 0-.16v-.49.5zm.02 4.53v-3.62z"/><path class="cls-13" d="M496.6 208.69l-6.02 7.57.76.59 6.02-7.57-.76-.59z"/><path class="cls-14" d="M496.6 208.69l-6.02 7.57.38.3 6.02-7.58-.38-.29z"/><path class="cls-13" d="M490.36 214.08l-.75-.59 6.01-7.57.76.59-6.02 7.57z"/><path class="cls-14" d="M496 206.21l-.38-.29-6.01 7.57.38.3 6.01-7.58z"/><path class="cls-13" d="M482.89 205.5l-.61.74 7.53 6.09.6-.74-7.52-6.09z"/><path class="cls-14" d="M490.11 211.96l-.3.37-7.53-6.09.3-.37 7.53 6.09z"/><path class="cls-13" d="M489.13 206.22h2.91v23.65h-2.91z"/><path class="cls-14" d="M489.13 206.22h1.46v23.65h-1.46z"/><path class="cls-11" d="M497.39 203.92v1.55-1.55zm-.01-16.78v-.49.49zm.02 4.68v16.57a22.62 22.62 0 0 1-3 .57h-.16l-.51.06-.65.06h-2.85c-.37 0-.74 0-1.1-.07s-.75-.07-1.12-.13l-.52-.08h-.54l-.52-.1-.51-.12c-.38-.09-.75-.18-1.12-.29l-.62-.19-.48-.16-.66-.24-.59-.25a17.22 17.22 0 0 1-2-1c-.32-.18-.61-.36-.9-.56l-.37-.25-.44-.33-.22-.17-.38-.31a11.62 11.62 0 0 1-1-.91l-.2-.21-.32-.35a6.27 6.27 0 0 1-.41-.5c-.12-.15-.22-.29-.33-.44s-.17-.25-.25-.38-.13-.2-.19-.31l-.21-.37c-.07-.14-.14-.26-.2-.4a.94.94 0 0 1-.09-.18l-.08-.18a2.2 2.2 0 0 1-.1-.26c-.07-.17-.13-.34-.19-.51a5.54 5.54 0 0 1-.17-.57.2.2 0 0 1 0-.09c0-.14-.07-.28-.1-.43a3.14 3.14 0 0 1-.06-.32 1.64 1.64 0 0 1 0-.25 4.67 4.67 0 0 1-.06-.58v-1.16c0-.21 0-.37.06-.56s0-.2 0-.29c0-.1 0-.21.06-.32s.12-.48.19-.72a4.58 4.58 0 0 1 .16-.49c.06-.15.11-.3.18-.45l.07-.17a9.65 9.65 0 0 1 .83-1.5l.15-.21c.09-.12.18-.25.28-.37a11 11 0 0 1 1.28-1.41l.45-.41a4.85 4.85 0 0 1 .48-.39l.19-.15a10.41 10.41 0 0 1 .94-.68l.34-.22.53-.32c.38-.22.77-.44 1.18-.63l.26-.12c.36-.17.73-.33 1.11-.47l.35-.14.41-.15.3-.1a3.57 3.57 0 0 1 .39-.12l.49-.15.28-.08.48-.12c.38-.1.77-.18 1.17-.26l.72-.12.56-.08.59-.07h2.63a24 24 0 0 1 4.52.42c.51.1 1 .21 1.5.34v4.63c0 .55.09.75.09 1.27z"/><path class="cls-12" d="M491.36 184.86c-9.52 0-17.23 5.44-17.23 12.16s7.71 12.16 17.23 12.16z"/><path class="cls-11" d="M497.4 201.69v9.04c-.31-.09-.61-.19-.9-.31l-.45-.2-.43-.23a6.25 6.25 0 0 1-1.23-.91l-.09-.08a3.37 3.37 0 0 1-.25-.27c-.11-.12-.21-.25-.31-.38a3.74 3.74 0 0 1-.7-2.14c0-2.07 1.83-3.83 4.41-4.53zm-.01 2.23v1.55-1.55zm-.01 2.78z"/><path class="cls-12" d="M497.4 201.69v9.04c-.31-.09-.61-.19-.9-.31l-.45-.2-.43-.23a6.25 6.25 0 0 1-1.23-.91l-.09-.08a3.37 3.37 0 0 1-.25-.27c-.11-.12-.21-.25-.31-.38a3.74 3.74 0 0 1-.7-2.14c0-2.07 1.83-3.83 4.41-4.53zm-.01 2.23v1.55-1.55zm-.01 2.78z"/><path class="cls-15" d="M266.45 145.97h18.07v10.55h-18.07z"/><path class="cls-16" d="M200.46 231.25h-28.41v-45.37l28.41-14.94v60.31z"/><path class="cls-17" d="M172 187.22a1.08 1.08 0 0 1-1-.83 1.49 1.49 0 0 1 .57-1.75l28.41-14.94a1 1 0 0 1 1.37.73 1.49 1.49 0 0 1-.57 1.75l-28.41 14.94a.85.85 0 0 1-.37.1z"/><path class="cls-18" d="M200.53 140.5h52.95v90.75h-52.95z"/><path class="cls-19" d="M200.53 140.5h52.95v7.75h-52.95z"/><g id="_Group_" data-name="&lt;Group&gt;"><path class="cls-20" d="M211.95 158.35h30.11v19.09h-30.11z"/><path id="_Path_" data-name="&lt;Path&gt;" class="cls-21" d="M238.32 159.18v13.49h-26.37v4.77h30.11v-18.26h-3.74z"/><path class="cls-22" d="M211.95 158.35h30.11v19.09h-30.11z"/><g id="_Group_2" data-name="&lt;Group&gt;"><path id="_Path_2" data-name="&lt;Path&gt;" class="cls-22" d="M221.73 158.35v19.09"/><path id="_Path_3" data-name="&lt;Path&gt;" class="cls-22" d="M232.28 158.35v19.09"/></g><path class="cls-23" d="M210.02 178.13h33.97v3.6h-33.97z"/></g><g id="_Group_3" data-name="&lt;Group&gt;"><path class="cls-20" d="M211.94 193.35h30.11v19.09h-30.11z"/><path id="_Path_4" data-name="&lt;Path&gt;" class="cls-21" d="M238.32 194.18v13.49h-26.38v4.77h30.11v-18.26h-3.73z"/><path class="cls-22" d="M211.94 193.35h30.11v19.09h-30.11z"/><g id="_Group_4" data-name="&lt;Group&gt;"><path id="_Path_5" data-name="&lt;Path&gt;" class="cls-22" d="M221.72 193.35v19.09"/><path id="_Path_6" data-name="&lt;Path&gt;" class="cls-22" d="M232.27 193.35v19.09"/></g><path class="cls-23" d="M210.01 213.13h33.97v3.6h-33.97z"/></g><path class="cls-17" d="M199.48 139.16h55.05v2.68h-55.05z" id="_Group_5" data-name="&lt;Group&gt;"/><path id="_Path_7" data-name="&lt;Path&gt;" class="cls-19" d="M247.89 187.54h-33.98l-3.89-5.81h33.97l3.9 5.81z"/><path id="_Path_8" data-name="&lt;Path&gt;" class="cls-19" d="M247.89 222.54h-33.98l-3.89-5.81h33.97l3.9 5.81z"/><path class="cls-20" d="M179.91 192.98h12.69v16.23h-12.69z"/><path id="_Path_9" data-name="&lt;Path&gt;" class="cls-21" d="M189.35 192.98v12.08h-9.44v4.15h12.69v-16.23h-3.25z"/><path class="cls-22" d="M179.91 192.98h12.69v16.23h-12.69z"/><path class="cls-24" d="M256.28 166.37h38.37v65.77h-38.37z"/><path class="cls-19" d="M256.28 166.37h38.37v5.61h-38.37z"/><g id="_Group_6" data-name="&lt;Group&gt;"><path class="cls-25" d="M264.56 179.31h21.82v13.83h-21.82z"/><path id="_Path_10" data-name="&lt;Path&gt;" class="cls-21" d="M283.67 179.91v9.77h-19.11v3.46h21.82v-13.23h-2.71z"/><path class="cls-22" d="M264.56 179.31h21.82v13.83h-21.82z"/><g id="_Group_7" data-name="&lt;Group&gt;"><path id="_Path_11" data-name="&lt;Path&gt;" class="cls-22" d="M271.65 179.31v13.83"/><path id="_Path_12" data-name="&lt;Path&gt;" class="cls-22" d="M279.29 179.31v13.83"/></g><path class="cls-26" d="M263.16 193.64h24.62v2.61h-24.62z"/></g><g id="_Group_8" data-name="&lt;Group&gt;"><path class="cls-25" d="M264.56 204.67h21.82v13.84h-21.82z"/><path id="_Path_13" data-name="&lt;Path&gt;" class="cls-21" d="M283.67 205.27v9.77h-19.11v3.46h21.82v-13.23h-2.71z"/><path class="cls-22" d="M264.56 204.67h21.82v13.84h-21.82z"/><g id="_Group_9" data-name="&lt;Group&gt;"><path id="_Path_14" data-name="&lt;Path&gt;" class="cls-22" d="M271.64 204.67v13.84"/><path id="_Path_15" data-name="&lt;Path&gt;" class="cls-22" d="M279.29 204.67v13.84"/></g><path class="cls-26" d="M263.16 219.01h24.62v2.61h-24.62z"/></g><path id="_Path_16" data-name="&lt;Path&gt;" class="cls-27" d="M256.28 166.37h38.38"/><path id="_Path_17" data-name="&lt;Path&gt;" class="cls-19" d="M290.61 200.46h-24.63l-2.82-4.21h24.62l2.83 4.21z"/><path id="_Path_18" data-name="&lt;Path&gt;" class="cls-19" d="M290.61 225.82h-24.63l-2.82-4.21h24.62l2.83 4.21z"/><path class="cls-28" d="M252.32 166.14H298l-4.4-5.63h-5.41l-2.57-4.46H264.8l-2.39 4.22h-5.68l-4.41 5.87z"/><path class="cls-29" d="M270.13 154.08h-.47v-2.57h-2.14v2.57H267v-5.46h.47v2.32h2.14v-2.32h.47zm4.64-2.74a3.73 3.73 0 0 1-.49 2.06 1.65 1.65 0 0 1-2.76 0 3.76 3.76 0 0 1-.49-2.08 3.71 3.71 0 0 1 .49-2.07 1.58 1.58 0 0 1 1.39-.73 1.55 1.55 0 0 1 1.37.75 3.71 3.71 0 0 1 .49 2.07zm-3.24 0a3.25 3.25 0 0 0 .35 1.68 1.19 1.19 0 0 0 2 0 3.32 3.32 0 0 0 .34-1.68 3.26 3.26 0 0 0-.34-1.67 1.11 1.11 0 0 0-1-.57 1.13 1.13 0 0 0-1 .57 3.22 3.22 0 0 0-.35 1.67zm5.39 2.74h-.47v-4.9h-1.29v-.57h3v.57h-1.29zm4.17 0h-2.26v-5.46h2.26v.57h-1.79v1.76h1.7v.56h-1.69v2h1.79zm.91 0v-5.46h.47v4.89h1.79v.58z"/><path class="cls-30" d="M215.47 153.11v-6.46h1.37a1.26 1.26 0 0 1 1 .41 1.53 1.53 0 0 1 .37 1.07 2 2 0 0 1-.22 1 1.27 1.27 0 0 1-.61.58 1.14 1.14 0 0 1 .78.49 1.86 1.86 0 0 1 .29 1.09 2 2 0 0 1-.44 1.34 1.41 1.41 0 0 1-1.12.51zm.56-5.77v2.08h.58a.92.92 0 0 0 .73-.3 1.23 1.23 0 0 0 .26-.84.82.82 0 0 0-.92-.94zm0 2.77v2.32h.76a1 1 0 0 0 .77-.32 1.27 1.27 0 0 0 .27-.86 1 1 0 0 0-1.16-1.14zm7.1 3h-.62l-.51-1.81h-2l-.48 1.81h-.63l1.84-6.46h.58zm-1.32-2.49l-.76-2.75a3.56 3.56 0 0 1-.07-.43 3.1 3.1 0 0 1-.08.43l-.75 2.75zm5.37 2.49h-.78l-1.85-3a2 2 0 0 1-.13-.23v3.18h-.56v-6.46h.56v3a1.73 1.73 0 0 1 .13-.22l1.8-2.81h.7l-2.06 3.1zm3.18 0h-2.55v-6.46h2.44v.68h-1.88v2.15h1.74v.68h-1.74v2.26h2zm4.37 0h-.67l-.8-1.81a4 4 0 0 0-.21-.43 1.55 1.55 0 0 0-.21-.29.69.69 0 0 0-.23-.16.74.74 0 0 0-.28-.05h-.46v2.75h-.56v-6.46h1.44a1.57 1.57 0 0 1 .58.11 1.25 1.25 0 0 1 .46.32 1.52 1.52 0 0 1 .31.54 2.3 2.3 0 0 1 .11.75 2.37 2.37 0 0 1-.08.62 1.79 1.79 0 0 1-.21.5 1.46 1.46 0 0 1-.78.62 1 1 0 0 1 .21.16 1.49 1.49 0 0 1 .17.22 3 3 0 0 1 .16.29l.18.37zm-2.88-5.77v2.34h.77a.89.89 0 0 0 .39-.09.87.87 0 0 0 .31-.25 1.15 1.15 0 0 0 .2-.39 1.73 1.73 0 0 0 .07-.52 1.21 1.21 0 0 0-.25-.81.9.9 0 0 0-.72-.29zm6.67-.68l-1.59 4.07v2.39h-.56v-2.37l-1.55-4.09h.64l1.08 2.92.12.4a2.86 2.86 0 0 1 .13-.4l1.13-2.92z"/><path class="cls-31" d="M365.57 197a2.89 2.89 0 0 0-1.3-1.22L336.9 170l-27.19 26a2.88 2.88 0 0 0-.68.65h-.05a3.29 3.29 0 0 0-.63 1.94 3 3 0 0 0 2.79 3.1h52.05a3 3 0 0 0 2.79-3.1 3.32 3.32 0 0 0-.41-1.59z"/><path class="cls-32" d="M359.73 230.06h-44.69v-32.84l22.07-20.31 22.62 20.16v32.99z"/><path class="cls-9" d="M340.23 214.08h8.45v11.05h-8.45z"/><path class="cls-33" d="M340.91 214.97H348v9.27h-7.09z"/><path class="cls-9" d="M340.23 219.61h8.45v.83h-8.45z"/><path class="cls-9" d="M344.14 214.97h1.36v9.27h-1.36zm-21.13-.25h8.83v15.34h-8.83z"/><path class="cls-31" d="M323.69 215.61h7.43v14.45h-7.43zm14.61 9.17h11.83v.95H338.3z"/><path class="cls-9" d="M332.96 190.51h8.45v11.05h-8.45z"/><path class="cls-33" d="M333.64 191.4h7.09v9.27h-7.09z"/><path class="cls-9" d="M332.96 196.04h8.45v.83h-8.45z"/><path class="cls-9" d="M336.87 191.4h1.36v9.27h-1.36z"/><path class="cls-31" d="M341.4 190.51h5.11v11.05h-5.11zm-13.56 0h5.11v11.05h-5.11z"/><rect class="cls-34" x="4.56" y="194.91" width="47.02" height="29.98" rx="4.5" ry="4.5"/><path class="cls-35" d="M5.66 224.75h44.67v2.66H5.66z"/><path class="cls-36" d="M4 227.11h48v2.66H4z"/><path class="cls-37" d="M8.94 198.46h23.95v20.68H8.94z"/><path class="cls-38" d="M9.9 218.18v-19.72h-.96v20.67h23.95v-.95H9.9z"/><path class="cls-39" d="M4.54 194.47v7.31c0 2 1.31 3.54 2.93 3.54s2.93-1.59 2.93-3.54v-7.31z"/><path class="cls-40" d="M10.4 194.47v7.31c0 2 1.31 3.54 2.93 3.54s2.93-1.59 2.93-3.54v-7.31z"/><path class="cls-39" d="M16.27 194.47v7.31c0 2 1.31 3.54 2.93 3.54s2.93-1.59 2.93-3.54v-7.31z"/><path class="cls-40" d="M22.13 194.47v7.31c0 2 1.31 3.54 2.93 3.54s2.94-1.58 2.94-3.54v-7.31z"/><path class="cls-39" d="M28 194.47v7.31c0 2 1.31 3.54 2.93 3.54s2.93-1.59 2.93-3.54v-7.31z"/><path class="cls-40" d="M33.87 194.47v7.31c0 2 1.31 3.54 2.93 3.54s2.93-1.59 2.93-3.54v-7.31z"/><path class="cls-39" d="M39.73 194.47v7.31c0 2 1.31 3.54 2.93 3.54s2.93-1.59 2.93-3.54v-7.31z"/><path class="cls-40" d="M45.6 194.47v7.31c0 2 1.31 3.54 2.93 3.54s2.93-1.59 2.93-3.54v-7.31z"/><path class="cls-41" d="M13 182.82l-8.46 11.62h5.86l6.35-11.61z"/><path class="cls-42" d="M16.75 182.82l-6.35 11.62h5.87l4.23-11.61z"/><path class="cls-41" d="M20.5 182.82l-4.23 11.61h5.87l2.12-11.61z"/><path class="cls-42" d="M24.25 182.82l-2.12 11.61H28v-11.61z"/><path class="cls-41" d="M28 182.82v11.61h5.87l-2.12-11.61z"/><path class="cls-42" d="M31.75 182.82l2.12 11.61h5.87l-4.24-11.61z"/><path class="cls-41" d="M35.5 182.82l4.23 11.61h5.87l-6.35-11.61z"/><path class="cls-42" d="M45.6 194.44h5.87L43 182.82h-3.75z"/><path class="cls-41" d="M12.97 180.44h3.76v2.41h-3.76zm3.76 0h3.76v2.41h-3.76z"/><path class="cls-41" d="M20.48 180.44h3.76v2.41h-3.76z"/><path class="cls-41" d="M24.24 180.44H28v2.41h-3.76zm3.76 0h3.76v2.41H28zm3.76 0h3.76v2.41h-3.76z"/><path class="cls-41" d="M35.51 180.44h3.76v2.41h-3.76zm3.76 0h3.76v2.41h-3.76z"/><path class="cls-32" d="M34.84 204.07h12.22v20.68H34.84z"/><path class="cls-43" d="M36.51 215.52h9.29v7.86h-9.29z"/><path class="cls-37" d="M36.51 206.02h9.29v8.02h-9.29z"/><path class="cls-38" d="M36.88 213.67v-7.65h-.37v8.02h9.29v-.37h-8.92z"/><path class="cls-13" d="M159.14 216.28h2.51v15.02h-2.51z"/><path class="cls-14" d="M159.14 216.28h1.26v15.02h-1.26z"/><path class="cls-44" d="M168.43 222.38l-8.03-37.35-8.03 37.35h1.31l-.56 2.83h14.65l-.56-2.83h1.22z"/><path class="cls-45" d="M160.45 225.21v-40.18l-8.04 37.35h1.31l-.55 2.83h7.28z"/><path class="cls-46" d="M85.29 154.71h9.38v14.36h-9.38z"/><path class="cls-47" d="M83.63 148.43h12.52v6.28H83.63z"/><path class="cls-48" d="M156 198.63H56l12.25-30.42h74.86L156 198.63z"/><path class="cls-49" d="M65.57 198.63h80.22v32.78H65.57z"/><path class="cls-9" d="M134.3 195.28a3.84 3.84 0 0 0-1.72-1.63l-27-60.63-26.45 60.91a3.85 3.85 0 0 0-.91.87l-.07.07a4.42 4.42 0 0 0-.83 2.59 4 4 0 0 0 3.68 4.16h50.12a4 4 0 0 0 3.71-4.15 4.47 4.47 0 0 0-.53-2.19z"/><path class="cls-46" d="M125.88 234.11H85.29v-41.16L106.18 145l19.7 47.71v41.4z"/><path class="cls-9" d="M70.36 209.33h11.22v14.78H70.36z"/><path class="cls-33" d="M71.27 210.52h9.41v12.4h-9.41z"/><path class="cls-9" d="M70.36 216.72h11.22v1.11H70.36z"/><path class="cls-9" d="M75.56 210.52h1.81v12.4h-1.81zm55.12-1.19h11.22v14.78h-11.22z"/><path class="cls-33" d="M131.58 210.52h9.41v12.4h-9.41z"/><path class="cls-9" d="M130.68 216.72h11.22v1.11h-11.22z"/><path class="cls-9" d="M135.88 210.52h1.81v12.4h-1.81zm-35.9-43.21h11.22v23.5H99.98z"/><path class="cls-33" d="M100.88 169.2h9.41v19.71h-9.41z"/><path class="cls-9" d="M99.98 179.06h11.22v1.77H99.98z"/><path class="cls-9" d="M105.18 169.2h1.81v19.71h-1.81zm7.06 64.91v-22.54a6.67 6.67 0 0 0-13.31 0v22.54z"/><path class="cls-50" d="M110.95 234.11v-21.23c0-3.25-2.36-5.89-5.27-5.89s-5.27 2.64-5.27 5.89v21.23z"/><path class="cls-48" d="M59.3 231.41h93.94v4.99H59.3z"/><path class="cls-13" d="M304.44 224.13l-.41.48-4.59-10.34.42-.49 4.58 10.35z"/><path class="cls-14" d="M299.65 214.03l-.21.24 4.59 10.34.21-.24-4.59-10.34z"/><path class="cls-13" d="M305.05 221.7l-.46-.37 2.8-9.11.46.37-2.8 9.11z"/><path class="cls-14" d="M307.62 212.4l-.23-.18-2.8 9.11.23.18 2.8-9.11z"/><path class="cls-13" d="M303.38 203.82h2.06v25.45h-2.06z"/><path class="cls-14" d="M304.41 203.82h-1.03v25.44h1.03v-25.44z"/><path class="cls-44" d="M310 203.66l-5.59-20.83-5.59 20.83h.92l-.39 1.58h10.19l-.39-1.58h.85z"/><path class="cls-45" d="M304.44 205.24v-22.41l-5.58 20.83h.91l-.39 1.58h5.06z"/><path class="cls-44" d="M300.1 210.71l-2.56 5.29h4.77l-2.21-5.29z"/><path class="cls-45" d="M300.11 210.72v-.01l-2.57 5.29h2.57v-5.28z"/><path class="cls-44" d="M307.85 206.12l-2 6.79h3.72l-1.72-6.79z"/><path class="cls-45" d="M307.85 206.13v-.01l-2 6.79h2v-6.78z"/></g></g></g></svg>