<svg id="Layer_1" xmlns="http://www.w3.org/2000/svg" viewBox="0 0 498.2 282.5"><style>.st0{fill:#96a2a4}.st1{fill:#fff}.st2{opacity:.3;fill:#231f20;enable-background:new}.st3{fill:#809b3d}.st4{opacity:.2;fill:#fff;enable-background:new}.st5{fill:#855222}.st6{fill:#ad6729}.st7{fill:#ff9d00}.st8{fill:#ceaa72}.st9{fill:#c0e0de}.st10{fill:none;stroke:#fff;stroke-miterlimit:10}.st11{fill:#543c36}.st12{fill:none;stroke:#543c36;stroke-width:4;stroke-linecap:square;stroke-miterlimit:10}.st13{fill:#a40000}.st14{fill:#890000}.st15{fill:#b73d43}.st16{fill:#4f0000}.st17{fill:#cc4047}.st18{fill:#604123}.st19{fill:#9ab6b8}.st20{fill:#ff0}.st21{fill:#6e3e19}.st22{fill:#619959}.st23{fill:#cce9eb}.st24{fill:#faae40}.st25{fill:#b7ad4e}.st26{fill:#852a34}.st27{fill:#44130c}.st28{fill:#9ad4da}.st29{fill:#b21f24}.st30{fill:#c93427}.st31{fill:#db4126}.st32{fill:#f16228}.st33{fill:none;stroke:#fdca80;stroke-miterlimit:10}.st34{fill:#3f8252}.st35{opacity:.2;fill:#57ae62;enable-background:new}.st36{fill:#e74543}.st37{fill:#a82d2b}.st38{fill:#eaf6f7}.st39{fill:#bc3734}.st40{fill:#c23c39}.st41{fill:#5e5f61}.st42{fill:none;stroke:#fff;stroke-width:2;stroke-miterlimit:10}.st43{fill:#82cb38}.st44{fill:#aa5541}.st45{fill:#ddd}</style><path class="st0" d="M498.7 36.9l28.8 48.9 74.3 126.4H400.4z"/><path class="st1" d="M525.4 82.2s-4-4.1-7.7 0c-3.8 4.1-14.2 4.2-18.9-1.8-4.7-6-7.6 3-9.5 4.7-1.9 1.7-4.5 1.1-6.9-6.7s-9 3.7-9 3.7l25.4-45.3 26.6 45.4z"/><path class="st2" d="M499.4 37.4l28.1 47.8 74.3 126.5H499.4z"/><path class="st0" d="M448.7 104l18.2 27.3 47.1 70.6H386.3z"/><path class="st1" d="M465.5 129.3s-2.5-2.3-4.9 0c-2.4 2.3-9 2.3-12-1s-4.8 1.7-6 2.6c-1.2.9-2.8.6-4.4-3.8s-5.7 2.1-5.7 2.1l16.1-25.3 16.9 25.4z"/><path class="st2" d="M449.1 104.3l17.8 26.7 47.1 70.6h-64.9z"/><ellipse class="st3" cx="441.5" cy="166.3" rx="5.6" ry="4.9"/><path class="st4" d="M441.5 161.4c-3.1 0-5.5 2.2-5.5 4.9s2.5 4.9 5.5 4.9v-9.8z"/><ellipse class="st3" cx="462.1" cy="149.7" rx="5.5" ry="4.9"/><path class="st4" d="M462.1 144.8c-3.1 0-5.5 2.2-5.5 4.9s2.5 4.9 5.5 4.9v-9.8z"/><path class="st5" d="M453.8 184.5l-.7-.7 5.8-9.2.7.7z"/><path class="st6" d="M459.3 174.9l-.4-.3-5.8 9.2.3.3z"/><path class="st5" d="M452.8 181.1l-.7-.7 5.8-9.2.8.7z"/><path class="st6" d="M458.3 171.6l-.4-.4-5.8 9.2.4.4z"/><path class="st5" d="M445.6 170.7l-.6.9 7.3 7.4.6-.9z"/><path class="st6" d="M452.6 178.6l-.3.4-7.3-7.4.3-.4z"/><path class="st5" d="M451.6 171.6h2.8v28.7h-2.8z"/><path class="st6" d="M451.6 171.6h1.4v28.7h-1.4z"/><ellipse class="st3" cx="453.8" cy="160.4" rx="16.7" ry="14.8"/><path class="st4" d="M453.8 145.6c-9.2 0-16.7 6.6-16.7 14.8s7.5 14.8 16.7 14.8v-29.6z"/><ellipse class="st3" cx="462.1" cy="171.6" rx="6.7" ry="5.9"/><path class="st4" d="M462.1 165.7c-3.7 0-6.7 2.6-6.7 5.9s3 5.9 6.7 5.9v-11.8z"/><ellipse class="st3" cx="467.8" cy="167.7" rx="5.8" ry="4.8"/><path class="st4" d="M467.8 162.9c-3.2 0-5.8 2.2-5.8 4.8s2.6 4.8 5.8 4.8v-9.6z"/><ellipse class="st3" cx="489" cy="151.3" rx="5.8" ry="4.8"/><path class="st4" d="M489 146.5c-3.2 0-5.8 2.2-5.8 4.8s2.5 4.8 5.8 4.8v-9.6z"/><path class="st5" d="M480.4 185.7l-.7-.7 6-9.1.8.7z"/><path class="st6" d="M486.1 176.2l-.4-.3-6 9.1.3.3z"/><path class="st5" d="M479.4 182.4l-.7-.8 6-9 .8.7z"/><path class="st6" d="M485.1 172.9l-.4-.3-6 9 .3.4z"/><path class="st5" d="M471.9 172.1l-.6.9 7.6 7.3.6-.9z"/><path class="st6" d="M479.2 179.8l-.3.5-7.6-7.3.3-.5z"/><path class="st5" d="M478.2 172.9h2.9v28.3h-2.9z"/><path class="st6" d="M478.2 172.9h1.5v28.3h-1.5z"/><ellipse class="st3" cx="480.4" cy="161.9" rx="17.3" ry="14.6"/><path class="st4" d="M480.4 147.3c-9.5 0-17.3 6.5-17.3 14.6s7.8 14.6 17.3 14.6v-29.2z"/><ellipse class="st3" cx="489" cy="172.9" rx="6.9" ry="5.8"/><path class="st4" d="M489 167.1c-3.8 0-6.9 2.6-6.9 5.8s3.1 5.8 6.9 5.8v-11.6z"/><g id="hotel-bakery"><g id="hotel_1_"><path class="st7" d="M273.7 135.3h18.5v7.9h-18.5z"/><path class="st8" d="M263.3 150.7h39.2v49.5h-39.2z"/><g id="_Group_6"><path class="st9" d="M271.8 160.4h22.3v10.4h-22.3z"/><path class="st10" d="M271.8 160.4h22.3v10.4h-22.3z"/><g id="_Group_7"><path id="_Path_11" class="st10" d="M279 160.4v10.4"/><path id="_Path_12" class="st10" d="M286.9 160.4v10.4"/></g><path class="st11" d="M270.4 171.2h25.2v2h-25.2z"/></g><g id="_Group_8"><path class="st9" d="M271.8 179.5h22.3v10.4h-22.3z"/><path class="st10" d="M271.8 179.5h22.3v10.4h-22.3z"/><g id="_Group_9"><path id="_Path_14" class="st10" d="M279 179.5v10.4"/><path id="_Path_15" class="st10" d="M286.8 179.5v10.4"/></g><path class="st11" d="M270.4 190.3h25.2v2h-25.2z"/></g><path id="_Path_16" class="st12" d="M263.3 150.7h39.3"/><path class="st13" d="M259.3 150.5H306l-4.5-4.3h-5.6l-2.6-3.3H272l-2.4 3.2h-5.8z"/><path class="st14" d="M277.5 141.4h-.5v-1.9h-2.2v1.9h-.5v-4.1h.5v1.7h2.2v-1.7h.5v4.1zm4.7-2.1c0 .6-.1 1.1-.5 1.6-.4.4-.9.6-1.4.6-.5 0-1.1-.2-1.4-.6-.4-.4-.5-1-.5-1.6 0-.6.1-1.1.5-1.6.4-.4.9-.6 1.4-.5.5 0 1 .2 1.4.6.4.4.6 1 .5 1.5zm-3.3 0c0 .4.1.9.4 1.3.5.6 1.5.6 2 0 .3-.4.4-.8.4-1.3 0-.4-.1-.9-.4-1.3-.3-.3-.6-.5-1-.4-.4 0-.8.1-1 .4-.3.5-.4.9-.4 1.3zm5.5 2.1h-.4v-3.7h-1.3v-.4h3.1v.4h-1.3v3.7zm4.3 0h-2.3v-4.1h2.3v.4h-1.8v1.3h1.7v.4h-1.7v1.5h1.8v.5zm.9 0v-4.1h.5v3.7h1.8v.4h-2.3z"/></g><g id="bakery"><path class="st15" d="M215.7 199.7h-19v-23.9l19-7.8z"/><path class="st16" d="M196.7 176.5c-.3 0-.5-.2-.6-.4-.1-.4 0-.8.4-.9l19-7.9c.4-.2.8 0 .9.4.1.4 0 .8-.4.9l-19 7.9h-.3z"/><path class="st17" d="M215.7 152h35.5v47.7h-35.5z"/><g id="_Group_"><path class="st9" d="M223.4 161.4h20.2v10h-20.2z"/><path class="st10" d="M223.4 161.4h20.2v10h-20.2z"/><g id="_Group_2"><path id="_Path_2" class="st10" d="M229.9 161.4v10"/><path id="_Path_3" class="st10" d="M237 161.4v10"/></g><path class="st18" d="M222.1 171.8h22.7v1.9h-22.7z"/></g><g id="_Group_3"><path class="st9" d="M223.4 179.8h20.2v10h-20.2z"/><path class="st10" d="M223.4 179.8h20.2v10h-20.2z"/><g id="_Group_4"><path id="_Path_5" class="st10" d="M229.9 179.8v10"/><path id="_Path_6" class="st10" d="M237 179.8v10"/></g><path class="st18" d="M222.1 190.2h22.7v1.9h-22.7z"/></g><path class="st16" d="M215 151.3h36.9v1.4H215z" id="_Group_5"/><path class="st19" d="M201.9 179.6h8.5v8.5h-8.5z"/><path class="st10" d="M201.9 179.6h8.5v8.5h-8.5z"/><path class="st20" d="M225.8 158.6v-3.4h.9c.2 0 .5.1.7.2.2.1.3.3.2.6 0 .4-.2.7-.6.8.2 0 .4.1.5.3.1.2.2.4.2.6 0 .3-.1.5-.3.7-.2.2-.5.3-.7.3l-.9-.1zm.3-3v1.1h.4c.2 0 .3 0 .5-.2.1-.1.2-.3.2-.4 0-.3-.2-.5-.6-.5h-.5zm0 1.4v1.2h.5c.2 0 .4 0 .5-.2.1-.1.2-.3.2-.5 0-.4-.3-.6-.8-.6h-.4zm4.8 1.6h-.4l-.3-1h-1.4l-.3 1h-.5l1.2-3.4h.4l1.3 3.4zm-.9-1.3l-.5-1.4v-.2c0 .1 0 .2-.1.2l-.5 1.4h1.1zm3.6 1.3h-.5l-1.2-1.6-.1-.1v1.7h-.4v-3.4h.4v1.6l.1-.1 1.2-1.5h.5l-1.4 1.6 1.4 1.8zm2.1 0H234v-3.4h1.6v.4h-1.3v1.1h1.2v.4h-1.2v1.2h1.3l.1.3zm3 0h-.5l-.5-1c0-.1-.1-.2-.1-.2 0-.1-.1-.1-.1-.2 0 0-.1-.1-.2-.1h-.5v1.4h-.4v-3.4h1c.1 0 .3 0 .4.1.1 0 .2.1.3.2.1.1.2.2.2.3.1.1.1.3.1.4 0 .1 0 .2-.1.3 0 .1-.1.2-.1.3l-.2.2c-.1.1-.2.1-.3.1.1 0 .1.1.1.1l.1.1s.1.1.1.2l.1.2.6 1zm-2-3v1.2h.8c.1 0 .1-.1.2-.1.1-.1.1-.1.1-.2s.1-.2.1-.3c0-.2-.1-.3-.2-.4-.1-.1-.3-.2-.5-.2h-.5zm4.5-.4l-1.1 2.1v1.3h-.4v-1.2l-1-2.2h.4l.7 1.5s0 .1.1.2c0-.1.1-.1.1-.2l.8-1.5h.4z"/></g></g><g id="house-green"><path class="st21" d="M84.4 179.3c-.2-.3-.5-.6-.9-.7l-19.4-15.3-19.2 15.4c-.2.1-.3.2-.5.4-.3.3-.4.7-.4 1.2 0 1 .9 1.9 2 1.8h36.8c1.1 0 2-.8 2-1.8-.1-.4-.2-.7-.4-1z"/><path class="st22" d="M80.2 198.9H48.6v-19.5l15.6-12 16 11.9z"/><path class="st1" d="M66.4 189.4h6v6.6h-6z"/><path class="st23" d="M66.9 189.9h5v5.5h-5z"/><path class="st1" d="M66.4 192.7h6v.5h-6z"/><path class="st1" d="M69.2 189.9h1v5.5h-1zm-15.4-1.5h7.1v10.5h-7.1z"/><path class="st21" d="M54.4 189h6v9.9h-6zm10.7 6.7h8.4v.6h-8.4z"/><path class="st1" d="M61.3 175.4h6v6.6h-6z"/><path class="st23" d="M61.8 176h5v5.5h-5z"/><path class="st1" d="M61.3 178.7h6v.5h-6z"/><path class="st1" d="M64.1 176h1v5.5h-1z"/><path class="st21" d="M67.3 175.4h3.6v6.6h-3.6zm-9.6 0h3.6v6.6h-3.6z"/></g><g id="house-yellow"><path class="st21" d="M371.9 177.5c-.2-.4-.6-.7-.9-.8l-20-17.2-19.9 17.3c-.2.1-.4.3-.5.4-.3.4-.5.8-.5 1.3 0 1.2.9 2.1 2 2.1h38c1.1 0 2-.9 2-2.1.1-.3 0-.7-.2-1z"/><path class="st24" d="M367.7 199.6H335v-22l16.1-13.5 16.6 13.4z"/><path class="st1" d="M353.4 188.9h6.2v7.4h-6.2z"/><path class="st23" d="M353.9 189.5h5.2v6.2h-5.2z"/><path class="st1" d="M353.4 192.6h6.2v.6h-6.2z"/><path class="st1" d="M356.3 189.5h1v6.2h-1zm-16-1.4h7.5v11.5h-7.5z"/><path class="st21" d="M340.9 188.7h6.3v10.9h-6.3zm11.1 7.4h8.6v.6H352z"/><path class="st1" d="M348.1 173.2h6.2v7.4h-6.2z"/><path class="st23" d="M348.6 173.8h5.2v6.2h-5.2z"/><path class="st1" d="M348.1 176.9h6.2v.6h-6.2z"/><path class="st1" d="M351 173.8h1v6.2h-1z"/><path class="st21" d="M354.3 173.2h3.7v7.4h-3.7zm-9.9 0h3.7v7.4h-3.7z"/></g><g id="shop"><path class="st25" d="M6.5 180.5h28.8c.8 0 1.5.7 1.5 1.5v12.8c0 .8-.7 1.5-1.5 1.5H6.5c-.8 0-1.5-.7-1.5-1.5V182c0-.9.7-1.5 1.5-1.5z"/><path class="st26" d="M5.7 196.2h30.2v1.4H5.7z"/><path class="st27" d="M4.6 197.4h32.5v1.4H4.6z"/><path class="st9" d="M8 182.3h16.2v10.9H8z"/><path class="st28" d="M8.6 192.7v-10.4H8v10.9h16.2v-.5z"/><path class="st29" d="M5 180.2v3.8c.1 1.1 1 1.9 2.1 1.8 1-.1 1.8-.8 1.9-1.8v-3.8H5z"/><path class="st30" d="M9 180.2v3.8c.1 1.1 1 1.9 2.1 1.8 1-.1 1.8-.8 1.9-1.8v-3.8H9z"/><path class="st29" d="M12.9 180.2v3.8c.1 1.1 1 1.9 2.1 1.8 1-.1 1.8-.8 1.9-1.8v-3.8h-4z"/><path class="st30" d="M16.9 180.2v3.8c0 1.1.9 1.9 2 1.9s2-.9 2-1.9v-3.8h-4z"/><path class="st29" d="M20.8 180.2v3.8c.1 1.1 1 1.9 2.1 1.8 1-.1 1.8-.8 1.9-1.8v-3.8h-4z"/><path class="st30" d="M24.8 180.2v3.8c.1 1.1 1 1.9 2.1 1.8 1-.1 1.8-.8 1.9-1.8v-3.8h-4z"/><path class="st29" d="M28.8 180.2v3.8c.1 1.1 1 1.9 2.1 1.8 1-.1 1.8-.8 1.9-1.8v-3.8h-4z"/><path class="st30" d="M32.7 180.2v3.8c.1 1.1 1 1.9 2.1 1.8 1-.1 1.8-.8 1.9-1.8v-3.8h-4z"/><path class="st31" d="M10.7 174.1L5 180.2h4l4.3-6.1h-2.6z"/><path class="st32" d="M13.2 174.1L9 180.2h4l2.9-6.1h-2.7z"/><path class="st31" d="M15.8 174.1l-2.9 6.1h4l1.4-6.1h-2.5z"/><path class="st32" d="M18.3 174.1l-1.4 6.1h4v-6.1h-2.6z"/><path class="st31" d="M20.8 174.1v6.1h4l-1.4-6.1h-2.6z"/><path class="st32" d="M23.4 174.1l1.4 6.1h4l-2.9-6.1h-2.5z"/><path class="st31" d="M25.9 174.1l2.9 6.1h4l-4.3-6.1h-2.6z"/><path class="st32" d="M32.7 180.2h4l-5.7-6.1h-2.5l4.2 6.1z"/><path class="st31" d="M10.7 172.8h2.5v1.3h-2.5zm2.5 0h2.5v1.3h-2.5zm2.6 0h2.5v1.3h-2.5zm2.5 0h2.5v1.3h-2.5zm2.5 0h2.5v1.3h-2.5zm2.6 0h2.5v1.3h-2.5zm2.5 0h2.5v1.3h-2.5zm2.6 0H31v1.3h-2.5z"/><path class="st24" d="M25.5 185.3h8.3v10.9h-8.3z"/><path class="st33" d="M26.6 191.3h6.3v4.1h-6.3z"/><path class="st9" d="M26.6 186.3h6.3v4.2h-6.3z"/><path class="st28" d="M26.9 190.3v-4h-.3v4.2h6.3v-.2z"/></g><g id="tree4"><path class="st5" d="M187.7 191.4h1.5v7.9h-1.5z"/><path class="st6" d="M187.7 191.4h.7v7.9h-.7z"/><path class="st34" d="M193.1 194.6l-4.6-19.7-4.7 19.7h.8l-.4 1.5h8.5l-.3-1.5z"/><path class="st35" d="M188.5 196.1v-21.2l-4.7 19.7h.8l-.3 1.5z"/></g><g id="tree3"><path class="st5" d="M176.2 191.4h1.5v7.9h-1.5z"/><path class="st6" d="M176.2 191.4h.7v7.9h-.7z"/><path class="st34" d="M181.6 194.6l-4.7-19.7-4.6 19.7h.7l-.3 1.5h8.5l-.3-1.5z"/><path class="st35" d="M177 196.1v-21.2l-4.7 19.7h.8l-.3 1.5z"/></g><g id="house-red"><path class="st36" d="M118.3 158.2h6.7v7.3h-6.7z"/><path class="st37" d="M117.1 155h8.9v3.2h-8.9z"/><path class="st38" d="M168.6 180.6H97.5l8.7-15.5h53.3z"/><path class="st39" d="M104.3 180.6h57.1v16.7h-57.1z"/><path class="st1" d="M153.2 178.9c-.3-.4-.7-.7-1.2-.8l-19.2-30.9-18.8 31.1c-.2.1-.5.3-.6.4-.4.4-.6.8-.6 1.3 0 1.2 1.2 2.1 2.6 2.1h35.7c1.4 0 2.6-.9 2.6-2.1-.1-.4-.3-.8-.5-1.1z"/><path class="st36" d="M147.2 198.7h-28.9v-21l14.9-24.5 14 24.4z"/><path class="st1" d="M107.7 186h8v7.5h-8z"/><path class="st23" d="M108.3 186.6h6.7v6.3h-6.7z"/><path class="st1" d="M107.7 189.8h8v.6h-8z"/><path class="st1" d="M111.4 186.6h1.3v6.3h-1.3zm39.2-.6h8v7.5h-8z"/><path class="st23" d="M151.3 186.6h6.7v6.3h-6.7z"/><path class="st1" d="M150.6 189.8h8v.6h-8z"/><path class="st1" d="M154.3 186.6h1.3v6.3h-1.3zm-25.5-22h8v12h-8z"/><path class="st23" d="M129.4 165.6h6.7v10h-6.7z"/><path class="st1" d="M128.8 170.6h8v.9h-8z"/><path class="st1" d="M132.5 165.6h1.3v10h-1.3zm5 33.1v-11.5c0-1.8-2.1-3.2-4.7-3.2s-4.7 1.4-4.7 3.2v11.5h9.4z"/><path class="st40" d="M136.6 198.7v-10.8c-.1-1.7-1.8-3.1-3.9-3-1.9.1-3.5 1.4-3.6 3v10.8h7.5z"/><path class="st38" d="M99.8 197.3h66.8v2.5H99.8z"/></g><g id="tree2"><path class="st5" d="M94.3 196.4l-.2.2-2.2-4.2.2-.2z"/><path class="st6" d="M92 192.3l-.1.1 2.2 4.2.1-.1z"/><path class="st5" d="M94.6 195.4l-.2-.1 1.4-3.7.2.1z"/><path class="st6" d="M95.9 191.6h-.1l-1.4 3.7.1.1z"/><path class="st5" d="M93.8 188.1h1v10.4h-1z"/><path class="st6" d="M94.3 188.1h-.5v10.4h.5v-7.9z"/><path class="st34" d="M97 188.1l-2.7-8.5-2.7 8.5h.5l-.2.6h4.9l-.2-.6z"/><path class="st35" d="M94.3 188.7v-9.1l-2.6 8.5h.4l-.2.6z"/><path class="st34" d="M92.3 191l-1.3 2.1h2.3z"/><path class="st35" d="M92.3 191l-1.3 2.1h1.3z"/><path class="st34" d="M96 189.1l-1 2.8h1.8z"/><path class="st35" d="M96 189.1l-1 2.8h1z"/></g><g id="tree1"><path class="st5" d="M322.6 196.6l-.2.2-2.8-4.6.3-.3z"/><path class="st6" d="M319.7 192l-.1.2 2.8 4.6.1-.1z"/><path class="st5" d="M323 195.5l-.3-.1 1.7-4.2.3.2z"/><path class="st6" d="M324.6 191.3l-.2-.1-1.7 4.2h.2z"/><path class="st5" d="M322 187.4h1.2v11.5H322z"/><path class="st6" d="M322.6 187.4h-.6V199h.6v-8.8z"/><path class="st34" d="M326 187.3l-3.4-9.4-3.4 9.4h.6l-.3.8h6.2l-.2-.8z"/><path class="st35" d="M322.6 188.1v-10.2l-3.4 9.4h.6l-.2.8z"/><path class="st34" d="M320 190.5l-1.6 2.4h2.9z"/><path class="st35" d="M320 190.5l-1.6 2.4h1.6z"/><path class="st34" d="M324.7 188.5l-1.2 3h2.2z"/><path class="st35" d="M324.7 188.5l-1.2 3h1.2z"/></g><g id="tree1_1_"><path class="st5" d="M312.1 196.8l-.2.2-2.8-4.7.2-.2z"/><path class="st6" d="M309.2 192.2l-.1.1 2.8 4.7.1-.1z"/><path class="st5" d="M312.5 195.7l-.3-.2 1.7-4.1.3.1z"/><path class="st6" d="M314 191.4h-.1l-1.7 4.1.1.1z"/><path class="st5" d="M311.5 187.5h1.2V199h-1.2z"/><path class="st6" d="M312.1 187.5h-.6v11.6h.6v-8.8z"/><path class="st34" d="M315.5 187.5l-3.4-9.5-3.4 9.5h.6l-.3.7h6.2l-.2-.7z"/><path class="st35" d="M312.1 188.2V178l-3.4 9.5h.6l-.3.7z"/><path class="st34" d="M309.5 190.7l-1.6 2.4h2.9z"/><path class="st35" d="M309.5 190.7l-1.6 2.4h1.6z"/><path class="st34" d="M314.2 188.6l-1.2 3.1h2.2z"/><path class="st35" d="M314.2 188.6l-1.2 3.1h1.2z"/></g><g id="road"><path class="st41" d="M0 220.6h498.1v62H0z"/><path class="st42" d="M11.5 254.3h35.9m27.2 0h35.9m27.2 0h35.9m27.2 0h35.8m27.3 0h35.8m27.3 0h35.8m27.3 0h35.8m27.3 0H489"/></g><path class="st43" d="M375 199.3h123.1v7.1H375z"/><path class="st44" d="M375 204.4V220h123.1v-15.6z"/><path class="st45" d="M.9 199H375v21.2H.9z"/></svg>