<svg id="Layer_1" xmlns="http://www.w3.org/2000/svg" viewBox="0 0 1423 405.4"><style>.st0{opacity:.1;fill:#231f20;enable-background:new}.st1{fill:#96a2a4}.st2{fill:#fff}.st3{opacity:.3;fill:#231f20;enable-background:new}.st4{fill:#5e5f61}.st5{fill:none;stroke:#fff;stroke-width:2;stroke-miterlimit:10}.st6{fill:#ff9d00}.st7{fill:#ceaa72}.st8{fill:#c0e0de}.st9{fill:none;stroke:#fff;stroke-miterlimit:10}.st10{fill:#543c36}.st11{fill:none;stroke:#543c36;stroke-width:4;stroke-linecap:square;stroke-miterlimit:10}.st12{fill:#a40000}.st13{fill:#890000}.st14{fill:#b73d43}.st15{fill:#4f0000}.st16{fill:#cc4047}.st17{fill:#604123}.st18{fill:#9ab6b8}.st19{fill:#ff0}.st20{fill:#809b3d}.st21{opacity:.2;fill:#fff;enable-background:new}.st22{fill:#855222}.st23{fill:#ad6729}.st24{fill:#6e3e19}.st25{fill:#619959}.st26{fill:#cce9eb}.st27{fill:#faae40}.st28{fill:#a8745d}.st29{fill:#a73330}.st30{fill:#b27d62}.st31{fill:#b7ad4e}.st32{fill:#852a34}.st33{fill:#44130c}.st34{fill:#9ad4da}.st35{fill:#b21f24}.st36{fill:#c93427}.st37{fill:#db4126}.st38{fill:#f16228}.st39{fill:none;stroke:#fdca80;stroke-miterlimit:10}.st40{fill:#3f8252}.st41{opacity:.2;fill:#57ae62;enable-background:new}.st42{fill:#e74543}.st43{fill:#a82d2b}.st44{fill:#eaf6f7}.st45{fill:#bc3734}.st46{fill:#c23c39}.st47{fill:#9b805d}.st48{fill:#ddd}.st49{fill:#82cb38}.st50{fill:#aa5541}</style><g id="content"><g id="mountains"><path class="st0" d="M1479.8 303.8c0 2.2 0 4.3-.1 6.5l-.1 5.1v3.3c0 1.9-.1 3.8-.1 5.7v.7c0 1.6-.1 3.4-.1 5v3.3l-346.5-.8.6-.8h-.6l.7-1 54.4-80.9 46.4-69 .2-.3 33.8-50.2 51.2-76.3v.8l1.1-1.7 45.9 72.2.1.1 3.4 5.3 80.7 127.1 3.1 4.8 15.4 24.2.2.3 1.2 1.8 1 1.6.7 1.1.4.6.4.7.4.7 1.4 2.3.4.7.4.7 4 6.4z"/><path class="st0" d="M1343.2 379.3c0 2.2 0 4.3-.1 6.5l-.1 5.1v3.3c0 1.9-.1 3.8-.1 5.7v.7c0 1.6-.1 3.4-.1 5v3.3l-346.6-.8.6-.8h-.6l.7-1 54.4-80.9 46.4-69 .2-.3 33.8-50.2 51.2-76.3v.8l1.1-1.7 45.9 72.2.1.1 3.4 5.3 80.7 127.1 3.1 4.8 15.4 24.2.2.3 1.2 1.8 1 1.6.7 1.1.4.6.4.7.4.7 1.4 2.3.4.7.4.7 4.1 6.4z"/><path class="st1" d="M1234.7 155.9l29.1 51.1 75 131.9-204.2-.4z"/><path class="st2" d="M1261.7 203.3s-4-4.3-7.9 0c-3.8 4.3-14.4 4.3-19.2-2s-7.7 3.2-9.6 4.9c-1.9 1.7-4.5 1.2-7-7.1-2.5-8.3-9.1 3.9-9.1 3.9l25.8-47.1 27 47.4z"/><path class="st3" d="M1235.3 156.5l28.5 49.9 75 132-103.9-.2z"/><path class="st1" d="M1430.8 248.8v-1 1zm.3-163.9c0-.8 0-1.6.1-2.5l-.1 2.9v-.4z"/><path class="st1" d="M1430.8 324.6v15.2c0 2.7 0 5.3-.1 8v.9c0 2.2 0 4.3-.1 6.5v8.4c0 1.9-.1 3.8-.1 5.7v.7c-.1 2-.1 4.1-.2 6.2v1.1l-205.5-.5.4-.9.3-.7 20.4-42.5.2-.4 74.8-156.5 37.1-77.5v-.2l.1-.2v-.1l.1-.1 46.1-96.3 1.2 2.4 25.8 52.2-.1 29.4v10.9c0 2.6 0 5.1-.1 7.7 0 3.2 0 6.3-.1 9.4v24.3c0 6.7 0 13.4.1 20.1 0 4.4 0 8.7.1 13.1.1 25.9.4 51.7-.1 77.7V275c0 5.6 0 11.2.1 16.8v16c-.4 5.6-.4 11.3-.4 16.8z"/><path class="st1" d="M1429.9 376.4c.1-2 .1-4.2.2-6.2 0 1.6-.1 3.4-.1 5 0 .4 0 .8-.1 1.2v1.1-1.1zm.5-19.2v-1.9l-.1 5.1v1.5c.1-1.6.1-3.1.1-4.7zm.4-26.3v8.7c0 2.7 0 5.3-.1 8 0-2.7.1-5.3.1-8v-3.9c-.1-1.4-.1-3 0-4.8zm0-33.5v-4.9 4.9zm.1 4.5v-2.6 2.6zm-.1 6v-6 6zm1.2-250.2z"/><path class="st2" d="M1430.9 96.4v-.3c0 2.6 0 5.1-.1 7.7v-5.9c.1-.5.1-1 .1-1.5zm.1-10.6c0 1.3 0 2.7-.1 3.9 0-1.4.1-2.9.1-4.3V85c.1.2 0 .5 0 .8z"/><path class="st2" d="M1431.1 82.4l-.1 2.9v-.4c.1-.8.1-1.5.1-2.5z"/><path class="st2" d="M1431.2 56l-.1 28.9v7.3l-.1 4.1v7.4c-8.1 2.7-19.2.8-25.7-7.4l-1.2-1.5c-8.5-12.8-13.8 6.5-17.2 10.1-3.4 3.6-8.1 2.4-12.6-14.5-4-15.4-14.2 3.9-16.1 7.4l-.1.1 46.2-96.6 1.2 2.4 25.7 52.3z"/><path class="st3" d="M1430.8 309.7v30.1c0 2.7 0 5.3-.1 8v.9c0 2.2 0 4.3-.1 6.5v8.4c0 1.9-.1 3.8-.1 5.7v.7c0 1.6-.1 3.4-.1 5v1.2l-25.4-.1.8-373.7 25.8 52.2-.1 30.5v7.1l-.1 4.1v7.4c0 3.2 0 6.3-.1 9.4v24.3c0 6.7 0 13.4.1 20.1 0 4.4 0 8.7.1 13.1.1 25.9.4 51.7-.1 77.7v26.4c0 5.6 0 11.2.1 16.8v15.8c-.7 1.2-.7 1.8-.7 2.4z"/><path class="st3" d="M1431.1 84.9c0-.8 0-1.6.1-2.5l-.1 2.9v-.4zm.9-27.2zm-1.2 191.1v-1 1zm-.4 108.4v-1.9l-.1 5.1c.1-1.1.1-2.1.1-3.2zm.4-28.8v2.6-2.6zm0 4.6v2.8c-.1-.9 0-1.8 0-2.8zm0-34.2v-3 3zm.1 1.5v-1.1 1.1zm-.1 7.6v-6.1 6.1zm.1-211.5v-.3c0 2.6 0 5.1-.1 7.7 0 3.2 0 6.3-.1 9.4 0-3.2 0-6.3.1-9.4v-5.9c.1-.5.1-1 .1-1.5z"/><path class="st1" d="M1138.1 143.5l37 64.9 95.4 167.9-259.7-.5z"/><path class="st2" d="M1172.4 203.7s-5.1-5.4-10 0-18.3 5.5-24.4-2.5c-6.1-8-9.8 4-12.2 6.2-2.4 2.2-5.8 1.5-9-8.9-3.1-10.5-11.6 5-11.6 5l32.8-59.9 34.4 60.1z"/><path class="st3" d="M1139 144.2l36.1 63.5 95.4 167.9-132-.3z"/></g><g id="road"><path transform="rotate(-89.873 710.158 376.016)" class="st4" d="M670.2-341.9h79.9v1435.8h-79.9z"/><path class="st5" d="M25.5 378.1l103.3.2m78.6.2l103.3.2m78.6.2l103.2.2m78.6.2l103.3.2m78.6.2l103.3.2m78.6.2l103.3.2m78.6.2l103.2.2m78.6.2l103.3.2"/></g><g id="hotel-bakery"><g id="hotel_1_"><path transform="rotate(-89.873 819.725 199.334)" class="st6" d="M811.5 180.6h16.4v37.5h-16.4z"/><path transform="rotate(-89.873 819.56 273.77)" class="st7" d="M768.6 233.9h102v79.7h-102z"/><g id="_Group_6"><path transform="rotate(-89.873 819.554 253.548)" class="st8" d="M808.9 230.9h21.4v45.3h-21.4z"/><path transform="rotate(-89.873 819.554 253.548)" class="st9" d="M808.9 230.9h21.4v45.3h-21.4z"/><g id="_Group_7"><path id="_Path_11" class="st9" d="M811.7 242.8l-.1 21.4"/><path id="_Path_12" class="st9" d="M827.6 242.9v21.4"/></g><path transform="rotate(-89.873 819.625 267.063)" class="st10" d="M817.6 241.5h4v51.2h-4z"/></g><g id="_Group_8"><path transform="rotate(-89.873 819.467 292.915)" class="st8" d="M808.7 270.3h21.5v45.3h-21.5z"/><path transform="rotate(-89.873 819.467 292.915)" class="st9" d="M808.7 270.3h21.5v45.3h-21.5z"/><g id="_Group_9"><path id="_Path_14" class="st9" d="M811.6 282.1l-.1 21.4"/><path id="_Path_15" class="st9" d="M827.5 282.2v21.4"/></g><path transform="rotate(-89.873 819.538 306.38)" class="st10" d="M817.5 280.8h4V332h-4z"/></g><path id="_Path_16" class="st11" d="M779.8 222.7l79.7.2"/><path class="st12" d="M771.6 222.3l94.9.2-9.2-8.7-11.2-.1-5.3-6.8-43.3-.1-4.9 6.4h-11.9z"/><path class="st13" d="M808.6 203.7h-1v-4h-4.4v4h-1v-8.5h1v3.6h4.4v-3.6h1v8.5zm9.7-4.3c.1 1.1-.3 2.3-1 3.2-.7.8-1.8 1.2-2.8 1.1-1.1.1-2.2-.3-2.9-1.1-.7-.9-1-2-1-3.2-.1-1.1.3-2.3 1-3.2.7-.8 1.8-1.2 2.9-1.1 1.1-.1 2.1.4 2.8 1.1.7 1 1 2.1 1 3.2zm-6.7 0c-.1.9.2 1.8.7 2.6 1.1 1.1 2.9 1.2 4.1.1l.1-.1c.5-.7.8-1.6.7-2.7.1-.9-.2-1.8-.7-2.6-.5-.6-1.3-.9-2.1-.9s-1.6.3-2.1.9c-.5.9-.8 1.8-.7 2.7zm11.1 4.3h-1v-7.6h-2.6v-.9h6.4v.9h-2.7l-.1 7.6zm8.7.1h-4.7v-8.5h4.7v.9h-3.7v2.8h3.5v.9h-3.5v3.1h3.7v.8zm1.8 0v-8.5h1v7.6h3.7v.9h-4.7z"/></g><g id="bakery"><path class="st14" d="M682.9 323.5l-38.6-.1.1-49.2 38.7-16.1z"/><path class="st15" d="M644.4 275.7c-.6 0-1.1-.3-1.3-.9-.3-.7 0-1.5.7-1.8l38.7-16.1c.7-.3 1.5 0 1.8.8.3.7 0 1.5-.7 1.8l-38.7 16.1c-.1 0-.3.1-.5.1z"/><path transform="rotate(-89.873 719.112 274.416)" class="st16" d="M669.9 238.4h98.4v71.9h-98.4z"/><g id="_Group_"><path transform="rotate(-89.873 719.206 254.912)" class="st8" d="M708.9 234.4h20.7v41h-20.7z"/><path transform="rotate(-89.873 719.206 254.912)" class="st9" d="M708.9 234.4h20.7v41h-20.7z"/><g id="_Group_2"><path id="_Path_2" class="st9" d="M712.1 244.6l-.1 20.6"/><path id="_Path_3" class="st9" d="M726.4 244.6l-.1 20.7"/></g><path transform="rotate(-89.873 719.177 267.915)" class="st17" d="M717.2 244.8h3.9V291h-3.9z"/></g><g id="_Group_3"><path transform="rotate(-89.873 719.121 292.897)" class="st8" d="M708.8 272.4h20.7v41h-20.7z"/><path transform="rotate(-89.873 719.121 292.897)" class="st9" d="M708.8 272.4h20.7v41h-20.7z"/><g id="_Group_4"><path id="_Path_5" class="st9" d="M711.9 282.5l-.1 20.7"/><path id="_Path_6" class="st9" d="M726.3 282.6v20.7"/></g><path transform="rotate(-89.873 719.092 305.9)" class="st17" d="M717.1 282.8h3.9V329h-3.9z"/></g><path transform="rotate(-89.873 719.272 225.22)" class="st15" d="M717.8 187.8h2.9v74.9h-2.9z" id="_Group_5"/><path transform="rotate(-89.873 663.681 290.829)" class="st18" d="M654.9 282.2h17.6v17.3h-17.6z"/><path transform="rotate(-89.873 663.681 290.829)" class="st9" d="M654.9 282.2h17.6v17.3h-17.6z"/><path class="st19" d="M703.5 238.9v-7h1.8c.5 0 1 .1 1.3.4.3.3.5.7.5 1.1 0 .7-.4 1.4-1.1 1.6.4 0 .8.2 1 .5.3.3.4.7.4 1.2s-.2 1.1-.6 1.4c-.4.4-1 .6-1.5.5l-1.8.3zm.8-6.2v2.3h.8c.4 0 .7-.1 1-.3.2-.2.4-.6.4-.9 0-.7-.4-1-1.3-1l-.9-.1zm0 2.9v2.6h1c.4 0 .7-.1 1-.3.2-.2.4-.6.4-.9 0-.8-.5-1.2-1.6-1.2h-.8v-.2zm9.6 3.3h-.8l-.7-1.9h-2.7l-.6 1.9h-.8l2.5-7h.8l2.3 7zm-1.7-2.7l-1-3c0-.1-.1-.3-.1-.5 0 .2-.1.3-.1.5l-1 3h2.2zm7.2 2.7h-1.1l-2.5-3.2c-.1-.1-.1-.2-.2-.2v3.5h-.8v-7h.8v3.3c.1-.1.1-.2.2-.2l2.4-3.1h.9l-2.8 3.4 3.1 3.5zm4.4.1h-3.4v-7h3.3v.7h-2.5v2.4h2.3v.7h-2.3v2.5h2.7l-.1.7zm5.9 0h-.9l-1.1-1.9c-.1-.2-.2-.3-.3-.5l-.3-.3c-.1-.1-.2-.1-.3-.2-.1 0-.3-.1-.4-.1h-.6v3h-.8v-7h1.9c.3 0 .5 0 .8.1l.6.3c.2.2.3.3.4.6.1.3.2.5.1.8 0 .2 0 .4-.1.7-.1.2-.2.4-.3.5-.1.2-.3.3-.4.4l-.6.3c.1 0 .2.1.3.2.1.1.2.1.2.2.1.1.1.2.2.3l.2.4 1.4 2.2zm-3.9-6.3v2.6h1.1c.2 0 .4 0 .5-.1.2-.1.3-.1.4-.3.1-.1.2-.3.3-.4.1-.2.1-.4.1-.5 0-.3-.1-.6-.3-.9-.3-.2-.6-.3-1-.3l-1.1-.1zm9.1-.8l-2.1 4.4v2.6h-.8v-2.6l-2.1-4.4h.9l1.4 3.2.2.4c0-.1.1-.3.2-.4l1.5-3.2h.8z"/></g></g><g id="tree7_4_"><ellipse transform="rotate(-89.873 1233.398 298.852)" class="st20" cx="1233.4" cy="298.9" rx="3.5" ry="4.2"/><path class="st21" d="M1233.4 295.4c-2.3 0-4.2 1.5-4.2 3.5 0 1.9 1.9 3.5 4.2 3.5v-7z"/><ellipse transform="rotate(-89.873 1248.862 287.112)" class="st20" cx="1248.9" cy="287.1" rx="3.5" ry="4.2"/><path class="st21" d="M1248.9 283.7c-2.3 0-4.2 1.5-4.2 3.5 0 1.9 1.9 3.5 4.2 3.5v-7z"/><path class="st22" d="M1242.7 311.7l-.7-.5 4.5-6.5.5.5z"/><path class="st23" d="M1246.8 304.9l-.3-.2-4.5 6.5.4.2z"/><path class="st22" d="M1242 309.3l-.7-.5 4.5-6.4.5.4z"/><path class="st23" d="M1246 302.6l-.2-.2-4.5 6.4.4.2z"/><path class="st22" d="M1236.4 301.9l-.4.6 5.5 5.3.5-.6z"/><path class="st23" d="M1241.8 307.5l-.3.3-5.5-5.3.2-.3z"/><path transform="rotate(-89.873 1242.095 312.642)" class="st22" d="M1232 311.6h20.2v2.1H1232z"/><path transform="rotate(-89.873 1241.59 312.641)" class="st23" d="M1231.5 312.1h20.2v1.1h-20.2z"/><ellipse transform="rotate(-89.873 1242.69 294.675)" class="st20" cx="1242.7" cy="294.7" rx="10.4" ry="12.6"/><path class="st21" d="M1242.7 284.3c-7 0-12.6 4.6-12.6 10.3 0 5.7 5.6 10.4 12.6 10.4v-20.7z"/><ellipse transform="rotate(-89.873 1248.827 302.572)" class="st20" cx="1248.8" cy="302.6" rx="4.2" ry="5"/><path class="st21" d="M1248.8 298.4c-2.8 0-5 1.8-5.1 4.2 0 2.3 2.2 4.2 5 4.2l.1-8.4z"/></g><g id="tree6_3_"><ellipse transform="rotate(-89.873 1197.802 289.046)" class="st20" cx="1197.8" cy="289" rx="5.3" ry="6.6"/><path class="st21" d="M1197.8 283.6c-3.6 0-6.6 2.3-6.6 5.3s2.9 5.3 6.5 5.3l.1-10.6z"/><ellipse transform="rotate(-89.873 1221.957 270.875)" class="st20" cx="1222" cy="270.9" rx="5.3" ry="6.6"/><path class="st21" d="M1222 265.5c-3.6 0-6.6 2.3-6.6 5.3s2.9 5.3 6.5 5.3l.1-10.6z"/><path class="st22" d="M1212.1 308.9l-.8-.7 6.9-10.1.8.8z"/><path class="st23" d="M1218.6 298.5l-.4-.4-6.9 10.1.4.3z"/><path class="st22" d="M1211 305.3l-.8-.8 6.9-10.1.8.8z"/><path class="st23" d="M1217.5 294.8l-.4-.4-6.9 10.1.4.3z"/><path class="st22" d="M1202.5 293.9l-.7.9 8.6 8.2.7-1z"/><path class="st23" d="M1210.8 302.5l-.4.5-8.6-8.2.4-.4z"/><path transform="rotate(-89.873 1211.325 310.526)" class="st22" d="M1195.6 308.9h31.4v3.3h-31.4z"/><path transform="rotate(-89.873 1210.467 310.524)" class="st23" d="M1194.8 309.7h31.4v1.6h-31.4z"/><ellipse transform="rotate(-89.873 1212.245 282.628)" class="st20" cx="1212.2" cy="282.6" rx="16.2" ry="19.6"/><path class="st21" d="M1212.3 266.5c-10.8 0-19.6 7.2-19.6 16.1 0 8.9 8.7 16.2 19.5 16.2l.1-32.3z"/><ellipse transform="rotate(-89.873 1221.904 294.833)" class="st20" cx="1221.9" cy="294.8" rx="6.5" ry="7.9"/><path class="st21" d="M1221.9 288.4c-4.3 0-7.9 2.8-7.9 6.4 0 3.6 3.5 6.5 7.9 6.5v-12.9z"/></g><g id="tree7_2_"><ellipse transform="rotate(-89.873 1163.373 298.696)" class="st20" cx="1163.4" cy="298.7" rx="3.5" ry="4.2"/><path class="st21" d="M1163.4 295.2c-2.3 0-4.2 1.5-4.2 3.5 0 1.9 1.9 3.5 4.2 3.5v-7z"/><ellipse transform="rotate(-89.873 1178.837 286.956)" class="st20" cx="1178.8" cy="287" rx="3.5" ry="4.2"/><path class="st21" d="M1178.8 283.6c-2.3 0-4.2 1.5-4.2 3.5 0 1.9 1.9 3.5 4.2 3.5v-7z"/><path class="st22" d="M1172.5 311.5l-.5-.5 4.5-6.4.5.5z"/><path class="st23" d="M1176.7 304.8l-.2-.2-4.5 6.4.3.2z"/><path class="st22" d="M1171.8 309.2l-.5-.6 4.5-6.4.5.4z"/><path class="st23" d="M1176 302.4l-.2-.2-4.5 6.4.3.3z"/><path class="st22" d="M1166.4 301.8l-.4.6 5.4 5.2.5-.6z"/><path class="st23" d="M1171.7 307.3l-.3.3-5.4-5.2.2-.3z"/><path transform="rotate(-89.873 1171.97 312.487)" class="st22" d="M1161.9 311.4h20.2v2.1h-20.2z"/><path transform="rotate(-89.873 1171.465 312.486)" class="st23" d="M1161.4 311.9h20.2v1.1h-20.2z"/><ellipse transform="rotate(-89.873 1172.665 294.52)" class="st20" cx="1172.7" cy="294.5" rx="10.4" ry="12.6"/><path class="st21" d="M1172.7 284.2c-7 0-12.6 4.6-12.6 10.3 0 5.7 5.6 10.4 12.6 10.4v-20.7z"/><ellipse transform="rotate(-89.873 1178.803 302.417)" class="st20" cx="1178.8" cy="302.4" rx="4.2" ry="5"/><path class="st21" d="M1178.8 298.2c-2.8 0-5 1.8-5.1 4.2s2.2 4.2 5 4.2l.1-8.4z"/></g><g id="tree6_1_"><ellipse transform="rotate(-89.873 1340.158 295.506)" class="st20" cx="1340.2" cy="295.5" rx="3.7" ry="3.6"/><path class="st21" d="M1340.2 291.8c-2 0-3.6 1.6-3.6 3.7 0 2 1.6 3.7 3.6 3.7v-7.4z"/><ellipse transform="rotate(-89.873 1353.605 283.044)" class="st20" cx="1353.6" cy="283" rx="3.7" ry="3.6"/><path class="st21" d="M1353.6 279.4c-2 0-3.6 1.6-3.6 3.7 0 2 1.6 3.7 3.6 3.7v-7.4z"/><path class="st22" d="M1348.1 309.1l-.4-.5 3.8-6.9.4.6z"/><path class="st23" d="M1351.7 302l-.2-.3-3.8 6.9.2.2z"/><path class="st22" d="M1347.5 306.6l-.4-.5 3.7-6.9.5.5z"/><path class="st23" d="M1351.1 299.4l-.3-.2-3.7 6.9.2.3z"/><path class="st22" d="M1342.8 298.8l-.3.7 4.7 5.5.4-.7z"/><path class="st23" d="M1347.4 304.6l-.2.4-4.7-5.5.1-.4z"/><path transform="rotate(-89.873 1347.693 310.164)" class="st22" d="M1336.9 309.3h21.5v1.8h-21.5z"/><path transform="rotate(-89.873 1347.239 310.163)" class="st23" d="M1336.5 309.7h21.5v.9h-21.5z"/><ellipse transform="rotate(-89.873 1348.24 291.12)" class="st20" cx="1348.2" cy="291.1" rx="11.1" ry="10.9"/><path class="st21" d="M1348.3 280c-6.1 0-10.9 4.9-10.9 11s4.9 11.1 10.9 11.1V280z"/><ellipse transform="rotate(-89.873 1353.569 299.426)" class="st20" cx="1353.6" cy="299.4" rx="4.4" ry="4.3"/><path class="st21" d="M1353.6 295c-2.4 0-4.3 1.9-4.3 4.4 0 2.5 1.9 4.4 4.3 4.4V295z"/></g><g id="tree7"><ellipse transform="rotate(-89.873 1308.393 287.04)" class="st20" cx="1308.4" cy="287" rx="5.4" ry="6.6"/><path class="st21" d="M1308.4 281.6c-3.6 0-6.6 2.4-6.6 5.4 0 3 2.9 5.4 6.5 5.4l.1-10.8z"/><ellipse transform="rotate(-89.873 1332.852 268.664)" class="st20" cx="1332.9" cy="268.7" rx="5.4" ry="6.6"/><path class="st21" d="M1332.9 263.2c-3.6 0-6.6 2.4-6.6 5.4s2.9 5.4 6.5 5.4l.1-10.8z"/><path class="st22" d="M1323 307.2l-.9-.8 7-10.1.8.8z"/><path class="st23" d="M1329.5 296.7l-.4-.4-7 10.1.4.4z"/><path class="st22" d="M1321.8 303.6l-.8-.9 7-10.2.8.8z"/><path class="st23" d="M1328.4 292.9l-.4-.4-7 10.2.4.4z"/><path class="st22" d="M1313.2 292l-.7 1 8.7 8.2.7-1z"/><path class="st23" d="M1321.6 300.7l-.4.5-8.7-8.2.4-.5z"/><path transform="rotate(-89.873 1322.017 308.827)" class="st22" d="M1306.1 307.2h31.8v3.3h-31.8z"/><path transform="rotate(-89.873 1321.21 308.825)" class="st23" d="M1305.3 308h31.8v1.7h-31.8z"/><ellipse transform="rotate(-89.873 1323.038 280.519)" class="st20" cx="1323" cy="280.5" rx="16.4" ry="19.9"/><path class="st21" d="M1323.1 264.1c-11 0-19.9 7.3-19.9 16.3s8.8 16.4 19.8 16.4l.1-32.7z"/><ellipse transform="rotate(-89.873 1332.798 292.93)" class="st20" cx="1332.8" cy="292.9" rx="6.6" ry="8"/><path class="st21" d="M1332.8 286.4c-4.3 0-7.9 3-7.9 6.5s3.5 6.6 7.9 6.6v-13.1z"/></g><g id="tree6"><ellipse transform="rotate(-89.873 1369.537 287.687)" class="st20" cx="1369.5" cy="287.7" rx="5.3" ry="6.6"/><path class="st21" d="M1369.6 282.4c-3.6 0-6.6 2.3-6.6 5.3s2.9 5.3 6.5 5.3l.1-10.6z"/><ellipse transform="rotate(-89.873 1393.592 269.515)" class="st20" cx="1393.6" cy="269.5" rx="5.3" ry="6.6"/><path class="st21" d="M1393.6 264.2c-3.6 0-6.6 2.3-6.6 5.3s2.9 5.3 6.5 5.3l.1-10.6z"/><path class="st22" d="M1383.8 307.6l-.8-.7 6.9-10.2.8.9z"/><path class="st23" d="M1390.3 297.2l-.4-.5-6.9 10.2.4.4z"/><path class="st22" d="M1382.7 303.9l-.8-.7 6.9-10.1.8.8z"/><path class="st23" d="M1389.2 293.5l-.4-.4-6.9 10.1.4.4z"/><path class="st22" d="M1374.3 292.5l-.7 1 8.5 8.1.7-1z"/><path class="st23" d="M1382.4 301.1l-.3.5-8.5-8.1.4-.5z"/><path transform="rotate(-89.873 1382.96 309.167)" class="st22" d="M1367.2 307.5h31.4v3.3h-31.4z"/><path transform="rotate(-89.873 1382.102 309.165)" class="st23" d="M1366.4 308.4h31.4v1.6h-31.4z"/><ellipse transform="rotate(-89.873 1383.98 281.269)" class="st20" cx="1384" cy="281.3" rx="16.2" ry="19.6"/><path class="st21" d="M1384 265.1c-10.8 0-19.6 7.2-19.6 16.1 0 8.9 8.7 16.2 19.5 16.2l.1-32.3z"/><ellipse transform="rotate(-89.873 1393.539 293.474)" class="st20" cx="1393.5" cy="293.5" rx="6.5" ry="7.9"/><path class="st21" d="M1393.6 287c-4.3 0-7.9 2.8-7.9 6.4 0 3.6 3.5 6.5 7.9 6.5V287z"/></g><g id="house-green"><path class="st24" d="M416.3 280.9c-.4-.7-1.1-1.2-1.8-1.5l-39.3-31.5-39.1 31.7c-.4.2-.7.5-1 .8l-.1.1c-.6.6-.9 1.5-.9 2.4 0 2.2 1.8 3.8 4 3.8l74.8.2c2.2 0 3.9-1.6 4-3.8 0-1-.2-1.7-.6-2.2z"/><path class="st25" d="M407.9 321.2l-64.2-.2.1-40.1 31.7-24.7 32.5 24.6z"/><path transform="rotate(-89.873 385.914 308.334)" class="st2" d="M379.2 302.3h13.5v12.1h-13.5z"/><path transform="rotate(-89.873 385.964 308.386)" class="st26" d="M380.3 303.3h11.4v10.2h-11.4z"/><path transform="rotate(-89.873 385.913 308.846)" class="st2" d="M385.4 302.8h1v12.1h-1z"/><path transform="rotate(-89.873 386.468 308.387)" class="st2" d="M380.8 307.4h11.4v1.9h-11.4z"/><path transform="rotate(-89.873 361.542 310.328)" class="st2" d="M350.8 303.1h21.5v14.4h-21.5z"/><path transform="rotate(-89.873 361.49 310.942)" class="st24" d="M351.4 304.9h20.3V317h-20.3z"/><path transform="rotate(-89.873 385.596 315.245)" class="st24" d="M385 306.8h1.1v17H385z"/><path transform="rotate(-89.873 375.585 279.54)" class="st2" d="M368.8 273.5h13.5v12.1h-13.5z"/><path transform="rotate(-89.873 375.635 279.592)" class="st26" d="M370 274.5h11.4v10.2H370z"/><path transform="rotate(-89.873 375.584 280.052)" class="st2" d="M375.1 274h1v12.1h-1z"/><path transform="rotate(-89.873 376.14 279.593)" class="st2" d="M370.5 278.6h11.4v1.9h-11.4z"/><path transform="rotate(-89.873 385.322 279.562)" class="st24" d="M378.6 275.9h13.5v7.4h-13.5z"/><path transform="rotate(-89.873 365.848 279.519)" class="st24" d="M359.1 275.8h13.5v7.4h-13.5z"/></g><g id="house-yellow"><path class="st24" d="M1000.3 278.5c-.5-.7-1.1-1.3-1.9-1.6l-40.5-35.5-40.4 35.5c-.4.2-.7.5-1 .9l-.1.1c-.6.7-.9 1.6-.9 2.7 0 2.4 1.9 4.3 4.1 4.3l77.2.2c2.2 0 4.1-1.8 4.1-4.3 0-.9-.2-1.7-.6-2.3z"/><path class="st27" d="M991.5 323.9l-66.3-.1.1-45.2 32.7-27.9 33.6 27.9z"/><path transform="rotate(-89.873 968.813 309.476)" class="st2" d="M961.2 303.2h15.3v12.5h-15.3z"/><path transform="rotate(-89.873 968.813 309.476)" class="st26" d="M962.4 304.2h12.8v10.5h-12.8z"/><path transform="rotate(-89.873 968.812 310.09)" class="st2" d="M968.2 303.8h1.1v12.5h-1.1z"/><path transform="rotate(-89.873 969.418 309.477)" class="st2" d="M963 308.5h12.8v2H963z"/><path transform="rotate(-89.873 943.633 311.928)" class="st2" d="M931.8 304.3h23.8v15.2h-23.8z"/><path transform="rotate(-89.873 943.53 312.645)" class="st24" d="M932.4 306.2h22.3V319h-22.3z"/><path transform="rotate(-89.873 968.493 317.256)" class="st24" d="M967.8 308.5h1.3v17.6h-1.3z"/><path transform="rotate(-89.873 958.089 277.097)" class="st2" d="M950.5 270.8h15.3v12.5h-15.3z"/><path transform="rotate(-89.873 958.089 277.097)" class="st26" d="M951.7 271.9h12.8v10.5h-12.8z"/><path transform="rotate(-89.873 958.087 277.61)" class="st2" d="M957.5 271.4h1.1v12.5h-1.1z"/><path transform="rotate(-89.873 958.694 277.099)" class="st2" d="M952.3 276.1h12.8v2h-12.8z"/><path transform="rotate(-89.873 968.128 277.12)" class="st24" d="M960.5 273.3h15.3v7.6h-15.3z"/><path transform="rotate(-89.873 948.05 277.075)" class="st24" d="M940.4 273.3h15.3v7.6h-15.3z"/></g><g id="tree5"><ellipse transform="rotate(-89.873 1412.911 293.62)" class="st20" cx="1412.9" cy="293.6" rx="4.5" ry="4.5"/><path class="st21" d="M1412.9 289.1c-2.5 0-4.5 2-4.6 4.5 0 2.5 2 4.5 4.5 4.5l.1-9z"/><path class="st20" d="M1427.9 282.5c-1.5-.7-2.6-2.3-2.6-4 .1-1.3.6-2.6 1.4-3.2.4-.3.8-.6 1.2-.8v8zm0-5v-.7.7zm0 5v-4 4z"/><path class="st21" d="M1427.9 282.5c-1.5-.7-2.6-2.3-2.6-4 .1-1.3.6-2.6 1.4-3.2.4-.3.8-.6 1.2-.8v8zm0-5v-.7.7zm0 5v-4 4z"/><path class="st22" d="M1427.2 301.2l-4.8 8.4.6.6 4.8-8.4z"/><path class="st23" d="M1427.2 301.2l-4.8 8.4.3.3 4.8-8.4z"/><path class="st22" d="M1422.2 307.2l-.6-.7 4.8-8.3.6.6z"/><path class="st23" d="M1426.7 298.5l-.3-.3-4.8 8.3.3.3z"/><path class="st22" d="M1416.2 297.6l-.5.8 6.1 6.8.5-.8z"/><path class="st23" d="M1422 304.8l-.2.4-6.1-6.8.3-.4z"/><path transform="rotate(-89.873 1422.306 311.558)" class="st22" d="M1409.2 310.4h26.2v2.3h-26.2z"/><path transform="rotate(-89.873 1421.75 311.557)" class="st23" d="M1408.6 311h26.2v1.2h-26.2z"/><path class="st20" d="M1427.8 295.9v1.7-1.7zm.1-18.6v-.5.5zm0 5.2v18c-.8.3-1.6.5-2.3.6h-.1l-.4.1-.5.1h-2.3c-.3 0-.6 0-.9-.1-.3-.1-.6-.1-.9-.1l-.4-.1h-.2l-.2-.1-.4-.1-.4-.1-.9-.3c-.2-.1-.3-.1-.5-.2l-.4-.2c-.2-.1-.4-.2-.5-.3l-.5-.3c-.5-.3-1.1-.7-1.6-1.1-.3-.2-.5-.4-.7-.6l-.3-.3-.4-.4-.2-.2-.3-.3c-.3-.3-.5-.6-.8-1-.1-.1-.1-.2-.2-.2 0-.1-.2-.3-.3-.4-.1-.2-.2-.4-.3-.5-.1-.2-.2-.3-.3-.5-.1-.2-.1-.3-.2-.4-.1-.1-.1-.2-.2-.3-.1-.1-.1-.3-.2-.4-.1-.1-.1-.3-.2-.4 0-.1 0-.1-.1-.2 0-.1 0-.1-.1-.2 0-.1-.1-.2-.1-.3-.1-.2-.1-.4-.1-.6-.1-.2-.1-.4-.1-.6v-.1c0-.2-.1-.3-.1-.5v-3.7c0-.3.1-.5.2-.8 0-.2.1-.4.1-.5 0-.2.1-.3.1-.5l.1-.2c.2-.6.4-1.1.7-1.6l.1-.2v-.1c.1-.1.1-.3.2-.4.3-.6.6-1.1 1-1.5l.4-.4c.1-.2.2-.3.4-.4l.2-.2c.2-.3.5-.5.7-.7.1-.1.2-.2.3-.2.1-.1.3-.2.4-.3.3-.2.6-.5.9-.7l.2-.1c.3-.2.6-.4.9-.5l.3-.1c.1-.1.2-.1.3-.2l.2-.1c.1-.1.2-.1.3-.1.1-.1.3-.1.4-.2l.2-.1.4-.1.9-.3.6-.1.4-.1c.2 0 .3-.1.5-.1l.4-.1h1.7c1.2 0 2.4.2 3.6.5.4.1.8.2 1.2.4v5.1c.4.1.3.6.3 1.2z"/><path class="st21" d="M1423 274.7c-7.6 0-13.7 6-13.8 13.5s6.1 13.5 13.7 13.5l.1-27z"/><path class="st20" d="M1427.8 293.4v9.7c-.2-.1-.5-.2-.7-.3l-.4-.2c-.1-.1-.2-.2-.3-.2-.4-.3-.7-.6-1-1l-.1-.1c-.1-.1-.1-.2-.2-.3-.1-.1-.2-.3-.2-.4-.4-.7-.5-1.5-.6-2.4.1-2.1 1.5-4 3.5-4.8zm0 2.5v1.7-1.7zm0 3.1z"/><path class="st21" d="M1427.8 293.4v9.7c-.2-.1-.5-.2-.7-.3l-.4-.2c-.1-.1-.2-.2-.3-.2-.4-.3-.7-.6-1-1l-.1-.1c-.1-.1-.1-.2-.2-.3-.1-.1-.2-.3-.2-.4-.4-.7-.5-1.5-.6-2.4.1-2.1 1.5-4 3.5-4.8zm0 2.5v1.7-1.7zm0 3.1z"/></g><g id="house-brown"><path transform="rotate(-89.873 217.185 227.688)" class="st28" d="M207.6 220.6h19.2v14.1h-19.2z"/><path transform="rotate(-89.873 217.215 214.275)" class="st29" d="M213.3 204.6h7.8V224h-7.8z"/><path class="st24" d="M238.6 248.5c-.6-.9-1.4-1.6-2.4-2.1L185 202.5l-51 44.1c-.5.3-.9.7-1.3 1.1l-.1.1c-.7.9-1.2 2-1.2 3.3.1 3 2.4 5.3 5.2 5.3l97.5.2c2.8.1 5.2-2.3 5.3-5.3 0-.9-.3-2-.8-2.8z"/><path class="st30" d="M227.5 320.1l-83.7-.2.2-71.2 41.3-34.5 42.3 34.5z"/><path transform="rotate(-89.873 185.071 285.773)" class="st29" d="M181.6 241.5h7v88.6h-7z"/><path transform="rotate(-89.873 164.062 272.825)" class="st2" d="M154.6 264.9h18.8v15.8h-18.8z"/><path transform="rotate(-89.873 164.062 272.825)" class="st8" d="M156.2 266.2H172v13.2h-15.8z"/><path transform="rotate(-89.873 164.06 273.542)" class="st2" d="M163.3 265.6h1.4v15.8h-1.4z"/><path transform="rotate(-89.873 163.658 272.824)" class="st2" d="M155.8 271.6h15.8v2.5h-15.8z"/><path transform="rotate(-89.873 163.59 303.233)" class="st2" d="M154.2 295.3H173v15.8h-18.8z"/><path transform="rotate(-89.873 163.59 303.233)" class="st8" d="M155.7 296.6h15.8v13.2h-15.8z"/><path transform="rotate(-89.873 163.59 303.95)" class="st2" d="M162.9 296h1.4v15.8h-1.4z"/><path transform="rotate(-89.873 163.187 303.232)" class="st2" d="M155.3 302h15.8v2.5h-15.8z"/><path transform="rotate(-89.873 206.473 303.328)" class="st2" d="M197.1 295.4h18.8v15.8h-18.8z"/><path transform="rotate(-89.873 206.473 303.328)" class="st8" d="M198.6 296.7h15.8v13.2h-15.8z"/><path transform="rotate(-89.873 206.472 304.045)" class="st2" d="M205.8 296.1h1.4v15.8h-1.4z"/><path transform="rotate(-89.873 206.07 303.327)" class="st2" d="M198.2 302.1H214v2.5h-15.8z"/><path transform="rotate(-89.873 185.15 272.872)" class="st2" d="M175.7 265h18.8v15.8h-18.8z"/><path transform="rotate(-89.873 185.05 272.872)" class="st8" d="M177.2 266.3H193v13.2h-15.8z"/><path transform="rotate(-89.873 185.148 273.589)" class="st2" d="M184.4 265.7h1.4v15.8h-1.4z"/><path transform="rotate(-89.873 184.747 272.871)" class="st2" d="M176.9 271.6h15.8v2.5h-15.8z"/><path transform="rotate(-89.873 185.836 236.628)" class="st2" d="M176.4 228.7h18.8v15.8h-18.8z"/><path transform="rotate(-89.873 185.836 236.628)" class="st8" d="M178 230h15.8v13.2H178z"/><path transform="rotate(-89.873 185.834 237.345)" class="st2" d="M185.1 229.4h1.4v15.8h-1.4z"/><path transform="rotate(-89.873 185.432 236.627)" class="st2" d="M177.5 235.4h15.8v2.5h-15.8z"/><path transform="rotate(-89.873 206.54 272.92)" class="st2" d="M197.1 265h18.8v15.8h-18.8z"/><path transform="rotate(-89.873 206.54 272.92)" class="st8" d="M198.7 266.3h15.8v13.2h-15.8z"/><path transform="rotate(-89.873 206.54 273.636)" class="st2" d="M205.8 265.7h1.4v15.8h-1.4z"/><path transform="rotate(-89.873 206.137 272.918)" class="st2" d="M198.3 271.7h15.8v2.5h-15.8z"/><path transform="rotate(-89.873 185.428 306.916)" class="st2" d="M172.4 298.6h26.1v16.5h-26.1z"/><path transform="rotate(-89.873 185.325 307.684)" class="st29" d="M173 300.7h24.6v13.9H173z"/><path transform="rotate(-89.873 186.163 248.301)" class="st29" d="M183.8 232.9h4.7v30.9h-4.7z"/></g><g id="shop"><path class="st31" d="M258.3 283l58.4.1c1.7 0 3 1.3 3 3.1l-.1 26.4c0 1.6-1.4 3.1-3 3.1l-58.4-.1c-1.7 0-3-1.3-3-3.1l.1-26.4c-.1-1.8 1.3-3.1 3-3.1z"/><path transform="rotate(-89.873 287.315 316.716)" class="st32" d="M285.9 286h2.9v61.3h-2.9z"/><path transform="rotate(-89.873 287.36 319.276)" class="st33" d="M285.9 286.3h2.9v65.9h-2.9z"/><path transform="rotate(-89.873 277.67 298.009)" class="st8" d="M266.5 281.6h22.4v32.9h-22.4z"/><path class="st34" d="M262.5 308.2l.1-21.4h-1.4v22.4l32.9.1v-1.1z"/><path class="st35" d="M255.2 282.4v7.9c.1 2.3 2 3.9 4.2 3.8 2-.1 3.6-1.7 3.8-3.8v-7.9h-8z"/><path class="st36" d="M263.3 282.5v7.9c.1 2.3 2 3.9 4.2 3.8 2-.1 3.6-1.7 3.8-3.8v-7.9h-8z"/><path class="st35" d="M271.3 282.5v7.9c.1 2.3 2 3.9 4.2 3.8 2-.1 3.6-1.7 3.8-3.8v-7.9h-8z"/><path class="st36" d="M279.3 282.5v7.9c0 2.3 1.8 4 4 4s4-1.7 4-4v-7.9h-8z"/><path class="st35" d="M287.4 282.5v7.9c.1 2.3 2 3.9 4.2 3.8 2-.1 3.6-1.7 3.8-3.8v-7.9h-8z"/><path class="st36" d="M295.5 282.5v7.9c.1 2.3 2 3.9 4.2 3.8 2-.1 3.6-1.7 3.8-3.8v-7.9h-8z"/><path class="st35" d="M303.5 282.6v7.9c.1 2.3 2 3.9 4.2 3.8 2-.1 3.6-1.7 3.8-3.8v-7.9h-8z"/><path class="st36" d="M311.6 282.6v7.9c.1 2.3 2 3.9 4.2 3.8 2-.1 3.6-1.7 3.8-3.8v-7.9h-8z"/><path class="st37" d="M266.8 269.9l-11.6 12.6h8.1l8.7-12.6h-5.2z"/><path class="st38" d="M272 269.9l-8.7 12.6h8.1l5.9-12.6H272z"/><path class="st37" d="M277.1 269.9l-5.9 12.6h8.1l3-12.6h-5.2z"/><path class="st38" d="M282.3 269.9l-3 12.6h8.1v-12.6h-5.1z"/><path class="st37" d="M287.4 269.9v12.6h8.1l-2.9-12.6h-5.2z"/><path class="st38" d="M292.6 269.9l2.9 12.6h8.1l-5.8-12.6h-5.2z"/><path class="st37" d="M297.7 269.9l5.8 12.6h8.1L303 270l-5.3-.1z"/><path class="st38" d="M311.6 282.5h8.1L308 270h-5.1l8.7 12.5z"/><path transform="rotate(-89.873 269.412 268.554)" class="st37" d="M268.1 266h2.7v5.1h-2.7z"/><path transform="rotate(-89.873 274.557 268.565)" class="st37" d="M273.2 266h2.7v5.1h-2.7z"/><path transform="rotate(-89.873 279.703 268.577)" class="st37" d="M278.4 266h2.7v5.1h-2.7z"/><path transform="rotate(-89.873 284.85 268.588)" class="st37" d="M283.5 266h2.7v5.1h-2.7z"/><path transform="rotate(-89.873 289.995 268.6)" class="st37" d="M288.7 266h2.7v5.1h-2.7z"/><path transform="rotate(-89.873 295.141 268.611)" class="st37" d="M293.8 266h2.7v5.1h-2.7z"/><path transform="rotate(-89.873 300.287 268.623)" class="st37" d="M299 266.1h2.7v5.1H299z"/><path transform="rotate(-89.873 305.534 268.634)" class="st37" d="M304.2 266.1h2.7v5.1h-2.7z"/><path transform="rotate(-89.873 305.102 304.11)" class="st27" d="M293.9 295.7h22.4v16.7h-22.4z"/><path transform="rotate(-89.873 305.392 309.64)" class="st39" d="M301.1 303.3h8.5V316h-8.5z"/><path transform="rotate(-89.873 305.415 299.401)" class="st8" d="M301.1 293h8.7v12.7h-8.7z"/><path class="st34" d="M299.6 303.3V295h-.5l-.1 8.7 12.8.1v-.4z"/></g><g id="tree4"><path transform="rotate(-89.873 627.607 314.349)" class="st22" d="M619.5 312.9h16.3v2.9h-16.3z"/><path transform="rotate(-89.873 626.901 314.347)" class="st23" d="M618.8 313.6h16.3v1.5h-16.3z"/><path class="st40" d="M637 312.9l-9.2-40.6-9.6 40.5h1.5l-.6 3.1 17.2.1-.7-3.1z"/><path class="st41" d="M627.7 315.9l.1-43.6-9.5 40.5h1.5l-.7 3.1z"/></g><g id="tree3"><path transform="rotate(-89.873 604.199 314.297)" class="st22" d="M596.1 312.8h16.3v2.9h-16.3z"/><path transform="rotate(-89.873 603.492 314.295)" class="st23" d="M595.4 313.5h16.3v1.5h-16.3z"/><path class="st40" d="M613.7 312.8l-9.4-40.5-9.5 40.5h1.6l-.7 3.1h17.2l-.7-3.1z"/><path class="st41" d="M604.3 315.9l.1-43.6-9.5 40.5h1.5l-.6 3.1z"/></g><g id="house-red"><path transform="rotate(-89.873 492.1 245.141)" class="st42" d="M484.6 238.4h15.1v13.5h-15.1z"/><path transform="rotate(-89.873 492.074 234.237)" class="st43" d="M488.8 225.2h6.6v18.1h-6.6z"/><path class="st44" d="M587.5 283.9l-144.5-.3 17.7-31.9 108.2.2z"/><path transform="rotate(-89.873 514.68 300.941)" class="st45" d="M497.5 243h34.4v115.8h-34.4z"/><path class="st2" d="M556.1 280.4c-.6-.8-1.5-1.3-2.5-1.7l-38.9-63.8-38.4 63.9c-.5.2-.9.5-1.3.9l-.1.1c-.8.7-1.2 1.7-1.2 2.7.1 2.5 2.4 4.4 5.3 4.4l72.3.2c2.9 0 5.4-1.9 5.4-4.4.2-.9-.1-1.7-.6-2.3z"/><path class="st42" d="M543.8 321.1l-58.6-.2.1-43.2 30.2-50.3 28.4 50.2z"/><path transform="rotate(-89.873 471.843 302.69)" class="st2" d="M464.1 294.6h15.6v16.2h-15.6z"/><path transform="rotate(-89.873 471.843 302.638)" class="st26" d="M465.3 295.8h13v13.6h-13z"/><path transform="rotate(-89.873 471.842 303.252)" class="st2" d="M471.3 295.1h1.1v16.2h-1.1z"/><path transform="rotate(-89.873 472.499 302.64)" class="st2" d="M466 301.3h13v2.6h-13z"/><path transform="rotate(-89.873 558.92 302.883)" class="st2" d="M551.1 294.8h15.6V311h-15.6z"/><path transform="rotate(-89.873 558.92 302.831)" class="st26" d="M552.4 296h13v13.6h-13z"/><path transform="rotate(-89.873 558.918 303.446)" class="st2" d="M558.4 295.3h1.1v16.2h-1.1z"/><path transform="rotate(-89.873 559.677 302.833)" class="st2" d="M553.2 301.5h13v2.6h-13z"/><path transform="rotate(-89.873 514.712 263.212)" class="st2" d="M502.4 255.1h24.7v16.2h-24.7z"/><path transform="rotate(-89.873 514.713 263.16)" class="st26" d="M504.4 256.4h20.7V270h-20.7z"/><path transform="rotate(-89.873 514.71 264.082)" class="st2" d="M513.8 256h1.8v16.2h-1.8z"/><path transform="rotate(-89.873 515.368 263.162)" class="st2" d="M505 261.9h20.7v2.6H505z"/><path class="st2" d="M524.1 321l.1-23.7c0-3.6-4.3-6.6-9.6-6.6-5.2 0-9.6 2.9-9.6 6.5l-.1 23.7 19.2.1z"/><path class="st46" d="M522.3 321v-22.3c-.2-3.6-3.7-6.4-8-6.2-3.9.1-7.1 2.7-7.3 6.1v22.3l15.3.1z"/><path transform="rotate(-89.873 515.493 320.755)" class="st44" d="M512.9 252.9h5.2v135.7h-5.2z"/></g><g id="tree2"><path class="st22" d="M436.5 316.2l-.4.4-4.4-8.7.4-.4z"/><path class="st23" d="M431.9 307.7l-.2.2 4.4 8.7.2-.2z"/><path class="st22" d="M437.2 314.2l-.5-.3 2.7-7.7.5.3z"/><path class="st23" d="M439.7 306.4l-.3-.2-2.7 7.7.3.1z"/><path transform="rotate(-89.873 436.562 309.83)" class="st22" d="M425.9 308.8h21.4v2h-21.4z"/><path class="st23" d="M436.6 299.1h-1l-.1 21.4h1l.1-16.3z"/><path class="st40" d="M442 299l-5.4-17.5-5.5 17.5h.8l-.3 1.3 9.9.1-.4-1.4z"/><path class="st41" d="M436.6 300.4v-18.9l-5.5 17.5h.9l-.4 1.3z"/><path class="st40" d="M432.3 305l-2.5 4.4h4.6z"/><path class="st41" d="M432.3 305l-2.5 4.4h2.5z"/><path class="st40" d="M439.9 301.1l-2 5.7h3.6z"/><path class="st41" d="M439.9 301.1l-2 5.7h2z"/></g><g id="house-light-brown"><path class="st24" d="M85.2 275.7c-.4-.7-1-1.3-1.7-1.6l-36.6-35.5-36.5 35.7c-.3.2-.6.5-.9.9l-.1.1c-.5.7-.8 1.6-.8 2.7 0 2.4 1.7 4.3 3.7 4.3l69.8.2c2 0 3.7-1.8 3.7-4.3 0-1-.2-1.8-.6-2.5z"/><path class="st47" d="M77.3 321.3l-60-.2.1-45.2L47.1 248l30.3 27.8z"/><path transform="rotate(-89.873 56.78 306.835)" class="st2" d="M49.2 301.2h15.3v11.3H49.2z"/><path transform="rotate(-89.873 56.78 306.835)" class="st26" d="M50.4 302.1h12.8v9.5H50.4z"/><path transform="rotate(-89.873 56.779 307.347)" class="st2" d="M56.2 301.7h1.1V313h-1.1z"/><path transform="rotate(-89.873 57.284 306.836)" class="st2" d="M50.9 305.9h12.8v1.8H50.9z"/><path transform="rotate(-89.873 33.97 309.703)" class="st2" d="M22.5 302.8h22.9v13.7H22.5z"/><path transform="rotate(-89.873 33.968 310.368)" class="st24" d="M23.2 304.6h21.6v11.5H23.2z"/><path transform="rotate(-89.873 56.51 314.616)" class="st24" d="M55.8 306.7h1.3v15.8h-1.3z"/><path transform="rotate(-89.873 47.165 274.357)" class="st2" d="M39.5 268.7h15.3V280H39.5z"/><path transform="rotate(-89.873 47.165 274.357)" class="st26" d="M40.8 269.6h12.8v9.5H40.8z"/><path transform="rotate(-89.873 47.164 274.87)" class="st2" d="M46.6 269.2h1.1v11.3h-1.1z"/><path transform="rotate(-89.873 47.67 274.358)" class="st2" d="M41.3 273.5h12.8v1.8H41.3z"/><path transform="rotate(-89.873 56.246 274.377)" class="st24" d="M48.6 270.9h15.3v6.9H48.6z"/><path transform="rotate(-89.873 38.084 274.337)" class="st24" d="M30.5 270.9h15.3v6.9H30.5z"/></g><g id="tree1"><path class="st22" d="M900.1 317.7l-.6.4-5.6-9.7.6-.5z"/><path class="st23" d="M894.2 308.2l-.3.2 5.6 9.7.3-.2z"/><path class="st22" d="M900.8 315.4l-.6-.4 3.4-8.5.6.3z"/><path class="st23" d="M903.9 306.7l-.3-.2-3.4 8.5.3.2z"/><path transform="rotate(-89.873 900.047 310.5)" class="st22" d="M888.2 309.2H912v2.5h-23.8z"/><path class="st23" d="M900 298.6h-1.2v23.9h1.2v-18.1z"/><path class="st40" d="M906.9 298.5l-6.8-19.4-6.9 19.4h1.1l-.5 1.4 12.6.1-.5-1.5z"/><path class="st41" d="M900.1 300l.1-20.9-7 19.4h1.2l-.5 1.4z"/><path class="st40" d="M894.8 305.1l-3.3 5h6z"/><path class="st41" d="M894.8 305.1l-3.3 5h3.3z"/><path class="st40" d="M904.3 300.8l-2.5 6.3h4.6z"/><path class="st41" d="M904.3 300.8l-2.5 6.3h2.4z"/></g><g id="tree1_1_"><path class="st22" d="M878.7 317.8l-.5.5-5.6-9.7.5-.4z"/><path class="st23" d="M872.9 308.4l-.3.2 5.6 9.7.2-.2z"/><path class="st22" d="M879.4 315.6l-.5-.3 3.4-8.5.7.3z"/><path class="st23" d="M882.7 306.9l-.4-.1-3.4 8.5.3.1z"/><path transform="rotate(-89.873 878.656 310.76)" class="st22" d="M866.8 309.5h23.8v2.5h-23.8z"/><path class="st23" d="M878.7 298.9h-1.3v23.7h1.3v-18.1z"/><path class="st40" d="M885.6 298.8l-6.8-19.6-7 19.6h1.2l-.5 1.4H885l-.5-1.4z"/><path class="st41" d="M878.7 300.2l.1-20.9-6.9 19.5h1.1l-.5 1.4z"/><path class="st40" d="M873.4 305.3l-3.2 4.9h5.9z"/><path class="st41" d="M873.4 305.3l-3.2 4.9h3.2z"/><path class="st40" d="M882.9 301l-2.5 6.4h4.6z"/><path class="st41" d="M883 301l-2.6 6.4h2.6z"/></g><g id="tree1_3_"><path class="st22" d="M123.1 318l-.6.4-5.5-9.6.5-.5z"/><path class="st23" d="M117.2 308.6l-.2.2 5.5 9.6.3-.2z"/><path class="st22" d="M123.9 315.7l-.6-.4 3.4-8.5.6.3z"/><path class="st23" d="M127 307l-.3-.2-3.4 8.5.3.2z"/><path transform="rotate(-89.873 123.113 310.822)" class="st22" d="M111.2 309.6H135v2.5h-23.8z"/><path class="st23" d="M123.1 298.9h-1.2l-.1 23.9h1.2l.1-18.1z"/><path class="st40" d="M130 298.9l-6.9-19.5-6.9 19.4h1.1l-.5 1.5h12.6l-.5-1.4z"/><path class="st41" d="M123.2 300.3v-20.9l-7 19.4h1.2l-.5 1.5z"/><path class="st40" d="M117.8 305.4l-3.2 5h5.9z"/><path class="st41" d="M117.8 305.4l-3.2 5h3.2z"/><path class="st40" d="M127.3 301.1l-2.4 6.3 4.5.1z"/><path class="st41" d="M127.3 301.1l-2.4 6.3 2.4.1z"/></g><g id="tree1_2_"><path class="st22" d="M99.7 318.1l-.5.6-5.6-9.8.5-.4z"/><path class="st23" d="M93.9 308.7l-.3.2 5.6 9.8.2-.3z"/><path class="st22" d="M100.4 315.9l-.5-.3 3.5-8.5.6.3z"/><path class="st23" d="M103.7 307.2l-.3-.1-3.5 8.5.3.1z"/><path transform="rotate(-89.873 99.703 311.077)" class="st22" d="M87.8 309.8h23.8v2.5H87.8z"/><path class="st23" d="M99.8 299.2h-1.3l-.1 23.8h1.3l.1-18.2z"/><path class="st40" d="M106.6 299.1l-6.8-19.6-7 19.6H94l-.5 1.4H106l-.5-1.4z"/><path class="st41" d="M99.8 300.5v-20.9l-6.9 19.5H94l-.5 1.4z"/><path class="st40" d="M94.4 305.6l-3.1 4.9 5.8.1z"/><path class="st41" d="M94.4 305.6l-3.1 4.9 3.1.1z"/><path class="st40" d="M103.9 301.4l-2.4 6.3h4.5z"/><path class="st41" d="M104 301.4l-2.5 6.3h2.5z"/></g><path id="footpath" transform="rotate(-89.873 565.118 328.596)" class="st48" d="M557.8-244.2h14.5V901.3h-14.5z"/><g id="terrain"><path id="grass" transform="rotate(-89.873 1224.51 324.941)" class="st49" d="M1221.8 121.3h5.3v407.3h-5.3z"/><path id="mud" class="st50" d="M1020.8 325.7v11.8l407.4.9v-11.8z"/></g></g></svg>