<svg id="Layer_1" xmlns="http://www.w3.org/2000/svg" viewBox="0 0 1423 405.4"><style>.st0{opacity:.1;fill:#231f20;enable-background:new}.st1{fill:#96a2a4}.st2{fill:#fff}.st3{opacity:.3;fill:#231f20;enable-background:new}.st4{fill:#5e5f61}.st5{fill:none;stroke:#fff;stroke-width:2;stroke-miterlimit:10}.st6{fill:#ff9d00}.st7{fill:#ceaa72}.st8{fill:#c0e0de}.st9{fill:none;stroke:#fff;stroke-miterlimit:10}.st10{fill:#543c36}.st11{fill:none;stroke:#543c36;stroke-width:4;stroke-linecap:square;stroke-miterlimit:10}.st12{fill:#a40000}.st13{fill:#890000}.st14{fill:#b73d43}.st15{fill:#4f0000}.st16{fill:#cc4047}.st17{fill:#604123}.st18{fill:#9ab6b8}.st19{fill:#ff0}.st20{fill:#809b3d}.st21{opacity:.2;fill:#fff;enable-background:new}.st22{fill:#855222}.st23{fill:#ad6729}.st24{fill:#6e3e19}.st25{fill:#619959}.st26{fill:#cce9eb}.st27{fill:#faae40}.st28{fill:#a8745d}.st29{fill:#a73330}.st30{fill:#b27d62}.st31{fill:#b7ad4e}.st32{fill:#852a34}.st33{fill:#44130c}.st34{fill:#9ad4da}.st35{fill:#b21f24}.st36{fill:#c93427}.st37{fill:#db4126}.st38{fill:#f16228}.st39{fill:none;stroke:#fdca80;stroke-miterlimit:10}.st40{fill:#3f8252}.st41{opacity:.2;fill:#57ae62;enable-background:new}.st42{fill:#e74543}.st43{fill:#a82d2b}.st44{fill:#eaf6f7}.st45{fill:#bc3734}.st46{fill:#c23c39}.st47{fill:#9b805d}.st48{fill:#ddd}.st49{fill:#82cb38}.st50{fill:#aa5541}</style><g id="content"><g id="mountains"><path class="st0" d="M1474.4 295.1c0 2.1 0 4.2-.1 6.3l-.1 5v3.3c0 1.9-.1 3.7-.1 5.6v.7c0 1.6-.1 3.3-.1 4.9v3.3h-343.4l.6-.8h-.6l.7-1 53.7-79.1 45.8-67.5.2-.3 33.4-49.1 50.6-74.6v.8l1.1-1.7 45.6 70.4.1.1 3.4 5.2 80.3 124 3.1 4.7 15.3 23.6.2.3 1.2 1.8 1 1.6.7 1.1.4.6.4.7.4.7 1.4 2.2.4.7.4.7 4 5.8z"/><path class="st0" d="M1339.2 369.1c0 2.1 0 4.2-.1 6.3l-.1 5v3.3c0 1.9-.1 3.7-.1 5.6v.7c0 1.6-.1 3.3-.1 4.9v3.3H995.3l.6-.8h-.6l.7-1 53.7-79.1 45.8-67.5.2-.3 33.4-49.1 50.6-74.6v.8l1.1-1.7 45.6 70.4.1.1 3.4 5.2 80.3 124 3.1 4.7 15.3 23.6.2.3 1.2 1.8 1 1.6.7 1.1.4.6.4.7.4.7 1.4 2.2.4.7.4.7 4.1 5.8z"/><path class="st1" d="M1231.2 151.2l28.9 49.8 74.6 128.7h-202.3z"/><path class="st2" d="M1258 197.4s-4-4.2-7.8 0-14.3 4.2-19-1.9-7.6 3.1-9.5 4.8c-1.9 1.7-4.5 1.2-7-6.9s-9 3.8-9 3.8l25.5-46.1 26.8 46.3z"/><path class="st3" d="M1231.8 151.8l28.3 48.6 74.6 128.8h-102.9z"/><path class="st1" d="M1425.7 241.5v-1 1zm0-160.1c0-.8 0-1.6.1-2.4l-.1 2.8v-.4z"/><path class="st1" d="M1425.9 315.5v14.9c0 2.6 0 5.2-.1 7.8v.9c0 2.1 0 4.2-.1 6.3v8.3c0 1.9-.1 3.7-.1 5.6v.7c-.1 2-.1 4-.2 6.1v1.1h-203.7l.4-.9.3-.7 20.1-41.6.2-.4 73.8-153 36.6-75.8v-.2l.1-.2v-.1l.1-.1L1398.8 0l1.2 2.3 25.7 50.9v39.2c0 2.5 0 5-.1 7.5 0 3.1 0 6.2-.1 9.2v23.8c0 6.5 0 13.1.1 19.6 0 4.3 0 8.5.1 12.8.2 25.3.5 50.5.1 75.9v.1c0 8.6 0 17.2.1 25.7 0 5.5 0 10.9.1 16.4v15.7c-.1 5.5-.1 11-.1 16.4z"/><path class="st1" d="M1425.1 366.1c.1-2 .1-4.1.2-6.1 0 1.6-.1 3.3-.1 4.9 0 .4 0 .8-.1 1.2v1.1-1.1zm.5-18.7v-1.9l-.1 5v1.5c.1-1.6.1-3.1.1-4.6zm.3-25.7v8.6c0 2.6 0 5.2-.1 7.8 0-2.6.1-5.2.1-7.8v-3.8c-.1-1.5-.1-3.1 0-4.8zm-.1-32.7v-4.8 4.8zm.1 4.3v-2.6 2.6zm0 5.9v-5.9 5.9zm.6-244.4z"/><path class="st2" d="M1425.5 92.6v-.3c0 2.5 0 5-.1 7.5V94c.1-.4.1-.9.1-1.4zm.1-10.3c0 1.3 0 2.6-.1 3.8 0-1.4.1-2.8.1-4.2v-.4c.1.2 0 .5 0 .8z"/><path class="st2" d="M1425.7 79l-.1 2.8v-.4c.1-.8.1-1.5.1-2.4z"/><path class="st2" d="M1425.7 53.2v35.4l-.1 4v7.3c-8 2.7-19 .8-25.5-7.2l-1.2-1.5c-8.5-12.5-13.7 6.4-17 9.9-3.4 3.5-8 2.4-12.5-14.1-4-15-14.1 3.8-15.9 7.3l-.1.1L1399 0l1.2 2.3 25.5 50.9z"/><path class="st3" d="M1425.9 301v29.5c0 2.6 0 5.2-.1 7.8v.9c0 2.1 0 4.2-.1 6.3v8.3c0 1.9-.1 3.7-.1 5.6v.7c0 1.6-.1 3.3-.1 4.9v1.2h-25.2V1.2l25.7 50.9v36.6l-.1 4v7.3c0 3.1 0 6.2-.1 9.2V133c0 6.5 0 13.1.1 19.6 0 4.3 0 8.5.1 12.8.2 25.3.5 50.5.1 75.9v.1c0 8.6 0 17.2.1 25.7 0 5.5 0 10.9.1 16.4v15.4c-.4.9-.4 1.5-.4 2.1z"/><path class="st3" d="M1425.7 81.4c0-.8 0-1.6.1-2.4l-.1 2.8v-.4zm.8-26.6zm-.8 186.7v-1 1zm-.1 105.9v-1.9l-.1 5c.1-1.1.1-2.1.1-3.1zm.3-28.2v2.5-2.5zm0 4.5v2.8c-.1-.9 0-1.8 0-2.8zm-.1-33.4v-3 3zm.1 1.5v-1.1 1.1zm0 7.4v-6 6zm-.4-206.6v-.3c0 2.5 0 5-.1 7.5 0 3.1 0 6.2-.1 9.2 0-3.1 0-6.2.1-9.2V94c.1-.4.1-.9.1-1.4z"/><path class="st1" d="M1135.4 139.3l36.8 63.3 94.9 163.8h-257.3z"/><path class="st2" d="M1169.5 198s-5.1-5.3-9.9 0c-4.8 5.3-18.1 5.4-24.2-2.4s-9.7 3.9-12.1 6.1-5.7 1.5-8.9-8.7c-3.1-10.2-11.5 4.9-11.5 4.9l32.4-58.6 34.2 58.7z"/><path class="st3" d="M1136.3 140l35.9 61.9 94.9 163.8h-130.8z"/></g><g id="road"><path class="st4" d="M.3 328.3h1423v78H.3z"/><path class="st5" d="M33.3 370.8h102.3m77.9 0h102.4m77.9 0h102.3m77.9 0h102.4m77.9 0h102.3m77.9 0h102.4m77.9 0h102.3m77.9 0h102.4"/></g><g id="hotel-bakery"><g id="hotel_1_"><path class="st6" d="M801.4 186.5h37.2v16h-37.2z"/><path class="st7" d="M780.5 217.4h79V317h-79z"/><g id="_Group_6"><path class="st8" d="M797.5 237h44.9v20.9h-44.9z"/><path class="st9" d="M797.5 237h44.9v20.9h-44.9z"/><g id="_Group_7"><path id="_Path_11" class="st9" d="M812.1 237v20.9"/><path id="_Path_12" class="st9" d="M827.9 237v20.9"/></g><path class="st10" d="M794.7 258.7h50.7v3.9h-50.7z"/></g><g id="_Group_8"><path class="st8" d="M797.5 275.4h44.9v21h-44.9z"/><path class="st9" d="M797.5 275.4h44.9v21h-44.9z"/><g id="_Group_9"><path id="_Path_14" class="st9" d="M812.1 275.4v20.9"/><path id="_Path_15" class="st9" d="M827.9 275.4v20.9"/></g><path class="st10" d="M794.7 297.1h50.7v3.9h-50.7z"/></g><path id="_Path_16" class="st11" d="M780.5 217.4h79"/><path class="st12" d="M772.4 217h94l-9.1-8.5h-11.1l-5.3-6.7H798l-4.9 6.3h-11.7z"/><path class="st13" d="M809 198.8h-1v-3.9h-4.4v3.9h-1v-8.3h1v3.5h4.4v-3.5h1v8.3zm9.6-4.2c.1 1.1-.3 2.2-1 3.1-.7.8-1.8 1.2-2.8 1.1-1.1.1-2.2-.3-2.9-1.1-.7-.9-1-2-1-3.1-.1-1.1.3-2.2 1-3.1.7-.8 1.8-1.2 2.9-1.1 1.1-.1 2.1.4 2.8 1.1.7.9 1 2 1 3.1zm-6.7 0c-.1.9.2 1.8.7 2.5 1.1 1.1 2.9 1.2 4.1.1l.1-.1c.5-.7.8-1.6.7-2.6.1-.9-.2-1.8-.7-2.5-.5-.6-1.3-.9-2.1-.9s-1.6.3-2.1.9c-.5.8-.8 1.7-.7 2.6zm11.1 4.2h-1v-7.4h-2.6v-.9h6.3v.9H823v7.4zm8.6 0h-4.7v-8.3h4.7v.9h-3.7v2.7h3.5v.9h-3.5v3h3.7v.8zm1.8 0v-8.3h1v7.4h3.7v.9h-4.7z"/></g><g id="bakery"><path class="st14" d="M684.7 316.1h-38.3V268l38.3-15.8z"/><path class="st15" d="M646.4 269.5c-.6 0-1.1-.3-1.3-.9-.3-.7 0-1.5.7-1.8l38.3-15.8c.7-.3 1.5 0 1.8.8.3.7 0 1.5-.7 1.8l-38.3 15.8c-.1 0-.3.1-.5.1z"/><path class="st16" d="M684.8 220h71.3v96.1h-71.3z"/><g id="_Group_"><path class="st8" d="M700.2 238.9h40.6v20.2h-40.6z"/><path class="st9" d="M700.2 238.9h40.6v20.2h-40.6z"/><g id="_Group_2"><path id="_Path_2" class="st9" d="M713.4 238.9v20.2"/><path id="_Path_3" class="st9" d="M727.6 238.9v20.2"/></g><path class="st17" d="M697.6 259.8h45.8v3.8h-45.8z"/></g><g id="_Group_3"><path class="st8" d="M700.2 276h40.6v20.2h-40.6z"/><path class="st9" d="M700.2 276h40.6v20.2h-40.6z"/><g id="_Group_4"><path id="_Path_5" class="st9" d="M713.3 276v20.2"/><path id="_Path_6" class="st9" d="M727.6 276v20.2"/></g><path class="st17" d="M697.6 296.9h45.8v3.8h-45.8z"/></g><path class="st15" d="M683.4 218.6h74.2v2.8h-74.2z" id="_Group_5"/><path class="st18" d="M657 275.6h17.1v17.2H657z"/><path class="st9" d="M657 275.6h17.1v17.2H657z"/><path class="st19" d="M704.9 233.4v-6.8h1.8c.5 0 1 .1 1.3.4.3.3.5.7.5 1.1 0 .7-.4 1.4-1.1 1.6.4 0 .8.2 1 .5.3.3.4.7.4 1.2s-.2 1.1-.6 1.4c-.4.4-1 .6-1.5.5l-1.8.1zm.8-6.1v2.2h.8c.4 0 .7-.1 1-.3.2-.2.4-.6.4-.9 0-.7-.4-1-1.3-1h-.9zm0 2.9v2.5h1c.4 0 .7-.1 1-.3.2-.2.4-.6.4-.9 0-.8-.5-1.2-1.6-1.2h-.8zm9.5 3.2h-.8l-.7-1.9H711l-.6 1.9h-.8l2.5-6.8h.8l2.3 6.8zm-1.7-2.7l-1-2.9c0-.1-.1-.3-.1-.5 0 .2-.1.3-.1.5l-1 2.9h2.2zm7.2 2.7h-1.1l-2.5-3.1c-.1-.1-.1-.2-.2-.2v3.4h-.8v-6.8h.8v3.2c.1-.1.1-.2.2-.2l2.4-3h.9l-2.8 3.3 3.1 3.4zm4.3 0h-3.4v-6.8h3.3v.7h-2.5v2.3h2.3v.7h-2.3v2.4h2.7l-.1.7zm5.9 0h-.9l-1.1-1.9c-.1-.2-.2-.3-.3-.5l-.3-.3c-.1-.1-.2-.1-.3-.2-.1 0-.3-.1-.4-.1h-.6v2.9h-.8v-6.8h1.9c.3 0 .5 0 .8.1l.6.3c.2.2.3.3.4.6.1.3.2.5.1.8 0 .2 0 .4-.1.7-.1.2-.2.4-.3.5-.1.2-.3.3-.4.4l-.6.3c.1 0 .2.1.3.2.1.1.2.1.2.2.1.1.1.2.2.3l.2.4 1.4 2.1zm-3.9-6.1v2.5h1.1c.2 0 .4 0 .5-.1.2-.1.3-.1.4-.3.1-.1.2-.3.3-.4.1-.2.1-.4.1-.5 0-.3-.1-.6-.3-.9-.3-.2-.6-.3-1-.3H727zm9-.8l-2.1 4.3v2.5h-.8v-2.5l-2.1-4.3h.9l1.4 3.1.2.4c0-.1.1-.3.2-.4l1.5-3.1h.8z"/></g></g><g id="tree7_4_"><ellipse class="st20" cx="1230.2" cy="290.8" rx="4.2" ry="3.4"/><path class="st21" d="M1230.2 287.4c-2.3 0-4.2 1.5-4.2 3.4s1.9 3.4 4.2 3.4v-6.8z"/><ellipse class="st20" cx="1245.5" cy="279.3" rx="4.2" ry="3.4"/><path class="st21" d="M1245.5 276c-2.3 0-4.2 1.5-4.2 3.4s1.9 3.4 4.2 3.4V276z"/><path class="st22" d="M1239.4 303.3l-.6-.5 4.4-6.3.5.5z"/><path class="st23" d="M1243.5 296.7l-.3-.2-4.4 6.3.3.2z"/><path class="st22" d="M1238.7 301l-.6-.5 4.4-6.3.5.4z"/><path class="st23" d="M1242.7 294.4l-.2-.2-4.4 6.3.3.2z"/><path class="st22" d="M1233.2 293.8l-.4.6 5.4 5.1.5-.6z"/><path class="st23" d="M1238.5 299.2l-.3.3-5.4-5.1.2-.3z"/><path class="st22" d="M1237.8 294.4h2.1v19.7h-2.1z"/><path class="st23" d="M1237.8 294.4h1.1v19.7h-1.1z"/><ellipse class="st20" cx="1239.4" cy="286.7" rx="12.5" ry="10.2"/><path class="st21" d="M1239.4 276.6c-6.9 0-12.5 4.5-12.5 10.1s5.6 10.1 12.5 10.1v-20.2z"/><ellipse class="st20" cx="1245.5" cy="294.4" rx="5" ry="4.1"/><path class="st21" d="M1245.5 290.3c-2.8 0-5 1.8-5 4.1 0 2.2 2.2 4.1 5 4.1v-8.2z"/></g><g id="tree6_3_"><ellipse class="st20" cx="1194.9" cy="281.3" rx="6.5" ry="5.2"/><path class="st21" d="M1194.9 276c-3.6 0-6.5 2.3-6.5 5.2 0 2.9 2.9 5.2 6.5 5.2V276z"/><ellipse class="st20" cx="1218.8" cy="263.5" rx="6.5" ry="5.2"/><path class="st21" d="M1218.8 258.2c-3.6 0-6.5 2.3-6.5 5.2 0 2.9 2.9 5.2 6.5 5.2v-10.4z"/><path class="st22" d="M1209.1 300.7l-.8-.7 6.8-9.9.8.8z"/><path class="st23" d="M1215.5 290.5l-.4-.4-6.8 9.9.4.3z"/><path class="st22" d="M1208 297.1l-.8-.7 6.8-9.9.8.8z"/><path class="st23" d="M1214.4 286.9l-.4-.4-6.8 9.9.4.3z"/><path class="st22" d="M1199.6 286l-.7.9 8.5 8 .7-1z"/><path class="st23" d="M1207.8 294.4l-.4.5-8.5-8 .4-.4z"/><path class="st22" d="M1206.7 286.9h3.3v30.7h-3.3z"/><path class="st23" d="M1206.7 286.9h1.6v30.7h-1.6z"/><ellipse class="st20" cx="1209.2" cy="275" rx="19.4" ry="15.8"/><path class="st21" d="M1209.2 259.2c-10.7 0-19.4 7.1-19.4 15.8 0 8.7 8.7 15.8 19.4 15.8v-31.6z"/><ellipse class="st20" cx="1218.8" cy="286.9" rx="7.8" ry="6.3"/><path class="st21" d="M1218.8 280.6c-4.3 0-7.8 2.8-7.8 6.3s3.5 6.3 7.8 6.3v-12.6z"/></g><g id="tree7_2_"><ellipse class="st20" cx="1160.8" cy="290.8" rx="4.2" ry="3.4"/><path class="st21" d="M1160.8 287.4c-2.3 0-4.2 1.5-4.2 3.4s1.9 3.4 4.2 3.4v-6.8z"/><ellipse class="st20" cx="1176.1" cy="279.3" rx="4.2" ry="3.4"/><path class="st21" d="M1176.1 276c-2.3 0-4.2 1.5-4.2 3.4s1.9 3.4 4.2 3.4V276z"/><path class="st22" d="M1169.9 303.3l-.5-.5 4.4-6.3.5.5z"/><path class="st23" d="M1174 296.7l-.2-.2-4.4 6.3.3.2z"/><path class="st22" d="M1169.2 301l-.5-.5 4.4-6.3.5.4z"/><path class="st23" d="M1173.3 294.4l-.2-.2-4.4 6.3.3.2z"/><path class="st22" d="M1163.8 293.8l-.4.6 5.4 5.1.5-.6z"/><path class="st23" d="M1169.1 299.2l-.3.3-5.4-5.1.2-.3z"/><path class="st22" d="M1168.3 294.4h2.1v19.7h-2.1z"/><path class="st23" d="M1168.3 294.4h1.1v19.7h-1.1z"/><ellipse class="st20" cx="1170" cy="286.7" rx="12.5" ry="10.2"/><path class="st21" d="M1170 276.6c-6.9 0-12.5 4.5-12.5 10.1s5.6 10.1 12.5 10.1v-20.2z"/><ellipse class="st20" cx="1176.1" cy="294.4" rx="5" ry="4.1"/><path class="st21" d="M1176.1 290.3c-2.8 0-5 1.8-5 4.1s2.2 4.1 5 4.1v-8.2z"/></g><g id="tree6_1_"><ellipse class="st20" cx="1336" cy="287.3" rx="3.6" ry="3.6"/><path class="st21" d="M1336 283.7c-2 0-3.6 1.6-3.6 3.6s1.6 3.6 3.6 3.6v-7.2z"/><ellipse class="st20" cx="1349.3" cy="275.1" rx="3.6" ry="3.6"/><path class="st21" d="M1349.3 271.5c-2 0-3.6 1.6-3.6 3.6s1.6 3.6 3.6 3.6v-7.2z"/><path class="st22" d="M1343.9 300.6l-.4-.5 3.8-6.8.4.6z"/><path class="st23" d="M1347.5 293.6l-.2-.3-3.8 6.8.2.2z"/><path class="st22" d="M1343.3 298.1l-.4-.5 3.7-6.7.5.5z"/><path class="st23" d="M1346.9 291.1l-.3-.2-3.7 6.7.2.3z"/><path class="st22" d="M1338.6 290.5l-.3.7 4.7 5.4.4-.7z"/><path class="st23" d="M1343.2 296.2l-.2.4-4.7-5.4.1-.4z"/><path class="st22" d="M1342.6 291.1h1.8v21h-1.8z"/><path class="st23" d="M1342.6 291.1h.9v21h-.9z"/><ellipse class="st20" cx="1344" cy="283" rx="10.8" ry="10.8"/><path class="st21" d="M1344 272.1c-6 0-10.8 4.8-10.8 10.8 0 6 4.9 10.8 10.8 10.8v-21.6z"/><ellipse class="st20" cx="1349.3" cy="291.1" rx="4.3" ry="4.3"/><path class="st21" d="M1349.3 286.8c-2.4 0-4.3 1.9-4.3 4.3s1.9 4.3 4.3 4.3v-8.6z"/></g><g id="tree7"><ellipse class="st20" cx="1304.5" cy="279.1" rx="6.5" ry="5.3"/><path class="st21" d="M1304.5 273.8c-3.6 0-6.5 2.4-6.5 5.3s2.9 5.3 6.5 5.3v-10.6z"/><ellipse class="st20" cx="1328.7" cy="261.1" rx="6.5" ry="5.3"/><path class="st21" d="M1328.7 255.8c-3.6 0-6.5 2.4-6.5 5.3s2.9 5.3 6.5 5.3v-10.6z"/><path class="st22" d="M1319 298.8l-.9-.8 6.9-9.9.8.8z"/><path class="st23" d="M1325.4 288.5l-.4-.4-6.9 9.9.4.4z"/><path class="st22" d="M1317.8 295.2l-.8-.8 6.9-10 .8.8z"/><path class="st23" d="M1324.3 284.8l-.4-.4-6.9 10 .4.4z"/><path class="st22" d="M1309.3 283.9l-.7 1 8.6 8 .7-1z"/><path class="st23" d="M1317.6 292.4l-.4.5-8.6-8 .4-.5z"/><path class="st22" d="M1316.4 284.8h3.3v31.1h-3.3z"/><path class="st23" d="M1316.4 284.8h1.7v31.1h-1.7z"/><ellipse class="st20" cx="1319" cy="272.7" rx="19.7" ry="16"/><path class="st21" d="M1319 256.7c-10.9 0-19.7 7.2-19.7 16s8.8 16 19.7 16v-32z"/><ellipse class="st20" cx="1328.7" cy="284.8" rx="7.9" ry="6.4"/><path class="st21" d="M1328.7 278.4c-4.3 0-7.8 2.9-7.8 6.4 0 3.5 3.5 6.4 7.8 6.4v-12.8z"/></g><g id="tree6"><ellipse class="st20" cx="1365.1" cy="279.6" rx="6.5" ry="5.2"/><path class="st21" d="M1365.1 274.4c-3.6 0-6.5 2.3-6.5 5.2 0 2.9 2.9 5.2 6.5 5.2v-10.4z"/><ellipse class="st20" cx="1388.9" cy="261.8" rx="6.5" ry="5.2"/><path class="st21" d="M1388.9 256.6c-3.6 0-6.5 2.3-6.5 5.2 0 2.9 2.9 5.2 6.5 5.2v-10.4z"/><path class="st22" d="M1379.3 299l-.8-.7 6.8-9.9.8.8z"/><path class="st23" d="M1385.7 288.8l-.4-.4-6.8 9.9.4.4z"/><path class="st22" d="M1378.2 295.4l-.8-.7 6.8-9.9.8.8z"/><path class="st23" d="M1384.6 285.2l-.4-.4-6.8 9.9.4.4z"/><path class="st22" d="M1369.8 284.3l-.7 1 8.5 7.9.7-1z"/><path class="st23" d="M1377.9 292.7l-.3.5-8.5-7.9.4-.5z"/><path class="st22" d="M1376.8 285.2h3.3v30.7h-3.3z"/><path class="st23" d="M1376.8 285.2h1.6v30.7h-1.6z"/><ellipse class="st20" cx="1379.4" cy="273.3" rx="19.4" ry="15.8"/><path class="st21" d="M1379.4 257.5c-10.7 0-19.4 7.1-19.4 15.8s8.7 15.8 19.4 15.8v-31.6z"/><ellipse class="st20" cx="1388.9" cy="285.2" rx="7.8" ry="6.3"/><path class="st21" d="M1388.9 278.9c-4.3 0-7.8 2.8-7.8 6.3s3.5 6.3 7.8 6.3v-12.6z"/></g><g id="house-green"><path class="st24" d="M420.4 275c-.4-.7-1.1-1.2-1.8-1.5l-39-30.7-38.7 31c-.4.2-.7.5-1 .8l-.1.1c-.6.6-.9 1.5-.9 2.3 0 2.1 1.8 3.7 4 3.7H417c2.2 0 3.9-1.6 4-3.7 0-.8-.2-1.5-.6-2z"/><path class="st25" d="M412.1 314.4h-63.6v-39.2l31.4-24.2 32.2 24z"/><path class="st2" d="M384.3 295.3h12v13.2h-12z"/><path class="st26" d="M385.3 296.4h10.1v11.1h-10.1z"/><path class="st2" d="M384.3 301.9h12v1h-12z"/><path class="st2" d="M389.9 296.4h1.9v11.1h-1.9zm-30.9-3h14.3v21H359z"/><path class="st24" d="M360.1 294.6h12v19.8h-12zm21.5 13.5h16.8v1.1h-16.8z"/><path class="st2" d="M374 267.2h12v13.2h-12z"/><path class="st26" d="M375 268.3h10.1v11.1H375z"/><path class="st2" d="M374 273.8h12v1h-12z"/><path class="st2" d="M379.6 268.3h1.9v11.1h-1.9z"/><path class="st24" d="M386 267.2h7.3v13.2H386zm-19.3 0h7.3v13.2h-7.3z"/></g><g id="house-yellow"><path class="st24" d="M999.1 271.4c-.5-.7-1.1-1.3-1.9-1.6L957 235.2 917 270c-.4.2-.7.5-1 .9l-.1.1c-.6.7-.9 1.6-.9 2.6 0 2.3 1.9 4.2 4.1 4.2h76.5c2.2 0 4.1-1.8 4.1-4.2 0-.8-.2-1.6-.6-2.2z"/><path class="st27" d="M990.5 315.8h-65.7v-44.1l32.4-27.3 33.3 27.1z"/><path class="st2" d="M961.8 294.3h12.4v14.9h-12.4z"/><path class="st26" d="M962.8 295.5h10.4V308h-10.4z"/><path class="st2" d="M961.8 301.8h12.4v1.1h-12.4z"/><path class="st2" d="M967.6 295.5h2V308h-2zm-32.1-2.9h15.1v23.2h-15.1z"/><path class="st24" d="M936.6 294h12.7v21.8h-12.7zm22.4 14.7h17.4v1.3H959z"/><path class="st2" d="M951.1 262.7h12.4v14.9h-12.4z"/><path class="st26" d="M952.1 263.9h10.4v12.5h-10.4z"/><path class="st2" d="M951.1 270.1h12.4v1.1h-12.4z"/><path class="st2" d="M956.9 263.9h2v12.5h-2z"/><path class="st24" d="M963.5 262.7h7.5v14.9h-7.5zm-19.9 0h7.5v14.9h-7.5z"/></g><g id="tree5"><ellipse class="st20" cx="1408.1" cy="285.3" rx="4.5" ry="4.4"/><path class="st21" d="M1408.1 280.9c-2.5 0-4.5 2-4.5 4.4 0 2.4 2 4.4 4.5 4.4v-8.8z"/><path class="st20" d="M1422.9 274.4c-1.5-.7-2.6-2.2-2.6-3.9.1-1.3.6-2.5 1.4-3.1.4-.3.8-.6 1.2-.8v7.8zm0-4.9v-.7.7zm0 4.9v-3.9 3.9z"/><path class="st21" d="M1422.9 274.4c-1.5-.7-2.6-2.2-2.6-3.9.1-1.3.6-2.5 1.4-3.1.4-.3.8-.6 1.2-.8v7.8zm0-4.9v-.7.7zm0 4.9v-3.9 3.9z"/><path class="st22" d="M1422.3 292.7l-4.8 8.2.6.6 4.8-8.2z"/><path class="st23" d="M1422.3 292.7l-4.8 8.2.3.3 4.8-8.2z"/><path class="st22" d="M1417.3 298.5l-.6-.6 4.8-8.2.6.6z"/><path class="st23" d="M1421.8 290l-.3-.3-4.8 8.2.3.3z"/><path class="st22" d="M1411.4 289.2l-.5.8 6 6.6.5-.8z"/><path class="st23" d="M1417.1 296.2l-.2.4-6-6.6.3-.4z"/><path class="st22" d="M1416.3 290h2.3v25.6h-2.3z"/><path class="st23" d="M1416.3 290h1.2v25.6h-1.2z"/><path class="st20" d="M1422.9 287.5v1.7-1.7zm0-18.2v-.5.5zm0 5.1v17.8c-.8.3-1.6.5-2.3.6h-.1l-.4.1-.5.1h-2.3c-.3 0-.6 0-.9-.1s-.6-.1-.9-.1l-.4-.1h-.2l-.2-.1-.4-.1-.4-.1-.9-.3c-.2-.1-.3-.1-.5-.2l-.4-.2c-.2-.1-.4-.2-.5-.3l-.5-.3c-.5-.3-1.1-.7-1.6-1.1-.3-.2-.5-.4-.7-.6l-.3-.3-.4-.4-.2-.2-.3-.3c-.3-.3-.5-.6-.8-1-.1-.1-.1-.2-.2-.2 0-.1-.2-.3-.3-.4-.1-.2-.2-.4-.3-.5-.1-.2-.2-.3-.3-.5-.1-.2-.1-.3-.2-.4-.1-.1-.1-.2-.2-.3s-.1-.3-.2-.4c-.1-.1-.1-.3-.2-.4 0-.1 0-.1-.1-.2 0-.1 0-.1-.1-.2 0-.1-.1-.2-.1-.3-.1-.2-.1-.4-.1-.6-.1-.2-.1-.4-.1-.6v-.1c0-.2-.1-.3-.1-.5v-3.7c0-.3.1-.5.2-.8 0-.2.1-.4.1-.5 0-.2.1-.3.1-.5l.1-.2c.2-.6.4-1.1.7-1.6l.1-.2v-.1c.1-.1.1-.3.2-.4.3-.6.6-1.1 1-1.5l.4-.4c.1-.2.2-.3.4-.4l.2-.2c.2-.3.5-.5.7-.7.1-.1.2-.2.3-.2.1-.1.3-.2.4-.3.3-.2.6-.5.9-.7l.2-.1c.3-.2.6-.4.9-.5l.3-.1c.1-.1.2-.1.3-.2l.2-.1c.1-.1.2-.1.3-.1.1-.1.3-.1.4-.2l.2-.1.4-.1.9-.3.6-.1.4-.1c.2 0 .3-.1.5-.1l.4-.1h1.7c1.2 0 2.4.2 3.6.5.4.1.8.2 1.2.4v5.1c.4.3.3.8.3 1.4z"/><path class="st21" d="M1418.1 266.8c-7.5 0-13.6 5.9-13.6 13.2s6.1 13.2 13.6 13.2v-26.4z"/><path class="st20" d="M1422.9 285.1v9.6c-.2-.1-.5-.2-.7-.3l-.4-.2c-.1-.1-.2-.2-.3-.2-.4-.3-.7-.6-1-1l-.1-.1c-.1-.1-.1-.2-.2-.3-.1-.1-.2-.3-.2-.4-.4-.7-.5-1.5-.6-2.3.1-2.2 1.5-4.1 3.5-4.8zm0 2.4v1.7-1.7zm0 3z"/><path class="st21" d="M1422.9 285.1v9.6c-.2-.1-.5-.2-.7-.3l-.4-.2c-.1-.1-.2-.2-.3-.2-.4-.3-.7-.6-1-1l-.1-.1c-.1-.1-.1-.2-.2-.3-.1-.1-.2-.3-.2-.4-.4-.7-.5-1.5-.6-2.3.1-2.2 1.5-4.1 3.5-4.8zm0 2.4v1.7-1.7zm0 3z"/></g><g id="house-brown"><path class="st28" d="M215.9 214.1h14v18.8h-14z"/><path class="st29" d="M213.3 206.6h19.2v7.6h-19.2z"/><path class="st24" d="M244.2 243.8c-.6-.9-1.4-1.6-2.4-2L191 199l-50.5 43.2c-.5.3-.9.7-1.3 1.1l-.1.1c-.7.9-1.2 2-1.2 3.2.1 2.9 2.4 5.2 5.2 5.2h96.6c2.8.1 5.1-2.3 5.2-5.2.1-1-.2-2-.7-2.8z"/><path class="st30" d="M233.3 313.7h-82.9v-69.5l40.9-33.8 42 33.6z"/><path class="st29" d="M147.3 276.9h87.8v6.8h-87.8z"/><path class="st2" d="M162.5 258.5h15.7v18.4h-15.7z"/><path class="st8" d="M163.8 260h13.1v15.4h-13.1z"/><path class="st2" d="M162.5 267.7h15.7v1.4h-15.7z"/><path class="st2" d="M168.7 260h2.5v15.4h-2.5zm-6.6 28.2h15.7v18.4h-15.7z"/><path class="st8" d="M163.4 289.7h13.1v15.4h-13.1z"/><path class="st2" d="M162.1 297.4h15.7v1.4h-15.7z"/><path class="st2" d="M168.3 289.7h2.5v15.4h-2.5zm36.3-1.5h15.7v18.4h-15.7z"/><path class="st8" d="M205.9 289.7H219v15.4h-13.1z"/><path class="st2" d="M204.6 297.4h15.7v1.4h-15.7z"/><path class="st2" d="M210.8 289.7h2.5v15.4h-2.5zm-27.4-31.2h15.7v18.4h-15.7z"/><path class="st8" d="M184.6 260h13.1v15.4h-13.1z"/><path class="st2" d="M183.4 267.7h15.7v1.4h-15.7z"/><path class="st2" d="M189.6 260h2.5v15.4h-2.5zm-5.6-36.9h15.7v18.4H184z"/><path class="st8" d="M185.3 224.6h13.1V240h-13.1z"/><path class="st2" d="M184 232.3h15.7v1.4H184z"/><path class="st2" d="M190.2 224.6h2.5V240h-2.5zm14.4 33.9h15.7v18.4h-15.7z"/><path class="st8" d="M205.9 260H219v15.4h-13.1z"/><path class="st2" d="M204.6 267.7h15.7v1.4h-15.7z"/><path class="st2" d="M210.8 260h2.5v15.4h-2.5zm-27.4 28.2h16.4v25.5h-16.4z"/><path class="st29" d="M184.6 289.7h13.8v24h-13.8zm-7.7-48.3h30.6v4.6h-30.6z"/></g><g id="shop"><path class="st31" d="M263.8 277.4h57.9c1.7 0 3 1.3 3 3v25.8c0 1.6-1.4 3-3 3h-57.9c-1.7 0-3-1.3-3-3v-25.8c-.1-1.7 1.3-3 3-3z"/><path class="st32" d="M262.2 308.9H323v2.8h-60.8z"/><path class="st33" d="M260 311.4h65.3v2.8H260z"/><path class="st8" d="M266.7 281.1h32.6V303h-32.6z"/><path class="st34" d="M268 302v-20.9h-1.3V303h32.6v-1z"/><path class="st35" d="M260.7 276.9v7.7c.1 2.2 2 3.8 4.2 3.7 2-.1 3.6-1.7 3.8-3.7v-7.7h-8z"/><path class="st36" d="M268.7 276.9v7.7c.1 2.2 2 3.8 4.2 3.7 2-.1 3.6-1.7 3.8-3.7v-7.7h-8z"/><path class="st35" d="M276.7 276.9v7.7c.1 2.2 2 3.8 4.2 3.7 2-.1 3.6-1.7 3.8-3.7v-7.7h-8z"/><path class="st36" d="M284.6 276.9v7.7c0 2.2 1.8 3.9 4 3.9s4-1.7 4-3.9v-7.7h-8z"/><path class="st35" d="M292.6 276.9v7.7c.1 2.2 2 3.8 4.2 3.7 2-.1 3.6-1.7 3.8-3.7v-7.7h-8z"/><path class="st36" d="M300.6 276.9v7.7c.1 2.2 2 3.8 4.2 3.7 2-.1 3.6-1.7 3.8-3.7v-7.7h-8z"/><path class="st35" d="M308.6 276.9v7.7c.1 2.2 2 3.8 4.2 3.7 2-.1 3.6-1.7 3.8-3.7v-7.7h-8z"/><path class="st36" d="M316.6 276.9v7.7c.1 2.2 2 3.8 4.2 3.7 2-.1 3.6-1.7 3.8-3.7v-7.7h-8z"/><path class="st37" d="M272.2 264.6l-11.5 12.3h8l8.6-12.3h-5.1z"/><path class="st38" d="M277.3 264.6l-8.6 12.3h8l5.8-12.3h-5.2z"/><path class="st37" d="M282.4 264.6l-5.8 12.3h8l2.9-12.3h-5.1z"/><path class="st38" d="M287.5 264.6l-2.9 12.3h8v-12.3h-5.1z"/><path class="st37" d="M292.6 264.6v12.3h8l-2.9-12.3h-5.1z"/><path class="st38" d="M297.7 264.6l2.9 12.3h8l-5.8-12.3h-5.1z"/><path class="st37" d="M302.8 264.6l5.8 12.3h8l-8.6-12.3h-5.2z"/><path class="st38" d="M316.6 276.8h8L313 264.6h-5.1l8.7 12.2z"/><path class="st37" d="M272.2 262h5.1v2.6h-5.1zm5.1 0h5.1v2.6h-5.1z"/><path class="st37" d="M282.4 262h5.1v2.6h-5.1zm5.1 0h5.1v2.6h-5.1zm5.1 0h5.1v2.6h-5.1z"/><path class="st37" d="M297.7 262h5.1v2.6h-5.1zm5.1 0h5.1v2.6h-5.1zm5.2 0h5.1v2.6H308z"/><path class="st27" d="M301.9 287h16.6v21.9h-16.6z"/><path class="st39" d="M304.2 299.2h12.6v8.3h-12.6z"/><path class="st8" d="M304.2 289.1h12.6v8.5h-12.6z"/><path class="st34" d="M304.7 297.2v-8.1h-.5v8.5h12.6v-.4z"/></g><g id="tree4"><path class="st22" d="M628.4 299.3h2.9v15.9h-2.9z"/><path class="st23" d="M628.4 299.3h1.5v15.9h-1.5z"/><path class="st40" d="M639.2 305.8l-9.3-39.6-9.4 39.6h1.5l-.6 3h17.1l-.7-3z"/><path class="st41" d="M629.9 308.8v-42.6l-9.3 39.6h1.5l-.7 3z"/></g><g id="tree3"><path class="st22" d="M605.2 299.3h2.9v15.9h-2.9z"/><path class="st23" d="M605.2 299.3h1.5v15.9h-1.5z"/><path class="st40" d="M616.1 305.8l-9.4-39.6-9.4 39.6h1.6l-.7 3h17.1l-.7-3z"/><path class="st41" d="M606.8 308.8v-42.6l-9.4 39.6h1.5l-.6 3z"/></g><g id="house-red"><path class="st42" d="M488.7 232.6h13.4v14.7h-13.4z"/><path class="st43" d="M486.4 226.1h17.9v6.4h-17.9z"/><path class="st44" d="M590 277.6H446.8l17.5-31.2h107.2z"/><path class="st45" d="M460.5 277.6h114.8v33.6H460.5z"/><path class="st2" d="M558.9 274.2c-.6-.8-1.5-1.3-2.5-1.7l-38.7-62.2-37.9 62.5c-.5.2-.9.5-1.3.9l-.1.1c-.8.7-1.2 1.7-1.2 2.6.1 2.4 2.4 4.3 5.3 4.3h71.7c2.9 0 5.3-1.9 5.3-4.3.2-.8-.1-1.6-.6-2.2z"/><path class="st42" d="M546.8 314h-58.1v-42.2l29.9-49.2 28.2 48.9z"/><path class="st2" d="M467.4 288.6h16.1v15.2h-16.1z"/><path class="st26" d="M468.7 289.8h13.5v12.7h-13.5z"/><path class="st2" d="M467.4 296.2h16.1v1.1h-16.1z"/><path class="st2" d="M474.8 289.8h2.6v12.7h-2.6zm78.9-1.2h16.1v15.2h-16.1z"/><path class="st26" d="M555 289.8h13.5v12.7H555z"/><path class="st2" d="M553.7 296.2h16.1v1.1h-16.1z"/><path class="st2" d="M561.2 289.8h2.6v12.7h-2.6zm-51.4-44.3h16.1v24.1h-16.1z"/><path class="st26" d="M511.1 247.4h13.5v20.2h-13.5z"/><path class="st2" d="M509.8 257.5h16.1v1.8h-16.1z"/><path class="st2" d="M517.2 247.4h2.6v20.2h-2.6zm10.1 66.6v-23.1c0-3.5-4.3-6.4-9.5-6.4s-9.5 2.9-9.5 6.4V314h19z"/><path class="st46" d="M525.5 314v-21.8c-.2-3.5-3.7-6.2-7.9-6-3.9.1-7 2.7-7.2 6V314h15.1z"/><path class="st44" d="M451.5 311.2H586v5.1H451.5z"/></g><g id="tree2"><path class="st22" d="M440.5 309.5l-.4.4-4.4-8.5.4-.4z"/><path class="st23" d="M435.9 301.2l-.2.2 4.4 8.5.2-.2z"/><path class="st22" d="M441.1 307.5l-.5-.3 2.7-7.5.5.3z"/><path class="st23" d="M443.6 299.9l-.3-.2-2.7 7.5.3.1z"/><path class="st22" d="M439.5 292.8h2v20.9h-2z"/><path class="st23" d="M440.5 292.8h-1v20.9h1v-15.9z"/><path class="st40" d="M445.9 292.7l-5.4-17.1-5.4 17.1h.8l-.3 1.3h9.8l-.4-1.3z"/><path class="st41" d="M440.5 294v-18.4l-5.4 17.1h.9l-.4 1.3z"/><path class="st40" d="M436.3 298.5l-2.5 4.3h4.6z"/><path class="st41" d="M436.3 298.5l-2.5 4.3h2.5z"/><path class="st40" d="M443.8 294.7l-2 5.6h3.6z"/><path class="st41" d="M443.8 294.7l-2 5.6h2z"/></g><g id="house-light-brown"><path class="st24" d="M92.2 270.7c-.4-.7-1-1.3-1.7-1.6l-36.4-34.6L18 269.4c-.3.2-.6.5-.9.9l-.1.1c-.5.7-.8 1.6-.8 2.6 0 2.3 1.7 4.2 3.7 4.2h69.2c2 0 3.7-1.8 3.7-4.2 0-.9-.2-1.6-.6-2.3z"/><path class="st47" d="M84.5 315.2H25V271l29.4-27.3 30.1 27.1z"/><path class="st2" d="M58.5 293.7h11.2v14.9H58.5z"/><path class="st26" d="M59.4 294.9h9.4v12.5h-9.4z"/><path class="st2" d="M58.5 301.1h11.2v1.1H58.5z"/><path class="st2" d="M63.7 294.9h1.8v12.5h-1.8zm-29-2.1h13.6v22.4H34.7z"/><path class="st24" d="M35.8 294.1h11.4v21.1H35.8zm20.2 14h15.7v1.3H56z"/><path class="st2" d="M48.9 262h11.2v14.9H48.9z"/><path class="st26" d="M49.8 263.2h9.4v12.5h-9.4z"/><path class="st2" d="M48.9 269.4h11.2v1.1H48.9z"/><path class="st2" d="M54.1 263.2h1.8v12.5h-1.8z"/><path class="st24" d="M60.1 262h6.8v14.9h-6.8zm-18 0h6.8v14.9h-6.8z"/></g><g id="tree1"><path class="st22" d="M899.9 309.9l-.6.4-5.5-9.4.5-.5z"/><path class="st23" d="M894 300.7l-.2.2 5.5 9.4.3-.2z"/><path class="st22" d="M900.6 307.7l-.6-.4 3.4-8.3.6.3z"/><path class="st23" d="M903.7 299.2l-.3-.2-3.4 8.3.3.2z"/><path class="st22" d="M898.6 291.3h2.5v23.2h-2.5z"/><path class="st23" d="M899.8 291.3h-1.2v23.3h1.2v-17.7z"/><path class="st40" d="M906.6 291.2l-6.8-19-6.8 19h1.1l-.5 1.4h12.5l-.5-1.4z"/><path class="st41" d="M899.9 292.6v-20.4l-6.9 19h1.2l-.5 1.4z"/><path class="st40" d="M894.6 297.6l-3.2 4.9h5.9z"/><path class="st41" d="M894.6 297.6l-3.2 4.9h3.2z"/><path class="st40" d="M904 293.4l-2.4 6.2h4.5z"/><path class="st41" d="M904 293.4l-2.4 6.2h2.4z"/></g><g id="tree1_1_"><path class="st22" d="M878.7 310.1l-.5.5-5.6-9.5.5-.4z"/><path class="st23" d="M872.9 300.9l-.3.2 5.6 9.5.2-.2z"/><path class="st22" d="M879.4 307.9l-.5-.3 3.4-8.3.6.3z"/><path class="st23" d="M882.6 299.4l-.3-.1-3.4 8.3.3.1z"/><path class="st22" d="M877.4 291.6h2.5v23.2h-2.5z"/><path class="st23" d="M878.7 291.6h-1.3v23.2h1.3v-17.7z"/><path class="st40" d="M885.5 291.5l-6.8-19.1-6.9 19.1h1.2l-.5 1.4h12.4l-.5-1.4z"/><path class="st41" d="M878.7 292.9v-20.4l-6.8 19h1.1l-.5 1.4z"/><path class="st40" d="M873.4 297.9l-3.1 4.8h5.8z"/><path class="st41" d="M873.4 297.9l-3.1 4.8h3.1z"/><path class="st40" d="M882.8 293.7l-2.4 6.2h4.5z"/><path class="st41" d="M882.9 293.7l-2.5 6.2h2.5z"/></g><g id="tree1_3_"><path class="st22" d="M129.9 311.9l-.6.4-5.5-9.4.5-.5z"/><path class="st23" d="M124 302.7l-.2.2 5.5 9.4.3-.2z"/><path class="st22" d="M130.6 309.7l-.6-.4 3.4-8.3.6.3z"/><path class="st23" d="M133.7 301.2l-.3-.2-3.4 8.3.3.2z"/><path class="st22" d="M128.6 293.3h2.5v23.2h-2.5z"/><path class="st23" d="M129.8 293.3h-1.2v23.3h1.2v-17.7z"/><path class="st40" d="M136.6 293.2l-6.8-19-6.8 19h1.1l-.5 1.4h12.5l-.5-1.4z"/><path class="st41" d="M129.9 294.6v-20.4l-6.9 19h1.2l-.5 1.4z"/><path class="st40" d="M124.6 299.6l-3.2 4.9h5.9z"/><path class="st41" d="M124.6 299.6l-3.2 4.9h3.2z"/><path class="st40" d="M134 295.4l-2.4 6.2h4.5z"/><path class="st41" d="M134 295.4l-2.4 6.2h2.4z"/></g><g id="tree1_2_"><path class="st22" d="M106.7 312.1l-.5.5-5.6-9.5.5-.4z"/><path class="st23" d="M100.9 302.9l-.3.2 5.6 9.5.2-.2z"/><path class="st22" d="M107.4 309.9l-.5-.3 3.4-8.3.6.3z"/><path class="st23" d="M110.6 301.4l-.3-.1-3.4 8.3.3.1z"/><path class="st22" d="M105.4 293.6h2.5v23.2h-2.5z"/><path class="st23" d="M106.7 293.6h-1.3v23.2h1.3v-17.7z"/><path class="st40" d="M113.5 293.5l-6.8-19.1-6.9 19.1h1.2l-.5 1.4h12.4l-.5-1.4z"/><path class="st41" d="M106.7 294.9v-20.4l-6.8 19h1.1l-.5 1.4z"/><path class="st40" d="M101.4 299.9l-3.1 4.8h5.8z"/><path class="st41" d="M101.4 299.9l-3.1 4.8h3.1z"/><path class="st40" d="M110.8 295.7l-2.4 6.2h4.5z"/><path class="st41" d="M110.9 295.7l-2.5 6.2h2.5z"/></g><path id="footpath" class="st48" d="M.3 314.2h1135.3v14.2H.3z"/><g id="terrain"><path id="grass" class="st49" d="M1019.6 313.7h403.7v5.2h-403.7z"/><path id="mud" class="st50" d="M1019.6 317.5V329h403.7v-11.5z"/></g></g></svg>