<svg id="Layer_1" xmlns="http://www.w3.org/2000/svg" viewBox="0 0 1423 497.9"><style>.st0{opacity:.1;fill:#231f20;enable-background:new}.st1{fill:#96a2a4}.st2{fill:#fff}.st3{opacity:.3;fill:#231f20;enable-background:new}.st4{fill:#5e5f61}.st5{fill:none;stroke:#fff;stroke-width:2;stroke-miterlimit:10}.st6{fill:#ff9d00}.st7{fill:#f05152}.st8{fill:#4f0000}.st9{fill:#ff6568}.st10{opacity:.21;enable-background:new}.st11{fill:#9ab6b8}.st12{opacity:.43;enable-background:new}.st13{fill:none;stroke:#fff;stroke-miterlimit:10}.st14{fill:#604123}.st15{fill:#f39b80}.st16{fill:#9caca1}.st17{fill:#543c36}.st18{fill:none;stroke:#543c36;stroke-width:4;stroke-linecap:square;stroke-miterlimit:10}.st19{fill:#a40000}.st20{fill:#890000}.st21{fill:#ff0}.st22{fill:#809b3d}.st23{opacity:.2;fill:#fff;enable-background:new}.st24{fill:#855222}.st25{fill:#ad6729}.st26{fill:#6e3e19}.st27{fill:#619959}.st28{fill:#cce9eb}.st29{fill:#faae40}.st30{fill:#a8745d}.st31{fill:#a73330}.st32{fill:#b27d62}.st33{fill:#fad00b}.st34{fill:#b7ad4e}.st35{fill:#852a34}.st36{fill:#44130c}.st37{fill:#c0e0de}.st38{fill:#9ad4da}.st39{fill:#b21f24}.st40{fill:#c93427}.st41{fill:#db4126}.st42{fill:#f16228}.st43{fill:none;stroke:#fdca80;stroke-miterlimit:10}.st44{fill:#3f8252}.st45{opacity:.2;fill:#57ae62;enable-background:new}.st46{fill:#e74543}.st47{fill:#a82d2b}.st48{fill:#eaf6f7}.st49{fill:#bc3734}.st50{fill:#c23c39}.st51{fill:#ddd}.st52{fill:#82cb38}.st53{fill:#aa5541}</style><title>city-view</title><g id="Layer_2"><g id="content"><path class="st0" d="M1422.2 335.6c0 2.1 0 4.2-.1 6.3l-.1 4.9v3.2c0 1.9-.1 3.7-.2 5.6v.6c0 1.6-.1 3.2-.2 4.9v3.3h-377.4l.6-.8h-.6l.8-1 59-78.3 50.4-66.8.3-.3 36.7-48.6 55.6-73.8v.8l1.3-1.7 50.1 69.6.1.1 3.7 5.2 88.3 122.7 3.4 4.7 16.8 23.4.2.3 1.3 1.8 1.1 1.6.8 1.1.4.6.5.7.5.7 1.5 2.1.5.7.5.7 4.2 5.7z"/><path class="st1" d="M1422.1 238.9v-1 1zm0-158.4c0-.8 0-1.6.1-2.4l-.1 2.8v-.4z"/><path class="st1" d="M1422.3 312.2V327c0 2.6 0 5.2-.1 7.8v.9c0 2.1 0 4.2-.1 6.3v1.9c0 1 0 2-.1 3v3.2c0 1.9-.1 3.7-.2 5.6v.6c-.1 2-.1 4-.2 6.1v1.1h-223.8l.5-.9.4-.7 22.1-41.2.2-.4 81.1-151.5 40.2-75v-.1l.1-.1.1-.2s0-.1.1-.1l.1-.1 50-93.2 1.3 2.3 28.3 50.4V81c0 .7 0 1.4-.1 2.1s0 1.4 0 2.1v2.6c0 1.2 0 2.4-.1 3.7 0 2.5 0 5-.1 7.4 0 3.1 0 6.1-.1 9.2v23.6c0 6.5 0 12.9.2 19.4 0 4.2 0 8.4.1 12.6.3 25 .5 50 .1 75.1v.1c0 8.5 0 17 .1 25.5 0 5.4 0 10.8.1 16.2v15.7c-.1 5.2-.2 10.5-.2 15.9z"/><path class="st1" d="M1421.5 362.3c.1-2 .1-4 .2-6.1 0 1.6-.1 3.2-.2 4.9.1.4.1.8 0 1.2v1.1-1.1zm.5-18.6v-1.9l-.1 4.9v1.4c.1-1.4.1-2.9.1-4.4zm.3-25.3v8.6c0 2.6 0 5.2-.1 7.8 0-2.6.1-5.2.1-7.8v-8.6zm0-32.4v-4.8 4.8zm0 4.2v-2.6 2.6zm0 5.9v-5.9 5.9zm.7-241.9z"/><path class="st2" d="M1421.9 91.6v-.3c0 2.5 0 5-.1 7.4V93c.1-.4.1-.9.1-1.4zm.2-10.2c0 1.3-.1 2.5-.1 3.8 0-1.4.1-2.8.1-4.2v-.4.8zm.1-3.2l-.1 2.8v-.4c0-.9 0-1.6.1-2.4z"/><path class="st2" d="M1422.1 52.6v35.1l-.1 3.9v7.2c-8.8 2.6-20.8.8-28-7.1-.4-.5-.9-1-1.3-1.5-9.4-12.4-15 6.3-18.7 9.8s-8.8 2.4-13.7-14c-4.4-14.8-15.5 3.7-17.5 7.2l-.1.1 50-93.3 1.3 2.3 28.1 50.3z"/><path class="st3" d="M1422.3 297.8v29.3c0 2.6 0 5.2-.1 7.8v.9c0 2.1 0 4.2-.1 6.3v1.9c0 1 0 2-.1 3v3.2c0 1.9-.1 3.7-.2 5.6v.6c0 1.6-.1 3.2-.2 4.9v1.2h-27.7V1.1l28.3 50.4V81c0 .7 0 1.4-.1 2.1s0 1.4 0 2.1v2.6l-.1 3.9v7.2c0 3.1 0 6.1-.1 9.1v23.6c0 6.5.1 12.9.2 19.4 0 4.2 0 8.4.1 12.6.3 25 .5 50 .1 75.1v.1c0 8.5 0 17 .1 25.5 0 5.4 0 10.8.1 16.2v15.4c-.2.8-.2 1.4-.2 1.9z"/><path class="st3" d="M1422.1 80.5c0-.8 0-1.6.1-2.4l-.1 2.8v-.4zm.9-26.3zm-.9 184.7v-1 1zm-.1 104.8v-1.9l-.1 4.9c.1-.9.1-1.9.1-3zm.3-27.9v2.5-2.5zm0 4.6zm0-33.2v-3 3zm0 1.6v-1.1 1.1zm0 7.3v-5.9 5.9zm-.4-204.5v-.3c0 2.5 0 5-.1 7.4 0 3.1 0 6.1-.1 9.2 0-3 0-6.1.1-9.1v-5.7c.1-.5.1-1 .1-1.5z"/><path class="st1" d="M1103.2 137.8l40.3 62.7 104.3 162H965.2z"/><path class="st2" d="M1140.6 195.9s-5.6-5.2-10.9 0-19.9 5.3-26.5-2.3-10.6 3.9-13.3 6-6.3 1.5-9.7-8.6-12.6 4.8-12.6 4.8l35.6-58 37.4 58.1z"/><path class="st3" d="M1104.1 138.5l39.4 61.3 104.3 162.1h-143.7z"/><g id="road"><path class="st4" d="M0 379.9h1423v118H0z"/><path class="st5" d="M33 444.2h102.3m77.9 0h102.3m78 0h102.3m77.9 0H676m78 0h102.3m77.9 0h102.3m77.9 0h102.4m77.9 0H1397"/></g><path class="st6" d="M881 224.6h38.5v16.9H881z"/><path class="st7" d="M740.5 361.1H680v-72.6l60.5-24z"/><path class="st8" d="M680 290.6c-.9 0-1.7-.5-2.1-1.3-.5-1.1.1-2.3 1.1-2.8h.1l60.5-23.9c1.1-.5 2.4.1 2.9 1.2.4 1.1-.1 2.3-1.1 2.8h-.1l-60.5 23.9c-.2 0-.5.1-.8.1z"/><path class="st9" d="M740.7 215.8h112.7v145.3H740.7z"/><path class="st10" d="M740.7 215.8h112.7v12.4H740.7z"/><g id="_Group_"><path class="st11" d="M765 244.4h64.1V275H765z"/><path id="_Path_" class="st12" d="M821.1 245.7v21.6H765v7.6h64v-29.2z"/><path class="st13" d="M765 244.4h64.1V275H765z"/><g id="_Group_2"><path id="_Path_2" class="st13" d="M785.8 244.4v30.5"/><path id="_Path_3" class="st13" d="M808.2 244.4v30.5"/></g><path class="st14" d="M760.9 276h72.3v5.8h-72.3z"/></g><g id="_Group_3"><path class="st11" d="M765 300.4h64.1V331H765z"/><path id="_Path_4" class="st12" d="M821.1 301.7v21.6H765v7.7h64v-29.3z"/><path class="st13" d="M765 300.4h64.1V331H765z"/><g id="_Group_4"><path id="_Path_5" class="st13" d="M785.8 300.4V331"/><path id="_Path_6" class="st13" d="M808.2 300.4V331"/></g><path class="st14" d="M760.8 332.1h72.3v5.8h-72.3z"/></g><path class="st8" d="M738.4 213.6h117.2v4.3H738.4z" id="_Group_5"/><path id="_Path_7" class="st10" d="M841.5 291.1h-72.3l-8.3-9.3h72.3z"/><path id="_Path_8" class="st10" d="M841.5 347.1h-72.3l-8.3-9.2h72.3z"/><path class="st11" d="M696.8 299.8h27v26h-27z"/><path id="_Path_9" class="st12" d="M716.9 299.8v19.4h-20.1v6.6h27v-26z"/><path class="st13" d="M696.8 299.8h27v26h-27z"/><path class="st15" d="M859.3 257.2H941v105.3h-81.7z"/><path class="st10" d="M859.3 257.2H941v9h-81.7z"/><g id="_Group_6"><path class="st16" d="M876.9 277.9h46.4V300h-46.4z"/><path id="_Path_10" class="st12" d="M917.6 278.9v15.6h-40.7v5.6h46.5v-21.2z"/><path class="st13" d="M876.9 277.9h46.4V300h-46.4z"/><g id="_Group_7"><path id="_Path_11" class="st13" d="M892 277.9v22.2"/><path id="_Path_12" class="st13" d="M908.3 277.9v22.2"/></g><path class="st17" d="M874 300.9h52.4v4.2H874z"/></g><g id="_Group_8"><path class="st16" d="M876.9 318.5h46.5v22.2h-46.5z"/><path id="_Path_13" class="st12" d="M917.6 319.5v15.6h-40.7v5.6h46.5v-21.2z"/><path class="st13" d="M876.9 318.5h46.5v22.2h-46.5z"/><g id="_Group_9"><path id="_Path_14" class="st13" d="M892 318.5v22.2"/><path id="_Path_15" class="st13" d="M908.3 318.5v22.2"/></g><path class="st17" d="M874 341.5h52.4v4.2H874z"/></g><path id="_Path_16" class="st18" d="M859.3 257.2H941"/><path id="_Path_17" class="st10" d="M932.4 311.8H880l-6-6.7h52.4z"/><path id="_Path_18" class="st10" d="M932.4 352.4H880l-6-6.7h52.4z"/><path class="st19" d="M850.9 256.8h97.2l-9.3-9h-11.6l-5.4-7.1h-44.3l-5.1 6.7h-12.1z"/><path class="st20" d="M888.8 237.5h-1v-4.1h-4.6v4.1h-1v-8.7h1v3.7h4.6v-3.7h1v8.7zm9.9-4.4c.1 1.2-.3 2.4-1 3.3-.7.8-1.8 1.3-2.9 1.2-1.1.1-2.2-.4-3-1.2-.7-1-1.1-2.1-1-3.3-.1-1.2.3-2.4 1-3.3.8-.8 1.9-1.2 3-1.2 1.1-.1 2.2.4 2.9 1.2.7 1 1 2.2 1 3.3zm-6.9 0c-.1 1 .2 1.9.8 2.7 1.1 1.2 3 1.2 4.2.1l.1-.1c.5-.8.8-1.7.7-2.7.1-.9-.2-1.9-.7-2.7-.5-.6-1.3-1-2.2-.9-.8-.1-1.6.3-2.2.9-.5.9-.8 1.8-.7 2.7zm11.5 4.4h-1v-7.8h-2.7v-.9h6.5v.9h-2.7l-.1 7.8zm8.8 0h-4.8v-8.7h4.8v.9h-3.8v2.8h3.6v.9h-3.6v3.2h3.8v.9zm1.9 0v-8.7h1v7.8h3.8v.9H914z"/><path class="st21" d="M772.5 236v-10.4h2.9c.8 0 1.5.2 2.1.7.5.4.8 1 .8 1.7 0 1.1-.7 2.1-1.8 2.4.6.1 1.2.3 1.7.8.4.5.6 1.1.6 1.7 0 .8-.3 1.6-.9 2.1-.7.6-1.5.9-2.4.8l-3 .2zm1.2-9.2v3.3h1.2c.6 0 1.1-.1 1.5-.5.4-.3.6-.8.6-1.4 0-1-.7-1.5-2-1.5l-1.3.1zm0 4.4v3.7h1.6c.6 0 1.2-.1 1.6-.5.4-.3.6-.9.6-1.4 0-1.2-.8-1.8-2.5-1.8h-1.3zm15.1 4.8h-1.3l-1.1-2.9H782l-1 2.9h-1.3l3.9-10.3h1.2l4 10.3zm-2.8-4l-1.6-4.4c-.1-.2-.1-.5-.2-.7 0 .2-.1.5-.2.7l-1.6 4.4h3.6zm11.4 4h-1.7l-4-4.7c-.1-.1-.2-.2-.3-.4v5.1h-1.2v-10.4h1.2v4.9c.1-.1.2-.2.3-.4l3.8-4.5h1.5l-4.4 5 4.8 5.4zm6.8 0h-5.4v-10.4h5.2v1.1h-4v3.4h3.7v1.1H800v3.6h4.2v1.2zm9.3 0H812l-1.7-2.9c-.1-.2-.3-.5-.5-.7-.1-.2-.3-.3-.5-.5-.1-.1-.3-.2-.5-.3s-.4-.1-.6-.1h-1v4.4H806v-10.4h3.1c.4 0 .8.1 1.2.2.4.1.7.3 1 .5s.5.5.7.9.2.8.2 1.2c0 .3 0 .7-.2 1-.1.3-.3.6-.5.8s-.4.4-.7.6c-.3.2-.6.3-.9.4.2.1.3.2.5.3.1.1.3.2.4.4.1.1.2.3.3.5l.4.6 2 3.1zm-6.2-9.2v3.8h1.7c.3 0 .6 0 .8-.1s.5-.2.7-.4.3-.4.4-.6c.1-.3.2-.5.2-.8 0-.5-.2-1-.5-1.3-.4-.3-1-.5-1.5-.5l-1.8-.1zm14.2-1.2l-3.4 6.5v3.8h-1.2v-3.8l-3.3-6.6h1.4l2.3 4.7c0 .1.1.3.3.6l.3-.6 2.4-4.7h1.2v.1z"/><ellipse class="st22" cx="1251.1" cy="303" rx="11.7" ry="8"/><path class="st23" d="M1251 295.1c-6.5 0-11.7 3.6-11.7 8s5.2 8 11.7 8v-16z"/><ellipse class="st22" cx="1294.2" cy="276" rx="11.7" ry="8"/><path class="st23" d="M1294.2 268c-6.5 0-11.7 3.6-11.7 8s5.2 8 11.7 8v-16z"/><path class="st24" d="M1276.8 332.7l-1.5-1.2 12.3-15 1.5 1.2z"/><path class="st25" d="M1288.3 317.1l-.7-.6-12.3 15 .8.6z"/><path class="st24" d="M1274.8 327.2l-1.5-1.2 12.3-15 1.5 1.2z"/><path class="st25" d="M1286.3 311.6l-.7-.6-12.3 15 .8.6z"/><path class="st24" d="M1259.6 310.2l-1.3 1.5 15.4 12 1.2-1.4z"/><path class="st25" d="M1274.3 323l-.6.7-15.4-12 .6-.8z"/><path class="st24" d="M1272.3 311.6h5.9v46.8h-5.9z"/><path class="st25" d="M1272.3 311.6h3v46.8h-3z"/><ellipse class="st22" cx="1276.8" cy="293.5" rx="35.2" ry="24"/><path class="st23" d="M1276.8 269.4c-19.4 0-35.2 10.8-35.2 24s15.8 24 35.2 24v-48z"/><ellipse class="st22" cx="1294.2" cy="311.6" rx="14.1" ry="9.6"/><path class="st23" d="M1294.2 302c-7.8 0-14 4.3-14 9.6s6.3 9.6 14 9.6V302z"/><ellipse class="st22" cx="1318.8" cy="307" rx="11.5" ry="7.9"/><path class="st23" d="M1318.8 299.1c-6.4 0-11.5 3.5-11.5 7.9s5.2 7.9 11.5 7.9v-15.8z"/><ellipse class="st22" cx="1361.4" cy="280.2" rx="11.5" ry="7.9"/><path class="st23" d="M1361.4 272.4c-6.4 0-11.5 3.5-11.5 7.9s5.2 7.9 11.5 7.9v-15.8z"/><path class="st24" d="M1344.3 336.2l-1.6-1.2 12.2-14.7 1.5 1.1z"/><path class="st25" d="M1355.6 320.8l-.7-.5-12.2 14.7.8.6z"/><path class="st24" d="M1342.3 330.8l-1.5-1.2 12.1-14.7 1.5 1.1z"/><path class="st25" d="M1353.7 315.4l-.8-.5-12.1 14.7.7.6z"/><path class="st24" d="M1327.2 314l-1.2 1.5 15.2 11.9 1.2-1.5z"/><path class="st25" d="M1341.8 326.7l-.6.7-15.2-11.9.6-.7z"/><path class="st24" d="M1339.8 315.4h5.9v46.1h-5.9z"/><path class="st25" d="M1339.8 315.4h2.9v46.1h-2.9z"/><ellipse class="st22" cx="1344.3" cy="297.5" rx="34.7" ry="23.7"/><path class="st23" d="M1344.3 273.8c-19.2 0-34.7 10.6-34.7 23.7s15.6 23.7 34.7 23.7v-47.4z"/><ellipse class="st22" cx="1361.4" cy="315.5" rx="13.9" ry="9.5"/><path class="st23" d="M1361.4 306c-7.7 0-13.9 4.2-13.9 9.5s6.2 9.5 13.9 9.5v-19z"/><path class="st26" d="M263.1 299.3c-.7-1-1.6-1.8-2.7-2.2l-57.1-46.5-56.7 46.9c-.5.3-1 .7-1.4 1.2l-.1.1c-.8 1-1.3 2.2-1.3 3.5.1 3.2 2.7 5.7 5.8 5.6h108.5c3.2.1 5.8-2.4 5.8-5.6.1-1.1-.2-2.1-.8-3z"/><path class="st27" d="M251 359h-93.2v-59.3l46-36.7 47.2 36.4z"/><path class="st2" d="M210.3 330.1h17.6v20h-17.6z"/><path class="st28" d="M211.7 331.7h14.8v16.7h-14.8z"/><path class="st2" d="M210.3 340.1h17.6v1.5h-17.6z"/><path class="st2" d="M218.5 331.7h2.8v16.7h-2.8zm-44.1-10.4h22.1V359h-22.1z"/><path class="st26" d="M175.8 322.8H195V359h-19.2zm30.5 26.6h24.6v1.7h-24.6z"/><path class="st2" d="M195.1 287.6h17.6v20h-17.6z"/><path class="st28" d="M196.6 289.2h14.8v16.7h-14.8z"/><path class="st2" d="M195.1 297.6h17.6v1.5h-17.6z"/><path class="st2" d="M203.3 289.2h2.8v16.7h-2.8z"/><path class="st26" d="M212.8 287.6h10.6v20h-10.6zm-28.3 0h10.7v20h-10.7zm903 11.7c-.7-1-1.6-1.8-2.7-2.2l-57.1-46.5-56.7 46.9c-.5.3-1 .7-1.4 1.2l-.1.1c-.8 1-1.3 2.2-1.3 3.5.1 3.2 2.7 5.7 5.8 5.6h108.5c3.2.1 5.8-2.4 5.8-5.6.1-1.1-.2-2.1-.8-3z"/><path class="st29" d="M1075.4 359h-93.2v-59.3l46-36.7 47.2 36.4z"/><path class="st2" d="M1034.7 330.1h17.6v20h-17.6z"/><path class="st28" d="M1036.1 331.7h14.8v16.7h-14.8z"/><path class="st2" d="M1034.7 340.1h17.6v1.5h-17.6z"/><path class="st2" d="M1042.9 331.7h2.8v16.7h-2.8zm-44.1-7.9h20.7v35.1h-20.7z"/><path class="st26" d="M1000.2 325.3h17.9v34.6h-17.9zm30.5 24.1h24.7v1.7h-24.7z"/><path class="st2" d="M1019.5 287.6h17.6v20h-17.6z"/><path class="st28" d="M1021 289.2h14.8v16.7H1021z"/><path class="st2" d="M1019.5 297.6h17.6v1.5h-17.6z"/><path class="st2" d="M1027.7 289.2h2.8v16.7h-2.8z"/><path class="st26" d="M1037.2 287.6h10.7v20h-10.7zm-28.3 0h10.7v20h-10.7z"/><ellipse class="st22" cx="1390.8" cy="315.5" rx="9.6" ry="6.6"/><path class="st23" d="M1390.8 308.9c-5.3 0-9.6 3-9.6 6.6s4.3 6.6 9.6 6.6v-13.2z"/><path class="st22" d="M1422 299.1c-3.2-1.1-5.4-3.3-5.4-5.9.1-2 1.2-3.7 2.9-4.7.8-.5 1.6-.9 2.5-1.2v11.8zm0-7.3v-1.1 1.1zm0 7.3v-5.9 5.9z"/><path class="st23" d="M1422 299.1c-3.2-1.1-5.4-3.3-5.4-5.9.1-2 1.2-3.7 2.9-4.7.8-.5 1.6-.9 2.5-1.2v11.8zm0-7.3v-1.1 1.1zm0 7.3v-5.9 5.9z"/><path class="st24" d="M1420.7 326.6l-10.1 12.3 1.3 1 10-12.3z"/><path class="st25" d="M1420.7 326.6l-10.1 12.3.7.5 10-12.3z"/><path class="st24" d="M1410.3 335.4l-1.3-1 10-12.3 1.3.9z"/><path class="st25" d="M1419.7 322.6l-.7-.5-10 12.3.6.5z"/><path class="st24" d="M1397.8 321.4l-1 1.2 12.5 9.9 1-1.2z"/><path class="st25" d="M1409.8 331.9l-.5.6-12.5-9.9.5-.6z"/><path class="st24" d="M1408.2 322.6h4.9v38.5h-4.9z"/><path class="st25" d="M1408.2 322.6h2.4v38.5h-2.4z"/><path class="st22" d="M1422 318.8v2.5-2.5zm0-27.3v-.8.8zm0 7.6v27.1c-1.6.4-3.3.7-4.9.9h-.3l-.9.1-1.1.1h-4.8c-.6 0-1.2-.1-1.8-.1s-1.3-.1-1.9-.2l-.9-.1-.4-.1-.4-.1-.9-.2-.9-.2c-.6-.1-1.3-.3-1.9-.5-.3-.1-.7-.2-1-.3l-.8-.3c-.4-.1-.7-.3-1.1-.4l-1-.4c-1.1-.5-2.3-1-3.3-1.6l-1.5-.9-.6-.4c-.2-.2-.5-.3-.7-.5-.1-.1-.2-.2-.4-.3-.2-.2-.4-.3-.6-.5-.6-.5-1.1-1-1.6-1.5-.1-.1-.2-.2-.3-.4s-.4-.4-.5-.6c-.2-.3-.5-.5-.7-.8-.2-.2-.4-.5-.6-.7s-.3-.4-.4-.6-.2-.3-.3-.5l-.3-.6-.3-.6c-.1-.1-.1-.2-.1-.3 0-.1-.1-.2-.1-.3-.1-.1-.1-.3-.2-.4-.1-.3-.2-.5-.3-.8l-.3-.9v-.1c-.1-.2-.1-.5-.2-.7 0-.2-.1-.3-.1-.5 0-.1-.1-.3-.1-.4-.1-.3-.1-.6-.1-1v-1.9c0-.3.1-.6.1-.9s.1-.3.1-.5.1-.3.1-.5l.3-1.2c.1-.3.2-.5.3-.8.1-.3.2-.5.3-.7l.1-.3c.4-.9.8-1.7 1.4-2.4l.3-.4s0-.1.1-.1c.1-.2.3-.4.5-.6.6-.8 1.4-1.6 2.1-2.3l.8-.7h.1c.2-.2.5-.4.8-.6l.3-.3c.5-.4 1-.8 1.6-1.1.2-.1.4-.3.6-.4s.6-.4.9-.5c.6-.4 1.3-.7 2-1l.4-.2c.6-.3 1.2-.5 1.8-.8l.6-.2c.2-.1.4-.2.7-.2l.5-.2c.2-.1.4-.1.7-.2.3-.1.6-.2.8-.2l.5-.1.8-.2c.6-.2 1.3-.3 2-.4l1.2-.2.9-.1c.3 0 .7-.1 1-.1l.8-.1h.7c.4 0 .9 0 1.3-.1s1 0 1.5 0c2.5 0 5 .2 7.5.7.8.2 1.7.3 2.5.5v7.5c0 .8-.4 1.6-.4 2.4z"/><path class="st23" d="M1411.9 287.8c-15.9 0-28.7 8.9-28.7 19.8s12.9 19.8 28.7 19.8v-39.6z"/><path class="st22" d="M1422 315.2V330c-.5-.1-1-.3-1.5-.5l-.8-.3c-.3-.1-.5-.2-.7-.4-.7-.4-1.4-.9-2.1-1.5l-.1-.1-.4-.4c-.2-.2-.3-.4-.5-.6-.7-1-1.1-2.2-1.2-3.5 0-3.5 3.1-6.4 7.3-7.5zm0 3.6v2.5-2.5zm0 4.6z"/><path class="st23" d="M1422 315.2V330c-.5-.1-1-.3-1.5-.5l-.8-.3c-.3-.1-.5-.2-.7-.4-.7-.4-1.4-.9-2.1-1.5l-.1-.1-.4-.4c-.2-.2-.3-.4-.5-.6-.7-1-1.1-2.2-1.2-3.5 0-3.5 3.1-6.4 7.3-7.5zm0 3.6v2.5-2.5zm0 4.6z"/><path class="st30" d="M107.4 234.7h18V258h-18z"/><path class="st31" d="M104.1 225.3h24.6v9.4h-24.6z"/><path class="st26" d="M143.6 271.4c-.7-1.1-1.8-2-3.1-2.5l-65-53-64.7 53.4c-.6.4-1.2.8-1.6 1.3l-.1.1c-1 1.1-1.5 2.5-1.5 4 .1 3.6 3 6.5 6.6 6.4H138c3.6.1 6.6-2.8 6.6-6.4 0-1.1-.3-2.3-1-3.3z"/><path class="st32" d="M129.7 357.9H23.5v-86L76 230.1l53.7 41.5z"/><path class="st31" d="M19.6 312.3H132v8.4H19.6z"/><path class="st2" d="M39 289.6h20.1v22.7H39z"/><path class="st33" d="M40.7 291.4h16.8v19.1H40.7z"/><path class="st2" d="M39 301h20.1v1.7H39z"/><path class="st2" d="M47 291.4h3.2v19.1H47zm-8.5 35h20.1v22.7H38.5z"/><path class="st33" d="M40.2 328.2H57v19.1H40.2z"/><path class="st2" d="M38.5 337.7h20.1v1.7H38.5z"/><path class="st2" d="M46.5 328.2h3.2v19.1h-3.2zm46.5-1.8h20.1v22.7H93z"/><path class="st33" d="M94.6 328.2h16.8v19.1H94.6z"/><path class="st2" d="M93 337.7h20.1v1.7H93z"/><path class="st2" d="M100.9 328.2h3.2v19.1h-3.2zm-35.1-38.6h20.1v22.7H65.8z"/><path class="st33" d="M67.4 291.4h16.8v19.1H67.4z"/><path class="st2" d="M65.8 301h20.1v1.7H65.8z"/><path class="st2" d="M73.7 291.4h3.2v19.1h-3.2zm-7.1-45.7h20.1v22.7H66.6z"/><path class="st33" d="M68.2 247.5H85v19.1H68.2z"/><path class="st2" d="M66.6 257.1h20.1v1.7H66.6z"/><path class="st2" d="M74.5 247.5h3.2v19.1h-3.2zM93 289.6h20.1v22.7H93z"/><path class="st33" d="M94.6 291.4h16.8v19.1H94.6z"/><path class="st2" d="M93 301h20.1v1.7H93z"/><path class="st2" d="M100.9 291.4h3.2v19.1h-3.2zm-35.1 35h21V358h-21z"/><path class="st31" d="M67.4 328.2h17.7v29.7H67.4zm-9.9-59.7h39.2v5.7H57.5z"/><path class="st34" d="M282.1 302.9h85.6c2.5 0 4.5 2 4.5 4.5v39c0 2.5-2 4.5-4.5 4.5h-85.6c-2.5 0-4.5-2-4.5-4.5v-39c0-2.5 2-4.5 4.5-4.5z"/><path class="st35" d="M279.8 350.7h89.9v4.3h-89.9z"/><path class="st36" d="M276.5 354.5h96.6v4.3h-96.6z"/><path class="st37" d="M286.4 308.6h48.2v33.1h-48.2z"/><path class="st38" d="M288.3 340.2v-31.6h-1.9v33.1h48.2v-1.5z"/><path class="st39" d="M277.5 302.2v11.7c.2 3.3 3 5.7 6.2 5.6 3-.2 5.4-2.6 5.6-5.6v-11.7h-11.8z"/><path class="st40" d="M289.3 302.2v11.7c.2 3.3 3 5.7 6.2 5.6 3-.2 5.4-2.6 5.6-5.6v-11.7h-11.8z"/><path class="st39" d="M301.1 302.2v11.7c.2 3.3 3 5.7 6.2 5.6 3-.2 5.4-2.6 5.6-5.6v-11.7h-11.8z"/><path class="st40" d="M312.9 302.2v11.7c0 3.3 2.7 5.9 5.9 5.9 3.3 0 5.9-2.6 5.9-5.9v-11.7h-11.8z"/><path class="st39" d="M324.7 302.2v11.7c.2 3.3 3 5.7 6.2 5.6 3-.2 5.4-2.6 5.6-5.6v-11.7h-11.8z"/><path class="st40" d="M336.5 302.2v11.7c.2 3.3 3 5.7 6.2 5.6 3-.2 5.4-2.6 5.6-5.6v-11.7h-11.8z"/><path class="st39" d="M348.3 302.2v11.7c.2 3.3 3 5.7 6.2 5.6 3-.2 5.4-2.6 5.6-5.6v-11.7h-11.8z"/><path class="st40" d="M360.1 302.2v11.7c.2 3.3 3 5.7 6.2 5.6 3-.2 5.4-2.6 5.6-5.6v-11.7h-11.8z"/><path class="st41" d="M294.5 283.6l-17 18.6h11.8l12.8-18.6h-7.6z"/><path class="st42" d="M302.1 283.6l-12.8 18.6h11.8l8.5-18.6h-7.5z"/><path class="st41" d="M309.6 283.6l-8.5 18.6h11.8l4.3-18.6h-7.6z"/><path class="st42" d="M317.2 283.6l-4.3 18.6h11.8v-18.6h-7.5z"/><path class="st41" d="M324.7 283.6v18.6h11.8l-4.3-18.6h-7.5z"/><path class="st42" d="M332.3 283.6l4.3 18.6h11.8l-8.5-18.6h-7.6z"/><path class="st41" d="M339.8 283.6l8.5 18.6h11.8l-12.8-18.6h-7.5z"/><path class="st42" d="M360.1 302.1h11.8l-17-18.6h-7.5l12.7 18.6z"/><path class="st41" d="M294.5 279.7h7.6v3.9h-7.6z"/><path class="st41" d="M302 279.7h7.6v3.9H302zm7.6 0h7.6v3.9h-7.6z"/><path class="st41" d="M317.2 279.7h7.6v3.9h-7.6z"/><path class="st41" d="M324.7 279.7h7.6v3.9h-7.6zm7.6 0h7.6v3.9h-7.6z"/><path class="st41" d="M339.9 279.7h7.6v3.9h-7.6z"/><path class="st41" d="M347.4 279.7h7.6v3.9h-7.6z"/><path class="st29" d="M338.5 317.6h24.6v33.1h-24.6z"/><path class="st43" d="M341.9 335.9h18.7v12.6h-18.7z"/><path class="st37" d="M341.9 320.7h18.7v12.8h-18.7z"/><path class="st38" d="M342.6 333v-12.3h-.7v12.8h18.6v-.5z"/><path class="st24" d="M645.7 337.1h5.7v24.1h-5.7z"/><path class="st25" d="M645.7 337.1h2.8v24.1h-2.8z"/><path class="st44" d="M666.8 346.9l-18.2-59.8-18.2 59.8h2.9l-1.2 4.5h33.2l-1.3-4.5z"/><path class="st45" d="M648.7 351.4v-64.3l-18.2 59.8h3l-1.3 4.5z"/><path class="st24" d="M600.7 337.1h5.7v24.1h-5.7z"/><path class="st25" d="M600.7 337.1h2.8v24.1h-2.8z"/><path class="st44" d="M621.8 346.9l-18.3-59.8-18.2 59.8h3l-1.2 4.5h33.2l-1.3-4.5z"/><path class="st45" d="M603.7 351.4v-64.3l-18.2 59.8h2.9l-1.2 4.5z"/><path class="st46" d="M451.4 234.7h16.9V257h-16.9z"/><path class="st47" d="M448.4 224.9H471v9.8h-22.6z"/><path class="st48" d="M579 302.8H398.5l22.1-47.2h135.2z"/><path class="st49" d="M415.8 302.8h144.8v50.9H415.8z"/><path class="st2" d="M539.8 297.6c-.7-1.1-1.8-2-3.1-2.5L488 201l-47.7 94.5c-.6.4-1.2.8-1.6 1.4l-.1.1c-1 1.1-1.5 2.5-1.5 4 .1 3.6 3.1 6.5 6.7 6.4h90.4c3.6.1 6.6-2.8 6.7-6.4-.1-1.2-.4-2.4-1.1-3.4z"/><path class="st46" d="M524.7 357.9h-73.3V294l37.7-74.4 35.6 74z"/><path class="st2" d="M424.5 319.4h20.2v22.9h-20.2z"/><path class="st28" d="M426.1 321.3h17v19.2h-17z"/><path class="st2" d="M424.5 330.9h20.2v1.7h-20.2z"/><path class="st2" d="M433.8 321.3h3.3v19.2h-3.3zm99.5-1.9h20.2v22.9h-20.2z"/><path class="st28" d="M534.9 321.3h17v19.2h-17z"/><path class="st2" d="M533.3 330.9h20.2v1.7h-20.2z"/><path class="st2" d="M542.7 321.3h3.3v19.2h-3.3zm-64.8-67h20.2v36.5h-20.2z"/><path class="st28" d="M479.5 257.2h17v30.6h-17z"/><path class="st2" d="M477.9 272.5h20.2v2.8h-20.2z"/><path class="st2" d="M487.3 257.2h3.3v30.6h-3.3zM500 357.9v-35c0-5.4-5.4-9.7-12-9.7s-12 4.4-12 9.7v35h24z"/><path class="st50" d="M497.7 357.9V325c-.2-5.2-4.7-9.3-9.9-9.1-4.9.2-8.8 4.2-9.1 9.1v32.9h19z"/><path class="st48" d="M404.5 353.7H574v7.7H404.5z"/><path class="st24" d="M391.1 355.7l-1.1.8-12.4-16.6 1.2-.8z"/><path class="st25" d="M378.2 339.5l-.6.4 12.4 16.6.6-.4z"/><path class="st24" d="M392.8 351.8l-1.3-.6 7.6-14.6 1.2.6z"/><path class="st25" d="M399.7 336.9l-.6-.3-7.6 14.6.6.3z"/><path class="st24" d="M388.3 323.2h5.6V364h-5.6z"/><path class="st25" d="M391 323.2h-2.7v40.7h2.7v-31z"/><path class="st44" d="M406.1 322.9L391 289.6l-15 33.3h2.4l-1 2.6h27.5l-1.1-2.6z"/><path class="st45" d="M391.1 325.5v-35.9l-15 33.3h2.4l-1 2.6z"/><path class="st44" d="M379.4 334.2l-6.9 8.5h12.9z"/><path class="st45" d="M379.4 334.2l-6.9 8.5h6.9z"/><path class="st44" d="M400.3 326.9l-5.4 10.8H405z"/><path class="st45" d="M400.3 326.9l-5.4 10.8h5.4z"/><path class="st51" d="M2.1 358.7h1133.2v21.5H2.1z"/><path class="st52" d="M1135.1 357.9H1422v7.9h-286.9z"/><path class="st53" d="M1135.1 363.6V381H1422v-17.4z"/><path class="st24" d="M955.6 349.7l-1.1.8-12.3-16.6 1.1-.8z"/><path class="st25" d="M942.7 333.5l-.5.4 12.3 16.6.6-.4z"/><path class="st24" d="M957.3 345.8l-1.3-.6 7.6-14.6 1.2.6z"/><path class="st25" d="M964.2 330.9l-.6-.3-7.6 14.6.6.3z"/><path class="st24" d="M952.8 317.2h5.6V358h-5.6z"/><path class="st25" d="M955.5 317.2h-2.7v40.7h2.7v-31z"/><path class="st44" d="M970.6 316.9l-15.1-33.3-15 33.3h2.4l-1 2.6h27.5l-1.1-2.6z"/><path class="st45" d="M955.6 319.5v-35.9l-15 33.3h2.4l-1 2.6z"/><path class="st44" d="M943.9 328.2l-6.9 8.5h12.9z"/><path class="st45" d="M943.9 328.2l-6.9 8.5h6.9z"/><path class="st44" d="M964.8 320.9l-5.4 10.8h10.1z"/><path class="st45" d="M964.8 320.9l-5.4 10.8h5.4z"/></g></g></svg>