<svg xmlns="http://www.w3.org/2000/svg" viewBox="0 0 126.17 46.41"><defs><style>.cls-1,.cls-5{fill:none}.cls-2{fill:#f6f9f8}.cls-3{fill:#d8e5e1}.cls-4{clip-path:url(#clip-path)}.cls-5{stroke:#d8e5e1;stroke-miterlimit:10;stroke-width:2px}.cls-6{clip-path:url(#clip-path-2)}</style><clipPath id="clip-path"><path class="cls-1" d="M51.01 16.63h24.63v8.8H51.01z"/></clipPath><clipPath id="clip-path-2"><path class="cls-1" d="M94.64 16.63h23.92v8.8H94.64z"/></clipPath></defs><title>cloud-mid-right</title><g id="Layer_2" data-name="Layer 2"><g id="content"><g id="group3"><path class="cls-2" d="M126.17 19.05v27.36H0C-.24 36 6.84 31.81 18.68 32.31 23 19.05 36.09 17.37 51.6 19.71 57.84 3.7 88.84-6.37 109.24 4.6c7.15 3.84 10.82 9.52 16.47 14.61z"/><path id="bezier2" class="cls-3" d="M87.92 31.38c4.4 0 8-3.27 8-7.3H80c0 4.03 3.52 7.3 7.92 7.3z"/><g id="group"><g class="cls-4" id="group2"><g id="sVGID"><path id="bezier4" class="cls-5" d="M71.94 21.31a6.69 6.69 0 0 1 0 9.87 7.77 7.77 0 0 1-10.5 0 6.71 6.71 0 0 1 0-9.87 7.77 7.77 0 0 1 10.5 0z"/></g></g><g class="cls-6" id="group4"><g id="sVGID-2" data-name="sVGID"><path id="bezier6" class="cls-5" d="M114.9 21.34a6.92 6.92 0 0 1 0 9.88 7.19 7.19 0 0 1-10 0 6.92 6.92 0 0 1 0-9.88 7.19 7.19 0 0 1 10 0z"/></g></g></g></g></g></g></svg>