<svg id="Layer_1" xmlns="http://www.w3.org/2000/svg" viewBox="0 0 190.6 183.4"><style>.st0{fill:#f3f2f1}.st1{fill:#f3c6ae}.st2{fill:#3c8da3}.st3{fill:#fff}.st4{fill:#f3c6ae;stroke:#e4b9a5;stroke-miterlimit:10}.st5{fill:#4c4c4b}.st6{fill:#444545}.st7{fill:#6d6d6d}.st8{opacity:.28;fill:#f9f9fa;enable-background:new}.st9{fill:none;stroke:#666563;stroke-width:.5;stroke-miterlimit:10}.st10{opacity:.2;fill:#6b6b6b;enable-background:new}.st11{fill:none;stroke:#6b6b6b;stroke-miterlimit:10}</style><title>me</title><path class="st0" d="M190.6 91.7c0 28.3-13.4 53.7-34.3 70.5-4.9 3.9-10.1 7.3-15.6 10.2-1.2.6-2.5 1.3-3.9 1.9-25 11.6-53.8 12.2-79.3 1.7-1.5-.6-3-1.3-4.3-2-5.1-2.4-10-5.3-14.7-8.6C15.2 148.6 0 121.8 0 91.7 0 41 42.7 0 95.3 0s95.3 41 95.3 91.7z"/><g id="me"><path id="right-ear" class="st1" d="M70.4 71.7c.3-.9-.2-1.9-1.1-2.2-3-1.1-11.3-3-11.5 2.1 0 0-1.5 5.8 3.2 8.2 2.3 1.3 5.2.8 6.8-1.3 1.5-1.8 2.3-4.9 2.6-6.8z"/><path id="left-ear" class="st1" d="M120 71.7c-.3-.9.2-1.9 1.1-2.2 3-1.1 11.3-3 11.5 2.1 0 0 1.5 5.8-3.2 8.2-2.3 1.3-5.2.8-6.8-1.3-1.4-1.8-2.2-4.9-2.6-6.8z"/><path class="st2" d="M156 151.8c-5.3 1.2-12.4 1.3-17.8.4-.2-3.2 0-6.1-.3-9.5-1-2.8-1.1 14.1-1 31.4-25 11.6-53.8 12.2-79.3 1.7.1-17.8.1-35.5-1-33.1-.1 3.1 0 5.7-.3 8.7-3 .8-12.3 1.5-17.7.6-.6-5.3 1.2-18.4 3.3-22.5 2.1-4.1 5.1-7.4 15.3-9.5 7.6-1.7 15.1-3.8 22.4-6.3.5-.1 1.1-.2 1.6-.3.8-.2 1.9-.3 3.2-.6 1-.2 2.1-.3 3.4-.6 5.6-.8 13-1.5 19-.9 1.3.2 2.5.3 3.6.6 1.1.2 2.2.6 3.3 1.1.4.2.8.4 1.2.7 7.3 2.5 14.8 4.6 22.4 6.3 10.6 2.2 13.8 5.1 15.3 9.5 3.4 7.7 3.4 22.3 3.4 22.3z"/><path id="collar" class="st3" d="M113.7 113.2c-.4-1-1.6-2-3.4-2.7-2.7-1-5.6-1.6-8.4-1.9-3.7-.4-7.4-.3-11.1.2-2.2.3-4.4 1-6.4 2.1-.2.1-.3.2-.5.3-1 .6-1.9 1.4-2.6 2.4-3.7 4.7.2 10.7 14.8 10.9 11.5.1 21.6-.6 17.6-11.3zm-25.9-.7c5.6-1.3 14.3-2.4 19-.9 1.2.3 2.3 1 3 2.1 3.3 5.8-3.1 6.2-12.6 6.3-13.1.2-13.9-6.3-10.8-7.1.3-.2.8-.4 1.4-.4z"/><path id="neck" class="st1" d="M82.9 103.5s2.8 9.9.6 14.8c0 0 11.9 5.4 28.1.6 0 0-3-10.8-.6-15.4H82.9z"/><path id="face" class="st4" d="M65 55.8c.1.3.1.7.1 1 .2 3.4 1.2 23 3 26.6.9 3.3 2 6.6 3.4 9.7 2.8 6.7 8.3 12 15.2 14.5 2.3.9 4.8 1.4 7.4 1.3h1.4c1 0 2.1 0 3.1-.1 12-.8 22-9.2 24.9-20.9.9-3.9 1.5-7.8 1.7-11.8 1.4-19.2-.8-26.3-.8-26.3-1.3-7.4-6.6-13.6-13.7-16.1-8.9-3.2-21.7-5-35.4 2.8-6.3 3.7-10.2 10.3-10.4 17.4 0 .6 0 1.3.1 1.9z"/><g id="eyes"><ellipse class="st3" cx="81.6" cy="69.3" rx="4.7" ry="4.5"/><ellipse class="st5" cx="81.6" cy="69.4" rx="3.1" ry="3"/><ellipse class="st3" cx="80.2" cy="67.2" rx="1.5" ry="1.4"/><ellipse class="st3" cx="109.8" cy="69.2" rx="4.7" ry="4.5"/><ellipse class="st5" cx="109.9" cy="69.3" rx="3.1" ry="3"/><ellipse class="st3" cx="111.4" cy="67.2" rx="1.5" ry="1.4"/></g><path class="st6" d="M78.8 58.1c1.8.1 3.6.3 5.3.5.3 0-1.6-1-1.6-1s5 1.4 5.7 1.3-2.4-2.1-.4-1.1c1.4.5 2.4 1.8 2.6 3.3-5.1-.9-5.9-.9-7.4-1s-9.1-.1-9.1-.1c.8-.5 2.1-.8 2.4-1 .6-.5-2.9.2-.8-.3 1-.4 2.1-.6 3.3-.6zm34.3 0c-1.8.1-3.6.3-5.3.5-.3 0 1.6-1 1.6-1s-5 1.4-5.7 1.3 2.4-2.1.4-1.1c-1.4.5-2.4 1.8-2.6 3.3 5.1-.9 5.9-.9 7.4-1s9.1-.1 9.1-.1c-.8-.5-2.1-.8-2.4-1-.6-.5 2.9.2.8-.3-1-.4-2.1-.6-3.3-.6z" id="eye_brows"/><g id="spects"><path id="frame" class="st7" d="M123.4 63.2s.1-1.1-1.9-1.3-12.9-2.5-21.2.4c-1.4.7-2.8 1.3-4.3 1.8-.3.1-.7.1-1 0-2.2-.6-3.2-1.4-4.3-1.8-8.2-2.9-19.2-.5-21.2-.4s-1.9 1.3-1.9 1.3c-.2 1.4.6 1.7 1 1.8 1 0 1.2 1.8 1.2 2.4 0 .1 0 .2.1.3.3.8.6 3.9.7 4.6v.2c.5 2.4 2.1 4.4 4.4 5.3.1 0 .2 0 .2.1 6.1 1.4 9.1 1 12 .1 3.7-1.1 5.6-6.4 5.9-8.5.2-1.1.9-2 2-2.2.3-.1.7-.1 1 0 1 .3 1.8 1.2 1.9 2.2.3 2.2 2.2 7.3 5.9 8.5 2.9.9 5.9 1.4 12-.1.1 0 .2 0 .2-.1 2-.8 3.5-2.4 4.2-4.5.1-.2.2-.6.3-.9v-.2c0-.4.2-1.7.3-2.8l.3-1.8c0-.1 0-.2.1-.3 0-.6.3-2.3 1.2-2.4.7-.1 1.1-.9.9-1.7zm-31 5.5c-.2 1.6-.7 3.2-1.6 4.6-.7 1-1 3.6-6.9 4-2.8.2-5.6-.1-8.3-1.1 0 0-2.6-.8-3.3-5.8-.2-1.1-.3-4.6-.3-4.6 0-1.6 1.3-2.9 2.9-2.8h.1c4.2-.5 8.4-.4 12.6.2 6.1 1.3 4.8 3.6 4.8 5.5zm27.2 1.9c-.1.9-.4 1.8-.7 2.7-.1.3-.2.6-.4.9-.3.6-.6 1.1-1.1 1.5-.3.3-.7.6-1.1.8-2.5 1.1-6.2 1.2-8.3 1.1-5.2-.4-6-2.4-6.7-3.6l-.3-.5c-.2-.3-.4-.6-.6-1-.3-.7-.6-1.5-.8-2.2v-1.5c0-1.2-.6-2.6.6-3.7 0 0 .1-.1.2-.1 1.1-.9 2.5-1.4 3.9-1.6 4.2-.6 8.4-.7 12.6-.2.8 0 1.5.3 2.1.9 0 0 .1.1.1.2.4.5.7 1.2.7 1.9-.1-.1 0 3.2-.2 4.4z"/><path id="lens-right" class="st8" d="M72.1 66c0-1.6 1.3-2.9 2.9-2.8h.1c4.2-.5 8.4-.4 12.6.2 6 1.2 4.7 3.6 4.7 5.4-.2 1.6-.7 3.2-1.6 4.6-.7 1.1-1 3.6-6.9 4-2.8.2-5.6-.1-8.3-1.1 0 0-2.5-.8-3.3-5.8-.1-1.1-.2-4.5-.2-4.5z"/><path id="lens-left" class="st8" d="M119.8 66c0-1.6-1.3-2.9-2.9-2.8h-.1c-4.2-.5-8.4-.4-12.6.2-6 1.2-4.7 3.6-4.7 5.4.2 1.6.7 3.2 1.6 4.6.7 1.1 1 3.6 6.9 4 2.8.2 5.6-.1 8.3-1.1 0 0 2.5-.8 3.3-5.8.1-1.1.2-4.5.2-4.5z"/></g><path id="hair" class="st6" d="M71.6 17.6s-1.6 3.5-1.4 3.9c0 0 2.3-3.7 3.7-3.8 0 0-.7 2.1-.4 2.8l2-.9c.1-.8 0-1.6-.2-2.5.8.4 1.6 1 2.2 1.7.2.2.4.2.6.1.1 0 .1-.1.1-.2.4-.8.8-1.8.5-2 1 .4 1.9 1.1 2.5 2 .2.2.5.2.7.1l.1-.1c.5-.8.8-1.6.9-2.5.6.7 1 1.5 1.4 2.4.2.4.6.5 1 .4.1 0 .1-.1.2-.1.8-.5 1.7-1.4 1.6-2.2.3.6.5 1.2.7 1.8.1.3.4.5.7.4.1 0 .1 0 .1-.1 1-.5 2.3-1.4 2.1-2.1.5.5 1 1 1.4 1.6.1.2.3.3.5.2.1 0 .1-.1.1-.1.7-.6 1.5-1.5 1.3-1.8 0 0 2.1 1.7 1.6 2.5s1.6-.6 1.9-2.5c.6.6 1 1.2 1.3 2 .1.2.3.3.5.2 0 0 .1 0 .1-.1.7-.6 1.6-1.7 1.4-2.4-.3-.9 1.3.9 1.6 2.2.1.2.3.4.5.3.1 0 .1 0 .2-.1.9-.5 1.5-1.4 1.8-2.4 0 0 2.7 2.2 3.3 2.8s1-1.5-1.4-3.3c2.8.9 5.4 2.2 7.6 4.1.3.2.7.2.9 0 .2-.2.2-.4.1-.7-.3-1-.8-1.9-1.7-2.5 0 0 6.9 3 8.4 7.3.1.2.3.4.5.3.1 0 .2-.1.3-.3.3-.7.4-1.5.3-2.3 1.4 1.7 2.6 3.5 3.6 5.4 1 2 1.2 4.4.5 6.5-.1.7-.5 1.3-.9 1.8 0 0 3.4 2.6 3 10.6 0 0-.7 18.1-3.8 28.3 0 0-.1.7-2.1.1 0 0 1.2-13.1-1.2-15.9s-3.5-2-3.5-2 1.2-2.7.5-8.1c-.1-2-1-3.9-2.5-5.2-.8-.8-3.6-2.6-9-.2-14.2 7.7-23.3 2.4-25.4 2-.3-.1-4.4-.7-4.8-.7-4.2 0-6.2 4.3-6.2 4.3-2.1 6.7.4 9.4.4 9.4-1.5 1.1-2.8 2.5-3.6 4.2-1.9 5.4-1 12.4-1 12.4-.5.1-1 .1-1.6.1 0 0-2-2.4-6.4-33.2 0 0-1.1-9.9 3.2-15.3 0 0-.9 4.1-.3 4.6 0 0 1.1-6.1 3.1-8.5 0 0-.3 5.5.8 4.3.3.5-.9-5.5 5.6-9z"/><path id="ear-line1" class="st9" d="M59.7 73.6s1.1-1.8 2.3-1.6c.7.2 1.3.4 1.9.8 0 0 1.1 2.2-.6 2.7s.8 1.6.8 1.6"/><path id="ear-line2" class="st9" d="M127.5 71.3s2.5-.5 3.6.9-1.1 2.2-1.8 2.4-2.5.9-2.5 1.3c0 0-.3 1.3 1.2.9"/><path id="nose" class="st9" d="M92.4 83.1s3.3-3.9 6.7 0"/><path id="nose-shadow" class="st10" d="M99.2 83.4h-6.9c1.2-1.9 3.7-2.5 5.6-1.3.5.4 1 .8 1.3 1.3z"/><path id="lips" class="st11" d="M85.6 94.3c7.2 2.3 14.8 2.3 22 0"/><path class="st1" d="M56.4 151.5c-.1.9-1.2 13.1-2 22.8-5.6-2.6-10.9-5.6-16-9 0-7.3.1-13.8.1-13.8h18.7-.8zm99.9 11c-5.3 4-11 7.6-17 10.5-.5-9.7-1.1-20.7-1.1-20.7l17.7-.4c.3.6.4 5.1.4 10.6z"/></g></svg>