<svg id="Layer_1" xmlns="http://www.w3.org/2000/svg" viewBox="0 0 228 62.5"><style>.st0{fill:#fff}.st1{fill:#8ccea8}.st2{fill:#eeeded}.st3{fill:#104960}.st4{fill:#f5ad40;stroke:#fff;stroke-miterlimit:10}.st5{fill:#f36f44}.st6{fill:none;stroke:#231f20;stroke-miterlimit:10}</style><g id="plane"><path class="st0" d="M176.8 41.9h1.9v8h-1.9z"/><path class="st1" d="M190.4 27.3c2.8 0 5.7.9 8.1 2.2 4.6 2.5 15.1 15.9 4.2 16.3-2.1.1-4.2 0-6.2 0h-57.2c-6.8 0-13-1-18.9-4.3-5.6-3.2-10-8.1-12-14.2h82z"/><path class="st2" d="M112.7 35.1c-1.9-2.3-3.4-4.9-4.4-7.8h82.1c2.8 0 5.7.9 8.1 2.2 1.6.9 3.9 3.1 5.8 5.6h-91.6zm94.8 6.9c.1 2.1-1.2 3.7-4.8 3.8-2.1.1-4.2 0-6.2 0h-57.2c-6.4 0-12.3-.9-18-3.8h86.2z"/><path class="st3" d="M191.5 31.8h9.9c1.9 1.8 3.8 4.3 5 6.7-.2.1-.4.1-.7.1h-14.2c-1.5 0-2.7-1.2-2.7-2.6v-1.6c0-1.5 1.2-2.6 2.7-2.6z"/><circle class="st0" cx="165.2" cy="35.1" r="3.8"/><circle class="st3" cx="165.2" cy="35.1" r="2.8"/><circle class="st0" cx="151.9" cy="35.1" r="3.8"/><circle class="st3" cx="151.9" cy="35.1" r="2.8"/><circle class="st0" cx="140.5" cy="35.1" r="3.8"/><circle class="st3" cx="140.5" cy="35.1" r="2.8"/><circle class="st0" cx="128.2" cy="35.1" r="3.8"/><circle class="st3" cx="128.2" cy="35.1" r="2.8"/><path class="st4" d="M182 37.4c0 1.4-1.2 2.6-2.6 2.6h-1.1c-1.4 0-2.6-1.2-2.6-2.6v-4.5c0-1.4 1.2-2.6 2.6-2.6h1.1c1.4 0 2.6 1.2 2.6 2.6v4.5z"/><path class="st1" d="M125.4 27.3H108l-5 4 11.2.5z"/><path class="st2" d="M114.9 32.3c0 .6-.5 1.1-1.1 1.1h-12.2c-.6 0-1.1-.5-1.1-1.1 0-.6.5-1.1 1.1-1.1h12.2c.5.1 1.1.5 1.1 1.1zm4.4-17.8c0 .6-.5 1.1-1.1 1.1H106c-.6 0-1.1-.5-1.1-1.1 0-.6.5-1.1 1.1-1.1h12.2c.6.1 1.1.5 1.1 1.1z"/><path class="st5" d="M108.3 27.2l-1.1-11.6h9.3l8.9 11.6zm63.1 14.7h5.4v8h-5.4c-1.9-.1-9.9-.3-15.8-1.4l15.6-6.6h.2z"/><path class="st3" d="M181.4 45.9c0 1.7-1.2 3.1-2.8 3.5v-7c1.7.3 2.8 1.8 2.8 3.5z"/><path class="st1" d="M173.7 41.9h-20.5l-15.3 8.9 12.2 1.1z"/><path class="st2" d="M151.9 51.9c0 .6-.6 1.1-1.3 1.1h-13.7c-.7 0-1.3-.5-1.3-1.1 0-.6.6-1.1 1.3-1.1h13.7c.7 0 1.3.5 1.3 1.1z"/></g><path class="st6" d="M124 52.3H82.5m11.5-39H38.5m50.5 19H12.5m97.5 10H55.5" id="lines"/></svg>