<?xml version="1.0" encoding="utf-8"?>
<!-- Generator: Adobe Illustrator 21.1.0, SVG Export Plug-In . SVG Version: 6.00 Build 0)  -->
<svg version="1.1" id="Layer_1" xmlns="http://www.w3.org/2000/svg" xmlns:xlink="http://www.w3.org/1999/xlink" x="0px" y="0px"
	 viewBox="0 0 750 1334" style="enable-background:new 0 0 750 1334;" xml:space="preserve">
<style type="text/css">
	.st0{fill:#D8D8D8;}
	.st1{fill:#595959;}
</style>
<symbol  id="sparkles" viewBox="-2.8 -2.9 5.6 5.8">
	<g>
		<g>
			<path class="st0" d="M0-2.9c3.7,0,3.7,5.8,0,5.8S-3.7-2.9,0-2.9L0-2.9z"/>
		</g>
	</g>
</symbol>
<symbol  id="star" viewBox="-1.2 -1.3 2.4 2.5">
	<g>
		<g>
			<path class="st1" d="M0-1.3c1.6,0,1.6,2.5,0,2.5C-1.6,1.2-1.6-1.3,0-1.3L0-1.3z"/>
		</g>
	</g>
</symbol>
<g>
	
		<use xlink:href="#sparkles"  width="5.6" height="5.8" x="-2.8" y="-2.9" transform="matrix(1 0 0 -1 21.6823 30.1495)" style="overflow:visible;"/>
	
		<use xlink:href="#sparkles"  width="5.6" height="5.8" x="-2.8" y="-2.9" transform="matrix(1 0 0 -1 317.986 64.7342)" style="overflow:visible;"/>
	
		<use xlink:href="#sparkles"  width="5.6" height="5.8" x="-2.8" y="-2.9" transform="matrix(1 0 0 -1 48.659 179.2904)" style="overflow:visible;"/>
	
		<use xlink:href="#sparkles"  width="5.6" height="5.8" x="-2.8" y="-2.9" transform="matrix(1 0 0 -1 511.8134 192.5117)" style="overflow:visible;"/>
	
		<use xlink:href="#sparkles"  width="5.6" height="5.8" x="-2.8" y="-2.9" transform="matrix(1 0 0 -1 713.6365 24.2215)" style="overflow:visible;"/>
	
		<use xlink:href="#sparkles"  width="5.6" height="5.8" x="-2.8" y="-2.9" transform="matrix(1 0 0 -1 731.7781 407.7223)" style="overflow:visible;"/>
	
		<use xlink:href="#sparkles"  width="5.6" height="5.8" x="-2.8" y="-2.9" transform="matrix(1 0 0 -1 259.2847 349.1899)" style="overflow:visible;"/>
	
		<use xlink:href="#sparkles"  width="5.6" height="5.8" x="-2.8" y="-2.9" transform="matrix(1 0 0 -1 51.7128 528.1725)" style="overflow:visible;"/>
	
		<use xlink:href="#sparkles"  width="5.6" height="5.8" x="-2.8" y="-2.9" transform="matrix(1 0 0 -1 1.86 366.8956)" style="overflow:visible;"/>
	
		<use xlink:href="#sparkles"  width="5.6" height="5.8" x="-2.8" y="-2.9" transform="matrix(1 0 0 -1 580.9565 561.3844)" style="overflow:visible;"/>
	
		<use xlink:href="#sparkles"  width="5.6" height="5.8" x="-2.8" y="-2.9" transform="matrix(1 0 0 -1 347.898 638.1519)" style="overflow:visible;"/>
	
		<use xlink:href="#sparkles"  width="5.6" height="5.8" x="-2.8" y="-2.9" transform="matrix(1 0 0 -1 546.3844 380.6487)" style="overflow:visible;"/>
	
		<use xlink:href="#sparkles"  width="5.6" height="5.8" x="-2.8" y="-2.9" transform="matrix(1 0 0 -1 699.7273 681.8525)" style="overflow:visible;"/>
	
		<use xlink:href="#star"  width="2.4" height="2.5" x="-1.2" y="-1.3" transform="matrix(1 0 0 -1 662.3326 150.5436)" style="overflow:visible;"/>
	
		<use xlink:href="#star"  width="2.4" height="2.5" x="-1.2" y="-1.3" transform="matrix(1 0 0 -1 721.1793 212.1106)" style="overflow:visible;"/>
	
		<use xlink:href="#star"  width="2.4" height="2.5" x="-1.2" y="-1.3" transform="matrix(1 0 0 -1 508.707 281.3752)" style="overflow:visible;"/>
	
		<use xlink:href="#star"  width="2.4" height="2.5" x="-1.2" y="-1.3" transform="matrix(1 0 0 -1 439.3553 377.7168)" style="overflow:visible;"/>
	
		<use xlink:href="#star"  width="2.4" height="2.5" x="-1.2" y="-1.3" transform="matrix(1 0 0 -1 304.3007 469.6308)" style="overflow:visible;"/>
	
		<use xlink:href="#star"  width="2.4" height="2.5" x="-1.2" y="-1.3" transform="matrix(1 0 0 -1 119.5948 416.9076)" style="overflow:visible;"/>
	
		<use xlink:href="#star"  width="2.4" height="2.5" x="-1.2" y="-1.3" transform="matrix(1 0 0 -1 47.2761 657.7603)" style="overflow:visible;"/>
	
		<use xlink:href="#star"  width="2.4" height="2.5" x="-1.2" y="-1.3" transform="matrix(1 0 0 -1 224.6255 633.5877)" style="overflow:visible;"/>
	
		<use xlink:href="#star"  width="2.4" height="2.5" x="-1.2" y="-1.3" transform="matrix(1 0 0 -1 72.9898 596.1069)" style="overflow:visible;"/>
	
		<use xlink:href="#star"  width="2.4" height="2.5" x="-1.2" y="-1.3" transform="matrix(1 0 0 -1 11.1609 400.9834)" style="overflow:visible;"/>
	
		<use xlink:href="#star"  width="2.4" height="2.5" x="-1.2" y="-1.3" transform="matrix(1 0 0 -1 83.4264 263.5073)" style="overflow:visible;"/>
	
		<use xlink:href="#star"  width="2.4" height="2.5" x="-1.2" y="-1.3" transform="matrix(1 0 0 -1 235.2282 257.1786)" style="overflow:visible;"/>
	
		<use xlink:href="#star"  width="2.4" height="2.5" x="-1.2" y="-1.3" transform="matrix(1 0 0 -1 60.9152 117.2907)" style="overflow:visible;"/>
	
		<use xlink:href="#star"  width="2.4" height="2.5" x="-1.2" y="-1.3" transform="matrix(1 0 0 -1 233.7354 34.6217)" style="overflow:visible;"/>
	
		<use xlink:href="#star"  width="2.4" height="2.5" x="-1.2" y="-1.3" transform="matrix(1 0 0 -1 167.5779 10.5141)" style="overflow:visible;"/>
	
		<use xlink:href="#star"  width="2.4" height="2.5" x="-1.2" y="-1.3" transform="matrix(1 0 0 -1 523.6696 5.9667)" style="overflow:visible;"/>
	
		<use xlink:href="#star"  width="2.4" height="2.5" x="-1.2" y="-1.3" transform="matrix(1 0 0 -1 629.6996 15.8887)" style="overflow:visible;"/>
	
		<use xlink:href="#star"  width="2.4" height="2.5" x="-1.2" y="-1.3" transform="matrix(1 0 0 -1 628.1974 20.2613)" style="overflow:visible;"/>
	
		<use xlink:href="#star"  width="2.4" height="2.5" x="-1.2" y="-1.3" transform="matrix(1 0 0 -1 426.0774 117.3315)" style="overflow:visible;"/>
	
		<use xlink:href="#star"  width="2.4" height="2.5" x="-1.2" y="-1.3" transform="matrix(1 0 0 -1 635.3834 326.3893)" style="overflow:visible;"/>
	
		<use xlink:href="#star"  width="2.4" height="2.5" x="-1.2" y="-1.3" transform="matrix(1 0 0 -1 454.4277 528.2581)" style="overflow:visible;"/>
	
		<use xlink:href="#star"  width="2.4" height="2.5" x="-1.2" y="-1.3" transform="matrix(1 0 0 -1 526.5637 617.3636)" style="overflow:visible;"/>
	
		<use xlink:href="#star"  width="2.4" height="2.5" x="-1.2" y="-1.3" transform="matrix(1 0 0 -1 686.3716 540.0398)" style="overflow:visible;"/>
	
		<use xlink:href="#star"  width="2.4" height="2.5" x="-1.2" y="-1.3" transform="matrix(1 0 0 -1 734.8676 561.1014)" style="overflow:visible;"/>
	
		<use xlink:href="#star"  width="2.4" height="2.5" x="-1.2" y="-1.3" transform="matrix(1 0 0 -1 739.2976 627.3776)" style="overflow:visible;"/>
	
		<use xlink:href="#star"  width="2.4" height="2.5" x="-1.2" y="-1.3" transform="matrix(1 0 0 -1 562.9615 457.5747)" style="overflow:visible;"/>
	
		<use xlink:href="#star"  width="2.4" height="2.5" x="-1.2" y="-1.3" transform="matrix(1 0 0 -1 739.318 272.4227)" style="overflow:visible;"/>
</g>
</svg>
