<svg xmlns="http://www.w3.org/2000/svg" viewBox="0 0 498.21 312.43"><defs><style>.cls-1{isolation:isolate;}.cls-2{fill:#5e5f61;}.cls-22,.cls-27,.cls-3,.cls-43{fill:none;stroke-miterlimit:10;}.cls-22,.cls-3{stroke:#fff;}.cls-3{stroke-width:2px;}.cls-4{fill:#82cb38;}.cls-5{fill:#aa5541;}.cls-6{fill:#ddd;}.cls-10,.cls-7{fill:#231f20;}.cls-7{opacity:0.1;}.cls-8{fill:#96a2a4;}.cls-12,.cls-9{fill:#fff;}.cls-10{opacity:0.3;}.cls-11{fill:#809b3d;}.cls-12,.cls-45{opacity:0.2;}.cls-13{fill:#855222;}.cls-14{fill:#ad6729;}.cls-15{fill:#ff9d00;}.cls-16{fill:#f05152;}.cls-17{fill:#4f0000;}.cls-18{fill:#ff6568;}.cls-19{opacity:0.21;}.cls-19,.cls-21{mix-blend-mode:overlay;}.cls-20{fill:#9ab6b8;}.cls-21{opacity:0.43;}.cls-23{fill:#604123;}.cls-24{fill:#f39b80;}.cls-25{fill:#9caca1;}.cls-26{fill:#543c36;}.cls-27{stroke:#543c36;stroke-linecap:square;stroke-width:4px;}.cls-28{fill:#a40000;}.cls-29{fill:#890000;}.cls-30{fill:#ff0;}.cls-31{fill:#6e3e19;}.cls-32{fill:#faae40;}.cls-33{fill:#cce9eb;}.cls-34{fill:#b7ad4e;}.cls-35{fill:#852a34;}.cls-36{fill:#44130c;}.cls-37{fill:#c0e0de;}.cls-38{fill:#9ad4da;}.cls-39{fill:#b21f24;}.cls-40{fill:#c93427;}.cls-41{fill:#db4126;}.cls-42{fill:#f16228;}.cls-43{stroke:#fdca80;}.cls-44{fill:#3f8252;}.cls-45{fill:#57ae62;}.cls-46{fill:#e74543;}.cls-47{fill:#a82d2b;}.cls-48{fill:#eaf6f7;}.cls-49{fill:#bc3734;}.cls-50{fill:#c23c39;}</style></defs><title>city-view-m</title><g class="cls-1"><g id="Layer_2" data-name="Layer 2"><g id="content"><g id="road"><rect class="cls-2" y="250.45" width="498.12" height="61.98"/><line class="cls-3" x1="11.54" y1="284.23" x2="47.36" y2="284.23"/><line class="cls-3" x1="74.63" y1="284.23" x2="110.46" y2="284.23"/><line class="cls-3" x1="137.73" y1="284.23" x2="173.55" y2="284.23"/><line class="cls-3" x1="200.82" y1="284.23" x2="236.65" y2="284.23"/><line class="cls-3" x1="263.92" y1="284.23" x2="299.74" y2="284.23"/><line class="cls-3" x1="327.01" y1="284.23" x2="362.84" y2="284.23"/><line class="cls-3" x1="390.11" y1="284.23" x2="425.93" y2="284.23"/><line class="cls-3" x1="453.21" y1="284.23" x2="489.03" y2="284.23"/></g><rect class="cls-4" x="375" y="229.18" width="123.12" height="7.12"/><polygon class="cls-5" points="375 234.33 375 242.13 375 249.94 498.12 249.94 498.12 242.13 498.12 234.33 375 234.33"/><rect class="cls-6" x="0.9" y="228.94" width="374.1" height="21.23"/><path class="cls-7" d="M497.79,213.78h0q0,2-.05,4l0,3.15,0,.92c0,.37,0,.75,0,1.12,0,1.18,0,2.36-.07,3.55,0,.14,0,.28,0,.41q0,1.55-.07,3.1c0,.26,0,.52,0,.78s0,.48,0,.71l0,.64H307l.31-.53H307l.39-.66,29.79-49.85,25.44-42.56.13-.21,18.52-31,28.1-47v.54l.64-1.06,25.3,44.36,0,.06,1.87,3.29,44.59,78.18,1.7,3,8.49,14.9.12.21.66,1.15.58,1,.38.68.23.39.24.43.24.43.78,1.36.24.43.25.43Z"/><path class="cls-8" d="M497.75,152.2v-.06c0-.19,0-.38,0-.58Z"/><path class="cls-8" d="M497.75,51.3c0-.5,0-1,0-1.5l0,1.78Z"/><path class="cls-8" d="M497.87,198.89c0,1.17,0,2.33,0,3.48v.43c0,1,0,2,0,3.06,0,.29,0,.59,0,.89,0,.5,0,1,0,1.51,0,1.65,0,3.29,0,4.94,0,.19,0,.38,0,.57h0q0,2-.05,4c0,.4,0,.8,0,1.2,0,.64,0,1.29,0,1.94l0,.92c0,.37,0,.75,0,1.12,0,1.18,0,2.36-.07,3.55,0,.14,0,.28,0,.41,0,1.29-.06,2.58-.1,3.87l0,.71H384.55l.23-.55.19-.44,11.15-26.26h0l.1-.24,41-96.48,20.29-47.78,0,0,0-.06.05-.11,0-.06,0-.08L482.83,0l.64,1.44,14.28,32.09v18c0,.45,0,.89,0,1.34s0,.89,0,1.34,0,.92,0,1.38c0,.08,0,.16,0,.24,0,.78,0,1.56,0,2.34q0,2.37,0,4.75,0,2.91,0,5.83c0,.14,0,.27,0,.41,0,2,0,4.08,0,6.12q0,3.33,0,6.66v.66c0,.41,0,.82,0,1.22q0,6.17.07,12.36,0,4,.06,8.06c.13,15.91.25,31.84,0,47.87v.06q0,8.14,0,16.23,0,5.18,0,10.34v.41c0,.64,0,1.27,0,1.92,0,.25,0,.5,0,.75v.38c0,.25,0,.5,0,.76v.29c0,.1,0,.19,0,.29v.05c0,.05,0,.11,0,.16h0V184c0,.12,0,.25,0,.37v1.06c0,.54,0,1.07,0,1.61v1.61Q497.88,193.76,497.87,198.89Z"/><path class="cls-8" d="M497.47,230.79c0-1.29.07-2.58.1-3.87q0,1.55-.07,3.1c0,.26,0,.52,0,.78s0,.48,0,.71Z"/><path class="cls-8" d="M497.71,219c0-.4,0-.8,0-1.2l0,3.15,0,.92C497.69,220.88,497.7,219.93,497.71,219Z"/><path class="cls-8" d="M497.87,202.8c0,.39,0,.78,0,1.18v.6c0,.43,0,.86,0,1.29h0l0,2.4c0,1.64,0,3.29,0,4.94,0-1.65,0-3.29,0-4.94,0-.5,0-1,0-1.51,0-.3,0-.6,0-.89C497.85,204.84,497.86,203.82,497.87,202.8Z"/><path class="cls-8" d="M497.85,182.21v-.38c0-.25,0-.5,0-.75,0-.64,0-1.28,0-1.92,0,.64,0,1.28,0,1.92,0,.38,0,.75,0,1.13V183C497.86,182.72,497.86,182.47,497.85,182.21Z"/><path class="cls-8" d="M497.86,184.86c0-.29,0-.58,0-.87v-.22s0,0,0,0c0-.17,0-.34,0-.5,0,.17,0,.35,0,.52h0Z"/><path class="cls-8" d="M497.88,188.64v1.08q0,4.59,0,9.17v.63c0,.55,0,1.11,0,1.68,0,.4,0,.78,0,1.18,0-1.16,0-2.32,0-3.48q0-5.13,0-10.25,0-1.61,0-3.21v-.55Z"/><polygon class="cls-8" points="498.21 34.55 498.21 34.55 498.2 34.55 498.21 34.55"/><path class="cls-9" d="M497.65,58.36c0-.05,0-.11,0-.16q0,2.37,0,4.75h0c0-.69,0-1.4,0-2.09,0-.39,0-.78,0-1.18,0-.13,0-.26,0-.4C497.64,59,497.64,58.68,497.65,58.36Z"/><path class="cls-9" d="M497.74,51.83c0,.81,0,1.61,0,2.42,0-.89,0-1.78,0-2.68v-.25C497.75,51.49,497.74,51.67,497.74,51.83Z"/><path class="cls-9" d="M497.78,49.8l0,1.78V51.3C497.76,50.8,497.77,50.3,497.78,49.8Z"/><path class="cls-9" d="M497.75,33.53V51.33c0,.17,0,.34,0,.51,0,.4,0,.81,0,1.21s0,.81,0,1.21,0,.92,0,1.38c0,.08,0,.16,0,.24l0,2.5c0,.31,0,.62,0,.93,0,.13,0,.26,0,.4,0,.39,0,.79,0,1.18,0,.69,0,1.4,0,2.09a12.28,12.28,0,0,1-14.13-4.53c-.22-.31-.44-.64-.64-1-4.72-7.89-7.56,4-9.45,6.22s-4.46,1.5-6.93-8.89c-2.24-9.44-7.83,2.37-8.83,4.61l0,.08L482.83,0l.64,1.44Z"/><path class="cls-10" d="M497.88,189.72q0,4.59,0,9.17v.63c0,.55,0,1.11,0,1.68,0,.4,0,.78,0,1.18v.43c0,.39,0,.78,0,1.18v.1c0,.59,0,1.18,0,1.78l0,2.4c0,1.64,0,3.29,0,4.94,0,.19,0,.38,0,.57h0q0,2-.05,4c0,.4,0,.8,0,1.2,0,.64,0,1.29,0,1.94l0,.92c0,.37,0,.75,0,1.12,0,1.18,0,2.36-.07,3.55,0,.14,0,.28,0,.41q0,1.55-.07,3.1c0,.26,0,.52,0,.78h-14V.71L497.75,32.8V51.58c0,.45,0,.89,0,1.34s0,.89,0,1.34,0,.92,0,1.38c0,.08,0,.16,0,.24l0,2.5c0,.31,0,.62,0,.93,0,.13,0,.26,0,.4,0,.39,0,.79,0,1.18l0,2.09q0,2.91,0,5.82c0,.14,0,.27,0,.41,0,2,0,4.08,0,6.12q0,3.33,0,6.66v.66c0,.41,0,.82,0,1.22q0,6.17.07,12.36,0,4,.06,8.06c.13,15.91.25,31.84,0,47.87v.06q0,8.14,0,16.23,0,5.18,0,10.34v.41c0,.64,0,1.28,0,1.92v1.13c0,.25,0,.5,0,.76v.29c0,.09,0,.18,0,.27v.14a.51.51,0,0,0,0,.09h0v1.63c0,.54,0,1.07,0,1.61s0,1.07,0,1.61C497.88,189,497.88,189.36,497.88,189.72Z"/><path class="cls-10" d="M497.75,51.3c0-.5,0-1,0-1.5l0,1.78Z"/><polygon class="cls-10" points="498.21 34.55 498.21 34.55 498.2 34.55 498.21 34.55"/><path class="cls-10" d="M497.75,152.2v-.06c0-.19,0-.38,0-.58Z"/><path class="cls-10" d="M497.71,219c0-.4,0-.8,0-1.2l0,3.15C497.7,220.26,497.71,219.61,497.71,219Z"/><path class="cls-10" d="M497.87,201.19c0,.54,0,1.07,0,1.61v-.43C497.87,202,497.87,201.58,497.87,201.19Z"/><path class="cls-10" d="M497.86,204.08v.5c0,.43,0,.86,0,1.29h0C497.86,205.26,497.86,204.67,497.86,204.08Z"/><path class="cls-10" d="M497.86,183c0-.25,0-.5,0-.76v-1.13c0,.38,0,.75,0,1.13Z"/><path class="cls-10" d="M497.86,183.94c0-.06,0-.11,0-.17s0,0,0,0c0-.17,0-.34,0-.5,0,.17,0,.35,0,.52h0Z"/><path class="cls-10" d="M497.88,188.64v1.08c0-.36,0-.73,0-1.08,0-1.07,0-2.14,0-3.21v-.55Z"/><path class="cls-10" d="M497.65,58.36c0-.05,0-.11,0-.16q0,2.37,0,4.75,0,2.91,0,5.83,0-2.9,0-5.82l0-2.09c0-.39,0-.78,0-1.18,0-.13,0-.26,0-.4C497.64,59,497.64,58.68,497.65,58.36Z"/><polygon class="cls-8" points="336.7 87.81 357.07 127.73 409.75 230.95 267 230.95 336.7 87.81"/><path class="cls-9" d="M355.58,124.82s-2.8-3.34-5.48,0-10.05,3.4-13.4-1.48-5.36,2.48-6.7,3.84-3.16.93-4.91-5.5-6.37,3.06-6.37,3.06l18-36.94Z"/><polygon class="cls-10" points="337.15 88.25 357.07 127.29 409.75 230.51 337.15 230.51 337.15 88.25"/><ellipse class="cls-11" cx="422.55" cy="196.2" rx="5.56" ry="4.91"/><path class="cls-12" d="M422.55,191.29c-3.07,0-5.55,2.2-5.55,4.91s2.49,4.91,5.55,4.91Z"/><ellipse class="cls-11" cx="443.06" cy="179.56" rx="5.55" ry="4.91"/><path class="cls-12" d="M443.06,174.65c-3.07,0-5.55,2.2-5.55,4.91s2.49,4.91,5.55,4.91Z"/><polygon class="cls-13" points="434.79 214.39 434.06 213.67 439.89 204.47 440.62 205.19 434.79 214.39"/><polygon class="cls-14" points="440.26 204.83 439.89 204.47 434.06 213.67 434.42 214.03 440.26 204.83"/><polygon class="cls-13" points="433.84 211.02 433.11 210.3 438.94 201.11 439.68 201.83 433.84 211.02"/><polygon class="cls-14" points="439.31 201.47 438.94 201.11 433.11 210.3 433.48 210.66 439.31 201.47"/><polygon class="cls-13" points="426.59 200.6 426 201.5 433.3 208.9 433.89 208 426.59 200.6"/><polygon class="cls-14" points="433.6 208.45 433.3 208.9 426 201.5 426.3 201.05 433.6 208.45"/><rect class="cls-13" x="432.65" y="201.47" width="2.82" height="28.71"/><rect class="cls-14" x="432.65" y="201.47" width="1.41" height="28.71"/><ellipse class="cls-11" cx="434.8" cy="190.31" rx="16.71" ry="14.76"/><path class="cls-12" d="M434.8,175.54c-9.23,0-16.71,6.61-16.71,14.77s7.48,14.76,16.71,14.76Z"/><ellipse class="cls-11" cx="443.06" cy="201.47" rx="6.67" ry="5.89"/><path class="cls-12" d="M443.06,195.58c-3.68,0-6.67,2.64-6.67,5.89s3,5.89,6.67,5.89Z"/><ellipse class="cls-11" cx="448.75" cy="197.62" rx="5.75" ry="4.84"/><path class="cls-12" d="M448.75,192.78c-3.18,0-5.75,2.17-5.75,4.84s2.57,4.84,5.75,4.84Z"/><ellipse class="cls-11" cx="469.98" cy="181.21" rx="5.75" ry="4.84"/><path class="cls-12" d="M470,176.37c-3.18,0-5.75,2.17-5.75,4.84S466.8,186,470,186Z"/><polygon class="cls-13" points="461.42 215.57 460.66 214.86 466.69 205.78 467.45 206.49 461.42 215.57"/><polygon class="cls-14" points="467.07 206.14 466.69 205.78 460.66 214.86 461.04 215.21 467.07 206.14"/><polygon class="cls-13" points="460.43 212.25 459.68 211.54 465.71 202.46 466.47 203.17 460.43 212.25"/><polygon class="cls-14" points="466.09 202.82 465.71 202.46 459.68 211.54 460.05 211.89 466.09 202.82"/><polygon class="cls-13" points="452.93 201.96 452.32 202.85 459.88 210.15 460.49 209.26 452.93 201.96"/><polygon class="cls-14" points="460.18 209.71 459.88 210.15 452.32 202.85 452.62 202.41 460.18 209.71"/><rect class="cls-13" x="459.19" y="202.82" width="2.92" height="28.33"/><rect class="cls-14" x="459.19" y="202.82" width="1.46" height="28.33"/><ellipse class="cls-11" cx="461.43" cy="191.81" rx="17.3" ry="14.57"/><path class="cls-12" d="M461.43,177.24c-9.55,0-17.3,6.52-17.3,14.57s7.75,14.57,17.3,14.57Z"/><ellipse class="cls-11" cx="469.98" cy="202.82" rx="6.9" ry="5.81"/><path class="cls-12" d="M470,197c-3.81,0-6.9,2.6-6.9,5.81s3.09,5.81,6.9,5.81Z"/><ellipse class="cls-11" cx="478.73" cy="201.87" rx="5.73" ry="4.04"/><path class="cls-12" d="M478.73,197.83c-3.16,0-5.73,1.81-5.73,4s2.56,4,5.73,4Z"/><path class="cls-11" d="M497.39,191.82h0c-1.92-.65-3.25-2-3.25-3.64a3.57,3.57,0,0,1,1.74-2.89,5.82,5.82,0,0,1,1.49-.75h0v.72c0,.12,0,.24,0,.36v1c0,.16,0,.33,0,.49,0,0,0,0,0,0a1.38,1.38,0,0,1,0,.16v1.43C497.39,189.75,497.39,190.78,497.39,191.82Z"/><path class="cls-11" d="M497.38,187.29a1.38,1.38,0,0,0,0-.16s0,0,0,0c0-.16,0-.33,0-.49,0,.17,0,.34,0,.5h0Z"/><path class="cls-11" d="M497.4,191.82h0c0-1,0-2.06,0-3.09v-.53Z"/><path class="cls-12" d="M497.39,191.82h0c-1.92-.65-3.25-2-3.25-3.64a3.57,3.57,0,0,1,1.74-2.89,5.82,5.82,0,0,1,1.49-.75h0v.72c0,.12,0,.24,0,.36v1c0,.16,0,.33,0,.49,0,0,0,0,0,0a1.38,1.38,0,0,1,0,.16v1.43C497.39,189.75,497.39,190.78,497.39,191.82Z"/><path class="cls-12" d="M497.38,187.29a1.38,1.38,0,0,0,0-.16s0,0,0,0c0-.16,0-.33,0-.49,0,.17,0,.34,0,.5h0Z"/><path class="cls-12" d="M497.4,191.82h0c0-1,0-2.06,0-3.09v-.53Z"/><polygon class="cls-13" points="496.6 208.69 490.58 216.26 491.34 216.85 497.36 209.28 496.6 208.69"/><polygon class="cls-14" points="496.6 208.69 490.58 216.26 490.96 216.56 496.98 208.98 496.6 208.69"/><polygon class="cls-13" points="490.36 214.08 489.61 213.49 495.62 205.92 496.38 206.51 490.36 214.08"/><polygon class="cls-14" points="496 206.21 495.62 205.92 489.61 213.49 489.99 213.79 496 206.21"/><polygon class="cls-13" points="482.89 205.5 482.28 206.24 489.81 212.33 490.41 211.59 482.89 205.5"/><polygon class="cls-14" points="490.11 211.96 489.81 212.33 482.28 206.24 482.58 205.87 490.11 211.96"/><rect class="cls-13" x="489.13" y="206.22" width="2.91" height="23.65"/><rect class="cls-14" x="489.13" y="206.22" width="1.46" height="23.65"/><path class="cls-11" d="M497.39,203.92c0,.52,0,1,0,1.55v-.41C497.39,204.67,497.39,204.29,497.39,203.92Z"/><path class="cls-11" d="M497.38,187.14a0,0,0,0,0,0,0c0-.16,0-.33,0-.49C497.38,186.8,497.38,187,497.38,187.14Z"/><path class="cls-11" d="M497.4,191.82v1q0,4.42,0,8.84v.61c0,.53,0,1.07,0,1.61,0,.38,0,.76,0,1.14v.41c0,.37,0,.76,0,1.14v.58c0,.41,0,.83,0,1.24h0a22.62,22.62,0,0,1-3,.57h0l-.16,0-.51.06-.65.06-.59,0-.45,0h-.68l-.77,0h-.36c-.37,0-.74,0-1.1-.07s-.75-.07-1.12-.13l-.52-.08-.27,0-.27,0h0l-.52-.1-.51-.12c-.38-.09-.75-.18-1.12-.29l-.62-.19-.48-.16-.66-.24-.59-.25a17.22,17.22,0,0,1-2-1c-.32-.18-.61-.36-.9-.56l-.37-.25-.44-.33-.22-.17-.38-.31a11.62,11.62,0,0,1-1-.91l-.2-.21-.32-.35s0,0,0,0a6.27,6.27,0,0,1-.41-.5c-.12-.15-.22-.29-.33-.44s-.17-.25-.25-.38-.13-.2-.19-.31l-.21-.37c-.07-.14-.14-.26-.2-.4a.94.94,0,0,1-.09-.18l-.08-.18a2.2,2.2,0,0,1-.1-.26c-.07-.17-.13-.34-.19-.51a5.54,5.54,0,0,1-.17-.57.2.2,0,0,1,0-.09c0-.14-.07-.28-.1-.43a3.14,3.14,0,0,1-.06-.32,1.64,1.64,0,0,1,0-.25,4.67,4.67,0,0,1-.06-.58c0-.17,0-.35,0-.53s0-.42,0-.63,0-.37.06-.56,0-.2,0-.29a.08.08,0,0,1,0,0c0-.1,0-.21.06-.32s.12-.48.19-.72a4.58,4.58,0,0,1,.16-.49c.06-.15.11-.3.18-.45l.07-.17a9.65,9.65,0,0,1,.83-1.5l.15-.21,0,0c.09-.12.18-.25.28-.37a11,11,0,0,1,1.28-1.41l.45-.41,0,0a4.85,4.85,0,0,1,.48-.39l.19-.15a10.41,10.41,0,0,1,.94-.68l.34-.22.53-.32c.38-.22.77-.44,1.18-.63l.26-.12c.36-.17.73-.33,1.11-.47l.35-.14.41-.15.3-.1a3.57,3.57,0,0,1,.39-.12l.49-.15.28-.08.48-.12c.38-.1.77-.18,1.17-.26l.72-.12.56-.08.59-.07.5,0h.13l.32,0,.79,0,.89,0a24,24,0,0,1,4.52.42c.51.1,1,.21,1.5.34h0v1c0,.11,0,.22,0,.33v.17h0v1.58c0,.52,0,1,0,1.55S497.4,191.3,497.4,191.82Z"/><path class="cls-12" d="M491.36,184.86c-9.52,0-17.23,5.44-17.23,12.16s7.71,12.16,17.23,12.16Z"/><path class="cls-11" d="M497.4,201.69v.61c0,.53,0,1.07,0,1.61,0,.38,0,.76,0,1.14v.41c0,.37,0,.76,0,1.14v.58c0,.41,0,.82,0,1.24l0,2.31h0c-.31-.09-.61-.19-.9-.31l-.45-.2-.43-.23a6.25,6.25,0,0,1-1.23-.91l-.09-.08a3.37,3.37,0,0,1-.25-.27c-.11-.12-.21-.25-.31-.38a3.74,3.74,0,0,1-.7-2.14c0-2.07,1.83-3.83,4.41-4.53Z"/><path class="cls-11" d="M497.39,203.92c0,.52,0,1,0,1.55v-.41C497.39,204.67,497.39,204.29,497.39,203.92Z"/><path class="cls-11" d="M497.38,206.7v.48c0,.41,0,.83,0,1.24h0C497.38,207.84,497.38,207.27,497.38,206.7Z"/><path class="cls-12" d="M497.4,201.69v.61c0,.53,0,1.07,0,1.61,0,.38,0,.76,0,1.14v.41c0,.37,0,.76,0,1.14v.58c0,.41,0,.82,0,1.24l0,2.31h0c-.31-.09-.61-.19-.9-.31l-.45-.2-.43-.23a6.25,6.25,0,0,1-1.23-.91l-.09-.08a3.37,3.37,0,0,1-.25-.27c-.11-.12-.21-.25-.31-.38a3.74,3.74,0,0,1-.7-2.14c0-2.07,1.83-3.83,4.41-4.53Z"/><path class="cls-12" d="M497.39,203.92c0,.52,0,1,0,1.55v-.41C497.39,204.67,497.39,204.29,497.39,203.92Z"/><path class="cls-12" d="M497.38,206.7v.48c0,.41,0,.83,0,1.24h0C497.38,207.84,497.38,207.27,497.38,206.7Z"/><rect class="cls-15" x="266.45" y="145.97" width="18.07" height="10.55"/><polygon class="cls-16" points="200.46 231.25 172.05 231.25 172.05 185.88 200.46 170.94 200.46 231.25"/><path class="cls-17" d="M172,187.22a1.08,1.08,0,0,1-1-.83,1.49,1.49,0,0,1,.57-1.75l28.41-14.94a1,1,0,0,1,1.37.73,1.49,1.49,0,0,1-.57,1.75l-28.41,14.94A.85.85,0,0,1,172,187.22Z"/><rect class="cls-18" x="200.53" y="140.5" width="52.95" height="90.75"/><rect class="cls-19" x="200.53" y="140.5" width="52.95" height="7.75"/><g id="_Group_" data-name="&lt;Group&gt;"><rect class="cls-20" x="211.95" y="158.35" width="30.11" height="19.09"/><polygon id="_Path_" data-name="&lt;Path&gt;" class="cls-21" points="238.32 159.18 238.32 172.67 211.95 172.67 211.95 177.44 242.06 177.44 242.06 159.18 238.32 159.18"/><rect class="cls-22" x="211.95" y="158.35" width="30.11" height="19.09"/><g id="_Group_2" data-name="&lt;Group&gt;"><line id="_Path_2" data-name="&lt;Path&gt;" class="cls-22" x1="221.73" y1="158.35" x2="221.73" y2="177.44"/><line id="_Path_3" data-name="&lt;Path&gt;" class="cls-22" x1="232.28" y1="158.35" x2="232.28" y2="177.44"/></g><rect class="cls-23" x="210.02" y="178.13" width="33.97" height="3.6"/></g><g id="_Group_3" data-name="&lt;Group&gt;"><rect class="cls-20" x="211.94" y="193.35" width="30.11" height="19.09"/><polygon id="_Path_4" data-name="&lt;Path&gt;" class="cls-21" points="238.32 194.18 238.32 207.67 211.94 207.67 211.94 212.44 242.05 212.44 242.05 194.18 238.32 194.18"/><rect class="cls-22" x="211.94" y="193.35" width="30.11" height="19.09"/><g id="_Group_4" data-name="&lt;Group&gt;"><line id="_Path_5" data-name="&lt;Path&gt;" class="cls-22" x1="221.72" y1="193.35" x2="221.72" y2="212.44"/><line id="_Path_6" data-name="&lt;Path&gt;" class="cls-22" x1="232.27" y1="193.35" x2="232.27" y2="212.44"/></g><rect class="cls-23" x="210.01" y="213.13" width="33.97" height="3.6"/></g><g id="_Group_5" data-name="&lt;Group&gt;"><rect class="cls-17" x="199.48" y="139.16" width="55.05" height="2.68"/></g><polygon id="_Path_7" data-name="&lt;Path&gt;" class="cls-19" points="247.89 187.54 213.91 187.54 210.02 181.73 243.99 181.73 247.89 187.54"/><polygon id="_Path_8" data-name="&lt;Path&gt;" class="cls-19" points="247.89 222.54 213.91 222.54 210.02 216.73 243.99 216.73 247.89 222.54"/><rect class="cls-20" x="179.91" y="192.98" width="12.69" height="16.23"/><polygon id="_Path_9" data-name="&lt;Path&gt;" class="cls-21" points="189.35 192.98 189.35 205.06 179.91 205.06 179.91 209.21 192.6 209.21 192.6 192.98 189.35 192.98"/><rect class="cls-22" x="179.91" y="192.98" width="12.69" height="16.23"/><rect class="cls-24" x="256.28" y="166.37" width="38.37" height="65.77"/><rect class="cls-19" x="256.28" y="166.37" width="38.37" height="5.61"/><g id="_Group_6" data-name="&lt;Group&gt;"><rect class="cls-25" x="264.56" y="179.31" width="21.82" height="13.83"/><polygon id="_Path_10" data-name="&lt;Path&gt;" class="cls-21" points="283.67 179.91 283.67 189.68 264.56 189.68 264.56 193.14 286.38 193.14 286.38 179.91 283.67 179.91"/><rect class="cls-22" x="264.56" y="179.31" width="21.82" height="13.83"/><g id="_Group_7" data-name="&lt;Group&gt;"><line id="_Path_11" data-name="&lt;Path&gt;" class="cls-22" x1="271.65" y1="179.31" x2="271.65" y2="193.14"/><line id="_Path_12" data-name="&lt;Path&gt;" class="cls-22" x1="279.29" y1="179.31" x2="279.29" y2="193.14"/></g><rect class="cls-26" x="263.16" y="193.64" width="24.62" height="2.61"/></g><g id="_Group_8" data-name="&lt;Group&gt;"><rect class="cls-25" x="264.56" y="204.67" width="21.82" height="13.84"/><polygon id="_Path_13" data-name="&lt;Path&gt;" class="cls-21" points="283.67 205.27 283.67 215.04 264.56 215.04 264.56 218.5 286.38 218.5 286.38 205.27 283.67 205.27"/><rect class="cls-22" x="264.56" y="204.67" width="21.82" height="13.84"/><g id="_Group_9" data-name="&lt;Group&gt;"><line id="_Path_14" data-name="&lt;Path&gt;" class="cls-22" x1="271.64" y1="204.67" x2="271.64" y2="218.51"/><line id="_Path_15" data-name="&lt;Path&gt;" class="cls-22" x1="279.29" y1="204.67" x2="279.29" y2="218.51"/></g><rect class="cls-26" x="263.16" y="219.01" width="24.62" height="2.61"/></g><line id="_Path_16" data-name="&lt;Path&gt;" class="cls-27" x1="256.28" y1="166.37" x2="294.66" y2="166.37"/><polygon id="_Path_17" data-name="&lt;Path&gt;" class="cls-19" points="290.61 200.46 265.98 200.46 263.16 196.25 287.78 196.25 290.61 200.46"/><polygon id="_Path_18" data-name="&lt;Path&gt;" class="cls-19" points="290.61 225.82 265.98 225.82 263.16 221.61 287.78 221.61 290.61 225.82"/><path class="cls-9" d="M252.32,166.14"/><polygon class="cls-28" points="252.32 166.14 298 166.14 293.6 160.51 288.19 160.51 285.62 156.05 264.8 156.05 262.41 160.27 256.73 160.27 252.32 166.14"/><path class="cls-29" d="M270.13,154.08h-.47v-2.57h-2.14v2.57H267v-5.46h.47v2.32h2.14v-2.32h.47Z"/><path class="cls-29" d="M274.77,151.34a3.73,3.73,0,0,1-.49,2.06,1.65,1.65,0,0,1-2.76,0,3.76,3.76,0,0,1-.49-2.08,3.71,3.71,0,0,1,.49-2.07,1.58,1.58,0,0,1,1.39-.73,1.55,1.55,0,0,1,1.37.75A3.71,3.71,0,0,1,274.77,151.34Zm-3.24,0a3.25,3.25,0,0,0,.35,1.68,1.19,1.19,0,0,0,2,0,3.32,3.32,0,0,0,.34-1.68,3.26,3.26,0,0,0-.34-1.67,1.11,1.11,0,0,0-1-.57,1.13,1.13,0,0,0-1,.57A3.22,3.22,0,0,0,271.53,151.34Z"/><path class="cls-29" d="M276.92,154.08h-.47v-4.9h-1.29v-.57h3v.57h-1.29Z"/><path class="cls-29" d="M281.09,154.08h-2.26v-5.46h2.26v.57h-1.79v1.76H281v.56h-1.69v2h1.79Z"/><path class="cls-29" d="M282,154.08v-5.46h.47v4.89h1.79v.58Z"/><path class="cls-30" d="M215.47,153.11v-6.46h1.37a1.26,1.26,0,0,1,1,.41,1.53,1.53,0,0,1,.37,1.07,2,2,0,0,1-.22,1,1.27,1.27,0,0,1-.61.58v0a1.14,1.14,0,0,1,.78.49,1.86,1.86,0,0,1,.29,1.09,2,2,0,0,1-.44,1.34,1.41,1.41,0,0,1-1.12.51Zm.56-5.77v2.08h.58a.92.92,0,0,0,.73-.3,1.23,1.23,0,0,0,.26-.84.82.82,0,0,0-.92-.94Zm0,2.77v2.32h.76a1,1,0,0,0,.77-.32,1.27,1.27,0,0,0,.27-.86,1,1,0,0,0-1.16-1.14Z"/><path class="cls-30" d="M223.13,153.11h-.62l-.51-1.81h-2l-.48,1.81h-.63l1.84-6.46h.58Zm-1.32-2.49-.76-2.75a3.56,3.56,0,0,1-.07-.43h0a3.1,3.1,0,0,1-.08.43l-.75,2.75Z"/><path class="cls-30" d="M227.18,153.11h-.78l-1.85-3a2,2,0,0,1-.13-.23h0v3.18h-.56v-6.46h.56v3h0a1.73,1.73,0,0,1,.13-.22l1.8-2.81h.7l-2.06,3.1Z"/><path class="cls-30" d="M230.36,153.11h-2.55v-6.46h2.44v.68h-1.88v2.15h1.74v.68h-1.74v2.26h2Z"/><path class="cls-30" d="M234.73,153.11h-.67l-.8-1.81a4,4,0,0,0-.21-.43,1.55,1.55,0,0,0-.21-.29.69.69,0,0,0-.23-.16.74.74,0,0,0-.28-.05h-.46v2.75h-.56v-6.46h1.44a1.57,1.57,0,0,1,.58.11,1.25,1.25,0,0,1,.46.32,1.52,1.52,0,0,1,.31.54,2.3,2.3,0,0,1,.11.75,2.37,2.37,0,0,1-.08.62,1.79,1.79,0,0,1-.21.5,1.46,1.46,0,0,1-.78.62v0a1,1,0,0,1,.21.16,1.49,1.49,0,0,1,.17.22,3,3,0,0,1,.16.29l.18.37Zm-2.88-5.77v2.34h.77a.89.89,0,0,0,.39-.09.87.87,0,0,0,.31-.25,1.15,1.15,0,0,0,.2-.39,1.73,1.73,0,0,0,.07-.52,1.21,1.21,0,0,0-.25-.81.9.9,0,0,0-.72-.29Z"/><path class="cls-30" d="M238.52,146.66l-1.59,4.07v2.39h-.56v-2.37l-1.55-4.09h.64l1.08,2.92s.05.17.12.4h0a2.86,2.86,0,0,1,.13-.4l1.13-2.92Z"/><path class="cls-31" d="M365.57,197h0a2.89,2.89,0,0,0-1.3-1.22L336.9,170l-27.19,26a2.88,2.88,0,0,0-.68.65l-.05,0h0a3.29,3.29,0,0,0-.63,1.94,3,3,0,0,0,2.79,3.1h52.05a3,3,0,0,0,2.79-3.1A3.32,3.32,0,0,0,365.57,197Z"/><polygon class="cls-32" points="359.73 230.06 315.04 230.06 315.04 197.22 337.11 176.91 337.11 176.91 359.73 197.07 359.73 230.06"/><rect class="cls-9" x="340.23" y="214.08" width="8.45" height="11.05"/><rect class="cls-33" x="340.91" y="214.97" width="7.09" height="9.27"/><rect class="cls-9" x="340.23" y="219.61" width="8.45" height="0.83"/><rect class="cls-9" x="344.14" y="214.97" width="1.36" height="9.27"/><rect class="cls-9" x="323.01" y="214.72" width="8.83" height="15.34"/><rect class="cls-31" x="323.69" y="215.61" width="7.43" height="14.45"/><rect class="cls-31" x="338.3" y="224.78" width="11.83" height="0.95"/><rect class="cls-9" x="332.96" y="190.51" width="8.45" height="11.05"/><rect class="cls-33" x="333.64" y="191.4" width="7.09" height="9.27"/><rect class="cls-9" x="332.96" y="196.04" width="8.45" height="0.83"/><rect class="cls-9" x="336.87" y="191.4" width="1.36" height="9.27"/><rect class="cls-31" x="341.4" y="190.51" width="5.11" height="11.05"/><rect class="cls-31" x="327.84" y="190.51" width="5.11" height="11.05"/><rect class="cls-34" x="4.56" y="194.91" width="47.02" height="29.98" rx="4.5" ry="4.5"/><rect class="cls-35" x="5.66" y="224.75" width="44.67" height="2.66"/><rect class="cls-36" x="4" y="227.11" width="48" height="2.66"/><rect class="cls-37" x="8.94" y="198.46" width="23.95" height="20.68"/><polygon class="cls-38" points="9.9 218.18 9.9 198.46 8.94 198.46 8.94 219.13 32.89 219.13 32.89 218.18 9.9 218.18"/><path class="cls-39" d="M4.54,194.47v7.31c0,2,1.31,3.54,2.93,3.54s2.93-1.59,2.93-3.54v-7.31Z"/><path class="cls-40" d="M10.4,194.47v7.31c0,2,1.31,3.54,2.93,3.54s2.93-1.59,2.93-3.54v-7.31Z"/><path class="cls-39" d="M16.27,194.47v7.31c0,2,1.31,3.54,2.93,3.54s2.93-1.59,2.93-3.54v-7.31Z"/><path class="cls-40" d="M22.13,194.47v7.31c0,2,1.31,3.54,2.93,3.54S28,203.74,28,201.78v-7.31Z"/><path class="cls-39" d="M28,194.47v7.31c0,2,1.31,3.54,2.93,3.54s2.93-1.59,2.93-3.54v-7.31Z"/><path class="cls-40" d="M33.87,194.47v7.31c0,2,1.31,3.54,2.93,3.54s2.93-1.59,2.93-3.54v-7.31Z"/><path class="cls-39" d="M39.73,194.47v7.31c0,2,1.31,3.54,2.93,3.54s2.93-1.59,2.93-3.54v-7.31Z"/><path class="cls-40" d="M45.6,194.47v7.31c0,2,1.31,3.54,2.93,3.54s2.93-1.59,2.93-3.54v-7.31Z"/><path class="cls-41" d="M13,182.82,4.54,194.44H10.4l6.35-11.61Z"/><path class="cls-42" d="M16.75,182.82,10.4,194.44h5.87l4.23-11.61Z"/><path class="cls-41" d="M20.5,182.82l-4.23,11.61h5.87l2.12-11.61Z"/><path class="cls-42" d="M24.25,182.82l-2.12,11.61H28V182.82Z"/><path class="cls-41" d="M28,182.82v11.61h5.87l-2.12-11.61Z"/><path class="cls-42" d="M31.75,182.82l2.12,11.61h5.87L35.5,182.82Z"/><path class="cls-41" d="M35.5,182.82l4.23,11.61H45.6l-6.35-11.61Z"/><path class="cls-42" d="M45.6,194.44h5.87L43,182.82H39.25Z"/><rect class="cls-41" x="12.97" y="180.44" width="3.76" height="2.41"/><rect class="cls-41" x="16.73" y="180.44" width="3.76" height="2.41"/><rect class="cls-41" x="20.48" y="180.44" width="3.76" height="2.41"/><rect class="cls-41" x="24.24" y="180.44" width="3.76" height="2.41"/><rect class="cls-41" x="28" y="180.44" width="3.76" height="2.41"/><rect class="cls-41" x="31.76" y="180.44" width="3.76" height="2.41"/><rect class="cls-41" x="35.51" y="180.44" width="3.76" height="2.41"/><rect class="cls-41" x="39.27" y="180.44" width="3.76" height="2.41"/><rect class="cls-32" x="34.84" y="204.07" width="12.22" height="20.68"/><rect class="cls-43" x="36.51" y="215.52" width="9.29" height="7.86"/><rect class="cls-37" x="36.51" y="206.02" width="9.29" height="8.02"/><polygon class="cls-38" points="36.88 213.67 36.88 206.02 36.51 206.02 36.51 214.04 45.8 214.04 45.8 213.67 36.88 213.67"/><rect class="cls-13" x="159.14" y="216.28" width="2.51" height="15.02"/><rect class="cls-14" x="159.14" y="216.28" width="1.26" height="15.02"/><polygon class="cls-44" points="168.43 222.38 160.4 185.03 152.37 222.38 153.68 222.38 153.12 225.21 167.77 225.21 167.21 222.38 168.43 222.38"/><polygon class="cls-45" points="160.45 225.21 160.45 185.03 152.41 222.38 153.72 222.38 153.17 225.21 160.45 225.21"/><rect class="cls-46" x="85.29" y="154.71" width="9.38" height="14.36"/><rect class="cls-47" x="83.63" y="148.43" width="12.52" height="6.28"/><polygon class="cls-48" points="156 198.63 56 198.63 68.25 168.21 143.11 168.21 156 198.63"/><rect class="cls-49" x="65.57" y="198.63" width="80.22" height="32.78"/><path class="cls-9" d="M134.3,195.28h0a3.84,3.84,0,0,0-1.72-1.63l-27-60.63L79.13,193.93a3.85,3.85,0,0,0-.91.87l-.07.07h0a4.42,4.42,0,0,0-.83,2.59A4,4,0,0,0,81,201.62h50.12a4,4,0,0,0,3.71-4.15A4.47,4.47,0,0,0,134.3,195.28Z"/><polygon class="cls-46" points="125.88 234.11 85.29 234.11 85.29 192.95 106.18 145 106.18 145 125.88 192.71 125.88 234.11"/><rect class="cls-9" x="70.36" y="209.33" width="11.22" height="14.78"/><rect class="cls-33" x="71.27" y="210.52" width="9.41" height="12.4"/><rect class="cls-9" x="70.36" y="216.72" width="11.22" height="1.11"/><rect class="cls-9" x="75.56" y="210.52" width="1.81" height="12.4"/><rect class="cls-9" x="130.68" y="209.33" width="11.22" height="14.78"/><rect class="cls-33" x="131.58" y="210.52" width="9.41" height="12.4"/><rect class="cls-9" x="130.68" y="216.72" width="11.22" height="1.11"/><rect class="cls-9" x="135.88" y="210.52" width="1.81" height="12.4"/><rect class="cls-9" x="99.98" y="167.31" width="11.22" height="23.5"/><rect class="cls-33" x="100.88" y="169.2" width="9.41" height="19.71"/><rect class="cls-9" x="99.98" y="179.06" width="11.22" height="1.77"/><rect class="cls-9" x="105.18" y="169.2" width="1.81" height="19.71"/><path class="cls-9" d="M112.24,234.11V211.57a6.67,6.67,0,0,0-13.31,0v22.54Z"/><path class="cls-50" d="M110.95,234.11V212.88c0-3.25-2.36-5.89-5.27-5.89s-5.27,2.64-5.27,5.89v21.23Z"/><rect class="cls-48" x="59.3" y="231.41" width="93.94" height="4.99"/><polygon class="cls-13" points="304.44 224.13 304.03 224.61 299.44 214.27 299.86 213.78 304.44 224.13"/><polygon class="cls-14" points="299.65 214.03 299.44 214.27 304.03 224.61 304.24 224.37 299.65 214.03"/><polygon class="cls-13" points="305.05 221.7 304.59 221.33 307.39 212.22 307.85 212.59 305.05 221.7"/><polygon class="cls-14" points="307.62 212.4 307.39 212.22 304.59 221.33 304.82 221.51 307.62 212.4"/><rect class="cls-13" x="303.38" y="203.82" width="2.06" height="25.45"/><polygon class="cls-14" points="304.41 203.82 303.38 203.82 303.38 229.26 304.41 229.26 304.41 209.87 304.41 203.82"/><polygon class="cls-44" points="310 203.66 304.41 182.83 298.82 203.66 299.74 203.66 299.35 205.24 309.54 205.24 309.15 203.66 310 203.66"/><polygon class="cls-45" points="304.44 205.24 304.44 182.83 298.86 203.66 299.77 203.66 299.38 205.24 304.44 205.24"/><polygon class="cls-44" points="300.1 210.71 300.1 210.71 297.54 216 302.31 216 300.1 210.71"/><polygon class="cls-45" points="300.11 210.72 300.11 210.71 297.54 216 300.11 216 300.11 210.72"/><polygon class="cls-44" points="307.85 206.12 307.85 206.12 305.85 212.91 309.57 212.91 307.85 206.12"/><polygon class="cls-45" points="307.85 206.13 307.85 206.12 305.85 212.91 307.85 212.91 307.85 206.13"/></g></g></g></svg>