<?xml version="1.0" encoding="utf-8"?>
<!-- Generator: Adobe Illustrator 21.1.0, SVG Export Plug-In . SVG Version: 6.00 Build 0)  -->
<svg version="1.1" id="Layer_1" xmlns="http://www.w3.org/2000/svg" xmlns:xlink="http://www.w3.org/1999/xlink" x="0px" y="0px"
	 viewBox="0 0 190.6 183.4" style="enable-background:new 0 0 190.6 183.4;" xml:space="preserve">
<style type="text/css">
	.st0{fill:#F3F2F1;}
	.st1{fill:#F3C6AE;}
	.st2{fill:#3C8DA3;}
	.st3{fill:#FFFFFF;}
	.st4{fill:#F3C6AE;stroke:#E4B9A5;stroke-miterlimit:10;}
	.st5{fill:#4C4C4B;}
	.st6{fill:#444545;}
	.st7{fill:#6D6D6D;}
	.st8{opacity:0.28;fill:#F9F9FA;enable-background:new    ;}
	.st9{fill:none;stroke:#666563;stroke-width:0.5;stroke-miterlimit:10;}
	.st10{opacity:0.2;fill:#6B6B6B;enable-background:new    ;}
	.st11{fill:none;stroke:#6B6B6B;stroke-miterlimit:10;}
</style>
<title>me</title>
<path class="st0" d="M190.6,91.7c0,28.3-13.4,53.7-34.3,70.5c-4.9,3.9-10.1,7.3-15.6,10.2c-1.2,0.6-2.5,1.3-3.9,1.9
	c-25,11.6-53.8,12.2-79.3,1.7c-1.5-0.6-3-1.3-4.3-2c-5.1-2.4-10-5.3-14.7-8.6C15.2,148.6,0,121.8,0,91.7C0,41,42.7,0,95.3,0
	S190.6,41,190.6,91.7z"/>
<g id="me">
	<path id="right-ear" class="st1" d="M70.4,71.7c0.3-0.9-0.2-1.9-1.1-2.2c-3-1.1-11.3-3-11.5,2.1c0,0-1.5,5.8,3.2,8.2
		c2.3,1.3,5.2,0.8,6.8-1.3C69.3,76.7,70.1,73.6,70.4,71.7z"/>
	<path id="left-ear" class="st1" d="M120,71.7c-0.3-0.9,0.2-1.9,1.1-2.2c3-1.1,11.3-3,11.5,2.1c0,0,1.5,5.8-3.2,8.2
		c-2.3,1.3-5.2,0.8-6.8-1.3C121.2,76.7,120.4,73.6,120,71.7z"/>
	<path class="st2" d="M156,151.8c-5.3,1.2-12.4,1.3-17.8,0.4c-0.2-3.2,0-6.1-0.3-9.5c-1-2.8-1.1,14.1-1,31.4
		c-25,11.6-53.8,12.2-79.3,1.7c0.1-17.8,0.1-35.5-1-33.1c-0.1,3.1,0,5.7-0.3,8.7c-3,0.8-12.3,1.5-17.7,0.6
		c-0.6-5.3,1.2-18.4,3.3-22.5c2.1-4.1,5.1-7.4,15.3-9.5c7.6-1.7,15.1-3.8,22.4-6.3c0.5-0.1,1.1-0.2,1.6-0.3c0.8-0.2,1.9-0.3,3.2-0.6
		c1-0.2,2.1-0.3,3.4-0.6l0,0c5.6-0.8,13-1.5,19-0.9c1.3,0.2,2.5,0.3,3.6,0.6c1.1,0.2,2.2,0.6,3.3,1.1c0.4,0.2,0.8,0.4,1.2,0.7
		c7.3,2.5,14.8,4.6,22.4,6.3c10.6,2.2,13.8,5.1,15.3,9.5C156,137.2,156,151.8,156,151.8z"/>
	<path id="collar" class="st3" d="M113.7,113.2c-0.4-1-1.6-2-3.4-2.7c-2.7-1-5.6-1.6-8.4-1.9c-3.7-0.4-7.4-0.3-11.1,0.2
		c-2.2,0.3-4.4,1-6.4,2.1c-0.2,0.1-0.3,0.2-0.5,0.3c-1,0.6-1.9,1.4-2.6,2.4c-3.7,4.7,0.2,10.7,14.8,10.9
		C107.6,124.6,117.7,123.9,113.7,113.2z M87.8,112.5c5.6-1.3,14.3-2.4,19-0.9c1.2,0.3,2.3,1,3,2.1c3.3,5.8-3.1,6.2-12.6,6.3
		c-13.1,0.2-13.9-6.3-10.8-7.1C86.7,112.7,87.2,112.5,87.8,112.5L87.8,112.5z"/>
	<path id="neck" class="st1" d="M82.9,103.5c0,0,2.8,9.9,0.6,14.8c0,0,11.9,5.4,28.1,0.6c0,0-3-10.8-0.6-15.4H82.9z"/>
	<path id="face" class="st4" d="M65,55.8c0.1,0.3,0.1,0.7,0.1,1c0.2,3.4,1.2,23,3,26.6c0.9,3.3,2,6.6,3.4,9.7
		c2.8,6.7,8.3,12,15.2,14.5c2.3,0.9,4.8,1.4,7.4,1.3h1.4c1,0,2.1,0,3.1-0.1c12-0.8,22-9.2,24.9-20.9c0.9-3.9,1.5-7.8,1.7-11.8
		c1.4-19.2-0.8-26.3-0.8-26.3l0,0c-1.3-7.4-6.6-13.6-13.7-16.1c-8.9-3.2-21.7-5-35.4,2.8C69,40.2,65.1,46.8,64.9,53.9
		C64.9,54.5,64.9,55.2,65,55.8z"/>
	<g id="eyes">
		<ellipse class="st3" cx="81.6" cy="69.3" rx="4.7" ry="4.5"/>
		<ellipse class="st5" cx="81.6" cy="69.4" rx="3.1" ry="3"/>
		<ellipse class="st3" cx="80.2" cy="67.2" rx="1.5" ry="1.4"/>
		<ellipse class="st3" cx="109.8" cy="69.2" rx="4.7" ry="4.5"/>
		<ellipse class="st5" cx="109.9" cy="69.3" rx="3.1" ry="3"/>
		<ellipse class="st3" cx="111.4" cy="67.2" rx="1.5" ry="1.4"/>
	</g>
	<g id="eye_brows">
		<path class="st6" d="M78.8,58.1c1.8,0.1,3.6,0.3,5.3,0.5c0.3,0-1.6-1-1.6-1s5,1.4,5.7,1.3s-2.4-2.1-0.4-1.1
			c1.4,0.5,2.4,1.8,2.6,3.3c-5.1-0.9-5.9-0.9-7.4-1S73.9,60,73.9,60c0.8-0.5,2.1-0.8,2.4-1c0.6-0.5-2.9,0.2-0.8-0.3
			C76.5,58.3,77.6,58.1,78.8,58.1z"/>
		<path class="st6" d="M113.1,58.1c-1.8,0.1-3.6,0.3-5.3,0.5c-0.3,0,1.6-1,1.6-1s-5,1.4-5.7,1.3s2.4-2.1,0.4-1.1
			c-1.4,0.5-2.4,1.8-2.6,3.3c5.1-0.9,5.9-0.9,7.4-1S118,60,118,60c-0.8-0.5-2.1-0.8-2.4-1c-0.6-0.5,2.9,0.2,0.8-0.3
			C115.4,58.3,114.3,58.1,113.1,58.1z"/>
	</g>
	<g id="spects">
		<path id="frame" class="st7" d="M123.4,63.2c0,0,0.1-1.1-1.9-1.3s-12.9-2.5-21.2,0.4c-1.4,0.7-2.8,1.3-4.3,1.8
			c-0.3,0.1-0.7,0.1-1,0c-2.2-0.6-3.2-1.4-4.3-1.8c-8.2-2.9-19.2-0.5-21.2-0.4s-1.9,1.3-1.9,1.3c-0.2,1.4,0.6,1.7,1,1.8
			c1,0,1.2,1.8,1.2,2.4c0,0.1,0,0.2,0.1,0.3c0.3,0.8,0.6,3.9,0.7,4.6v0.2c0.5,2.4,2.1,4.4,4.4,5.3c0.1,0,0.2,0,0.2,0.1
			c6.1,1.4,9.1,1,12,0.1c3.7-1.1,5.6-6.4,5.9-8.5c0.2-1.1,0.9-2,2-2.2c0.3-0.1,0.7-0.1,1,0c1,0.3,1.8,1.2,1.9,2.2
			c0.3,2.2,2.2,7.3,5.9,8.5c2.9,0.9,5.9,1.4,12-0.1c0.1,0,0.2,0,0.2-0.1c2-0.8,3.5-2.4,4.2-4.5l0,0c0.1-0.2,0.2-0.6,0.3-0.9v-0.2
			c0-0.4,0.2-1.7,0.3-2.8c0.1-0.6,0.2-1.2,0.3-1.8c0-0.1,0-0.2,0.1-0.3c0-0.6,0.3-2.3,1.2-2.4C123.2,64.8,123.6,64,123.4,63.2
			C123.4,63.2,123.4,63.2,123.4,63.2z M92.4,68.7c-0.2,1.6-0.7,3.2-1.6,4.6c-0.7,1-1,3.6-6.9,4c-2.8,0.2-5.6-0.1-8.3-1.1
			c0,0-2.6-0.8-3.3-5.8c-0.2-1.1-0.3-4.6-0.3-4.6c0-1.6,1.3-2.9,2.9-2.8c0,0,0.1,0,0.1,0c4.2-0.5,8.4-0.4,12.6,0.2
			C93.7,64.5,92.4,66.8,92.4,68.7L92.4,68.7z M119.6,70.6c-0.1,0.9-0.4,1.8-0.7,2.7c-0.1,0.3-0.2,0.6-0.4,0.9
			c-0.3,0.6-0.6,1.1-1.1,1.5c-0.3,0.3-0.7,0.6-1.1,0.8c-2.5,1.1-6.2,1.2-8.3,1.1c-5.2-0.4-6-2.4-6.7-3.6l-0.3-0.5
			c-0.2-0.3-0.4-0.6-0.6-1c-0.3-0.7-0.6-1.5-0.8-2.2L99.6,69v-0.2c0-1.2-0.6-2.6,0.6-3.7c0,0,0.1-0.1,0.2-0.1
			c1.1-0.9,2.5-1.4,3.9-1.6c4.2-0.6,8.4-0.7,12.6-0.2c0.8,0,1.5,0.3,2.1,0.9c0,0,0.1,0.1,0.1,0.2c0.4,0.5,0.7,1.2,0.7,1.9
			C119.7,66.1,119.8,69.4,119.6,70.6L119.6,70.6z"/>
		<path id="lens-right" class="st8" d="M72.1,66c0-1.6,1.3-2.9,2.9-2.8c0,0,0.1,0,0.1,0c4.2-0.5,8.4-0.4,12.6,0.2
			c6,1.2,4.7,3.6,4.7,5.4c-0.2,1.6-0.7,3.2-1.6,4.6c-0.7,1.1-1,3.6-6.9,4c-2.8,0.2-5.6-0.1-8.3-1.1c0,0-2.5-0.8-3.3-5.8
			C72.2,69.4,72.1,66,72.1,66z"/>
		<path id="lens-left" class="st8" d="M119.8,66c0-1.6-1.3-2.9-2.9-2.8c0,0-0.1,0-0.1,0c-4.2-0.5-8.4-0.4-12.6,0.2
			c-6,1.2-4.7,3.6-4.7,5.4c0.2,1.6,0.7,3.2,1.6,4.6c0.7,1.1,1,3.6,6.9,4c2.8,0.2,5.6-0.1,8.3-1.1c0,0,2.5-0.8,3.3-5.8
			C119.7,69.4,119.8,66,119.8,66z"/>
	</g>
	<path id="hair" class="st6" d="M71.6,17.6c0,0-1.6,3.5-1.4,3.9c0,0,2.3-3.7,3.7-3.8c0,0-0.7,2.1-0.4,2.8l2-0.9
		c0.1-0.8,0-1.6-0.2-2.5c0.8,0.4,1.6,1,2.2,1.7c0.2,0.2,0.4,0.2,0.6,0.1c0.1,0,0.1-0.1,0.1-0.2c0.4-0.8,0.8-1.8,0.5-2
		c1,0.4,1.9,1.1,2.5,2c0.2,0.2,0.5,0.2,0.7,0.1c0,0,0.1-0.1,0.1-0.1c0.5-0.8,0.8-1.6,0.9-2.5c0.6,0.7,1,1.5,1.4,2.4
		c0.2,0.4,0.6,0.5,1,0.4c0.1,0,0.1-0.1,0.2-0.1c0.8-0.5,1.7-1.4,1.6-2.2c0.3,0.6,0.5,1.2,0.7,1.8c0.1,0.3,0.4,0.5,0.7,0.4
		c0.1,0,0.1,0,0.1-0.1c1-0.5,2.3-1.4,2.1-2.1c0.5,0.5,1,1,1.4,1.6c0.1,0.2,0.3,0.3,0.5,0.2c0.1,0,0.1-0.1,0.1-0.1
		c0.7-0.6,1.5-1.5,1.3-1.8c0,0,2.1,1.7,1.6,2.5s1.6-0.6,1.9-2.5c0.6,0.6,1,1.2,1.3,2c0.1,0.2,0.3,0.3,0.5,0.2c0,0,0.1,0,0.1-0.1
		c0.7-0.6,1.6-1.7,1.4-2.4c-0.3-0.9,1.3,0.9,1.6,2.2c0.1,0.2,0.3,0.4,0.5,0.3c0.1,0,0.1,0,0.2-0.1c0.9-0.5,1.5-1.4,1.8-2.4
		c0,0,2.7,2.2,3.3,2.8s1-1.5-1.4-3.3c2.8,0.9,5.4,2.2,7.6,4.1c0.3,0.2,0.7,0.2,0.9,0c0.2-0.2,0.2-0.4,0.1-0.7
		c-0.3-1-0.8-1.9-1.7-2.5c0,0,6.9,3,8.4,7.3c0.1,0.2,0.3,0.4,0.5,0.3c0.1,0,0.2-0.1,0.3-0.3c0.3-0.7,0.4-1.5,0.3-2.3
		c1.4,1.7,2.6,3.5,3.6,5.4c1,2,1.2,4.4,0.5,6.5c-0.1,0.7-0.5,1.3-0.9,1.8c0,0,3.4,2.6,3,10.6c0,0-0.7,18.1-3.8,28.3
		c0,0-0.1,0.7-2.1,0.1c0,0,1.2-13.1-1.2-15.9s-3.5-2-3.5-2s1.2-2.7,0.5-8.1c-0.1-2-1-3.9-2.5-5.2c-0.8-0.8-3.6-2.6-9-0.2
		c-14.2,7.7-23.3,2.4-25.4,2c-0.3-0.1-4.4-0.7-4.8-0.7c-4.2,0-6.2,4.3-6.2,4.3c-2.1,6.7,0.4,9.4,0.4,9.4c-1.5,1.1-2.8,2.5-3.6,4.2
		c-1.9,5.4-1,12.4-1,12.4c-0.5,0.1-1,0.1-1.6,0.1c0,0-2-2.4-6.4-33.2c0,0-1.1-9.9,3.2-15.3c0,0-0.9,4.1-0.3,4.6c0,0,1.1-6.1,3.1-8.5
		c0,0-0.3,5.5,0.8,4.3C66.3,27.1,65.1,21.1,71.6,17.6z"/>
	<path id="ear-line1" class="st9" d="M59.7,73.6c0,0,1.1-1.8,2.3-1.6c0.7,0.2,1.3,0.4,1.9,0.8c0,0,1.1,2.2-0.6,2.7s0.8,1.6,0.8,1.6"
		/>
	<path id="ear-line2" class="st9" d="M127.5,71.3c0,0,2.5-0.5,3.6,0.9s-1.1,2.2-1.8,2.4s-2.5,0.9-2.5,1.3c0,0-0.3,1.3,1.2,0.9"/>
	<path id="nose" class="st9" d="M92.4,83.1c0,0,3.3-3.9,6.7,0"/>
	<path id="nose-shadow" class="st10" d="M99.2,83.4h-6.9c1.2-1.9,3.7-2.5,5.6-1.3C98.4,82.5,98.9,82.9,99.2,83.4z"/>
	<path id="lips" class="st11" d="M85.6,94.3c7.2,2.3,14.8,2.3,22,0"/>
	<path class="st1" d="M56.4,151.5c-0.1,0.9-1.2,13.1-2,22.8c-5.6-2.6-10.9-5.6-16-9c0-7.3,0.1-13.8,0.1-13.8h18.7L56.4,151.5z"/>
	<path class="st1" d="M156.3,162.5c-5.3,4-11,7.6-17,10.5c-0.5-9.7-1.1-20.7-1.1-20.7l17.7-0.4C156.2,152.5,156.3,157,156.3,162.5z"
		/>
</g>
</svg>
