<?xml version="1.0" encoding="utf-8"?>
<!-- Generator: Adobe Illustrator 21.1.0, SVG Export Plug-In . SVG Version: 6.00 Build 0)  -->
<svg version="1.1" id="meself_1_" xmlns="http://www.w3.org/2000/svg" xmlns:xlink="http://www.w3.org/1999/xlink" x="0px" y="0px"
	 viewBox="0 0 235 234.7" style="enable-background:new 0 0 235 234.7;" xml:space="preserve">
<style type="text/css">
	.st0{fill:#F3F2F1;}
	.st1{fill:#F3C6AE;}
	.st2{fill:#3C8DA3;}
	.st3{fill:#FFFFFF;}
	.st4{fill:#F3C6AE;stroke:#E4B9A5;stroke-miterlimit:10;}
	.st5{fill:#4C4C4B;}
	.st6{fill:#444545;}
	.st7{fill:#6D6D6D;}
	.st8{opacity:0.28;fill:#F9F9FA;}
	.st9{fill:none;stroke:#666563;stroke-width:0.5;stroke-miterlimit:10;}
	.st10{opacity:0.2;fill:#6B6B6B;}
	.st11{fill:none;stroke:#6B6B6B;stroke-miterlimit:10;}
</style>
<path class="st0" d="M233.5,117.7c0,35.9-16.3,68-41.8,89.3c-5.9,4.9-12.2,9.2-19,12.9c-1.5,0.8-3.1,1.6-4.7,2.4
	c-15.3,7.4-32.5,11.6-50.6,11.6c-16.3,0-31.9-3.4-46-9.5c-1.8-0.8-3.6-1.6-5.3-2.5c-6.3-3.1-12.3-6.8-17.9-10.9
	c-28.5-21.2-47-55.1-47-93.3c0-64.2,52-116.2,116.2-116.2S233.5,53.5,233.5,117.7z"/>
<g id="me">
	<path id="right-ear" class="st1" d="M87,92.3c0.2-1.3-0.3-2.5-1.3-2.8c-3.6-1.4-13.8-3.8-14,2.6c0,0-1.8,7.4,3.9,10.4
		c1.9,1,5.7,1.9,8.3-1.6C85.7,98.7,86.6,94.8,87,92.3z"/>
	<path id="left-ear" class="st1" d="M147.5,92.3c-0.2-1.3,0.3-2.5,1.3-2.8c3.6-1.4,13.8-3.8,14,2.6c0,0,1.8,7.4-3.9,10.4
		c-1.9,1-5.7,1.9-8.3-1.6C148.9,98.7,148,94.8,147.5,92.3z"/>
	<path class="st2" d="M191.3,193.9c-9.8,2.5-19.8,0.5-19.8,0.5s-0.3-5.9-2.3-12c-1.2-3.6-1.3,17.9-1.2,39.8
		c-15.3,7.4-32.5,11.6-50.6,11.6c-16.3,0-31.9-3.4-46-9.5c0.1-22.6,0-45.7-1.2-41.9c-1.8,5.6-2,11.8-2,11.8c-11.9,1.9-20,0-20,0
		c-0.7-6.7,0.7-23.8,4-28.5c3.3-4.7,6-9.3,18.7-12c12.7-2.7,27.3-8,27.3-8s0.7-0.2,2-0.4c1-0.2,2.3-0.4,3.9-0.7
		c1.2-0.2,2.6-0.4,4.1-0.7c0,0,0,0,0,0c6.8-1,15.9-1.9,23.2-1.2c1.6,0.2,3,0.4,4.4,0.7c1.5,0.4,2.9,0.8,4,1.4c0.5,0.3,1,0.5,1.4,0.9
		c0,0,14.7,5.3,27.3,8c12.7,2.7,16.4,6.7,18.7,12C191.3,175.4,191.3,193.9,191.3,193.9z"/>
	<path id="collar" class="st3" d="M139.8,144.9c-0.5-1.3-2-2.5-4.2-3.4c-2.7-1.1-6.3-2-10.3-2.4c-4.4-0.5-9.3-0.4-13.5,0.3
		c-3,0.5-5.7,1.4-7.8,2.6c-0.2,0.1-0.4,0.2-0.6,0.4c-1.3,0.9-2.4,1.9-3.2,3c-4.5,6,0.2,13.5,18,13.8
		C132.3,159.4,144.7,158.5,139.8,144.9z M108.2,144c6.8-1.6,17.4-3.1,23.2-1.2c1.7,0.5,3,1.4,3.7,2.6c4,7.3-3.8,7.8-15.3,8
		c-16,0.3-16.9-8-13.2-9C107,144.3,107.6,144.1,108.2,144C108.2,144,108.2,144,108.2,144z"/>
	<path id="neck" class="st1" d="M102.3,132.2c0,0,3.4,12.5,0.7,18.7c0,0,14.5,6.9,34.3,0.8c0,0-3.7-13.7-0.7-19.5H102.3z"/>
	<path id="face" class="st4" d="M80.4,72.3c0.1,0.4,0.1,0.9,0.1,1.3c0.2,4.3,1.5,29.1,3.6,33.7c0,0,1.4,6,4.1,12.3
		c3.5,8.4,10.1,15.2,18.6,18.4c2.8,1.1,5.9,1.8,9,1.7c0.6,0,1.1,0,1.7,0c0.8,0,2.1,0.1,3.8-0.1c14.8-1.1,27-12,30.3-26.5
		c0.9-4.1,1.7-9,2.1-14.9c1.7-24.3-1-33.3-1-33.3v0c-1.5-9.3-7.9-17.1-16.7-20.4c-10.8-4.1-26.5-6.3-43.1,3.6
		C85.3,52.8,80.3,61,80.3,70C80.3,70.9,80.3,71.7,80.4,72.3z"/>
	<g id="eyes">
		<circle class="st3" cx="100.7" cy="89.3" r="5.7"/>
		<circle class="st5" cx="100.7" cy="89.4" r="3.8"/>
		<circle class="st3" cx="98.9" cy="86.7" r="1.8"/>
		<circle class="st3" cx="135.1" cy="89.2" r="5.7"/>
		<circle class="st5" cx="135.2" cy="89.3" r="3.8"/>
		<circle class="st3" cx="137" cy="86.6" r="1.8"/>
	</g>
	<g id="eye_brows">
		<path class="st6" d="M97.2,75.1c2.5-0.1,6.1,0.8,6.5,0.7c0.4,0-1.9-1.2-1.9-1.2s6.1,1.8,7,1.6s-2.9-2.7-0.5-1.4
			c2.9,1,3.2,4.2,3.2,4.2c-6.2-1.1-7.2-1.1-9-1.3c-1.8-0.2-11.2-0.2-11.2-0.2c1-0.6,2.6-1,2.9-1.3c0.7-0.6-3.5,0.3-1-0.4
			C93.3,75.8,94.5,75.2,97.2,75.1z"/>
		<path class="st6" d="M139.1,75.1c-2.5-0.1-6.1,0.8-6.5,0.7c-0.4,0,1.9-1.2,1.9-1.2s-6.1,1.8-7,1.6c-1-0.2,2.9-2.7,0.5-1.4
			c-2.9,1-3.2,4.2-3.2,4.2c6.2-1.1,7.2-1.1,9-1.3c1.8-0.2,11.2-0.2,11.2-0.2c-1-0.6-2.6-1-2.9-1.3c-0.7-0.6,3.5,0.3,1-0.4
			C143,75.8,141.8,75.2,139.1,75.1z"/>
	</g>
	<g id="spects">
		<path id="frame" class="st7" d="M151.8,81.7c0,0,0.1-1.4-2.3-1.6c-2.4-0.1-15.6-3.1-25.5,0.5c-1.3,0.5-2.6,1.4-5.2,2.2
			c-0.4,0.1-0.8,0.1-1.2,0c-2.6-0.8-3.9-1.8-5.2-2.2c-9.9-3.6-23.1-0.6-25.5-0.5c-2.4,0.1-2.3,1.6-2.3,1.6c-0.2,1.7,0.7,2.1,1.2,2.3
			c1.2,0,1.4,2.3,1.5,3c0,0.1,0,0.3,0.1,0.4c0.3,1,0.7,4.9,0.8,5.7c0,0.1,0,0.2,0,0.2c1.1,4.9,4.5,6.4,5.3,6.7c0.1,0,0.2,0,0.2,0.1
			c7.4,1.8,11,1.2,14.5,0.1c4.5-1.4,6.8-8,7.1-10.7c0.2-1.8,1.6-2.5,2.4-2.8c0.4-0.1,0.8-0.1,1.2,0c0.8,0.3,2,1,2.3,2.8
			c0.3,2.7,2.7,9.2,7.1,10.7c3.5,1.1,7.1,1.7,14.5-0.1c0.1,0,0.2,0,0.2-0.1c0.7-0.3,3.7-1.5,5-5.6v0c0.1-0.3,0.2-0.7,0.3-1.1
			c0-0.1,0-0.2,0-0.2c0-0.5,0.2-2.1,0.4-3.5c0.1-0.9,0.3-1.8,0.4-2.2c0-0.1,0-0.3,0.1-0.4c0-0.7,0.3-2.9,1.5-3
			C151.1,83.8,152.1,83.4,151.8,81.7z M113.8,88.6c0,1.5-1,4.5-1.9,5.8c-0.9,1.3-1.2,4.6-8.4,5.1c-2.5,0.2-7,0-10.1-1.4
			c0,0-3.2-1-4-7.3c-0.2-1.4-0.3-5.8-0.3-5.8s-0.1-3.3,3.6-3.6c0,0,8.3-1.1,15.4,0.3C115.4,83.2,113.8,86.2,113.8,88.6z M146.9,90.9
			c-0.2,1.4-0.5,2.5-0.8,3.4c-0.1,0.4-0.3,0.8-0.5,1.1c-0.4,0.9-0.9,1.5-1.3,1.9c-0.8,0.8-1.3,1-1.3,1c-3.1,1.4-7.6,1.5-10.1,1.4
			c-6.3-0.5-7.3-3-8.1-4.5c-0.1-0.2-0.2-0.4-0.3-0.6c-0.2-0.3-0.5-0.8-0.7-1.3c-0.4-0.8-0.7-1.9-1-2.8c-0.1-0.5-0.2-1-0.3-1.5
			c0-0.1,0-0.2,0-0.3c0-1.5-0.7-3.3,0.7-4.7c0,0,0.1-0.1,0.2-0.1c0.8-0.8,2.3-1.5,4.8-2c7.1-1.4,15.4-0.3,15.4-0.3
			c1.2,0.1,2,0.6,2.5,1.1c0,0,0.1,0.1,0.1,0.2c0.9,1.1,0.9,2.4,0.9,2.4S147.1,89.4,146.9,90.9z"/>
		<path id="lens-right" class="st8" d="M89.1,85.1c0,0-0.1-3.3,3.6-3.6c0,0,8.3-1.1,15.4,0.3c7.3,1.5,5.7,4.5,5.7,6.8
			c0,1.5-1,4.5-1.9,5.8c-0.9,1.4-1.2,4.6-8.4,5.1c-2.5,0.2-7,0-10.1-1.4c0,0-3.1-1-4-7.3C89.2,89.4,89.1,85.1,89.1,85.1z"/>
		<path id="lens-left" class="st8" d="M147.2,85.1c0,0,0.1-3.3-3.6-3.6c0,0-8.3-1.1-15.4,0.3c-7.3,1.5-5.7,4.5-5.7,6.8
			c0,1.5,1,4.5,1.9,5.8c0.9,1.4,1.2,4.6,8.4,5.1c2.5,0.2,7,0,10.1-1.4c0,0,3.1-1,4-7.3C147.1,89.4,147.2,85.1,147.2,85.1z"/>
	</g>
	<path id="hair" class="st6" d="M88.5,23.8c0,0-2,4.4-1.7,5c0,0,2.8-4.7,4.5-4.8c0,0-0.8,2.7-0.5,3.5l2.4-1.1c0,0,0.2-2.3-0.2-3.1
		c0,0,1.9,1,2.7,2.2c0.2,0.3,0.7,0.3,0.9-0.1c0.5-1,1-2.3,0.6-2.6c-0.5-0.4,2.1,0.9,3,2.5c0.2,0.3,0.7,0.3,0.9,0
		c0.5-1,1.1-2.3,1.1-3.1c0,0,1.2,1.6,1.7,3c0.2,0.6,0.9,0.8,1.4,0.4c1-0.7,2.1-1.8,2-2.8c0,0,0.6,1.3,0.8,2.3c0.1,0.5,0.6,0.7,1,0.5
		c1.2-0.7,2.8-1.8,2.5-2.7c0,0,1.2,1.1,1.7,2c0.1,0.3,0.6,0.4,0.8,0.1c0.8-0.8,1.8-1.9,1.6-2.3c0,0,2.5,2.1,2,3.1
		c-0.5,1,2-0.8,2.3-3.1c0,0,1.2,1.2,1.6,2.5c0.1,0.3,0.5,0.4,0.7,0.2c0.8-0.8,1.9-2.1,1.7-3c-0.3-1.1,1.6,1.1,2,2.8
		c0.1,0.4,0.5,0.5,0.8,0.3c0.9-0.7,2.1-1.9,2.2-3c0,0,3.3,2.8,4,3.6c0.7,0.9,1.2-1.9-1.7-4.2c0,0,5.4,1.6,9.3,5.2
		c0.6,0.6,1.6-0.1,1.3-0.9c-0.4-1.3-1.1-2.5-2-3.1c0,0,8.4,3.8,10.3,9.3c0.2,0.5,0.8,0.5,1,0c0.3-0.9,0.5-2,0.4-2.9
		c0,0,3,3.8,4.4,6.8c1.8,3.8,1,7,0.6,8.3c-0.6,1.9-1.1,2.3-1.1,2.3s4.2,3.3,3.6,13.5c0,0-0.8,22.9-4.6,35.9c0,0-0.1,0.9-2.6,0.1
		c0,0,1.4-16.6-1.4-20.1c-2.8-3.5-4.2-2.6-4.2-2.6s1.4-3.4,0.6-10.3c-0.3-2.8-1-4.6-3.1-6.6c-1-1-4.4-3.3-11-0.3
		c-17.3,9.8-28.4,3-31,2.5c-0.3-0.1-5.4-0.9-5.8-0.9c-5.1,0-7.5,5.4-7.5,5.4c-2.6,8.5,0.5,11.9,0.5,11.9c-2.6,2.3-3.1,2.9-4.4,5.3
		c-2.3,6.9-1.2,15.7-1.2,15.7s-1,0.2-1.9,0.1c0,0-2.4-3.1-7.8-42.1c0,0-1.3-12.6,3.9-19.4c0,0-1.1,5.2-0.3,5.8c0,0,1.3-7.7,3.8-10.8
		c0,0-0.3,7,1,5.5C82,35.8,80.6,28.2,88.5,23.8z"/>
	<path id="ear-line1" class="st9" d="M74,94.7c0,0,1.4-2.3,2.8-1.9s2.3,1,2.3,1s1.3,2.8-0.8,3.4s1,2,1,2"/>
	<path id="ear-line2" class="st9" d="M156.6,91.9c0,0,3-0.6,4.4,1.1s-1.3,2.8-2.2,3.1c-0.8,0.3-3.1,1.1-3.1,1.6c0,0-0.3,1.6,1.4,1.1
		"/>
	<path id="nose" class="st9" d="M113.8,106.8c0,0,4-5,8.2,0"/>
	<path id="nose-shadow" class="st10" d="M122.1,107h-8.4c0.8-1.4,2.4-2.4,4.2-2.4C119.7,104.6,121.3,105.6,122.1,107z"/>
	<path id="lips" class="st11" d="M105.5,121c0,0,13,5,26.8,0"/>
	<path class="st1" d="M68.2,194.3c-0.1,1.1-1.3,15.8-2.2,27.6c-6.3-3.1-12.3-6.8-17.9-10.9c0-8.9,0.1-16.7,0.1-16.7H68.2z"/>
	<path class="st1" d="M191.7,206.9c-5.9,4.9-12.2,9.2-19,12.9c-0.6-11.9-1.2-25.4-1.2-25.4l19.8-0.5
		C191.6,194.7,191.7,200.2,191.7,206.9z"/>
</g>
</svg>
