<?xml version="1.0" encoding="utf-8"?>
<!-- Generator: Adobe Illustrator 21.1.0, SVG Export Plug-In . SVG Version: 6.00 Build 0)  -->
<svg version="1.1" id="Layer_1" xmlns="http://www.w3.org/2000/svg" xmlns:xlink="http://www.w3.org/1999/xlink" x="0px" y="0px"
	 viewBox="0 0 138.5 139.2" style="enable-background:new 0 0 138.5 139.2;" xml:space="preserve">
<style type="text/css">
	.st0{fill:#E6D0B2;}
	.st1{fill:#162123;}
	.st2{fill:#FFFFFF;}
	.st3{opacity:5.000000e-02;}
	.st4{fill:#4A4A4A;}
	.st5{fill:#FAFDFF;}
</style>
<g>
	<g>
		<path class="st0" d="M34.9,57.5c0,0-6.3,3.4-5.3,7.4s14.7,12,14.7,12l-5-18.1L34.9,57.5z"/>
		<path class="st1" d="M30.6,66.7c0,0-7.3,20.8,17.3,22.8l-1.1-1.6c0,0-18.9,0.2-14.8-19.7L30.6,66.7z"/>
		<g id="body">
			<path id="torso" class="st2" d="M78.9,65.9c-5.5-17.4-21.3-19.3-21.3-19.3l-14.2,13l10.8,17.5c3.9,7,8.2,7.7,8.5,7.7
				c1.3-5.5,7-7.4,11.9-9.4c1.7-0.7,2.8-0.3,3.7,0.5C76.1,72.5,75.1,69,78.9,65.9z"/>
			<polygon class="st1" points="81.5,81 82.1,80.6 77.4,74.6 76.8,75.1 			"/>
			<g id="left-leg">
				<path class="st2" d="M116.5,78.6c-2.3-3.1-8.8-2.1-8.8-2.1s-8.8-9-12.7-10.2c-3.9-1.2-16.1-0.4-16.1-0.4l0,0
					c-3.8,3.1-2.8,6.6-0.6,10c0.8,0.8,1.5,1.9,2.2,3c0.4,0.4,0.7,0.9,1.1,1.3c0.2,0.2,0.4,0.4,0.6,0.5l9.4-2.9
					c2.3,2.4,10.3,9,10.3,9C109.1,87.3,118.8,81.7,116.5,78.6z"/>
				<path class="st1" d="M90.4,65.7c0,0-0.4,8.1,1.2,12.1c1.6,3.9,7.9-8.6,7.9-8.6S96.4,63.1,90.4,65.7z"/>
			</g>
			<g id="right-leg">
				<path class="st2" d="M74.5,75.3c-4.8,1.9-10.5,3.9-11.9,9.4l0,0l13.3,9.4c1.8,2.7,2.6,10.6,2.6,10.6c4,8.9,15.2,13.3,16.4,8.1
					c1.2-5.2-5.9-12.3-5.9-12.3c0.3-7.8-3.2-14.1-3.2-14.1c-1-1.7-2.2-3.3-3.4-4.8l-0.7-0.9l0.3-0.1C79.5,78.7,78.9,73.6,74.5,75.3z
					"/>
				<path class="st1" d="M76.5,95.3c7.7,5.6,11.9-3.1,11.3-4.8c-0.2-1.5-1.2-3.1-1.2-3.1c-9.6-4.9-11,6.1-11,6.1
					S75.5,94.4,76.5,95.3z"/>
			</g>
			<path class="st1" d="M77.4,76.6c0.4-0.2,0.7-0.7,0.5-1.2c-1.2-5.7,1.6-8.7,1.7-8.8c0.4-0.4,0.4-1.1,0-1.6c-0.4-0.4-1.1-0.4-1.6,0
				c-0.2,0.2-3.8,3.9-2.3,10.9c0.1,0.6,0.7,1,1.3,0.8C77.2,76.7,77.3,76.7,77.4,76.6z"/>
			<path class="st1" d="M63.2,85.7c0.2-0.1,0.4-0.3,0.5-0.5c0.2-0.4,4.4-9.2,13.8-8.3c0.6,0.1,1.2-0.4,1.2-1c0.1-0.6-0.4-1.2-1-1.2
				c-11-1-16,9.5-16,9.6c-0.3,0.6,0,1.2,0.5,1.5C62.6,85.9,62.9,85.8,63.2,85.7z"/>
			<path class="st1" d="M57.7,49c0,0,12,10.6-4,22.1l-0.5-2.2c0,0,12.3-9,3.5-17.8L57.7,49z"/>
			<g id="left-hand">
				<g>
					<path class="st2" d="M57.8,43.5c0,0,7.2-7,10.9-9.1s12.5-4.6,16.4-5.4c0,0,5.4,3.3,3.2,8c0,0-11.5,5.2-13.8,7.8
						c-2.4,2.7-5.9,6.4-5.9,6.4l-11.7-4L57.8,43.5z"/>
					<path class="st2" d="M84.5,29.1c2.6-4.5,6-5.9,5.7-4.2c-0.3,1.7-0.2,3.4-0.2,3.4s5.3-3,5.5-2c0.2,1.1-3.9,4.1-3.9,4.1
						s5.7-2.5,6.1-1.4c0.4,1-5.6,3.4-5.6,3.4s5.9-2.7,6.3-1.6c0.4,1.1-5.5,3.6-5.5,3.6s5-0.8,3.5,0.6c-1.4,1.3-7.8,1.9-7.8,1.9
						L84.5,29.1z"/>
					<ellipse transform="matrix(0.9326 -0.361 0.361 0.9326 -5.6877 34.4262)" class="st3" cx="89.3" cy="32.4" rx="1.4" ry="3.2"/>
				</g>
				<g>
					<path class="st1" d="M70.8,33.4c0,0,4.2,6.2,5.6,9.9c0,0,0.1,1.2-2,1.6c0,0-5.6-3.5-8.1-8.8C66.3,36,67.7,33.7,70.8,33.4z"/>
					<path class="st1" d="M68.3,51.5l0.4-0.6c-5.9-4.2-10.2-4.6-10.4-4.6L58.2,47C58.3,47.1,62.6,47.5,68.3,51.5z"/>
				</g>
			</g>
			<g>
				<g>
					
						<ellipse transform="matrix(0.8704 -0.4923 0.4923 0.8704 -16.3443 26.5099)" class="st2" cx="42.2" cy="44.3" rx="16.5" ry="16.2"/>
					<path class="st1" d="M47.5,58.4c1.1-0.3,2.2-0.8,3.2-1.4c7.4-4.2,10.1-13.5,6-20.7c-1.8-3.3-4.8-5.6-8.2-6.7h-0.2
						c-0.5-0.2-1.1,0.3-1.1,0.8c0,2.3-1.5,7.9-14.2,13.2c-0.8,0.3-1.1,1.2-0.8,1.9c1.6,3.3,6.3,11.9,14.6,13.1L47.5,58.4z"/>
				</g>
				<g id="right-hand">
					<g>
						<path class="st2" d="M55,95.7c0,0,5.4,7.1,7.2,7.8c1.8,0.8-0.8-3.5-0.8-3.5s4.6,4.3,5.4,3.5s-3.9-5.1-3.9-5.1s4.5,4.6,5.3,3.8
							c0.8-0.8-3.6-5-3.6-5s4.3,2.6,5.2,2S65.9,95,65.9,95s1.5-0.7,3.2-1.1S68.2,91,63,90.4L55,95.7z"/>
						<path class="st2" d="M40.3,61.3c0,0,6.9-4.6,11.7,0.3c0,0,2.1,6.1,2.2,15.4c0,0,0.5,2.4,2.9,5.6s6.1,7.4,6.1,7.4
							s-1.5,4.1-8.1,5.6c0,0-8.3-5.8-11.7-13.5C39.8,74.4,40.3,61.3,40.3,61.3z"/>
					</g>
					<g>
						<path class="st1" d="M55.2,79.7c0,0-9.2,5-11.9,2.4c0,0,0.4,1.8,2.9,4.8c0,0,6-1.1,9.8-5.9C56,81.1,56.3,80.7,55.2,79.7z"/>
						<path class="st1" d="M53,63.8c0.1,0,0.1-0.1,0.2-0.1c0.6-0.5,0.7-1.5,0.2-2.1c-4.8-5.9-11.3-3.5-14.1-1.4
							c-0.7,0.5-0.8,1.4-0.3,2.1c0.5,0.6,1.4,0.8,2.1,0.3c0.6-0.4,5.8-4.1,10,0.9C51.6,64,52.4,64.2,53,63.8z"/>
					</g>
				</g>
			</g>
		</g>
		<path class="st4" d="M56.6,37.7c-1.6-3.4-7.6-4.5-11.2-1.4c-3.6,3.1-6.5,8.7-3.4,12C45.1,51.6,60.7,46.4,56.6,37.7"/>
		<path class="st2" d="M49.5,36.5c3.6-0.8,4,3.5,1.6,4.4C48.7,41.8,46.7,37.1,49.5,36.5"/>
		<g>
			<path class="st1" d="M66.1,56.5c0,0-7.9,6.7-9.3,8.9c0,0,6.7,8.2,7.9,9.4c0,0,8.7-8.1,9.2-9.6C74,65.2,67.6,57.5,66.1,56.5"/>
			<path class="st5" d="M66,57.2c0,0-7.2,6.2-8.5,8.2c0,0,6.2,7.6,7.2,8.6c0,0,8-7.4,8.5-8.8C73.3,65.3,67.4,58.2,66,57.2"/>
			<path class="st1" d="M65.7,59.2c0,0-2,1.9-2.1,2.3c0,0,5.3,6.4,5.6,6.7c0,0,1.6-1.8,2-2.2C71.6,65.6,65.7,59.2,65.7,59.2"/>
			<path class="st1" d="M60.9,65.7c0.6,0.1,1.2-0.3,1.4-0.9c0.1-0.6-0.2-1.2-0.9-1.4c-0.6-0.1-1.2,0.3-1.4,0.9
				C59.9,64.9,60.3,65.6,60.9,65.7"/>
			<path class="st1" d="M63.2,68c0.6,0.1,1.2-0.3,1.4-0.9c0.1-0.6-0.2-1.2-0.9-1.4c-0.6-0.1-1.2,0.3-1.3,0.9
				C62.2,67.2,62.6,67.9,63.2,68"/>
			<path class="st1" d="M65.7,70.9c0.6,0.1,1.2-0.3,1.4-0.9c0.1-0.6-0.2-1.2-0.9-1.4c-0.6-0.1-1.2,0.3-1.4,0.9
				C64.7,70.2,65.1,70.8,65.7,70.9"/>
		</g>
		<polygon class="st1" points="71.5,74.8 75,71.2 73.3,69.5 69.8,73.2 		"/>
	</g>
	<path class="st1" d="M28.1,51.6c0.6-2.7,6.5-1.4,8.3,1.7c1.8,3.1,0.8,5.3-0.8,6.1C33.4,60.7,27.1,55.9,28.1,51.6"/>
</g>
</svg>
