<?xml version="1.0" encoding="utf-8"?>
<!-- Generator: Adobe Illustrator 21.1.0, SVG Export Plug-In . SVG Version: 6.00 Build 0)  -->
<svg version="1.1" id="Layer_1" xmlns="http://www.w3.org/2000/svg" xmlns:xlink="http://www.w3.org/1999/xlink" x="0px" y="0px"
	 viewBox="0 0 768 1024" style="enable-background:new 0 0 768 1024;" xml:space="preserve">
<style type="text/css">
	.st0{fill:#D8D8D8;}
	.st1{fill:#595959;}
	.st2{display:none;}
</style>
<symbol  id="sparkles" viewBox="-2.8 -2.9 5.6 5.8">
	<g>
		<g>
			<path class="st0" d="M0-2.9c3.7,0,3.7,5.8,0,5.8S-3.7-2.9,0-2.9L0-2.9z"/>
		</g>
	</g>
</symbol>
<symbol  id="star" viewBox="-1.2 -1.3 2.4 2.5">
	<g>
		<g>
			<path class="st1" d="M0-1.3c1.6,0,1.6,2.5,0,2.5S-1.6-1.3,0-1.3L0-1.3z"/>
		</g>
	</g>
</symbol>
<rect y="2.4" class="st2" width="768" height="1024"/>
<g>
	
		<use xlink:href="#sparkles"  width="5.6" height="5.8" x="-2.8" y="-2.9" transform="matrix(1 0 0 -1 6.3502 18.2675)" style="overflow:visible;"/>
	
		<use xlink:href="#sparkles"  width="5.6" height="5.8" x="-2.8" y="-2.9" transform="matrix(1 0 0 -1 206.6196 50.4916)" style="overflow:visible;"/>
	
		<use xlink:href="#sparkles"  width="5.6" height="5.8" x="-2.8" y="-2.9" transform="matrix(1 0 0 -1 54.9469 233.185)" style="overflow:visible;"/>
	
		<use xlink:href="#sparkles"  width="5.6" height="5.8" x="-2.8" y="-2.9" transform="matrix(1 0 0 -1 595.5569 44.7351)" style="overflow:visible;"/>
	
		<use xlink:href="#sparkles"  width="5.6" height="5.8" x="-2.8" y="-2.9" transform="matrix(1 0 0 -1 747.3711 30.44)" style="overflow:visible;"/>
	
		<use xlink:href="#sparkles"  width="5.6" height="5.8" x="-2.8" y="-2.9" transform="matrix(1 0 0 -1 308.9264 311.9986)" style="overflow:visible;"/>
	
		<use xlink:href="#sparkles"  width="5.6" height="5.8" x="-2.8" y="-2.9" transform="matrix(1 0 0 -1 242.6147 201.428)" style="overflow:visible;"/>
	
		<use xlink:href="#sparkles"  width="5.6" height="5.8" x="-2.8" y="-2.9" transform="matrix(1 0 0 -1 651.0502 234.7865)" style="overflow:visible;"/>
	
		<use xlink:href="#sparkles"  width="5.6" height="5.8" x="-2.8" y="-2.9" transform="matrix(1 0 0 -1 750.799 434.5779)" style="overflow:visible;"/>
	
		<use xlink:href="#sparkles"  width="5.6" height="5.8" x="-2.8" y="-2.9" transform="matrix(1 0 0 -1 10.1801 407.3516)" style="overflow:visible;"/>
	
		<use xlink:href="#sparkles"  width="5.6" height="5.8" x="-2.8" y="-2.9" transform="matrix(1 0 0 -1 313.5809 518.3068)" style="overflow:visible;"/>
	
		<use xlink:href="#sparkles"  width="5.6" height="5.8" x="-2.8" y="-2.9" transform="matrix(1 0 0 -1 683.2259 519.0919)" style="overflow:visible;"/>
	
		<use xlink:href="#sparkles"  width="5.6" height="5.8" x="-2.8" y="-2.9" transform="matrix(1 0 0 -1 516.6802 417.5606)" style="overflow:visible;"/>
	
		<use xlink:href="#sparkles"  width="5.6" height="5.8" x="-2.8" y="-2.9" transform="matrix(1 0 0 -1 414.1349 5.3095)" style="overflow:visible;"/>
	
		<use xlink:href="#sparkles"  width="5.6" height="5.8" x="-2.8" y="-2.9" transform="matrix(1 0 0 -1 755.9087 149.5815)" style="overflow:visible;"/>
	
		<use xlink:href="#star"  width="2.4" height="2.5" x="-1.2" y="-1.3" transform="matrix(1 0 0 -1 23.3445 37.4298)" style="overflow:visible;"/>
	
		<use xlink:href="#star"  width="2.4" height="2.5" x="-1.2" y="-1.3" transform="matrix(1 0 0 -1 134.191 38.4449)" style="overflow:visible;"/>
	
		<use xlink:href="#star"  width="2.4" height="2.5" x="-1.2" y="-1.3" transform="matrix(1 0 0 -1 88.5888 187.342)" style="overflow:visible;"/>
	
		<use xlink:href="#star"  width="2.4" height="2.5" x="-1.2" y="-1.3" transform="matrix(1 0 0 -1 287.0641 141.0092)" style="overflow:visible;"/>
	
		<use xlink:href="#star"  width="2.4" height="2.5" x="-1.2" y="-1.3" transform="matrix(1 0 0 -1 82.0551 108.9127)" style="overflow:visible;"/>
	
		<use xlink:href="#star"  width="2.4" height="2.5" x="-1.2" y="-1.3" transform="matrix(1 0 0 -1 54.1605 196.4463)" style="overflow:visible;"/>
	
		<use xlink:href="#star"  width="2.4" height="2.5" x="-1.2" y="-1.3" transform="matrix(1 0 0 -1 177.3194 315.9417)" style="overflow:visible;"/>
	
		<use xlink:href="#star"  width="2.4" height="2.5" x="-1.2" y="-1.3" transform="matrix(1 0 0 -1 465.4926 226.5563)" style="overflow:visible;"/>
	
		<use xlink:href="#star"  width="2.4" height="2.5" x="-1.2" y="-1.3" transform="matrix(1 0 0 -1 602.905 335.1411)" style="overflow:visible;"/>
	
		<use xlink:href="#star"  width="2.4" height="2.5" x="-1.2" y="-1.3" transform="matrix(1 0 0 -1 461.1167 90.0049)" style="overflow:visible;"/>
	
		<use xlink:href="#star"  width="2.4" height="2.5" x="-1.2" y="-1.3" transform="matrix(1 0 0 -1 291.0465 56.552)" style="overflow:visible;"/>
	
		<use xlink:href="#star"  width="2.4" height="2.5" x="-1.2" y="-1.3" transform="matrix(1 0 0 -1 630.8203 46.5744)" style="overflow:visible;"/>
	
		<use xlink:href="#star"  width="2.4" height="2.5" x="-1.2" y="-1.3" transform="matrix(1 0 0 -1 714.8092 152.5761)" style="overflow:visible;"/>
	
		<use xlink:href="#star"  width="2.4" height="2.5" x="-1.2" y="-1.3" transform="matrix(1 0 0 -1 738.2844 78.1757)" style="overflow:visible;"/>
	
		<use xlink:href="#star"  width="2.4" height="2.5" x="-1.2" y="-1.3" transform="matrix(1 0 0 -1 572.8061 139.4761)" style="overflow:visible;"/>
	
		<use xlink:href="#star"  width="2.4" height="2.5" x="-1.2" y="-1.3" transform="matrix(1 0 0 -1 743.7451 332.9761)" style="overflow:visible;"/>
	
		<use xlink:href="#star"  width="2.4" height="2.5" x="-1.2" y="-1.3" transform="matrix(1 0 0 -1 613.8088 478.8502)" style="overflow:visible;"/>
	
		<use xlink:href="#star"  width="2.4" height="2.5" x="-1.2" y="-1.3" transform="matrix(1 0 0 -1 454.4901 328.942)" style="overflow:visible;"/>
	
		<use xlink:href="#star"  width="2.4" height="2.5" x="-1.2" y="-1.3" transform="matrix(1 0 0 -1 348.7087 515.2219)" style="overflow:visible;"/>
	
		<use xlink:href="#star"  width="2.4" height="2.5" x="-1.2" y="-1.3" transform="matrix(1 0 0 -1 225.74 380.4474)" style="overflow:visible;"/>
	
		<use xlink:href="#star"  width="2.4" height="2.5" x="-1.2" y="-1.3" transform="matrix(1 0 0 -1 504.4477 506.3661)" style="overflow:visible;"/>
	
		<use xlink:href="#star"  width="2.4" height="2.5" x="-1.2" y="-1.3" transform="matrix(1 0 0 -1 367.0367 403.6367)" style="overflow:visible;"/>
	
		<use xlink:href="#star"  width="2.4" height="2.5" x="-1.2" y="-1.3" transform="matrix(1 0 0 -1 77.8143 341.1516)" style="overflow:visible;"/>
	
		<use xlink:href="#star"  width="2.4" height="2.5" x="-1.2" y="-1.3" transform="matrix(1 0 0 -1 22.4636 249.1168)" style="overflow:visible;"/>
	
		<use xlink:href="#star"  width="2.4" height="2.5" x="-1.2" y="-1.3" transform="matrix(1 0 0 -1 28.2758 247.6034)" style="overflow:visible;"/>
	
		<use xlink:href="#star"  width="2.4" height="2.5" x="-1.2" y="-1.3" transform="matrix(1 0 0 -1 119.0302 500.2389)" style="overflow:visible;"/>
	
		<use xlink:href="#star"  width="2.4" height="2.5" x="-1.2" y="-1.3" transform="matrix(1 0 0 -1 42.6299 459.966)" style="overflow:visible;"/>
	
		<use xlink:href="#star"  width="2.4" height="2.5" x="-1.2" y="-1.3" transform="matrix(1 0 0 -1 404.3431 594.5758)" style="overflow:visible;"/>
	
		<use xlink:href="#star"  width="2.4" height="2.5" x="-1.2" y="-1.3" transform="matrix(1 0 0 -1 177.5929 611.8151)" style="overflow:visible;"/>
	
		<use xlink:href="#star"  width="2.4" height="2.5" x="-1.2" y="-1.3" transform="matrix(1 0 0 -1 62.3558 598.6831)" style="overflow:visible;"/>
	
		<use xlink:href="#star"  width="2.4" height="2.5" x="-1.2" y="-1.3" transform="matrix(1 0 0 -1 708.3038 592.5046)" style="overflow:visible;"/>
	
		<use xlink:href="#star"  width="2.4" height="2.5" x="-1.2" y="-1.3" transform="matrix(1 0 0 -1 703.0159 660.6845)" style="overflow:visible;"/>
	
		<use xlink:href="#star"  width="2.4" height="2.5" x="-1.2" y="-1.3" transform="matrix(1 0 0 -1 169.6397 508.4092)" style="overflow:visible;"/>
	
		<use xlink:href="#star"  width="2.4" height="2.5" x="-1.2" y="-1.3" transform="matrix(1 0 0 -1 576.6177 559.6106)" style="overflow:visible;"/>
	
		<use xlink:href="#star"  width="2.4" height="2.5" x="-1.2" y="-1.3" transform="matrix(1 0 0 -1 700.1976 385.2392)" style="overflow:visible;"/>
	
		<use xlink:href="#star"  width="2.4" height="2.5" x="-1.2" y="-1.3" transform="matrix(1 0 0 -1 434.2885 393.5501)" style="overflow:visible;"/>
	
		<use xlink:href="#star"  width="2.4" height="2.5" x="-1.2" y="-1.3" transform="matrix(1 0 0 -1 381.2478 245.5358)" style="overflow:visible;"/>
	
		<use xlink:href="#star"  width="2.4" height="2.5" x="-1.2" y="-1.3" transform="matrix(1 0 0 -1 21.7669 638.918)" style="overflow:visible;"/>
	
		<use xlink:href="#star"  width="2.4" height="2.5" x="-1.2" y="-1.3" transform="matrix(1 0 0 -1 394.1396 640.072)" style="overflow:visible;"/>
</g>
<g>
	
		<use xlink:href="#sparkles"  width="5.6" height="5.8" x="-2.8" y="-2.9" transform="matrix(-1 0 0 -1 479.9087 169.2675)" style="overflow:visible;"/>
	
		<use xlink:href="#sparkles"  width="5.6" height="5.8" x="-2.8" y="-2.9" transform="matrix(-1 0 0 -1 559.6393 671.4916)" style="overflow:visible;"/>
	
		<use xlink:href="#sparkles"  width="5.6" height="5.8" x="-2.8" y="-2.9" transform="matrix(-1 0 0 -1 721.312 794.185)" style="overflow:visible;"/>
	
		<use xlink:href="#sparkles"  width="5.6" height="5.8" x="-2.8" y="-2.9" transform="matrix(-1 0 0 -1 78.8878 671.44)" style="overflow:visible;"/>
	
		<use xlink:href="#sparkles"  width="5.6" height="5.8" x="-2.8" y="-2.9" transform="matrix(-1 0 0 -1 523.6442 822.428)" style="overflow:visible;"/>
	
		<use xlink:href="#sparkles"  width="5.6" height="5.8" x="-2.8" y="-2.9" transform="matrix(-1 0 0 -1 185.2087 865.7865)" style="overflow:visible;"/>
	
		<use xlink:href="#sparkles"  width="5.6" height="5.8" x="-2.8" y="-2.9" transform="matrix(-1 0 0 -1 352.124 626.3095)" style="overflow:visible;"/>
	
		<use xlink:href="#star"  width="2.4" height="2.5" x="-1.2" y="-1.3" transform="matrix(-1 0 0 -1 742.9144 658.4298)" style="overflow:visible;"/>
	
		<use xlink:href="#star"  width="2.4" height="2.5" x="-1.2" y="-1.3" transform="matrix(-1 0 0 -1 632.0679 659.4449)" style="overflow:visible;"/>
	
		<use xlink:href="#star"  width="2.4" height="2.5" x="-1.2" y="-1.3" transform="matrix(-1 0 0 -1 677.6701 808.342)" style="overflow:visible;"/>
	
		<use xlink:href="#star"  width="2.4" height="2.5" x="-1.2" y="-1.3" transform="matrix(-1 0 0 -1 479.1948 762.0092)" style="overflow:visible;"/>
	
		<use xlink:href="#star"  width="2.4" height="2.5" x="-1.2" y="-1.3" transform="matrix(-1 0 0 -1 684.2038 729.9127)" style="overflow:visible;"/>
	
		<use xlink:href="#star"  width="2.4" height="2.5" x="-1.2" y="-1.3" transform="matrix(-1 0 0 -1 712.0984 817.4463)" style="overflow:visible;"/>
	
		<use xlink:href="#star"  width="2.4" height="2.5" x="-1.2" y="-1.3" transform="matrix(-1 0 0 -1 588.9395 936.9417)" style="overflow:visible;"/>
	
		<use xlink:href="#star"  width="2.4" height="2.5" x="-1.2" y="-1.3" transform="matrix(-1 0 0 -1 300.7663 847.5563)" style="overflow:visible;"/>
	
		<use xlink:href="#star"  width="2.4" height="2.5" x="-1.2" y="-1.3" transform="matrix(-1 0 0 -1 163.3539 956.1411)" style="overflow:visible;"/>
	
		<use xlink:href="#star"  width="2.4" height="2.5" x="-1.2" y="-1.3" transform="matrix(-1 0 0 -1 305.1422 711.0049)" style="overflow:visible;"/>
	
		<use xlink:href="#star"  width="2.4" height="2.5" x="-1.2" y="-1.3" transform="matrix(-1 0 0 -1 475.2124 677.552)" style="overflow:visible;"/>
	
		<use xlink:href="#star"  width="2.4" height="2.5" x="-1.2" y="-1.3" transform="matrix(-1 0 0 -1 135.4386 667.5744)" style="overflow:visible;"/>
	
		<use xlink:href="#star"  width="2.4" height="2.5" x="-1.2" y="-1.3" transform="matrix(-1 0 0 -1 51.4497 773.5761)" style="overflow:visible;"/>
	
		<use xlink:href="#star"  width="2.4" height="2.5" x="-1.2" y="-1.3" transform="matrix(-1 0 0 -1 27.9745 699.1757)" style="overflow:visible;"/>
	
		<use xlink:href="#star"  width="2.4" height="2.5" x="-1.2" y="-1.3" transform="matrix(-1 0 0 -1 193.4528 760.4761)" style="overflow:visible;"/>
	
		<use xlink:href="#star"  width="2.4" height="2.5" x="-1.2" y="-1.3" transform="matrix(-1 0 0 -1 22.5138 953.9761)" style="overflow:visible;"/>
	
		<use xlink:href="#star"  width="2.4" height="2.5" x="-1.2" y="-1.3" transform="matrix(-1 0 0 -1 311.7688 949.942)" style="overflow:visible;"/>
	
		<use xlink:href="#star"  width="2.4" height="2.5" x="-1.2" y="-1.3" transform="matrix(-1 0 0 -1 540.5189 1001.4474)" style="overflow:visible;"/>
	
		<use xlink:href="#star"  width="2.4" height="2.5" x="-1.2" y="-1.3" transform="matrix(-1 0 0 -1 688.4446 962.1516)" style="overflow:visible;"/>
	
		<use xlink:href="#star"  width="2.4" height="2.5" x="-1.2" y="-1.3" transform="matrix(-1 0 0 -1 743.7953 870.1168)" style="overflow:visible;"/>
	
		<use xlink:href="#star"  width="2.4" height="2.5" x="-1.2" y="-1.3" transform="matrix(-1 0 0 -1 737.9831 868.6034)" style="overflow:visible;"/>
	
		<use xlink:href="#star"  width="2.4" height="2.5" x="-1.2" y="-1.3" transform="matrix(-1 0 0 -1 63.243 1281.6846)" style="overflow:visible;"/>
	
		<use xlink:href="#star"  width="2.4" height="2.5" x="-1.2" y="-1.3" transform="matrix(-1 0 0 -1 66.0613 1006.2392)" style="overflow:visible;"/>
	
		<use xlink:href="#star"  width="2.4" height="2.5" x="-1.2" y="-1.3" transform="matrix(-1 0 0 -1 331.9704 1014.5501)" style="overflow:visible;"/>
	
		<use xlink:href="#star"  width="2.4" height="2.5" x="-1.2" y="-1.3" transform="matrix(-1 0 0 -1 385.0111 866.5358)" style="overflow:visible;"/>
</g>
</svg>
