<?xml version="1.0" encoding="utf-8"?>
<!-- Generator: Adobe Illustrator 21.1.0, SVG Export Plug-In . SVG Version: 6.00 Build 0)  -->
<svg version="1.1" id="Layer_1" xmlns="http://www.w3.org/2000/svg" xmlns:xlink="http://www.w3.org/1999/xlink" x="0px" y="0px"
	 viewBox="0 0 750 1334" style="enable-background:new 0 0 750 1334;" xml:space="preserve">
<style type="text/css">
	.st0{fill:#D8D8D8;}
	.st1{fill:#595959;}
	.st2{display:none;}
</style>
<symbol  id="sparkles" viewBox="-2.8 -2.9 5.6 5.8">
	<g>
		<g>
			<path class="st0" d="M0-2.9c3.7,0,3.7,5.8,0,5.8S-3.7-2.9,0-2.9L0-2.9z"/>
		</g>
	</g>
</symbol>
<symbol  id="star" viewBox="-1.2 -1.3 2.4 2.5">
	<g>
		<g>
			<path class="st1" d="M0-1.3c1.6,0,1.6,2.5,0,2.5S-1.6-1.3,0-1.3L0-1.3z"/>
		</g>
	</g>
</symbol>
<rect x="1.9" class="st2" width="750" height="1334"/>
<g>
	
		<use xlink:href="#sparkles"  width="5.6" height="5.8" x="-2.8" y="-2.9" transform="matrix(1 0 0 -1 21.6823 30.1495)" style="overflow:visible;"/>
	
		<use xlink:href="#sparkles"  width="5.6" height="5.8" x="-2.8" y="-2.9" transform="matrix(1 0 0 -1 317.986 64.7342)" style="overflow:visible;"/>
	
		<use xlink:href="#sparkles"  width="5.6" height="5.8" x="-2.8" y="-2.9" transform="matrix(1 0 0 -1 48.659 179.2904)" style="overflow:visible;"/>
	
		<use xlink:href="#sparkles"  width="5.6" height="5.8" x="-2.8" y="-2.9" transform="matrix(1 0 0 -1 511.8134 192.5117)" style="overflow:visible;"/>
	
		<use xlink:href="#sparkles"  width="5.6" height="5.8" x="-2.8" y="-2.9" transform="matrix(1 0 0 -1 713.6365 24.2215)" style="overflow:visible;"/>
	
		<use xlink:href="#sparkles"  width="5.6" height="5.8" x="-2.8" y="-2.9" transform="matrix(1 0 0 -1 731.7781 407.7223)" style="overflow:visible;"/>
	
		<use xlink:href="#sparkles"  width="5.6" height="5.8" x="-2.8" y="-2.9" transform="matrix(1 0 0 -1 259.2847 349.1899)" style="overflow:visible;"/>
	
		<use xlink:href="#sparkles"  width="5.6" height="5.8" x="-2.8" y="-2.9" transform="matrix(1 0 0 -1 51.7128 528.1725)" style="overflow:visible;"/>
	
		<use xlink:href="#sparkles"  width="5.6" height="5.8" x="-2.8" y="-2.9" transform="matrix(1 0 0 -1 1.86 366.8956)" style="overflow:visible;"/>
	
		<use xlink:href="#sparkles"  width="5.6" height="5.8" x="-2.8" y="-2.9" transform="matrix(1 0 0 -1 546.3844 380.6487)" style="overflow:visible;"/>
	
		<use xlink:href="#sparkles"  width="5.6" height="5.8" x="-2.8" y="-2.9" transform="matrix(1 0 0 -1 699.7273 681.8525)" style="overflow:visible;"/>
	
		<use xlink:href="#star"  width="2.4" height="2.5" x="-1.2" y="-1.3" transform="matrix(1 0 0 -1 662.3326 150.5936)" style="overflow:visible;"/>
	
		<use xlink:href="#star"  width="2.4" height="2.5" x="-1.2" y="-1.3" transform="matrix(1 0 0 -1 721.1793 212.1606)" style="overflow:visible;"/>
	
		<use xlink:href="#star"  width="2.4" height="2.5" x="-1.2" y="-1.3" transform="matrix(1 0 0 -1 508.707 281.4252)" style="overflow:visible;"/>
	
		<use xlink:href="#star"  width="2.4" height="2.5" x="-1.2" y="-1.3" transform="matrix(1 0 0 -1 439.3553 377.7668)" style="overflow:visible;"/>
	
		<use xlink:href="#star"  width="2.4" height="2.5" x="-1.2" y="-1.3" transform="matrix(1 0 0 -1 304.3007 469.6808)" style="overflow:visible;"/>
	
		<use xlink:href="#star"  width="2.4" height="2.5" x="-1.2" y="-1.3" transform="matrix(1 0 0 -1 119.5948 416.9576)" style="overflow:visible;"/>
	
		<use xlink:href="#star"  width="2.4" height="2.5" x="-1.2" y="-1.3" transform="matrix(1 0 0 -1 47.2761 657.8103)" style="overflow:visible;"/>
	
		<use xlink:href="#star"  width="2.4" height="2.5" x="-1.2" y="-1.3" transform="matrix(1 0 0 -1 224.6255 633.6377)" style="overflow:visible;"/>
	
		<use xlink:href="#star"  width="2.4" height="2.5" x="-1.2" y="-1.3" transform="matrix(1 0 0 -1 72.9898 596.1569)" style="overflow:visible;"/>
	
		<use xlink:href="#star"  width="2.4" height="2.5" x="-1.2" y="-1.3" transform="matrix(1 0 0 -1 11.1609 401.0334)" style="overflow:visible;"/>
	
		<use xlink:href="#star"  width="2.4" height="2.5" x="-1.2" y="-1.3" transform="matrix(1 0 0 -1 83.4264 263.5573)" style="overflow:visible;"/>
	
		<use xlink:href="#star"  width="2.4" height="2.5" x="-1.2" y="-1.3" transform="matrix(1 0 0 -1 235.2282 257.2286)" style="overflow:visible;"/>
	
		<use xlink:href="#star"  width="2.4" height="2.5" x="-1.2" y="-1.3" transform="matrix(1 0 0 -1 60.9152 117.3407)" style="overflow:visible;"/>
	
		<use xlink:href="#star"  width="2.4" height="2.5" x="-1.2" y="-1.3" transform="matrix(1 0 0 -1 233.7354 34.6717)" style="overflow:visible;"/>
	
		<use xlink:href="#star"  width="2.4" height="2.5" x="-1.2" y="-1.3" transform="matrix(1 0 0 -1 167.5779 10.5641)" style="overflow:visible;"/>
	
		<use xlink:href="#star"  width="2.4" height="2.5" x="-1.2" y="-1.3" transform="matrix(1 0 0 -1 523.6696 6.0167)" style="overflow:visible;"/>
	
		<use xlink:href="#star"  width="2.4" height="2.5" x="-1.2" y="-1.3" transform="matrix(1 0 0 -1 629.6996 15.9387)" style="overflow:visible;"/>
	
		<use xlink:href="#star"  width="2.4" height="2.5" x="-1.2" y="-1.3" transform="matrix(1 0 0 -1 628.1974 20.3113)" style="overflow:visible;"/>
	
		<use xlink:href="#star"  width="2.4" height="2.5" x="-1.2" y="-1.3" transform="matrix(1 0 0 -1 426.0774 117.3815)" style="overflow:visible;"/>
	
		<use xlink:href="#star"  width="2.4" height="2.5" x="-1.2" y="-1.3" transform="matrix(1 0 0 -1 635.3834 326.4393)" style="overflow:visible;"/>
	
		<use xlink:href="#star"  width="2.4" height="2.5" x="-1.2" y="-1.3" transform="matrix(1 0 0 -1 454.4277 528.3081)" style="overflow:visible;"/>
	
		<use xlink:href="#star"  width="2.4" height="2.5" x="-1.2" y="-1.3" transform="matrix(1 0 0 -1 526.5637 617.4136)" style="overflow:visible;"/>
	
		<use xlink:href="#star"  width="2.4" height="2.5" x="-1.2" y="-1.3" transform="matrix(1 0 0 -1 686.3716 540.0898)" style="overflow:visible;"/>
	
		<use xlink:href="#star"  width="2.4" height="2.5" x="-1.2" y="-1.3" transform="matrix(1 0 0 -1 734.8676 561.1514)" style="overflow:visible;"/>
	
		<use xlink:href="#star"  width="2.4" height="2.5" x="-1.2" y="-1.3" transform="matrix(1 0 0 -1 739.2976 627.4276)" style="overflow:visible;"/>
	
		<use xlink:href="#star"  width="2.4" height="2.5" x="-1.2" y="-1.3" transform="matrix(1 0 0 -1 562.9615 457.6247)" style="overflow:visible;"/>
	
		<use xlink:href="#star"  width="2.4" height="2.5" x="-1.2" y="-1.3" transform="matrix(1 0 0 -1 739.318 272.4727)" style="overflow:visible;"/>
</g>
<g>
	
		<use xlink:href="#sparkles"  width="5.6" height="5.8" x="-2.8" y="-2.9" transform="matrix(1 0 0 -1 524.8134 820.5117)" style="overflow:visible;"/>
	
		<use xlink:href="#sparkles"  width="5.6" height="5.8" x="-2.8" y="-2.9" transform="matrix(1 0 0 -1 694.7781 965.7223)" style="overflow:visible;"/>
	
		<use xlink:href="#sparkles"  width="5.6" height="5.8" x="-2.8" y="-2.9" transform="matrix(1 0 0 -1 84.7128 1166.1725)" style="overflow:visible;"/>
	
		<use xlink:href="#sparkles"  width="5.6" height="5.8" x="-2.8" y="-2.9" transform="matrix(1 0 0 -1 14.86 874.8956)" style="overflow:visible;"/>
	
		<use xlink:href="#sparkles"  width="5.6" height="5.8" x="-2.8" y="-2.9" transform="matrix(1 0 0 -1 523.9565 1119.3844)" style="overflow:visible;"/>
	
		<use xlink:href="#star"  width="2.4" height="2.5" x="-1.2" y="-1.3" transform="matrix(1 0 0 -1 675.3326 778.5936)" style="overflow:visible;"/>
	
		<use xlink:href="#star"  width="2.4" height="2.5" x="-1.2" y="-1.3" transform="matrix(1 0 0 -1 734.1793 840.1606)" style="overflow:visible;"/>
	
		<use xlink:href="#star"  width="2.4" height="2.5" x="-1.2" y="-1.3" transform="matrix(1 0 0 -1 521.707 909.4252)" style="overflow:visible;"/>
	
		<use xlink:href="#star"  width="2.4" height="2.5" x="-1.2" y="-1.3" transform="matrix(1 0 0 -1 452.3553 1005.7668)" style="overflow:visible;"/>
	
		<use xlink:href="#star"  width="2.4" height="2.5" x="-1.2" y="-1.3" transform="matrix(1 0 0 -1 317.3007 1097.6808)" style="overflow:visible;"/>
	
		<use xlink:href="#star"  width="2.4" height="2.5" x="-1.2" y="-1.3" transform="matrix(1 0 0 -1 132.5948 1044.9576)" style="overflow:visible;"/>
	
		<use xlink:href="#star"  width="2.4" height="2.5" x="-1.2" y="-1.3" transform="matrix(1 0 0 -1 60.2761 1285.8103)" style="overflow:visible;"/>
	
		<use xlink:href="#star"  width="2.4" height="2.5" x="-1.2" y="-1.3" transform="matrix(1 0 0 -1 237.6255 1261.6377)" style="overflow:visible;"/>
	
		<use xlink:href="#star"  width="2.4" height="2.5" x="-1.2" y="-1.3" transform="matrix(1 0 0 -1 85.9898 1224.1569)" style="overflow:visible;"/>
	
		<use xlink:href="#star"  width="2.4" height="2.5" x="-1.2" y="-1.3" transform="matrix(1 0 0 -1 24.1609 1029.0334)" style="overflow:visible;"/>
	
		<use xlink:href="#star"  width="2.4" height="2.5" x="-1.2" y="-1.3" transform="matrix(1 0 0 -1 96.4264 891.5573)" style="overflow:visible;"/>
	
		<use xlink:href="#star"  width="2.4" height="2.5" x="-1.2" y="-1.3" transform="matrix(1 0 0 -1 248.2282 885.2286)" style="overflow:visible;"/>
	
		<use xlink:href="#star"  width="2.4" height="2.5" x="-1.2" y="-1.3" transform="matrix(1 0 0 -1 73.9152 745.3407)" style="overflow:visible;"/>
	
		<use xlink:href="#star"  width="2.4" height="2.5" x="-1.2" y="-1.3" transform="matrix(1 0 0 -1 246.7354 662.6717)" style="overflow:visible;"/>
	
		<use xlink:href="#star"  width="2.4" height="2.5" x="-1.2" y="-1.3" transform="matrix(1 0 0 -1 180.5779 638.5641)" style="overflow:visible;"/>
	
		<use xlink:href="#star"  width="2.4" height="2.5" x="-1.2" y="-1.3" transform="matrix(1 0 0 -1 536.6696 634.0167)" style="overflow:visible;"/>
	
		<use xlink:href="#star"  width="2.4" height="2.5" x="-1.2" y="-1.3" transform="matrix(1 0 0 -1 642.6996 643.9387)" style="overflow:visible;"/>
	
		<use xlink:href="#star"  width="2.4" height="2.5" x="-1.2" y="-1.3" transform="matrix(1 0 0 -1 641.1974 648.3113)" style="overflow:visible;"/>
	
		<use xlink:href="#star"  width="2.4" height="2.5" x="-1.2" y="-1.3" transform="matrix(1 0 0 -1 439.0774 745.3815)" style="overflow:visible;"/>
	
		<use xlink:href="#star"  width="2.4" height="2.5" x="-1.2" y="-1.3" transform="matrix(1 0 0 -1 648.3834 954.4393)" style="overflow:visible;"/>
	
		<use xlink:href="#star"  width="2.4" height="2.5" x="-1.2" y="-1.3" transform="matrix(1 0 0 -1 467.4277 1156.3081)" style="overflow:visible;"/>
	
		<use xlink:href="#star"  width="2.4" height="2.5" x="-1.2" y="-1.3" transform="matrix(1 0 0 -1 539.5637 1245.4136)" style="overflow:visible;"/>
	
		<use xlink:href="#star"  width="2.4" height="2.5" x="-1.2" y="-1.3" transform="matrix(1 0 0 -1 699.3716 1168.0898)" style="overflow:visible;"/>
	
		<use xlink:href="#star"  width="2.4" height="2.5" x="-1.2" y="-1.3" transform="matrix(1 0 0 -1 747.8676 1189.1514)" style="overflow:visible;"/>
	
		<use xlink:href="#star"  width="2.4" height="2.5" x="-1.2" y="-1.3" transform="matrix(1 0 0 -1 752.2976 1255.4276)" style="overflow:visible;"/>
	
		<use xlink:href="#star"  width="2.4" height="2.5" x="-1.2" y="-1.3" transform="matrix(1 0 0 -1 575.9615 1085.6248)" style="overflow:visible;"/>
	
		<use xlink:href="#star"  width="2.4" height="2.5" x="-1.2" y="-1.3" transform="matrix(1 0 0 -1 752.318 900.4727)" style="overflow:visible;"/>
</g>
</svg>
