<?xml version="1.0" encoding="utf-8"?>
<!-- Generator: Adobe Illustrator 21.1.0, SVG Export Plug-In . SVG Version: 6.00 Build 0)  -->
<svg version="1.1" id="Layer_1" xmlns="http://www.w3.org/2000/svg" xmlns:xlink="http://www.w3.org/1999/xlink" x="0px" y="0px"
	 viewBox="0 0 1242 2208" style="enable-background:new 0 0 1242 2208;" xml:space="preserve">
<style type="text/css">
	.st0{fill:#D8D8D8;}
	.st1{fill:#595959;}
</style>
<symbol  id="sparkles" viewBox="-2.8 -2.9 5.6 5.8">
	<g>
		<g>
			<path class="st0" d="M0-2.9c3.7,0,3.7,5.8,0,5.8S-3.7-2.9,0-2.9L0-2.9z"/>
		</g>
	</g>
</symbol>
<symbol  id="star" viewBox="-1.2 -1.3 2.4 2.5">
	<g>
		<g>
			<path class="st1" d="M0-1.3c1.6,0,1.6,2.5,0,2.5C-1.6,1.2-1.6-1.3,0-1.3L0-1.3z"/>
		</g>
	</g>
</symbol>
<g>
	
		<use xlink:href="#star"  width="2.4" height="2.5" x="-1.2" y="-1.3" transform="matrix(1 0 0 -1 75.5778 102.6918)" style="overflow:visible;"/>
	
		<use xlink:href="#star"  width="2.4" height="2.5" x="-1.2" y="-1.3" transform="matrix(1 0 0 -1 517.8376 222.0948)" style="overflow:visible;"/>
	
		<use xlink:href="#star"  width="2.4" height="2.5" x="-1.2" y="-1.3" transform="matrix(1 0 0 -1 1046.7151 152.2453)" style="overflow:visible;"/>
	
		<use xlink:href="#star"  width="2.4" height="2.5" x="-1.2" y="-1.3" transform="matrix(1 0 0 -1 1110.8521 52.0857)" style="overflow:visible;"/>
	
		<use xlink:href="#star"  width="2.4" height="2.5" x="-1.2" y="-1.3" transform="matrix(1 0 0 -1 382.315 51.6341)" style="overflow:visible;"/>
	
		<use xlink:href="#star"  width="2.4" height="2.5" x="-1.2" y="-1.3" transform="matrix(1 0 0 -1 820.0445 25.9578)" style="overflow:visible;"/>
	
		<use xlink:href="#star"  width="2.4" height="2.5" x="-1.2" y="-1.3" transform="matrix(1 0 0 -1 33.1461 228.6237)" style="overflow:visible;"/>
	
		<use xlink:href="#star"  width="2.4" height="2.5" x="-1.2" y="-1.3" transform="matrix(1 0 0 -1 12.8814 130.4866)" style="overflow:visible;"/>
	
		<use xlink:href="#star"  width="2.4" height="2.5" x="-1.2" y="-1.3" transform="matrix(1 0 0 -1 205.4665 568.7947)" style="overflow:visible;"/>
	
		<use xlink:href="#star"  width="2.4" height="2.5" x="-1.2" y="-1.3" transform="matrix(1 0 0 -1 910.3229 648.7461)" style="overflow:visible;"/>
	
		<use xlink:href="#star"  width="2.4" height="2.5" x="-1.2" y="-1.3" transform="matrix(1 0 0 -1 1207.2194 498.5831)" style="overflow:visible;"/>
	
		<use xlink:href="#star"  width="2.4" height="2.5" x="-1.2" y="-1.3" transform="matrix(1 0 0 -1 1066.7223 425.7769)" style="overflow:visible;"/>
	
		<use xlink:href="#star"  width="2.4" height="2.5" x="-1.2" y="-1.3" transform="matrix(1 0 0 -1 518.3108 518.5181)" style="overflow:visible;"/>
	
		<use xlink:href="#star"  width="2.4" height="2.5" x="-1.2" y="-1.3" transform="matrix(1 0 0 -1 800.1644 576.5205)" style="overflow:visible;"/>
	
		<use xlink:href="#star"  width="2.4" height="2.5" x="-1.2" y="-1.3" transform="matrix(1 0 0 -1 828.1295 350.4121)" style="overflow:visible;"/>
	
		<use xlink:href="#star"  width="2.4" height="2.5" x="-1.2" y="-1.3" transform="matrix(1 0 0 -1 299.5634 400.3904)" style="overflow:visible;"/>
	
		<use xlink:href="#star"  width="2.4" height="2.5" x="-1.2" y="-1.3" transform="matrix(1 0 0 -1 115.1999 432.1416)" style="overflow:visible;"/>
	
		<use xlink:href="#star"  width="2.4" height="2.5" x="-1.2" y="-1.3" transform="matrix(1 0 0 -1 16.8079 780.7742)" style="overflow:visible;"/>
	
		<use xlink:href="#star"  width="2.4" height="2.5" x="-1.2" y="-1.3" transform="matrix(1 0 0 -1 371.6568 758.9286)" style="overflow:visible;"/>
	
		<use xlink:href="#star"  width="2.4" height="2.5" x="-1.2" y="-1.3" transform="matrix(1 0 0 -1 970.2549 947.1542)" style="overflow:visible;"/>
	
		<use xlink:href="#star"  width="2.4" height="2.5" x="-1.2" y="-1.3" transform="matrix(1 0 0 -1 1106.9261 758.8616)" style="overflow:visible;"/>
	
		<use xlink:href="#star"  width="2.4" height="2.5" x="-1.2" y="-1.3" transform="matrix(1 0 0 -1 624.0911 915.0334)" style="overflow:visible;"/>
	
		<use xlink:href="#star"  width="2.4" height="2.5" x="-1.2" y="-1.3" transform="matrix(1 0 0 -1 624.1852 910.9493)" style="overflow:visible;"/>
	
		<use xlink:href="#star"  width="2.4" height="2.5" x="-1.2" y="-1.3" transform="matrix(1 0 0 -1 541.8063 1133.6313)" style="overflow:visible;"/>
	
		<use xlink:href="#star"  width="2.4" height="2.5" x="-1.2" y="-1.3" transform="matrix(1 0 0 -1 167.5898 1035.4391)" style="overflow:visible;"/>
	
		<use xlink:href="#star"  width="2.4" height="2.5" x="-1.2" y="-1.3" transform="matrix(1 0 0 -1 491.5459 913.0404)" style="overflow:visible;"/>
	
		<use xlink:href="#star"  width="2.4" height="2.5" x="-1.2" y="-1.3" transform="matrix(1 0 0 -1 938.2332 1089.4115)" style="overflow:visible;"/>
	
		<use xlink:href="#star"  width="2.4" height="2.5" x="-1.2" y="-1.3" transform="matrix(1 0 0 -1 1154.3999 1033.6663)" style="overflow:visible;"/>
	
		<use xlink:href="#star"  width="2.4" height="2.5" x="-1.2" y="-1.3" transform="matrix(1 0 0 -1 1213.149 1026.0951)" style="overflow:visible;"/>
	
		<use xlink:href="#star"  width="2.4" height="2.5" x="-1.2" y="-1.3" transform="matrix(1 0 0 -1 1189.2592 1243.7888)" style="overflow:visible;"/>
	
		<use xlink:href="#star"  width="2.4" height="2.5" x="-1.2" y="-1.3" transform="matrix(1 0 0 -1 840.0065 1255.702)" style="overflow:visible;"/>
	
		<use xlink:href="#star"  width="2.4" height="2.5" x="-1.2" y="-1.3" transform="matrix(1 0 0 -1 345.5361 1263.6404)" style="overflow:visible;"/>
	
		<use xlink:href="#star"  width="2.4" height="2.5" x="-1.2" y="-1.3" transform="matrix(1 0 0 -1 128.0006 1173.4255)" style="overflow:visible;"/>
	
		<use xlink:href="#star"  width="2.4" height="2.5" x="-1.2" y="-1.3" transform="matrix(1 0 0 -1 127.0497 1327.7122)" style="overflow:visible;"/>
	
		<use xlink:href="#star"  width="2.4" height="2.5" x="-1.2" y="-1.3" transform="matrix(1 0 0 -1 577.954 1476.2107)" style="overflow:visible;"/>
	
		<use xlink:href="#star"  width="2.4" height="2.5" x="-1.2" y="-1.3" transform="matrix(1 0 0 -1 950.3075 1502.2115)" style="overflow:visible;"/>
	
		<use xlink:href="#star"  width="2.4" height="2.5" x="-1.2" y="-1.3" transform="matrix(1 0 0 -1 1102.3967 920.9029)" style="overflow:visible;"/>
	
		<use xlink:href="#sparkles"  width="5.6" height="5.8" x="-2.8" y="-2.9" transform="matrix(1 0 0 -1 968.402 11.9347)" style="overflow:visible;"/>
	
		<use xlink:href="#sparkles"  width="5.6" height="5.8" x="-2.8" y="-2.9" transform="matrix(1 0 0 -1 347.5266 76.2067)" style="overflow:visible;"/>
	
		<use xlink:href="#sparkles"  width="5.6" height="5.8" x="-2.8" y="-2.9" transform="matrix(1 0 0 -1 67.3514 57.7989)" style="overflow:visible;"/>
	
		<use xlink:href="#sparkles"  width="5.6" height="5.8" x="-2.8" y="-2.9" transform="matrix(1 0 0 -1 1070.8044 466.7367)" style="overflow:visible;"/>
	
		<use xlink:href="#sparkles"  width="5.6" height="5.8" x="-2.8" y="-2.9" transform="matrix(1 0 0 -1 109.0747 494.7602)" style="overflow:visible;"/>
	
		<use xlink:href="#sparkles"  width="5.6" height="5.8" x="-2.8" y="-2.9" transform="matrix(1 0 0 -1 756.0829 706.9146)" style="overflow:visible;"/>
	
		<use xlink:href="#sparkles"  width="5.6" height="5.8" x="-2.8" y="-2.9" transform="matrix(1 0 0 -1 614.0154 322.2885)" style="overflow:visible;"/>
	
		<use xlink:href="#sparkles"  width="5.6" height="5.8" x="-2.8" y="-2.9" transform="matrix(1 0 0 -1 173.3814 786.8525)" style="overflow:visible;"/>
	
		<use xlink:href="#sparkles"  width="5.6" height="5.8" x="-2.8" y="-2.9" transform="matrix(1 0 0 -1 1024.6736 674.7785)" style="overflow:visible;"/>
	
		<use xlink:href="#sparkles"  width="5.6" height="5.8" x="-2.8" y="-2.9" transform="matrix(1 0 0 -1 1202.7858 946.3646)" style="overflow:visible;"/>
	
		<use xlink:href="#sparkles"  width="5.6" height="5.8" x="-2.8" y="-2.9" transform="matrix(1 0 0 -1 1225.6375 981.4177)" style="overflow:visible;"/>
	
		<use xlink:href="#sparkles"  width="5.6" height="5.8" x="-2.8" y="-2.9" transform="matrix(1 0 0 -1 467.5556 530.696)" style="overflow:visible;"/>
	
		<use xlink:href="#sparkles"  width="5.6" height="5.8" x="-2.8" y="-2.9" transform="matrix(1 0 0 -1 97.461 947.1102)" style="overflow:visible;"/>
	
		<use xlink:href="#sparkles"  width="5.6" height="5.8" x="-2.8" y="-2.9" transform="matrix(1 0 0 -1 32.5285 957.2553)" style="overflow:visible;"/>
	
		<use xlink:href="#sparkles"  width="5.6" height="5.8" x="-2.8" y="-2.9" transform="matrix(1 0 0 -1 425.7785 1331.9912)" style="overflow:visible;"/>
	
		<use xlink:href="#sparkles"  width="5.6" height="5.8" x="-2.8" y="-2.9" transform="matrix(1 0 0 -1 644.0339 1277.8595)" style="overflow:visible;"/>
	
		<use xlink:href="#sparkles"  width="5.6" height="5.8" x="-2.8" y="-2.9" transform="matrix(1 0 0 -1 94.78 1181.7043)" style="overflow:visible;"/>
	
		<use xlink:href="#sparkles"  width="5.6" height="5.8" x="-2.8" y="-2.9" transform="matrix(1 0 0 -1 571.8618 1001.4667)" style="overflow:visible;"/>
	
		<use xlink:href="#sparkles"  width="5.6" height="5.8" x="-2.8" y="-2.9" transform="matrix(1 0 0 -1 930.3047 1297.9282)" style="overflow:visible;"/>
	
		<use xlink:href="#sparkles"  width="5.6" height="5.8" x="-2.8" y="-2.9" transform="matrix(1 0 0 -1 1116.6199 1209.5989)" style="overflow:visible;"/>
	
		<use xlink:href="#sparkles"  width="5.6" height="5.8" x="-2.8" y="-2.9" transform="matrix(1 0 0 -1 1134.7577 1354.1311)" style="overflow:visible;"/>
	
		<use xlink:href="#sparkles"  width="5.6" height="5.8" x="-2.8" y="-2.9" transform="matrix(1 0 0 -1 165.4477 1382.1649)" style="overflow:visible;"/>
	
		<use xlink:href="#sparkles"  width="5.6" height="5.8" x="-2.8" y="-2.9" transform="matrix(1 0 0 -1 924.4335 280.2132)" style="overflow:visible;"/>
</g>
</svg>
