<?xml version="1.0" encoding="utf-8"?>
<!-- Generator: Adobe Illustrator 21.1.0, SVG Export Plug-In . SVG Version: 6.00 Build 0)  -->
<svg version="1.1" id="Layer_1" xmlns="http://www.w3.org/2000/svg" xmlns:xlink="http://www.w3.org/1999/xlink" x="0px" y="0px"
	 viewBox="0 0 768 1024" style="enable-background:new 0 0 768 1024;" xml:space="preserve">
<style type="text/css">
	.st0{fill:#D8D8D8;}
	.st1{fill:#595959;}
</style>
<symbol  id="sparkles" viewBox="-2.8 -2.9 5.6 5.8">
	<g>
		<g>
			<path class="st0" d="M0-2.9c3.7,0,3.7,5.8,0,5.8S-3.7-2.9,0-2.9L0-2.9z"/>
		</g>
	</g>
</symbol>
<symbol  id="star" viewBox="-1.2 -1.3 2.4 2.5">
	<g>
		<g>
			<path class="st1" d="M0-1.3c1.6,0,1.6,2.5,0,2.5C-1.6,1.2-1.6-1.3,0-1.3L0-1.3z"/>
		</g>
	</g>
</symbol>
<g>
	
		<use xlink:href="#sparkles"  width="5.6" height="5.8" x="-2.8" y="-2.9" transform="matrix(1 0 0 -1 6.3502 18.2675)" style="overflow:visible;"/>
	
		<use xlink:href="#sparkles"  width="5.6" height="5.8" x="-2.8" y="-2.9" transform="matrix(1 0 0 -1 206.6196 50.4916)" style="overflow:visible;"/>
	
		<use xlink:href="#sparkles"  width="5.6" height="5.8" x="-2.8" y="-2.9" transform="matrix(1 0 0 -1 14.9469 193.185)" style="overflow:visible;"/>
	
		<use xlink:href="#sparkles"  width="5.6" height="5.8" x="-2.8" y="-2.9" transform="matrix(1 0 0 -1 535.5569 84.7351)" style="overflow:visible;"/>
	
		<use xlink:href="#sparkles"  width="5.6" height="5.8" x="-2.8" y="-2.9" transform="matrix(1 0 0 -1 747.3711 30.44)" style="overflow:visible;"/>
	
		<use xlink:href="#sparkles"  width="5.6" height="5.8" x="-2.8" y="-2.9" transform="matrix(1 0 0 -1 308.9264 311.9986)" style="overflow:visible;"/>
	
		<use xlink:href="#sparkles"  width="5.6" height="5.8" x="-2.8" y="-2.9" transform="matrix(1 0 0 -1 242.6147 201.428)" style="overflow:visible;"/>
	
		<use xlink:href="#sparkles"  width="5.6" height="5.8" x="-2.8" y="-2.9" transform="matrix(1 0 0 -1 651.0502 234.7865)" style="overflow:visible;"/>
	
		<use xlink:href="#sparkles"  width="5.6" height="5.8" x="-2.8" y="-2.9" transform="matrix(1 0 0 -1 750.799 434.5779)" style="overflow:visible;"/>
	
		<use xlink:href="#sparkles"  width="5.6" height="5.8" x="-2.8" y="-2.9" transform="matrix(1 0 0 -1 10.1801 407.3516)" style="overflow:visible;"/>
	
		<use xlink:href="#sparkles"  width="5.6" height="5.8" x="-2.8" y="-2.9" transform="matrix(1 0 0 -1 15.4526 565.0902)" style="overflow:visible;"/>
	
		<use xlink:href="#sparkles"  width="5.6" height="5.8" x="-2.8" y="-2.9" transform="matrix(1 0 0 -1 313.5809 518.3068)" style="overflow:visible;"/>
	
		<use xlink:href="#sparkles"  width="5.6" height="5.8" x="-2.8" y="-2.9" transform="matrix(1 0 0 -1 683.2259 519.0919)" style="overflow:visible;"/>
	
		<use xlink:href="#sparkles"  width="5.6" height="5.8" x="-2.8" y="-2.9" transform="matrix(1 0 0 -1 516.6802 417.5606)" style="overflow:visible;"/>
	
		<use xlink:href="#sparkles"  width="5.6" height="5.8" x="-2.8" y="-2.9" transform="matrix(1 0 0 -1 157.2977 422.5892)" style="overflow:visible;"/>
	
		<use xlink:href="#sparkles"  width="5.6" height="5.8" x="-2.8" y="-2.9" transform="matrix(1 0 0 -1 414.1349 5.3095)" style="overflow:visible;"/>
	
		<use xlink:href="#sparkles"  width="5.6" height="5.8" x="-2.8" y="-2.9" transform="matrix(1 0 0 -1 755.9087 149.5815)" style="overflow:visible;"/>
	
		<use xlink:href="#star"  width="2.4" height="2.5" x="-1.2" y="-1.3" transform="matrix(1 0 0 -1 23.3445 37.3798)" style="overflow:visible;"/>
	
		<use xlink:href="#star"  width="2.4" height="2.5" x="-1.2" y="-1.3" transform="matrix(1 0 0 -1 134.191 38.3949)" style="overflow:visible;"/>
	
		<use xlink:href="#star"  width="2.4" height="2.5" x="-1.2" y="-1.3" transform="matrix(1 0 0 -1 88.5888 187.292)" style="overflow:visible;"/>
	
		<use xlink:href="#star"  width="2.4" height="2.5" x="-1.2" y="-1.3" transform="matrix(1 0 0 -1 287.0641 140.9592)" style="overflow:visible;"/>
	
		<use xlink:href="#star"  width="2.4" height="2.5" x="-1.2" y="-1.3" transform="matrix(1 0 0 -1 82.0551 108.8627)" style="overflow:visible;"/>
	
		<use xlink:href="#star"  width="2.4" height="2.5" x="-1.2" y="-1.3" transform="matrix(1 0 0 -1 54.1605 196.3963)" style="overflow:visible;"/>
	
		<use xlink:href="#star"  width="2.4" height="2.5" x="-1.2" y="-1.3" transform="matrix(1 0 0 -1 177.3194 315.8917)" style="overflow:visible;"/>
	
		<use xlink:href="#star"  width="2.4" height="2.5" x="-1.2" y="-1.3" transform="matrix(1 0 0 -1 465.4926 226.5063)" style="overflow:visible;"/>
	
		<use xlink:href="#star"  width="2.4" height="2.5" x="-1.2" y="-1.3" transform="matrix(1 0 0 -1 602.905 335.0911)" style="overflow:visible;"/>
	
		<use xlink:href="#star"  width="2.4" height="2.5" x="-1.2" y="-1.3" transform="matrix(1 0 0 -1 461.1167 89.9549)" style="overflow:visible;"/>
	
		<use xlink:href="#star"  width="2.4" height="2.5" x="-1.2" y="-1.3" transform="matrix(1 0 0 -1 291.0465 56.502)" style="overflow:visible;"/>
	
		<use xlink:href="#star"  width="2.4" height="2.5" x="-1.2" y="-1.3" transform="matrix(1 0 0 -1 630.8203 46.5244)" style="overflow:visible;"/>
	
		<use xlink:href="#star"  width="2.4" height="2.5" x="-1.2" y="-1.3" transform="matrix(1 0 0 -1 714.8092 152.5261)" style="overflow:visible;"/>
	
		<use xlink:href="#star"  width="2.4" height="2.5" x="-1.2" y="-1.3" transform="matrix(1 0 0 -1 738.2844 78.1257)" style="overflow:visible;"/>
	
		<use xlink:href="#star"  width="2.4" height="2.5" x="-1.2" y="-1.3" transform="matrix(1 0 0 -1 572.8061 139.4261)" style="overflow:visible;"/>
	
		<use xlink:href="#star"  width="2.4" height="2.5" x="-1.2" y="-1.3" transform="matrix(1 0 0 -1 743.7451 332.9261)" style="overflow:visible;"/>
	
		<use xlink:href="#star"  width="2.4" height="2.5" x="-1.2" y="-1.3" transform="matrix(1 0 0 -1 613.8088 478.8002)" style="overflow:visible;"/>
	
		<use xlink:href="#star"  width="2.4" height="2.5" x="-1.2" y="-1.3" transform="matrix(1 0 0 -1 454.4901 328.892)" style="overflow:visible;"/>
	
		<use xlink:href="#star"  width="2.4" height="2.5" x="-1.2" y="-1.3" transform="matrix(1 0 0 -1 348.7087 515.1719)" style="overflow:visible;"/>
	
		<use xlink:href="#star"  width="2.4" height="2.5" x="-1.2" y="-1.3" transform="matrix(1 0 0 -1 225.74 380.3974)" style="overflow:visible;"/>
	
		<use xlink:href="#star"  width="2.4" height="2.5" x="-1.2" y="-1.3" transform="matrix(1 0 0 -1 504.4477 506.3161)" style="overflow:visible;"/>
	
		<use xlink:href="#star"  width="2.4" height="2.5" x="-1.2" y="-1.3" transform="matrix(1 0 0 -1 367.0367 403.5867)" style="overflow:visible;"/>
	
		<use xlink:href="#star"  width="2.4" height="2.5" x="-1.2" y="-1.3" transform="matrix(1 0 0 -1 77.8143 341.1016)" style="overflow:visible;"/>
	
		<use xlink:href="#star"  width="2.4" height="2.5" x="-1.2" y="-1.3" transform="matrix(1 0 0 -1 22.4636 249.0668)" style="overflow:visible;"/>
	
		<use xlink:href="#star"  width="2.4" height="2.5" x="-1.2" y="-1.3" transform="matrix(1 0 0 -1 28.2758 247.5534)" style="overflow:visible;"/>
	
		<use xlink:href="#star"  width="2.4" height="2.5" x="-1.2" y="-1.3" transform="matrix(1 0 0 -1 119.0302 500.1889)" style="overflow:visible;"/>
	
		<use xlink:href="#star"  width="2.4" height="2.5" x="-1.2" y="-1.3" transform="matrix(1 0 0 -1 42.6299 459.916)" style="overflow:visible;"/>
	
		<use xlink:href="#star"  width="2.4" height="2.5" x="-1.2" y="-1.3" transform="matrix(1 0 0 -1 404.3431 594.5258)" style="overflow:visible;"/>
	
		<use xlink:href="#star"  width="2.4" height="2.5" x="-1.2" y="-1.3" transform="matrix(1 0 0 -1 177.5929 611.7651)" style="overflow:visible;"/>
	
		<use xlink:href="#star"  width="2.4" height="2.5" x="-1.2" y="-1.3" transform="matrix(1 0 0 -1 62.3558 598.6331)" style="overflow:visible;"/>
	
		<use xlink:href="#star"  width="2.4" height="2.5" x="-1.2" y="-1.3" transform="matrix(1 0 0 -1 708.3038 592.4546)" style="overflow:visible;"/>
	
		<use xlink:href="#star"  width="2.4" height="2.5" x="-1.2" y="-1.3" transform="matrix(1 0 0 -1 703.0159 660.6345)" style="overflow:visible;"/>
	
		<use xlink:href="#star"  width="2.4" height="2.5" x="-1.2" y="-1.3" transform="matrix(1 0 0 -1 169.6397 508.3592)" style="overflow:visible;"/>
	
		<use xlink:href="#star"  width="2.4" height="2.5" x="-1.2" y="-1.3" transform="matrix(1 0 0 -1 576.6177 559.5606)" style="overflow:visible;"/>
	
		<use xlink:href="#star"  width="2.4" height="2.5" x="-1.2" y="-1.3" transform="matrix(1 0 0 -1 700.1976 385.1892)" style="overflow:visible;"/>
	
		<use xlink:href="#star"  width="2.4" height="2.5" x="-1.2" y="-1.3" transform="matrix(1 0 0 -1 434.2885 393.5001)" style="overflow:visible;"/>
	
		<use xlink:href="#star"  width="2.4" height="2.5" x="-1.2" y="-1.3" transform="matrix(1 0 0 -1 381.2478 245.4858)" style="overflow:visible;"/>
	
		<use xlink:href="#star"  width="2.4" height="2.5" x="-1.2" y="-1.3" transform="matrix(1 0 0 -1 21.7669 638.868)" style="overflow:visible;"/>
	
		<use xlink:href="#star"  width="2.4" height="2.5" x="-1.2" y="-1.3" transform="matrix(1 0 0 -1 394.1396 640.022)" style="overflow:visible;"/>
</g>
</svg>
