<?xml version="1.0" encoding="utf-8"?>
<!-- Generator: Adobe Illustrator 21.1.0, SVG Export Plug-In . SVG Version: 6.00 Build 0)  -->
<svg version="1.1" id="Layer_1" xmlns="http://www.w3.org/2000/svg" xmlns:xlink="http://www.w3.org/1999/xlink" x="0px" y="0px"
	 viewBox="0 0 1423 405.4" style="enable-background:new 0 0 1423 405.4;" xml:space="preserve">
<style type="text/css">
	.st0{opacity:0.1;fill:#231F20;enable-background:new    ;}
	.st1{fill:#96A2A4;}
	.st2{fill:#FFFFFF;}
	.st3{opacity:0.3;fill:#231F20;enable-background:new    ;}
	.st4{fill:#5E5F61;}
	.st5{fill:none;stroke:#FFFFFF;stroke-width:2;stroke-miterlimit:10;}
	.st6{fill:#FF9D00;}
	.st7{fill:#CEAA72;}
	.st8{fill:#C0E0DE;}
	.st9{fill:none;stroke:#FFFFFF;stroke-miterlimit:10;}
	.st10{fill:#543C36;}
	.st11{fill:none;stroke:#543C36;stroke-width:4;stroke-linecap:square;stroke-miterlimit:10;}
	.st12{fill:#A40000;}
	.st13{fill:#890000;}
	.st14{fill:#B73D43;}
	.st15{fill:#4F0000;}
	.st16{fill:#CC4047;}
	.st17{fill:#604123;}
	.st18{fill:#9AB6B8;}
	.st19{fill:#FFFF00;}
	.st20{fill:#809B3D;}
	.st21{opacity:0.2;fill:#FFFFFF;enable-background:new    ;}
	.st22{fill:#855222;}
	.st23{fill:#AD6729;}
	.st24{fill:#6E3E19;}
	.st25{fill:#619959;}
	.st26{fill:#CCE9EB;}
	.st27{fill:#FAAE40;}
	.st28{fill:#A8745D;}
	.st29{fill:#A73330;}
	.st30{fill:#B27D62;}
	.st31{fill:#B7AD4E;}
	.st32{fill:#852A34;}
	.st33{fill:#44130C;}
	.st34{fill:#9AD4DA;}
	.st35{fill:#B21F24;}
	.st36{fill:#C93427;}
	.st37{fill:#DB4126;}
	.st38{fill:#F16228;}
	.st39{fill:none;stroke:#FDCA80;stroke-miterlimit:10;}
	.st40{fill:#3F8252;}
	.st41{opacity:0.2;fill:#57AE62;enable-background:new    ;}
	.st42{fill:#E74543;}
	.st43{fill:#A82D2B;}
	.st44{fill:#EAF6F7;}
	.st45{fill:#BC3734;}
	.st46{fill:#C23C39;}
	.st47{fill:#9B805D;}
	.st48{fill:#DDDDDD;}
	.st49{fill:#82CB38;}
	.st50{fill:#AA5541;}
</style>
<g id="content">
	<g id="mountains">
		<path class="st0" d="M1479.8,303.8L1479.8,303.8c0,2.2,0,4.3-0.1,6.5l-0.1,5.1l0,1.5c0,0.6,0,1.2,0,1.8c0,1.9-0.1,3.8-0.1,5.7
			c0,0.2,0,0.4,0,0.7c0,1.6-0.1,3.4-0.1,5c0,0.4,0,0.8,0,1.2c0,0.4,0,0.8,0,1.1l0,1l-346.5-0.8l0.6-0.8l-0.6,0l0.7-1l54.4-80.9
			l46.4-69l0.2-0.3l33.8-50.2l51.2-76.3l0,0.8l1.1-1.7l45.9,72.2l0.1,0.1l3.4,5.3l80.7,127.1l3.1,4.8l15.4,24.2l0.2,0.3l1.2,1.8
			l1,1.6l0.7,1.1l0.4,0.6l0.4,0.7l0.4,0.7l1.4,2.3l0.4,0.7l0.4,0.7L1479.8,303.8z"/>
		<path class="st0" d="M1343.2,379.3L1343.2,379.3c0,2.2,0,4.3-0.1,6.5l-0.1,5.1l0,1.5c0,0.6,0,1.2,0,1.8c0,1.9-0.1,3.8-0.1,5.7
			c0,0.2,0,0.4,0,0.7c0,1.6-0.1,3.4-0.1,5c0,0.4,0,0.8,0,1.2c0,0.4,0,0.8,0,1.1l0,1l-346.6-0.8l0.6-0.8l-0.6,0l0.7-1l54.4-80.9
			l46.4-69l0.2-0.3l33.8-50.2l51.2-76.3l0,0.8l1.1-1.7l45.9,72.2l0.1,0.1l3.4,5.3l80.7,127.1l3.1,4.8l15.4,24.2l0.2,0.3l1.2,1.8
			l1,1.6l0.7,1.1l0.4,0.6l0.4,0.7l0.4,0.7l1.4,2.3l0.4,0.7l0.4,0.7L1343.2,379.3z"/>
		<g>
			<polygon class="st1" points="1234.7,155.9 1263.8,207 1338.8,338.9 1134.6,338.5 			"/>
			<path class="st2" d="M1261.7,203.3c0,0-4-4.3-7.9,0c-3.8,4.3-14.4,4.3-19.2-2s-7.7,3.2-9.6,4.9c-1.9,1.7-4.5,1.2-7-7.1
				c-2.5-8.3-9.1,3.9-9.1,3.9l25.8-47.1L1261.7,203.3z"/>
			<polygon class="st3" points="1235.3,156.5 1263.8,206.4 1338.8,338.4 1234.9,338.2 			"/>
		</g>
		<path class="st1" d="M1430.8,248.8L1430.8,248.8c0-0.4,0-0.7,0-1L1430.8,248.8z"/>
		<path class="st1" d="M1431.1,84.9c0-0.8,0-1.6,0.1-2.5l-0.1,2.9L1431.1,84.9z"/>
		<path class="st1" d="M1430.8,324.6c0,1.8,0,3.8,0,5.6l0,0.7c0,1.6,0,3.3,0,5c0,0.5,0,0.9,0,1.4c0,0.8,0,1.6,0,2.5
			c0,2.7,0,5.3-0.1,8c0,0.3,0,0.6,0,0.9l0,0c0,2.2,0,4.3-0.1,6.5c0,0.6,0,1.3,0,1.9c0,1,0,2,0,3.2l0,1.5c0,0.6,0,1.2,0,1.8
			c0,1.9-0.1,3.8-0.1,5.7c0,0.2,0,0.4,0,0.7c-0.1,2-0.1,4.1-0.2,6.2l0,1.1l-205.5-0.5l0.4-0.9l0.3-0.7l20.4-42.5l0,0l0.2-0.4
			l74.8-156.5l37.1-77.5l0-0.1l0-0.1l0.1-0.2l0-0.1l0.1-0.1l46.1-96.3l1.2,2.4l25.8,52.2l-0.1,29.4c0,0.7,0,1.4,0,2.2
			c0,0.7,0,1.4,0,2.2s0,1.5,0,2.3c0,0.1,0,0.3,0,0.4c0,1.2,0,2.6,0,3.8c0,2.6,0,5.1-0.1,7.7c0,3.2,0,6.3-0.1,9.4c0,0.2,0,0.4,0,0.6
			c0,3.3,0,6.7,0,9.9c0,3.6,0,7.2,0,10.9l0,1c0,0.6,0,1.3,0,1.9c0,6.7,0,13.4,0.1,20.1c0,4.4,0,8.7,0.1,13.1
			c0.1,25.9,0.4,51.7-0.1,77.7l0,0.1c0,8.8,0,17.6,0,26.3c0,5.6,0,11.2,0.1,16.8l0,0.6c0,1,0,2,0,3.1c0,0.4,0,0.8,0,1.2l0,0.6
			c0,0.4,0,0.8,0,1.2l0,0.5c0,0.2,0,0.3,0,0.5l0,0.1c0,0.1,0,0.2,0,0.3l0,0l0,0l0,0l0,0.4c0,0.2,0,0.4,0,0.6l0,1.7
			c0,0.8,0,1.7,0,2.6l0,2.6C1430.8,313.4,1430.8,319.1,1430.8,324.6z"/>
		<path class="st1" d="M1429.9,376.4c0.1-2,0.1-4.2,0.2-6.2c0,1.6-0.1,3.4-0.1,5C1430,375.6,1430,376,1429.9,376.4
			c0,0.4,0,0.8,0,1.1L1429.9,376.4z"/>
		<path class="st1" d="M1430.4,357.2c0-0.6,0-1.3,0-1.9l-0.1,5.1l0,1.5C1430.4,360.3,1430.4,358.8,1430.4,357.2z"/>
		<path class="st1" d="M1430.8,330.9c0,0.6,0,1.2,0,1.9l0,0.9c0,0.7,0,1.4,0,2l0,0l0,3.9c0,2.7,0,5.3-0.1,8c0-2.7,0.1-5.3,0.1-8
			c0-0.8,0-1.6,0-2.5c0-0.5,0-0.9,0-1.4C1430.7,334.3,1430.7,332.7,1430.8,330.9z"/>
		<path class="st1" d="M1430.8,297.4l0-0.6c0-0.4,0-0.8,0-1.2c0-1,0-2,0-3.1c0,1,0,2,0,3.1C1430.8,296.2,1430.8,296.8,1430.8,297.4
			l0,1.2C1430.8,298.4,1430.8,298,1430.8,297.4z"/>
		<path class="st1" d="M1430.9,301.9c0-0.5,0-0.9,0-1.4l0-0.4l0,0c0-0.3,0-0.5,0-0.8c0,0.3,0,0.6,0,0.8L1430.9,301.9L1430.9,301.9z"
			/>
		<path class="st1" d="M1430.8,307.9l0,1.7c0,5,0,9.9,0,14.8l0,1c0,0.9,0,1.8,0,2.8c0,0.6,0,1.2,0,1.9c0-1.8,0-3.8,0-5.6
			C1430.8,319.1,1430.8,313.5,1430.8,307.9c0-1.7,0-3.5,0-5.1l0-0.9C1430.8,303.9,1430.8,305.9,1430.8,307.9z"/>
		<path class="st1" d="M1432,57.7L1432,57.7L1432,57.7z"/>
		<path class="st2" d="M1430.9,96.4c0-0.1,0-0.2,0-0.3c0,2.6,0,5.1-0.1,7.7l0,0c0-1.1,0-2.3,0-3.4c0-0.6,0-1.2,0-1.9
			c0-0.2,0-0.4,0-0.6C1430.9,97.4,1430.9,96.9,1430.9,96.4z"/>
		<path class="st2" d="M1431,85.8c0,1.3,0,2.7-0.1,3.9c0-1.4,0.1-2.9,0.1-4.3l0-0.4C1431.1,85.2,1431,85.5,1431,85.8z"/>
		<path class="st2" d="M1431.1,82.4l-0.1,2.9l0-0.4C1431.1,84.1,1431.1,83.4,1431.1,82.4z"/>
		<path class="st2" d="M1431.2,56l-0.1,28.9c0,0.3,0,0.5,0,0.8c0,0.6,0,1.3,0,1.9c0,0.6,0,1.3,0,1.9c0,0.6,0,1.5,0,2.3
			c0,0.1,0,0.3,0,0.4l-0.1,4.1c0,0.5,0,1,0,1.5c0,0.2,0,0.4,0,0.6c0,0.6,0,1.3,0,1.9c0,1.1,0,2.3,0,3.4c-8.1,2.7-19.2,0.8-25.7-7.4
			c-0.4-0.5-0.8-1-1.2-1.5c-8.5-12.8-13.8,6.5-17.2,10.1c-3.4,3.6-8.1,2.4-12.6-14.5c-4-15.4-14.2,3.9-16.1,7.4l-0.1,0.1l46.2-96.6
			l1.2,2.4L1431.2,56z"/>
		<path class="st3" d="M1430.8,309.7c0,5,0,9.9,0,14.8l0,1c0,0.9,0,1.8,0,2.8c0,0.6,0,1.2,0,1.9l0,0.7c0,0.6,0,1.2,0,1.9l0,0.2
			c0,0.9,0,1.9,0,2.9l0,3.9c0,2.7,0,5.3-0.1,8c0,0.3,0,0.6,0,0.9l0,0c0,2.2,0,4.3-0.1,6.5c0,0.6,0,1.3,0,1.9c0,1,0,2,0,3.2l0,1.5
			c0,0.6,0,1.2,0,1.8c0,1.9-0.1,3.8-0.1,5.7c0,0.2,0,0.4,0,0.7c0,1.6-0.1,3.4-0.1,5c0,0.4,0,0.8,0,1.2l-25.4-0.1l0.8-373.7
			l25.8,52.2l-0.1,30.5c0,0.7,0,1.4,0,2.2s0,1.4,0,2.2c0,0.7,0,1.5,0,2.3c0,0.1,0,0.3,0,0.4l-0.1,4.1c0,0.5,0,1,0,1.5
			c0,0.2,0,0.4,0,0.6c0,0.6,0,1.3,0,1.9l0,3.4c0,3.2,0,6.3-0.1,9.4c0,0.2,0,0.4,0,0.6c0,3.3,0,6.7,0,9.9c0,3.6,0,7.2,0,10.9l0,1
			c0,0.6,0,1.3,0,1.9c0,6.7,0,13.4,0.1,20.1c0,4.4,0,8.7,0.1,13.1c0.1,25.9,0.4,51.7-0.1,77.7l0,0.1c0,8.8,0,17.6,0,26.3
			c0,5.6,0,11.2,0.1,16.8l0,0.6c0,1,0,2,0,3.1l0,1.8c0,0.4,0,0.8,0,1.2l0,0.5c0,0.1,0,0.3,0,0.4l0,0.2l0,0.1l0,0l0,0l0,0l0,0l0,2.7
			c0,0.8,0,1.7,0,2.6c0,0.8,0,1.7,0,2.6C1430.8,308.5,1430.8,309.1,1430.8,309.7z"/>
		<path class="st3" d="M1431.1,84.9c0-0.8,0-1.6,0.1-2.5l-0.1,2.9L1431.1,84.9z"/>
		<path class="st3" d="M1432,57.7L1432,57.7L1432,57.7z"/>
		<path class="st3" d="M1430.8,248.8L1430.8,248.8c0-0.4,0-0.7,0-1L1430.8,248.8z"/>
		<path class="st3" d="M1430.4,357.2c0-0.6,0-1.3,0-1.9l-0.1,5.1C1430.4,359.3,1430.4,358.3,1430.4,357.2z"/>
		<path class="st3" d="M1430.8,328.4c0,0.8,0,1.7,0,2.6l0-0.7C1430.8,329.6,1430.8,329,1430.8,328.4z"/>
		<path class="st3" d="M1430.8,333l0,0.8c0,0.7,0,1.4,0,2l0,0C1430.7,334.9,1430.8,334,1430.8,333z"/>
		<path class="st3" d="M1430.8,298.8c0-0.4,0-0.8,0-1.2l0-1.8c0,0.6,0,1.2,0,1.8L1430.8,298.8z"/>
		<path class="st3" d="M1430.9,300.3c0-0.1,0-0.2,0-0.3l0,0c0-0.3,0-0.5,0-0.8c0,0.3,0,0.6,0,0.8L1430.9,300.3L1430.9,300.3z"/>
		<path class="st3" d="M1430.8,307.9l0,1.7C1430.8,309.1,1430.8,308.5,1430.8,307.9c0-1.7,0-3.5,0-5.2l0-0.9
			C1430.8,303.9,1430.8,305.9,1430.8,307.9z"/>
		<path class="st3" d="M1430.9,96.4c0-0.1,0-0.2,0-0.3c0,2.6,0,5.1-0.1,7.7c0,3.2,0,6.3-0.1,9.4c0-3.2,0-6.3,0.1-9.4l0-3.4
			c0-0.6,0-1.2,0-1.9c0-0.2,0-0.4,0-0.6C1430.9,97.4,1430.9,96.9,1430.9,96.4z"/>
		<polygon class="st1" points="1138.1,143.5 1175.1,208.4 1270.5,376.3 1010.8,375.8 		"/>
		<path class="st2" d="M1172.4,203.7c0,0-5.1-5.4-10,0s-18.3,5.5-24.4-2.5c-6.1-8-9.8,4-12.2,6.2c-2.4,2.2-5.8,1.5-9-8.9
			c-3.1-10.5-11.6,5-11.6,5l32.8-59.9L1172.4,203.7z"/>
		<polygon class="st3" points="1139,144.2 1175.1,207.7 1270.5,375.6 1138.5,375.3 		"/>
	</g>
	<g id="road">
		
			<rect x="670.2" y="-341.9" transform="matrix(2.222607e-03 -1 1 2.222607e-03 332.5638 1085.3386)" class="st4" width="79.9" height="1435.8"/>
		<line class="st5" x1="25.5" y1="378.1" x2="128.8" y2="378.3"/>
		<line class="st5" x1="207.4" y1="378.5" x2="310.7" y2="378.7"/>
		<line class="st5" x1="389.3" y1="378.9" x2="492.5" y2="379.1"/>
		<line class="st5" x1="571.1" y1="379.3" x2="674.4" y2="379.5"/>
		<line class="st5" x1="753" y1="379.7" x2="856.3" y2="379.9"/>
		<line class="st5" x1="934.9" y1="380.1" x2="1038.2" y2="380.3"/>
		<line class="st5" x1="1116.8" y1="380.5" x2="1220" y2="380.7"/>
		<line class="st5" x1="1298.6" y1="380.9" x2="1401.9" y2="381.1"/>
	</g>
	<g id="hotel-bakery">
		<g id="hotel_1_">
			
				<rect x="811.5" y="180.6" transform="matrix(2.222607e-03 -1 1 2.222607e-03 618.5693 1018.6159)" class="st6" width="16.4" height="37.5"/>
			
				<rect x="768.6" y="233.9" transform="matrix(2.222607e-03 -1 1 2.222607e-03 543.9689 1092.7205)" class="st7" width="102" height="79.7"/>
			<g id="_Group_6">
				
					<rect x="808.9" y="230.9" transform="matrix(2.222607e-03 -1 1 2.222607e-03 564.185 1072.5383)" class="st8" width="21.4" height="45.3"/>
				
					<rect x="808.9" y="230.9" transform="matrix(2.222607e-03 -1 1 2.222607e-03 564.185 1072.5383)" class="st9" width="21.4" height="45.3"/>
				<g id="_Group_7">
					<line id="_Path_11" class="st9" x1="811.7" y1="242.8" x2="811.6" y2="264.2"/>
					<line id="_Path_12" class="st9" x1="827.6" y1="242.9" x2="827.6" y2="264.3"/>
				</g>
				
					<rect x="817.6" y="241.5" transform="matrix(2.222607e-03 -1 1 2.222607e-03 550.7404 1086.0945)" class="st10" width="4" height="51.2"/>
			</g>
			<g id="_Group_8">
				
					<rect x="808.7" y="270.3" transform="matrix(2.222607e-03 -1 1 2.222607e-03 524.7299 1111.7312)" class="st8" width="21.5" height="45.3"/>
				
					<rect x="808.7" y="270.3" transform="matrix(2.222607e-03 -1 1 2.222607e-03 524.7299 1111.7312)" class="st9" width="21.5" height="45.3"/>
				<g id="_Group_9">
					<line id="_Path_14" class="st9" x1="811.6" y1="282.1" x2="811.5" y2="303.5"/>
					<line id="_Path_15" class="st9" x1="827.5" y1="282.2" x2="827.5" y2="303.6"/>
				</g>
				
					<rect x="817.5" y="280.8" transform="matrix(2.222607e-03 -1 1 2.222607e-03 511.3366 1125.2363)" class="st10" width="4" height="51.2"/>
			</g>
			<line id="_Path_16" class="st11" x1="779.8" y1="222.7" x2="859.5" y2="222.9"/>
			<path class="st2" d="M771.6,222.3"/>
			<polygon class="st12" points="771.6,222.3 866.5,222.5 857.3,213.8 846.1,213.7 840.8,206.9 797.5,206.8 792.6,213.2 
				780.7,213.2 			"/>
			<path class="st13" d="M808.6,203.7l-1,0l0-4l-4.4,0l0,4l-1,0l0-8.5l1,0l0,3.6l4.4,0l0-3.6l1,0L808.6,203.7z"/>
			<path class="st13" d="M818.3,199.4c0.1,1.1-0.3,2.3-1,3.2c-0.7,0.8-1.8,1.2-2.8,1.1c-1.1,0.1-2.2-0.3-2.9-1.1c-0.7-0.9-1-2-1-3.2
				c-0.1-1.1,0.3-2.3,1-3.2c0.7-0.8,1.8-1.2,2.9-1.1c1.1-0.1,2.1,0.4,2.8,1.1C818,197.2,818.3,198.3,818.3,199.4z M811.6,199.4
				c-0.1,0.9,0.2,1.8,0.7,2.6c1.1,1.1,2.9,1.2,4.1,0.1l0.1-0.1c0.5-0.7,0.8-1.6,0.7-2.7c0.1-0.9-0.2-1.8-0.7-2.6
				c-0.5-0.6-1.3-0.9-2.1-0.9c-0.8,0-1.6,0.3-2.1,0.9C811.8,197.6,811.5,198.5,811.6,199.4L811.6,199.4z"/>
			<path class="st13" d="M822.7,203.7l-1,0l0-7.6l-2.6,0l0-0.9l6.4,0l0,0.9l-2.7,0L822.7,203.7z"/>
			<path class="st13" d="M831.4,203.8l-4.7,0l0-8.5l4.7,0l0,0.9l-3.7,0l0,2.8l3.5,0l0,0.9l-3.5,0l0,3.1l3.7,0L831.4,203.8z"/>
			<path class="st13" d="M833.2,203.8l0-8.5l1,0l0,7.6l3.7,0l0,0.9L833.2,203.8L833.2,203.8z"/>
		</g>
		<g id="bakery">
			<polygon class="st14" points="682.9,323.5 644.3,323.4 644.4,274.2 683.1,258.1 			"/>
			<path class="st15" d="M644.4,275.7c-0.6,0-1.1-0.3-1.3-0.9c-0.3-0.7,0-1.5,0.7-1.8l0,0l38.7-16.1c0.7-0.3,1.5,0,1.8,0.8
				c0.3,0.7,0,1.5-0.7,1.8l0,0l-38.7,16.1C644.8,275.6,644.6,275.7,644.4,275.7z"/>
			
				<rect x="669.9" y="238.4" transform="matrix(2.222607e-03 -1 1 2.222607e-03 443.0972 992.9183)" class="st16" width="98.4" height="71.9"/>
			<g id="_Group_">
				
					<rect x="708.9" y="234.4" transform="matrix(2.222607e-03 -1 1 2.222607e-03 462.6954 973.5508)" class="st8" width="20.7" height="41"/>
				
					<rect x="708.9" y="234.4" transform="matrix(2.222607e-03 -1 1 2.222607e-03 462.6954 973.5508)" class="st9" width="20.7" height="41"/>
				<g id="_Group_2">
					<line id="_Path_2" class="st9" x1="712.1" y1="244.6" x2="712" y2="265.2"/>
					<line id="_Path_3" class="st9" x1="726.4" y1="244.6" x2="726.3" y2="265.3"/>
				</g>
				
					<rect x="717.2" y="244.8" transform="matrix(2.222607e-03 -1 1 2.222607e-03 449.6634 986.4962)" class="st17" width="3.9" height="46.2"/>
			</g>
			<g id="_Group_3">
				
					<rect x="708.8" y="272.4" transform="matrix(2.222607e-03 -1 1 2.222607e-03 424.6256 1011.3676)" class="st8" width="20.7" height="41"/>
				
					<rect x="708.8" y="272.4" transform="matrix(2.222607e-03 -1 1 2.222607e-03 424.6256 1011.3676)" class="st9" width="20.7" height="41"/>
				<g id="_Group_4">
					<line id="_Path_5" class="st9" x1="711.9" y1="282.5" x2="711.8" y2="303.2"/>
					<line id="_Path_6" class="st9" x1="726.3" y1="282.6" x2="726.3" y2="303.3"/>
				</g>
				
					<rect x="717.1" y="282.8" transform="matrix(2.222607e-03 -1 1 2.222607e-03 411.5936 1024.3129)" class="st17" width="3.9" height="46.2"/>
			</g>
			<g id="_Group_5">
				
					<rect x="717.8" y="187.8" transform="matrix(2.222607e-03 -1 1 2.222607e-03 492.4535 943.9906)" class="st15" width="2.9" height="74.9"/>
			</g>
			
				<rect x="654.9" y="282.2" transform="matrix(2.222607e-03 -1 1 2.222607e-03 371.3771 953.8635)" class="st18" width="17.6" height="17.3"/>
			
				<rect x="654.9" y="282.2" transform="matrix(2.222607e-03 -1 1 2.222607e-03 371.3771 953.8635)" class="st9" width="17.6" height="17.3"/>
			<path class="st19" d="M703.5,238.9l0-7l1.8,0c0.5,0,1,0.1,1.3,0.4c0.3,0.3,0.5,0.7,0.5,1.1c0,0.7-0.4,1.4-1.1,1.6l0,0
				c0.4,0,0.8,0.2,1,0.5c0.3,0.3,0.4,0.7,0.4,1.2c0,0.5-0.2,1.1-0.6,1.4c-0.4,0.4-1,0.6-1.5,0.5L703.5,238.9z M704.3,232.7l0,2.3
				l0.8,0c0.4,0,0.7-0.1,1-0.3c0.2-0.2,0.4-0.6,0.4-0.9c0-0.7-0.4-1-1.3-1L704.3,232.7z M704.3,235.6l0,2.6l1,0c0.4,0,0.7-0.1,1-0.3
				c0.2-0.2,0.4-0.6,0.4-0.9c0-0.8-0.5-1.2-1.6-1.2l-0.8,0L704.3,235.6z"/>
			<path class="st19" d="M713.9,238.9l-0.8,0l-0.7-1.9l-2.7,0l-0.6,1.9l-0.8,0l2.5-7l0.8,0L713.9,238.9z M712.2,236.2l-1-3
				c0-0.1-0.1-0.3-0.1-0.5l0,0c0,0.2-0.1,0.3-0.1,0.5l-1,3L712.2,236.2z"/>
			<path class="st19" d="M719.4,238.9l-1.1,0l-2.5-3.2c-0.1-0.1-0.1-0.2-0.2-0.2l0,0l0,3.5l-0.8,0l0-7l0.8,0l0,3.3l0,0
				c0.1-0.1,0.1-0.2,0.2-0.2l2.4-3.1l0.9,0l-2.8,3.4L719.4,238.9z"/>
			<path class="st19" d="M723.8,239l-3.4,0l0-7l3.3,0l0,0.7l-2.5,0l0,2.4l2.3,0l0,0.7l-2.3,0l0,2.5l2.7,0L723.8,239z"/>
			<path class="st19" d="M729.7,239l-0.9,0l-1.1-1.9c-0.1-0.2-0.2-0.3-0.3-0.5c-0.1-0.1-0.2-0.2-0.3-0.3s-0.2-0.1-0.3-0.2
				c-0.1,0-0.3-0.1-0.4-0.1l-0.6,0l0,3l-0.8,0l0-7l1.9,0c0.3,0,0.5,0,0.8,0.1c0.2,0.1,0.4,0.2,0.6,0.3c0.2,0.2,0.3,0.3,0.4,0.6
				c0.1,0.3,0.2,0.5,0.1,0.8c0,0.2,0,0.4-0.1,0.7c-0.1,0.2-0.2,0.4-0.3,0.5c-0.1,0.2-0.3,0.3-0.4,0.4c-0.2,0.1-0.4,0.2-0.6,0.3l0,0
				c0.1,0,0.2,0.1,0.3,0.2c0.1,0.1,0.2,0.1,0.2,0.2c0.1,0.1,0.1,0.2,0.2,0.3l0.2,0.4L729.7,239z M725.8,232.7l0,2.6l1.1,0
				c0.2,0,0.4,0,0.5-0.1c0.2-0.1,0.3-0.1,0.4-0.3c0.1-0.1,0.2-0.3,0.3-0.4c0.1-0.2,0.1-0.4,0.1-0.5c0-0.3-0.1-0.6-0.3-0.9
				c-0.3-0.2-0.6-0.3-1-0.3L725.8,232.7z"/>
			<path class="st19" d="M734.9,231.9l-2.1,4.4l0,2.6l-0.8,0l0-2.6l-2.1-4.4l0.9,0l1.4,3.2c0,0,0.1,0.2,0.2,0.4l0,0
				c0-0.1,0.1-0.3,0.2-0.4l1.5-3.2L734.9,231.9z"/>
		</g>
	</g>
	<g id="tree7_4_">
		
			<ellipse transform="matrix(2.222609e-03 -1 1 2.222609e-03 931.8043 1531.5853)" class="st20" cx="1233.4" cy="298.9" rx="3.5" ry="4.2"/>
		<path class="st21" d="M1233.4,295.4c-2.3,0-4.2,1.5-4.2,3.5c0,1.9,1.9,3.5,4.2,3.5L1233.4,295.4z"/>
		
			<ellipse transform="matrix(2.222609e-03 -1 1 2.222609e-03 958.9741 1535.3351)" class="st20" cx="1248.9" cy="287.1" rx="3.5" ry="4.2"/>
		<path class="st21" d="M1248.9,283.7c-2.3,0-4.2,1.5-4.2,3.5c0,1.9,1.9,3.5,4.2,3.5L1248.9,283.7z"/>
		<polygon class="st22" points="1242.7,311.7 1242,311.2 1246.5,304.7 1247,305.2 		"/>
		<polygon class="st23" points="1246.8,304.9 1246.5,304.7 1242,311.2 1242.4,311.4 		"/>
		<polygon class="st22" points="1242,309.3 1241.3,308.8 1245.8,302.4 1246.3,302.8 		"/>
		<polygon class="st23" points="1246,302.6 1245.8,302.4 1241.3,308.8 1241.7,309 		"/>
		<polygon class="st22" points="1236.4,301.9 1236,302.5 1241.5,307.8 1242,307.2 		"/>
		<polygon class="st23" points="1241.8,307.5 1241.5,307.8 1236,302.5 1236.2,302.2 		"/>
		
			<rect x="1232" y="311.6" transform="matrix(2.222607e-03 -1 1 2.222607e-03 926.6918 1554.0425)" class="st22" width="20.2" height="2.1"/>
		
			<rect x="1231.5" y="312.1" transform="matrix(2.222607e-03 -1 1 2.222607e-03 926.1896 1553.5369)" class="st23" width="20.2" height="1.1"/>
		
			<ellipse transform="matrix(2.222609e-03 -1 1 2.222609e-03 945.2531 1536.7096)" class="st20" cx="1242.7" cy="294.7" rx="10.4" ry="12.6"/>
		<path class="st21" d="M1242.7,284.3c-7,0-12.6,4.6-12.6,10.3c0,5.7,5.6,10.4,12.6,10.4L1242.7,284.3z"/>
		
			<ellipse transform="matrix(2.222609e-03 -1 1 2.222609e-03 943.4793 1550.7268)" class="st20" cx="1248.8" cy="302.6" rx="4.2" ry="5"/>
		<path class="st21" d="M1248.8,298.4c-2.8,0-5,1.8-5.1,4.2c0,2.3,2.2,4.2,5,4.2L1248.8,298.4z"/>
	</g>
	<g id="tree6_3_">
		
			<ellipse transform="matrix(2.222609e-03 -1 1 2.222609e-03 906.0933 1486.2052)" class="st20" cx="1197.8" cy="289" rx="5.3" ry="6.6"/>
		<path class="st21" d="M1197.8,283.6c-3.6,0-6.6,2.3-6.6,5.3s2.9,5.3,6.5,5.3L1197.8,283.6z"/>
		
			<ellipse transform="matrix(2.222609e-03 -1 1 2.222609e-03 948.3665 1492.2299)" class="st20" cx="1222" cy="270.9" rx="5.3" ry="6.6"/>
		<path class="st21" d="M1222,265.5c-3.6,0-6.6,2.3-6.6,5.3c0,3,2.9,5.3,6.5,5.3L1222,265.5z"/>
		<polygon class="st22" points="1212.1,308.9 1211.3,308.2 1218.2,298.1 1219,298.9 		"/>
		<polygon class="st23" points="1218.6,298.5 1218.2,298.1 1211.3,308.2 1211.7,308.5 		"/>
		<polygon class="st22" points="1211,305.3 1210.2,304.5 1217.1,294.4 1217.9,295.2 		"/>
		<polygon class="st23" points="1217.5,294.8 1217.1,294.4 1210.2,304.5 1210.6,304.8 		"/>
		<polygon class="st22" points="1202.5,293.9 1201.8,294.8 1210.4,303 1211.1,302 		"/>
		<polygon class="st23" points="1210.8,302.5 1210.4,303 1201.8,294.8 1202.2,294.4 		"/>
		
			<rect x="1195.6" y="308.9" transform="matrix(2.222607e-03 -1 1 2.222607e-03 898.1063 1521.161)" class="st22" width="31.4" height="3.3"/>
		
			<rect x="1194.8" y="309.7" transform="matrix(2.222607e-03 -1 1 2.222607e-03 897.2525 1520.3015)" class="st23" width="31.4" height="1.6"/>
		
			<ellipse transform="matrix(2.222609e-03 -1 1 2.222609e-03 926.9225 1494.2441)" class="st20" cx="1212.2" cy="282.6" rx="16.2" ry="19.6"/>
		<path class="st21" d="M1212.3,266.5c-10.8,0-19.6,7.2-19.6,16.1c0,8.9,8.7,16.2,19.5,16.2L1212.3,266.5z"/>
		
			<ellipse transform="matrix(2.222609e-03 -1 1 2.222609e-03 924.3549 1516.0819)" class="st20" cx="1221.9" cy="294.8" rx="6.5" ry="7.9"/>
		<path class="st21" d="M1221.9,288.4c-4.3,0-7.9,2.8-7.9,6.4c0,3.6,3.5,6.5,7.9,6.5L1221.9,288.4z"/>
	</g>
	<g id="tree7_2_">
		
			<ellipse transform="matrix(2.222609e-03 -1 1 2.222609e-03 862.091 1461.4056)" class="st20" cx="1163.4" cy="298.7" rx="3.5" ry="4.2"/>
		<path class="st21" d="M1163.4,295.2c-2.3,0-4.2,1.5-4.2,3.5c0,1.9,1.9,3.5,4.2,3.5L1163.4,295.2z"/>
		
			<ellipse transform="matrix(2.222609e-03 -1 1 2.222609e-03 889.2606 1465.1553)" class="st20" cx="1178.8" cy="287" rx="3.5" ry="4.2"/>
		<path class="st21" d="M1178.8,283.6c-2.3,0-4.2,1.5-4.2,3.5c0,1.9,1.9,3.5,4.2,3.5L1178.8,283.6z"/>
		<polygon class="st22" points="1172.5,311.5 1172,311 1176.5,304.6 1177,305.1 		"/>
		<polygon class="st23" points="1176.7,304.8 1176.5,304.6 1172,311 1172.3,311.2 		"/>
		<polygon class="st22" points="1171.8,309.2 1171.3,308.6 1175.8,302.2 1176.3,302.6 		"/>
		<polygon class="st23" points="1176,302.4 1175.8,302.2 1171.3,308.6 1171.6,308.9 		"/>
		<polygon class="st22" points="1166.4,301.8 1166,302.4 1171.4,307.6 1171.9,307 		"/>
		<polygon class="st23" points="1171.7,307.3 1171.4,307.6 1166,302.4 1166.2,302.1 		"/>
		
			<rect x="1161.9" y="311.4" transform="matrix(2.222607e-03 -1 1 2.222607e-03 856.8781 1483.7616)" class="st22" width="20.2" height="2.1"/>
		
			<rect x="1161.4" y="311.9" transform="matrix(2.222607e-03 -1 1 2.222607e-03 856.3758 1483.256)" class="st23" width="20.2" height="1.1"/>
		
			<ellipse transform="matrix(2.222609e-03 -1 1 2.222609e-03 875.5397 1466.5298)" class="st20" cx="1172.7" cy="294.5" rx="10.4" ry="12.6"/>
		<path class="st21" d="M1172.7,284.2c-7,0-12.6,4.6-12.6,10.3c0,5.7,5.6,10.4,12.6,10.4L1172.7,284.2z"/>
		
			<ellipse transform="matrix(2.222609e-03 -1 1 2.222609e-03 873.7659 1480.547)" class="st20" cx="1178.8" cy="302.4" rx="4.2" ry="5"/>
		<path class="st21" d="M1178.8,298.2c-2.8,0-5,1.8-5.1,4.2s2.2,4.2,5,4.2L1178.8,298.2z"/>
	</g>
	<g id="tree6_1_">
		
			<ellipse transform="matrix(2.222609e-03 -1 1 2.222609e-03 1041.6736 1635.0065)" class="st20" cx="1340.2" cy="295.5" rx="3.7" ry="3.6"/>
		<path class="st21" d="M1340.2,291.8c-2,0-3.6,1.6-3.6,3.7c0,2,1.6,3.7,3.6,3.7L1340.2,291.8z"/>
		
			<ellipse transform="matrix(2.222609e-03 -1 1 2.222609e-03 1067.5526 1636.0203)" class="st20" cx="1353.6" cy="283" rx="3.7" ry="3.6"/>
		<path class="st21" d="M1353.6,279.4c-2,0-3.6,1.6-3.6,3.7c0,2,1.6,3.7,3.6,3.7L1353.6,279.4z"/>
		<polygon class="st22" points="1348.1,309.1 1347.7,308.6 1351.5,301.7 1351.9,302.3 		"/>
		<polygon class="st23" points="1351.7,302 1351.5,301.7 1347.7,308.6 1347.9,308.8 		"/>
		<polygon class="st22" points="1347.5,306.6 1347.1,306.1 1350.8,299.2 1351.3,299.7 		"/>
		<polygon class="st23" points="1351.1,299.4 1350.8,299.2 1347.1,306.1 1347.3,306.4 		"/>
		<polygon class="st22" points="1342.8,298.8 1342.5,299.5 1347.2,305 1347.6,304.3 		"/>
		<polygon class="st23" points="1347.4,304.6 1347.2,305 1342.5,299.5 1342.6,299.1 		"/>
		
			<rect x="1336.9" y="309.3" transform="matrix(2.222607e-03 -1 1 2.222607e-03 1034.5337 1657.167)" class="st22" width="21.5" height="1.8"/>
		
			<rect x="1336.5" y="309.7" transform="matrix(2.222607e-03 -1 1 2.222607e-03 1034.0815 1656.712)" class="st23" width="21.5" height="0.9"/>
		
			<ellipse transform="matrix(2.222609e-03 -1 1 2.222609e-03 1054.1221 1638.7133)" class="st20" cx="1348.2" cy="291.1" rx="11.1" ry="10.9"/>
		<path class="st21" d="M1348.3,280c-6.1,0-10.9,4.9-10.9,11c0,6.1,4.9,11.1,10.9,11.1L1348.3,280z"/>
		
			<ellipse transform="matrix(2.222609e-03 -1 1 2.222609e-03 1051.1343 1652.3293)" class="st20" cx="1353.6" cy="299.4" rx="4.4" ry="4.3"/>
		<path class="st21" d="M1353.6,295c-2.4,0-4.3,1.9-4.3,4.4c0,2.5,1.9,4.4,4.3,4.4L1353.6,295z"/>
	</g>
	<g id="tree7">
		
			<ellipse transform="matrix(2.222609e-03 -1 1 2.222609e-03 1018.4457 1594.7942)" class="st20" cx="1308.4" cy="287" rx="5.4" ry="6.6"/>
		<path class="st21" d="M1308.4,281.6c-3.6,0-6.6,2.4-6.6,5.4c0,3,2.9,5.4,6.5,5.4L1308.4,281.6z"/>
		
			<ellipse transform="matrix(2.222609e-03 -1 1 2.222609e-03 1061.2255 1600.9182)" class="st20" cx="1332.9" cy="268.7" rx="5.4" ry="6.6"/>
		<path class="st21" d="M1332.9,263.2c-3.6,0-6.6,2.4-6.6,5.4s2.9,5.4,6.5,5.4L1332.9,263.2z"/>
		<polygon class="st22" points="1323,307.2 1322.1,306.4 1329.1,296.3 1329.9,297.1 		"/>
		<polygon class="st23" points="1329.5,296.7 1329.1,296.3 1322.1,306.4 1322.5,306.8 		"/>
		<polygon class="st22" points="1321.8,303.6 1321,302.7 1328,292.5 1328.8,293.3 		"/>
		<polygon class="st23" points="1328.4,292.9 1328,292.5 1321,302.7 1321.4,303.1 		"/>
		<polygon class="st22" points="1313.2,292 1312.5,293 1321.2,301.2 1321.9,300.2 		"/>
		<polygon class="st23" points="1321.6,300.7 1321.2,301.2 1312.5,293 1312.9,292.5 		"/>
		
			<rect x="1306.1" y="307.2" transform="matrix(2.222607e-03 -1 1 2.222607e-03 1010.2515 1630.157)" class="st22" width="31.8" height="3.3"/>
		
			<rect x="1305.3" y="308" transform="matrix(2.222607e-03 -1 1 2.222607e-03 1009.4478 1629.3479)" class="st23" width="31.8" height="1.7"/>
		
			<ellipse transform="matrix(2.222609e-03 -1 1 2.222609e-03 1039.5784 1602.9335)" class="st20" cx="1323" cy="280.5" rx="16.4" ry="19.9"/>
		<path class="st21" d="M1323.1,264.1c-11,0-19.9,7.3-19.9,16.3c0,9,8.8,16.4,19.8,16.4L1323.1,264.1z"/>
		
			<ellipse transform="matrix(2.222609e-03 -1 1 2.222609e-03 1036.9059 1625.0762)" class="st20" cx="1332.8" cy="292.9" rx="6.6" ry="8"/>
		<path class="st21" d="M1332.8,286.4c-4.3,0-7.9,3-7.9,6.5s3.5,6.6,7.9,6.6L1332.8,286.4z"/>
	</g>
	<g id="tree6">
		
			<ellipse transform="matrix(2.222609e-03 -1 1 2.222609e-03 1078.8062 1656.5847)" class="st20" cx="1369.5" cy="287.7" rx="5.3" ry="6.6"/>
		<path class="st21" d="M1369.6,282.4c-3.6,0-6.6,2.3-6.6,5.3c0,3,2.9,5.3,6.5,5.3L1369.6,282.4z"/>
		
			<ellipse transform="matrix(2.222609e-03 -1 1 2.222609e-03 1120.979 1662.5082)" class="st20" cx="1393.6" cy="269.5" rx="5.3" ry="6.6"/>
		<path class="st21" d="M1393.6,264.2c-3.6,0-6.6,2.3-6.6,5.3c0,3,2.9,5.3,6.5,5.3L1393.6,264.2z"/>
		<polygon class="st22" points="1383.8,307.6 1383,306.9 1389.9,296.7 1390.7,297.6 		"/>
		<polygon class="st23" points="1390.3,297.2 1389.9,296.7 1383,306.9 1383.4,307.3 		"/>
		<polygon class="st22" points="1382.7,303.9 1381.9,303.2 1388.8,293.1 1389.6,293.9 		"/>
		<polygon class="st23" points="1389.2,293.5 1388.8,293.1 1381.9,303.2 1382.3,303.6 		"/>
		<polygon class="st22" points="1374.3,292.5 1373.6,293.5 1382.1,301.6 1382.8,300.6 		"/>
		<polygon class="st23" points="1382.4,301.1 1382.1,301.6 1373.6,293.5 1374,293 		"/>
		
			<rect x="1367.2" y="307.5" transform="matrix(2.222607e-03 -1 1 2.222607e-03 1070.719 1691.4396)" class="st22" width="31.4" height="3.3"/>
		
			<rect x="1366.4" y="308.4" transform="matrix(2.222607e-03 -1 1 2.222607e-03 1069.8651 1690.58)" class="st23" width="31.4" height="1.6"/>
		
			<ellipse transform="matrix(2.222609e-03 -1 1 2.222609e-03 1099.6355 1664.6237)" class="st20" cx="1384" cy="281.3" rx="16.2" ry="19.6"/>
		<path class="st21" d="M1384,265.1c-10.8,0-19.6,7.2-19.6,16.1c0,8.9,8.7,16.2,19.5,16.2L1384,265.1z"/>
		
			<ellipse transform="matrix(2.222609e-03 -1 1 2.222609e-03 1096.9673 1686.3604)" class="st20" cx="1393.5" cy="293.5" rx="6.5" ry="7.9"/>
		<path class="st21" d="M1393.6,287c-4.3,0-7.9,2.8-7.9,6.4c0,3.6,3.5,6.5,7.9,6.5L1393.6,287z"/>
	</g>
	<g id="house-green">
		<path class="st24" d="M416.3,280.9L416.3,280.9L416.3,280.9c-0.4-0.7-1.1-1.2-1.8-1.5l-39.3-31.5l-39.1,31.7
			c-0.4,0.2-0.7,0.5-1,0.8l-0.1,0.1l0,0c-0.6,0.6-0.9,1.5-0.9,2.4c0,2.2,1.8,3.8,4,3.8l0,0l74.8,0.2c2.2,0,3.9-1.6,4-3.8
			C416.9,282.1,416.7,281.4,416.3,280.9z"/>
		<polygon class="st25" points="407.9,321.2 343.7,321 343.8,280.9 375.5,256.2 375.5,256.2 408,280.8 		"/>
		
			<rect x="379.2" y="302.3" transform="matrix(2.222607e-03 -1 1 2.222607e-03 76.7216 693.5627)" class="st2" width="13.5" height="12.1"/>
		
			<rect x="380.3" y="303.3" transform="matrix(2.222607e-03 -1 1 2.222607e-03 76.7205 693.6642)" class="st26" width="11.4" height="10.2"/>
		
			<rect x="385.4" y="302.8" transform="matrix(2.222607e-03 -1 1 2.222607e-03 76.2085 694.0724)" class="st2" width="1" height="12.1"/>
		
			<rect x="380.8" y="307.4" transform="matrix(2.222607e-03 -1 1 2.222607e-03 77.2227 694.1699)" class="st2" width="11.4" height="1.9"/>
		
			<rect x="350.8" y="303.1" transform="matrix(2.222607e-03 -1 1 2.222607e-03 50.4102 671.1801)" class="st2" width="21.5" height="14.4"/>
		
			<rect x="351.4" y="304.9" transform="matrix(2.222607e-03 -1 1 2.222607e-03 49.7443 671.7411)" class="st24" width="20.3" height="12.1"/>
		
			<rect x="385" y="306.8" transform="matrix(2.222607e-03 -1 1 2.222607e-03 69.4938 700.1398)" class="st24" width="1.1" height="17"/>
		
			<rect x="368.8" y="273.5" transform="matrix(2.222607e-03 -1 1 2.222607e-03 95.2096 654.5042)" class="st2" width="13.5" height="12.1"/>
		
			<rect x="370" y="274.5" transform="matrix(2.222607e-03 -1 1 2.222607e-03 95.2085 654.6057)" class="st26" width="11.4" height="10.2"/>
		
			<rect x="375.1" y="274" transform="matrix(2.222607e-03 -1 1 2.222607e-03 94.6965 655.0138)" class="st2" width="1" height="12.1"/>
		
			<rect x="370.5" y="278.6" transform="matrix(2.222607e-03 -1 1 2.222607e-03 95.7108 655.1113)" class="st2" width="11.4" height="1.9"/>
		
			<rect x="378.6" y="275.9" transform="matrix(2.222607e-03 -1 1 2.222607e-03 104.9031 664.2626)" class="st24" width="13.5" height="7.4"/>
		
			<rect x="359.1" y="275.8" transform="matrix(2.222607e-03 -1 1 2.222607e-03 85.516 644.7457)" class="st24" width="13.5" height="7.4"/>
	</g>
	<g id="house-yellow">
		<path class="st24" d="M1000.3,278.5L1000.3,278.5L1000.3,278.5c-0.5-0.7-1.1-1.3-1.9-1.6l-40.5-35.5l-40.4,35.5
			c-0.4,0.2-0.7,0.5-1,0.9l-0.1,0.1l0,0c-0.6,0.7-0.9,1.6-0.9,2.7c0,2.4,1.9,4.3,4.1,4.3l0,0l77.2,0.2c2.2,0,4.1-1.8,4.1-4.3
			C1000.9,279.9,1000.7,279.1,1000.3,278.5z"/>
		<polygon class="st27" points="991.5,323.9 925.2,323.8 925.3,278.6 958,250.7 958,250.7 991.6,278.6 		"/>
		
			<rect x="961.2" y="303.2" transform="matrix(2.222607e-03 -1 1 2.222607e-03 657.1841 1277.6008)" class="st2" width="15.3" height="12.5"/>
		
			<rect x="962.4" y="304.2" transform="matrix(2.222607e-03 -1 1 2.222607e-03 657.1841 1277.6008)" class="st26" width="12.8" height="10.5"/>
		
			<rect x="968.2" y="303.8" transform="matrix(2.222607e-03 -1 1 2.222607e-03 656.5685 1278.2124)" class="st2" width="1.1" height="12.5"/>
		
			<rect x="963" y="308.5" transform="matrix(2.222607e-03 -1 1 2.222607e-03 657.7868 1278.2075)" class="st2" width="12.8" height="2"/>
		
			<rect x="931.8" y="304.3" transform="matrix(2.222607e-03 -1 1 2.222607e-03 629.6074 1254.8678)" class="st2" width="23.8" height="15.2"/>
		
			<rect x="932.4" y="306.2" transform="matrix(2.222607e-03 -1 1 2.222607e-03 628.7886 1255.4802)" class="st24" width="22.3" height="12.8"/>
		
			<rect x="967.8" y="308.5" transform="matrix(2.222607e-03 -1 1 2.222607e-03 649.0841 1285.0443)" class="st24" width="1.3" height="17.6"/>
		
			<rect x="950.5" y="270.8" transform="matrix(2.222607e-03 -1 1 2.222607e-03 678.8618 1234.5701)" class="st2" width="15.3" height="12.5"/>
		
			<rect x="951.7" y="271.9" transform="matrix(2.222607e-03 -1 1 2.222607e-03 678.8618 1234.5701)" class="st26" width="12.8" height="10.5"/>
		
			<rect x="957.5" y="271.4" transform="matrix(2.222607e-03 -1 1 2.222607e-03 678.3488 1235.0797)" class="st2" width="1.1" height="12.5"/>
		
			<rect x="952.3" y="276.1" transform="matrix(2.222607e-03 -1 1 2.222607e-03 679.4645 1235.1769)" class="st2" width="12.8" height="2"/>
		
			<rect x="960.5" y="273.3" transform="matrix(2.222607e-03 -1 1 2.222607e-03 688.8568 1244.632)" class="st24" width="15.3" height="7.6"/>
		
			<rect x="940.4" y="273.3" transform="matrix(2.222607e-03 -1 1 2.222607e-03 668.8669 1224.5083)" class="st24" width="15.3" height="7.6"/>
	</g>
	<g id="tree5">
		
			<ellipse transform="matrix(2.222609e-03 -1 1 2.222609e-03 1116.1514 1705.8779)" class="st20" cx="1412.9" cy="293.6" rx="4.5" ry="4.5"/>
		<path class="st21" d="M1412.9,289.1c-2.5,0-4.5,2-4.6,4.5c0,2.5,2,4.5,4.5,4.5L1412.9,289.1z"/>
		<path class="st20" d="M1427.9,282.5L1427.9,282.5c-1.5-0.7-2.6-2.3-2.6-4c0.1-1.3,0.6-2.6,1.4-3.2c0.4-0.3,0.8-0.6,1.2-0.8l0,0
			l0,0.8c0,0.1,0,0.3,0,0.4l0,1.1c0,0.2,0,0.4,0,0.5l0,0c0,0.1,0,0.1,0,0.2l0,1.6C1427.9,280.1,1427.9,281.4,1427.9,282.5z"/>
		<path class="st20" d="M1427.9,277.5c0-0.1,0-0.1,0-0.2l0,0c0-0.2,0-0.4,0-0.5c0,0.2,0,0.4,0,0.5L1427.9,277.5L1427.9,277.5z"/>
		<path class="st20" d="M1427.9,282.5L1427.9,282.5c0-1.1,0-2.3,0-3.4l0-0.6L1427.9,282.5z"/>
		<path class="st21" d="M1427.9,282.5L1427.9,282.5c-1.5-0.7-2.6-2.3-2.6-4c0.1-1.3,0.6-2.6,1.4-3.2c0.4-0.3,0.8-0.6,1.2-0.8l0,0
			l0,0.8c0,0.1,0,0.3,0,0.4l0,1.1c0,0.2,0,0.4,0,0.5l0,0c0,0.1,0,0.1,0,0.2l0,1.6C1427.9,280.1,1427.9,281.4,1427.9,282.5z"/>
		<path class="st21" d="M1427.9,277.5c0-0.1,0-0.1,0-0.2l0,0c0-0.2,0-0.4,0-0.5c0,0.2,0,0.4,0,0.5L1427.9,277.5L1427.9,277.5z"/>
		<path class="st21" d="M1427.9,282.5L1427.9,282.5c0-1.1,0-2.3,0-3.4l0-0.6L1427.9,282.5z"/>
		<polygon class="st22" points="1427.2,301.2 1422.4,309.6 1423,310.2 1427.8,301.8 		"/>
		<polygon class="st23" points="1427.2,301.2 1422.4,309.6 1422.7,309.9 1427.5,301.5 		"/>
		<polygon class="st22" points="1422.2,307.2 1421.6,306.5 1426.4,298.2 1427,298.8 		"/>
		<polygon class="st23" points="1426.7,298.5 1426.4,298.2 1421.6,306.5 1421.9,306.8 		"/>
		<polygon class="st22" points="1416.2,297.6 1415.7,298.4 1421.8,305.2 1422.3,304.4 		"/>
		<polygon class="st23" points="1422,304.8 1421.8,305.2 1415.7,298.4 1416,298 		"/>
		
			<rect x="1409.2" y="310.4" transform="matrix(2.222607e-03 -1 1 2.222607e-03 1107.5863 1733.1711)" class="st22" width="26.2" height="2.3"/>
		
			<rect x="1408.6" y="311" transform="matrix(2.222607e-03 -1 1 2.222607e-03 1107.0337 1732.615)" class="st23" width="26.2" height="1.2"/>
		<path class="st20" d="M1427.8,295.9c0,0.6,0,1.1,0,1.7l0-0.4C1427.8,296.7,1427.8,296.3,1427.8,295.9z"/>
		<path class="st20" d="M1427.9,277.3L1427.9,277.3c0-0.2,0-0.4,0-0.5C1427.9,276.9,1427.9,277.1,1427.9,277.3z"/>
		<path class="st20" d="M1427.9,282.5l0,1.1c0,3.3,0,6.6,0,9.8l0,0.7c0,0.6,0,1.2,0,1.7c0,0.4,0,0.8,0,1.2l0,0.4c0,0.4,0,0.8,0,1.2
			l0,0.6c0,0.4,0,0.9,0,1.3l0,0c-0.8,0.3-1.6,0.5-2.3,0.6l0,0l-0.1,0l-0.4,0.1l-0.5,0.1l-0.5,0c-0.1,0-0.2,0-0.4,0l-0.5,0
			c-0.2,0-0.4,0-0.6,0l-0.3,0c-0.3,0-0.6,0-0.9-0.1c-0.3-0.1-0.6-0.1-0.9-0.1l-0.4-0.1l-0.2,0l-0.2-0.1l0,0l-0.4-0.1l-0.4-0.1
			c-0.3-0.1-0.6-0.2-0.9-0.3c-0.2-0.1-0.3-0.1-0.5-0.2l-0.4-0.2c-0.2-0.1-0.4-0.2-0.5-0.3l-0.5-0.3c-0.5-0.3-1.1-0.7-1.6-1.1
			c-0.3-0.2-0.5-0.4-0.7-0.6l-0.3-0.3c-0.1-0.1-0.2-0.2-0.4-0.4c-0.1-0.1-0.1-0.1-0.2-0.2c-0.1-0.1-0.2-0.2-0.3-0.3
			c-0.3-0.3-0.5-0.6-0.8-1c-0.1-0.1-0.1-0.2-0.2-0.2c0-0.1-0.2-0.3-0.3-0.4l0,0c-0.1-0.2-0.2-0.4-0.3-0.5c-0.1-0.2-0.2-0.3-0.3-0.5
			c-0.1-0.2-0.1-0.3-0.2-0.4c-0.1-0.1-0.1-0.2-0.2-0.3c-0.1-0.1-0.1-0.3-0.2-0.4c-0.1-0.1-0.1-0.3-0.2-0.4c0-0.1,0-0.1-0.1-0.2
			c0-0.1,0-0.1-0.1-0.2c0-0.1-0.1-0.2-0.1-0.3c-0.1-0.2-0.1-0.4-0.1-0.6c-0.1-0.2-0.1-0.4-0.1-0.6l0-0.1c0-0.2-0.1-0.3-0.1-0.5
			c0-0.1,0-0.2,0-0.3c0-0.1,0-0.2,0-0.3c0-0.2,0-0.4,0-0.6c0-0.2,0-0.4,0-0.6c0-0.2,0-0.5,0-0.7c0-0.2,0-0.4,0-0.6
			c0-0.2,0-0.2,0-0.3l0,0c0-0.1,0-0.2,0-0.3c0-0.3,0.1-0.5,0.2-0.8c0-0.2,0.1-0.4,0.1-0.5c0-0.2,0.1-0.3,0.1-0.5l0.1-0.2
			c0.2-0.6,0.4-1.1,0.7-1.6l0.1-0.2c0,0,0,0,0-0.1c0.1-0.1,0.1-0.3,0.2-0.4c0.3-0.6,0.6-1.1,1-1.5l0.4-0.4l0,0
			c0.1-0.2,0.2-0.3,0.4-0.4l0.2-0.2c0.2-0.3,0.5-0.5,0.7-0.7c0.1-0.1,0.2-0.2,0.3-0.2c0.1-0.1,0.3-0.2,0.4-0.3
			c0.3-0.2,0.6-0.5,0.9-0.7l0.2-0.1c0.3-0.2,0.6-0.4,0.9-0.5l0.3-0.1c0.1-0.1,0.2-0.1,0.3-0.2l0.2-0.1c0.1-0.1,0.2-0.1,0.3-0.1
			c0.1-0.1,0.3-0.1,0.4-0.2l0.2-0.1l0.4-0.1c0.3-0.1,0.6-0.2,0.9-0.3l0.6-0.1l0.4-0.1c0.2,0,0.3-0.1,0.5-0.1l0.4-0.1l0.1,0l0.3,0
			c0.2,0,0.4,0,0.6,0s0.5,0,0.7,0c1.2,0,2.4,0.2,3.6,0.5c0.4,0.1,0.8,0.2,1.2,0.4l0,0l0,1.1c0,0.1,0,0.2,0,0.4l0,1.9
			c0,0.6,0,1.1,0,1.7C1428,281.4,1427.9,281.9,1427.9,282.5z"/>
		<path class="st21" d="M1423,274.7c-7.6,0-13.7,6-13.8,13.5s6.1,13.5,13.7,13.5L1423,274.7z"/>
		<path class="st20" d="M1427.8,293.4l0,0.7c0,0.6,0,1.2,0,1.7c0,0.4,0,0.8,0,1.2l0,0.4c0,0.4,0,0.8,0,1.2l0,0.6c0,0.4,0,0.9,0,1.3
			l0,2.6l0,0c-0.2-0.1-0.5-0.2-0.7-0.3l-0.4-0.2c-0.1-0.1-0.2-0.2-0.3-0.2c-0.4-0.3-0.7-0.6-1-1l-0.1-0.1c-0.1-0.1-0.1-0.2-0.2-0.3
			c-0.1-0.1-0.2-0.3-0.2-0.4c-0.4-0.7-0.5-1.5-0.6-2.4C1424.4,296.1,1425.8,294.2,1427.8,293.4L1427.8,293.4z"/>
		<path class="st20" d="M1427.8,295.9c0,0.6,0,1.1,0,1.7l0-0.4C1427.8,296.7,1427.8,296.3,1427.8,295.9z"/>
		<path class="st20" d="M1427.8,299l0,0.5c0,0.4,0,0.9,0,1.3l0,0C1427.8,300.2,1427.8,299.6,1427.8,299z"/>
		<path class="st21" d="M1427.8,293.4l0,0.7c0,0.6,0,1.2,0,1.7c0,0.4,0,0.8,0,1.2l0,0.4c0,0.4,0,0.8,0,1.2l0,0.6c0,0.4,0,0.9,0,1.3
			l0,2.6l0,0c-0.2-0.1-0.5-0.2-0.7-0.3l-0.4-0.2c-0.1-0.1-0.2-0.2-0.3-0.2c-0.4-0.3-0.7-0.6-1-1l-0.1-0.1c-0.1-0.1-0.1-0.2-0.2-0.3
			c-0.1-0.1-0.2-0.3-0.2-0.4c-0.4-0.7-0.5-1.5-0.6-2.4C1424.4,296.1,1425.8,294.2,1427.8,293.4L1427.8,293.4z"/>
		<path class="st21" d="M1427.8,295.9c0,0.6,0,1.1,0,1.7l0-0.4C1427.8,296.7,1427.8,296.3,1427.8,295.9z"/>
		<path class="st21" d="M1427.8,299l0,0.5c0,0.4,0,0.9,0,1.3l0,0C1427.8,300.2,1427.8,299.6,1427.8,299z"/>
	</g>
	<g id="house-brown">
		
			<rect x="207.6" y="220.6" transform="matrix(2.222607e-03 -1 1 2.222607e-03 -10.985 444.3672)" class="st28" width="19.2" height="14.1"/>
		
			<rect x="213.3" y="204.6" transform="matrix(2.222607e-03 -1 1 2.222607e-03 2.4574 431.0141)" class="st29" width="7.8" height="19.4"/>
		<path class="st24" d="M238.6,248.5L238.6,248.5L238.6,248.5c-0.6-0.9-1.4-1.6-2.4-2.1l-51.2-43.9L134,246.6
			c-0.5,0.3-0.9,0.7-1.3,1.1l-0.1,0.1l0,0c-0.7,0.9-1.2,2-1.2,3.3c0.1,3,2.4,5.3,5.2,5.3l97.5,0.2c2.8,0.1,5.2-2.3,5.3-5.3
			C239.4,250.4,239.1,249.3,238.6,248.5z"/>
		<polygon class="st30" points="227.5,320.1 143.8,319.9 144,248.7 185.3,214.2 185.3,214.2 227.6,248.7 		"/>
		
			<rect x="181.6" y="241.5" transform="matrix(2.222607e-03 -1 1 2.222607e-03 -101.1128 470.2084)" class="st29" width="7" height="88.6"/>
		
			<rect x="154.6" y="264.9" transform="matrix(2.222607e-03 -1 1 2.222607e-03 -109.1277 436.2807)" class="st2" width="18.8" height="15.8"/>
		
			<rect x="156.2" y="266.2" transform="matrix(2.222607e-03 -1 1 2.222607e-03 -109.1276 436.2807)" class="st8" width="15.8" height="13.2"/>
		
			<rect x="163.3" y="265.6" transform="matrix(2.222607e-03 -1 1 2.222607e-03 -109.846 436.9942)" class="st2" width="1.4" height="15.8"/>
		
			<rect x="155.8" y="271.6" transform="matrix(2.222607e-03 -1 1 2.222607e-03 -109.5295 435.8762)" class="st2" width="15.8" height="2.5"/>
		
			<rect x="154.2" y="295.3" transform="matrix(2.222607e-03 -1 1 2.222607e-03 -140.0058 466.15)" class="st2" width="18.8" height="15.8"/>
		
			<rect x="155.7" y="296.6" transform="matrix(2.222607e-03 -1 1 2.222607e-03 -140.0058 466.15)" class="st8" width="15.8" height="13.2"/>
		
			<rect x="162.9" y="296" transform="matrix(2.222607e-03 -1 1 2.222607e-03 -140.7241 466.8635)" class="st2" width="1.4" height="15.8"/>
		
			<rect x="155.3" y="302" transform="matrix(2.222607e-03 -1 1 2.222607e-03 -140.4076 465.7455)" class="st2" width="15.8" height="2.5"/>
		
			<rect x="197.1" y="295.4" transform="matrix(2.222607e-03 -1 1 2.222607e-03 -97.3139 509.1275)" class="st2" width="18.8" height="15.8"/>
		
			<rect x="198.6" y="296.7" transform="matrix(2.222607e-03 -1 1 2.222607e-03 -97.3139 509.1275)" class="st8" width="15.8" height="13.2"/>
		
			<rect x="205.8" y="296.1" transform="matrix(2.222607e-03 -1 1 2.222607e-03 -98.0322 509.841)" class="st2" width="1.4" height="15.8"/>
		
			<rect x="198.2" y="302.1" transform="matrix(2.222607e-03 -1 1 2.222607e-03 -97.7157 508.723)" class="st2" width="15.8" height="2.5"/>
		
			<rect x="175.7" y="265" transform="matrix(2.222607e-03 -1 1 2.222607e-03 -88.1333 457.4155)" class="st2" width="18.8" height="15.8"/>
		
			<rect x="177.2" y="266.3" transform="matrix(2.222607e-03 -1 1 2.222607e-03 -88.2337 457.3144)" class="st8" width="15.8" height="13.2"/>
		
			<rect x="184.4" y="265.7" transform="matrix(2.222607e-03 -1 1 2.222607e-03 -88.8516 458.129)" class="st2" width="1.4" height="15.8"/>
		
			<rect x="176.9" y="271.6" transform="matrix(2.222607e-03 -1 1 2.222607e-03 -88.5351 457.011)" class="st2" width="15.8" height="2.5"/>
		
			<rect x="176.4" y="228.7" transform="matrix(2.222607e-03 -1 1 2.222607e-03 -51.2052 421.9383)" class="st2" width="18.8" height="15.8"/>
		
			<rect x="178" y="230" transform="matrix(2.222607e-03 -1 1 2.222607e-03 -51.2052 421.9383)" class="st8" width="15.8" height="13.2"/>
		
			<rect x="185.1" y="229.4" transform="matrix(2.222607e-03 -1 1 2.222607e-03 -51.9235 422.6518)" class="st2" width="1.4" height="15.8"/>
		
			<rect x="177.5" y="235.4" transform="matrix(2.222607e-03 -1 1 2.222607e-03 -51.607 421.5338)" class="st2" width="15.8" height="2.5"/>
		
			<rect x="197.1" y="265" transform="matrix(2.222607e-03 -1 1 2.222607e-03 -66.8375 478.8537)" class="st2" width="18.8" height="15.8"/>
		
			<rect x="198.7" y="266.3" transform="matrix(2.222607e-03 -1 1 2.222607e-03 -66.8375 478.8537)" class="st8" width="15.8" height="13.2"/>
		
			<rect x="205.8" y="265.7" transform="matrix(2.222607e-03 -1 1 2.222607e-03 -67.5559 479.5672)" class="st2" width="1.4" height="15.8"/>
		
			<rect x="198.3" y="271.7" transform="matrix(2.222607e-03 -1 1 2.222607e-03 -67.2393 478.4492)" class="st2" width="15.8" height="2.5"/>
		
			<rect x="172.4" y="298.6" transform="matrix(2.222607e-03 -1 1 2.222607e-03 -121.9009 491.6618)" class="st2" width="26.1" height="16.5"/>
		
			<rect x="173" y="300.7" transform="matrix(2.222607e-03 -1 1 2.222607e-03 -122.7709 492.3252)" class="st29" width="24.6" height="13.9"/>
		
			<rect x="183.8" y="232.9" transform="matrix(2.222607e-03 -1 1 2.222607e-03 -62.5516 433.9125)" class="st29" width="4.7" height="30.9"/>
	</g>
	<g id="shop">
		<path class="st31" d="M258.3,283l58.4,0.1c1.7,0,3,1.3,3,3.1l-0.1,26.4c0,1.6-1.4,3.1-3,3.1l-58.4-0.1c-1.7,0-3-1.3-3-3.1
			l0.1-26.4C255.2,284.3,256.6,283,258.3,283z"/>
		
			<rect x="285.9" y="286" transform="matrix(2.222607e-03 -1 1 2.222607e-03 -30.0392 603.3273)" class="st32" width="2.9" height="61.3"/>
		
			<rect x="285.9" y="286.3" transform="matrix(2.222607e-03 -1 1 2.222607e-03 -32.5543 605.9261)" class="st33" width="2.9" height="65.9"/>
		
			<rect x="266.5" y="281.6" transform="matrix(2.222607e-03 -1 1 2.222607e-03 -20.9555 575.0168)" class="st8" width="22.4" height="32.9"/>
		<polygon class="st34" points="262.5,308.2 262.6,286.8 261.2,286.8 261.2,309.2 294.1,309.3 294.1,308.2 		"/>
		<path class="st35" d="M255.2,282.4l0,7.9c0.1,2.3,2,3.9,4.2,3.8c2-0.1,3.6-1.7,3.8-3.8l0-7.9L255.2,282.4z"/>
		<path class="st36" d="M263.3,282.5l0,7.9c0.1,2.3,2,3.9,4.2,3.8c2-0.1,3.6-1.7,3.8-3.8l0-7.9L263.3,282.5z"/>
		<path class="st35" d="M271.3,282.5l0,7.9c0.1,2.3,2,3.9,4.2,3.8c2-0.1,3.6-1.7,3.8-3.8l0-7.9L271.3,282.5z"/>
		<path class="st36" d="M279.3,282.5l0,7.9c0,2.3,1.8,4,4,4c2.2,0,4-1.7,4-4l0-7.9L279.3,282.5z"/>
		<path class="st35" d="M287.4,282.5l0,7.9c0.1,2.3,2,3.9,4.2,3.8c2-0.1,3.6-1.7,3.8-3.8l0-7.9L287.4,282.5z"/>
		<path class="st36" d="M295.5,282.5l0,7.9c0.1,2.3,2,3.9,4.2,3.8c2-0.1,3.6-1.7,3.8-3.8l0-7.9L295.5,282.5z"/>
		<path class="st35" d="M303.5,282.6l0,7.9c0.1,2.3,2,3.9,4.2,3.8c2-0.1,3.6-1.7,3.8-3.8l0-7.9L303.5,282.6z"/>
		<path class="st36" d="M311.6,282.6l0,7.9c0.1,2.3,2,3.9,4.2,3.8c2-0.1,3.6-1.7,3.8-3.8l0-7.9L311.6,282.6z"/>
		<path class="st37" d="M266.8,269.9l-11.6,12.6l8.1,0l8.7-12.6L266.8,269.9z"/>
		<path class="st38" d="M272,269.9l-8.7,12.6l8.1,0l5.9-12.6L272,269.9z"/>
		<path class="st37" d="M277.1,269.9l-5.9,12.6l8.1,0l3-12.6L277.1,269.9z"/>
		<path class="st38" d="M282.3,269.9l-3,12.6l8.1,0l0-12.6L282.3,269.9z"/>
		<path class="st37" d="M287.4,269.9l0,12.6l8.1,0l-2.9-12.6L287.4,269.9z"/>
		<path class="st38" d="M292.6,269.9l2.9,12.6l8.1,0l-5.8-12.6L292.6,269.9z"/>
		<path class="st37" d="M297.7,269.9l5.8,12.6l8.1,0L303,270L297.7,269.9z"/>
		<path class="st38" d="M311.6,282.5l8.1,0L308,270l-5.1,0L311.6,282.5z"/>
		
			<rect x="268.1" y="266" transform="matrix(2.222607e-03 -1 1 2.222607e-03 0.2588 537.3687)" class="st37" width="2.7" height="5.1"/>
		
			<rect x="273.2" y="266" transform="matrix(2.222607e-03 -1 1 2.222607e-03 5.3818 542.526)" class="st37" width="2.7" height="5.1"/>
		
			<rect x="278.4" y="266" transform="matrix(2.222607e-03 -1 1 2.222607e-03 10.5048 547.6833)" class="st37" width="2.7" height="5.1"/>
		
			<rect x="283.5" y="266" transform="matrix(2.222607e-03 -1 1 2.222607e-03 15.6279 552.8406)" class="st37" width="2.7" height="5.1"/>
		
			<rect x="288.7" y="266" transform="matrix(2.222607e-03 -1 1 2.222607e-03 20.7509 557.9979)" class="st37" width="2.7" height="5.1"/>
		
			<rect x="293.8" y="266" transform="matrix(2.222607e-03 -1 1 2.222607e-03 25.8739 563.1552)" class="st37" width="2.7" height="5.1"/>
		
			<rect x="299" y="266.1" transform="matrix(2.222607e-03 -1 1 2.222607e-03 30.9969 568.3125)" class="st37" width="2.7" height="5.1"/>
		
			<rect x="304.2" y="266.1" transform="matrix(2.222607e-03 -1 1 2.222607e-03 36.2204 573.5709)" class="st37" width="2.7" height="5.1"/>
		
			<rect x="293.9" y="295.7" transform="matrix(2.222607e-03 -1 1 2.222607e-03 0.3131 608.5364)" class="st27" width="22.4" height="16.7"/>
		
			<rect x="301.1" y="303.3" transform="matrix(2.222607e-03 -1 1 2.222607e-03 -4.9267 614.3442)" class="st39" width="8.5" height="12.7"/>
		
			<rect x="301.1" y="293" transform="matrix(2.222607e-03 -1 1 2.222607e-03 5.3347 604.1509)" class="st8" width="8.7" height="12.7"/>
		<polygon class="st34" points="299.6,303.3 299.6,295 299.1,295 299,303.7 311.8,303.8 311.8,303.4 		"/>
	</g>
	<g id="tree4">
		
			<rect x="619.5" y="312.9" transform="matrix(2.222607e-03 -1 1 2.222607e-03 311.8635 941.2577)" class="st22" width="16.3" height="2.9"/>
		
			<rect x="618.8" y="313.6" transform="matrix(2.222607e-03 -1 1 2.222607e-03 311.1603 940.5498)" class="st23" width="16.3" height="1.5"/>
		<polygon class="st40" points="637,312.9 627.8,272.3 618.2,312.8 619.7,312.8 619.1,315.9 636.3,316 635.6,312.9 		"/>
		<polygon class="st41" points="627.7,315.9 627.8,272.3 618.3,312.8 619.8,312.8 619.1,315.9 		"/>
	</g>
	<g id="tree3">
		
			<rect x="596.1" y="312.8" transform="matrix(2.222607e-03 -1 1 2.222607e-03 288.5587 917.797)" class="st22" width="16.3" height="2.9"/>
		
			<rect x="595.4" y="313.5" transform="matrix(2.222607e-03 -1 1 2.222607e-03 287.8555 917.0892)" class="st23" width="16.3" height="1.5"/>
		<polygon class="st40" points="613.7,312.8 604.3,272.3 594.8,312.8 596.4,312.8 595.7,315.9 612.9,315.9 612.2,312.8 		"/>
		<polygon class="st41" points="604.3,315.9 604.4,272.3 594.9,312.8 596.4,312.8 595.8,315.9 		"/>
	</g>
	<g id="house-red">
		
			<rect x="484.6" y="238.4" transform="matrix(2.222607e-03 -1 1 2.222607e-03 245.8655 736.6968)" class="st42" width="15.1" height="13.5"/>
		
			<rect x="488.8" y="225.2" transform="matrix(2.222607e-03 -1 1 2.222607e-03 256.7437 725.7905)" class="st43" width="6.6" height="18.1"/>
		<polygon class="st44" points="587.5,283.9 443,283.6 460.7,251.7 568.9,251.9 		"/>
		
			<rect x="497.5" y="243" transform="matrix(2.222607e-03 -1 1 2.222607e-03 212.5938 814.9515)" class="st45" width="34.4" height="115.8"/>
		<path class="st2" d="M556.1,280.4L556.1,280.4L556.1,280.4c-0.6-0.8-1.5-1.3-2.5-1.7l-38.9-63.8l-38.4,63.9
			c-0.5,0.2-0.9,0.5-1.3,0.9l-0.1,0.1l0,0c-0.8,0.7-1.2,1.7-1.2,2.7c0.1,2.5,2.4,4.4,5.3,4.4l72.3,0.2c2.9,0,5.4-1.9,5.4-4.4
			C556.9,281.8,556.6,281,556.1,280.4z"/>
		<polygon class="st42" points="543.8,321.1 485.2,320.9 485.3,277.7 515.5,227.4 515.5,227.4 543.9,277.6 		"/>
		
			<rect x="464.1" y="294.6" transform="matrix(2.222607e-03 -1 1 2.222607e-03 168.105 773.8594)" class="st2" width="15.6" height="16.2"/>
		
			<rect x="465.3" y="295.8" transform="matrix(2.222607e-03 -1 1 2.222607e-03 168.1564 773.8084)" class="st26" width="13" height="13.6"/>
		
			<rect x="471.3" y="295.1" transform="matrix(2.222607e-03 -1 1 2.222607e-03 167.5407 774.42)" class="st2" width="1.1" height="16.2"/>
		
			<rect x="466" y="301.3" transform="matrix(2.222607e-03 -1 1 2.222607e-03 168.8093 774.4657)" class="st2" width="13" height="2.6"/>
		
			<rect x="551.1" y="294.8" transform="matrix(2.222607e-03 -1 1 2.222607e-03 254.7947 861.129)" class="st2" width="15.6" height="16.2"/>
		
			<rect x="552.4" y="296" transform="matrix(2.222607e-03 -1 1 2.222607e-03 254.8461 861.0781)" class="st26" width="13" height="13.6"/>
		
			<rect x="558.4" y="295.3" transform="matrix(2.222607e-03 -1 1 2.222607e-03 254.2304 861.6897)" class="st2" width="1.1" height="16.2"/>
		
			<rect x="553.2" y="301.5" transform="matrix(2.222607e-03 -1 1 2.222607e-03 255.5995 861.8365)" class="st2" width="13" height="2.6"/>
		
			<rect x="502.4" y="255.1" transform="matrix(2.222607e-03 -1 1 2.222607e-03 250.3568 777.3391)" class="st2" width="24.7" height="16.2"/>
		
			<rect x="504.4" y="256.4" transform="matrix(2.222607e-03 -1 1 2.222607e-03 250.4081 777.2881)" class="st26" width="20.7" height="13.6"/>
		
			<rect x="513.8" y="256" transform="matrix(2.222607e-03 -1 1 2.222607e-03 249.4846 778.2054)" class="st2" width="1.8" height="16.2"/>
		
			<rect x="505" y="261.9" transform="matrix(2.222607e-03 -1 1 2.222607e-03 251.0611 777.9454)" class="st2" width="20.7" height="2.6"/>
		<path class="st2" d="M524.1,321l0.1-23.7c0-3.6-4.3-6.6-9.6-6.6c-5.2,0-9.6,2.9-9.6,6.5l-0.1,23.7L524.1,321z"/>
		<path class="st46" d="M522.3,321l0-22.3c-0.2-3.6-3.7-6.4-8-6.2c-3.9,0.1-7.1,2.7-7.3,6.1l0,22.3L522.3,321z"/>
		
			<rect x="512.9" y="252.9" transform="matrix(2.222607e-03 -1 1 2.222607e-03 193.5918 835.535)" class="st44" width="5.2" height="135.7"/>
	</g>
	<g id="tree2">
		<polygon class="st22" points="436.5,316.2 436.1,316.6 431.7,307.9 432.1,307.5 		"/>
		<polygon class="st23" points="431.9,307.7 431.7,307.9 436.1,316.6 436.3,316.4 		"/>
		<polygon class="st22" points="437.2,314.2 436.7,313.9 439.4,306.2 439.9,306.5 		"/>
		<polygon class="st23" points="439.7,306.4 439.4,306.2 436.7,313.9 437,314 		"/>
		
			<rect x="425.9" y="308.8" transform="matrix(2.222607e-03 -1 1 2.222607e-03 125.763 745.7029)" class="st22" width="21.4" height="2"/>
		<polygon class="st23" points="436.6,299.1 435.6,299.1 435.5,320.5 436.5,320.5 436.6,304.2 		"/>
		<polygon class="st40" points="442,299 436.6,281.5 431.1,299 431.9,299 431.6,300.3 441.5,300.4 441.1,299 		"/>
		<polygon class="st41" points="436.6,300.4 436.6,281.5 431.1,299 432,299 431.6,300.3 		"/>
		<polygon class="st40" points="432.3,305 432.3,305 429.8,309.4 434.4,309.4 		"/>
		<polygon class="st41" points="432.3,305 432.3,305 429.8,309.4 432.3,309.4 		"/>
		<polygon class="st40" points="439.9,301.1 439.9,301.1 437.9,306.8 441.5,306.8 		"/>
		<polygon class="st41" points="439.9,301.1 439.9,301.1 437.9,306.8 439.9,306.8 		"/>
	</g>
	<g id="house-light-brown">
		<path class="st24" d="M85.2,275.7L85.2,275.7L85.2,275.7c-0.4-0.7-1-1.3-1.7-1.6l-36.6-35.5l-36.5,35.7c-0.3,0.2-0.6,0.5-0.9,0.9
			l-0.1,0.1l0,0c-0.5,0.7-0.8,1.6-0.8,2.7c0,2.4,1.7,4.3,3.7,4.3l0,0l69.8,0.2c2,0,3.7-1.8,3.7-4.3
			C85.8,277.2,85.6,276.4,85.2,275.7z"/>
		<polygon class="st47" points="77.3,321.3 17.3,321.1 17.4,275.9 47.1,248 47.1,248 77.4,275.8 		"/>
		
			<rect x="49.2" y="301.2" transform="matrix(2.222607e-03 -1 1 2.222607e-03 -250.1818 362.9331)" class="st2" width="15.3" height="11.3"/>
		
			<rect x="50.4" y="302.1" transform="matrix(2.222607e-03 -1 1 2.222607e-03 -250.1818 362.9331)" class="st26" width="12.8" height="9.5"/>
		
			<rect x="56.2" y="301.7" transform="matrix(2.222607e-03 -1 1 2.222607e-03 -250.6949 363.4428)" class="st2" width="1.1" height="11.3"/>
		
			<rect x="50.9" y="305.9" transform="matrix(2.222607e-03 -1 1 2.222607e-03 -249.6795 363.4387)" class="st2" width="12.8" height="1.8"/>
		
			<rect x="22.5" y="302.8" transform="matrix(2.222607e-03 -1 1 2.222607e-03 -275.8083 342.9842)" class="st2" width="22.9" height="13.7"/>
		
			<rect x="23.2" y="304.6" transform="matrix(2.222607e-03 -1 1 2.222607e-03 -276.4753 343.6468)" class="st24" width="21.6" height="11.5"/>
		
			<rect x="55.8" y="306.7" transform="matrix(2.222607e-03 -1 1 2.222607e-03 -258.2316 370.4271)" class="st24" width="1.3" height="15.8"/>
		
			<rect x="39.5" y="268.7" transform="matrix(2.222607e-03 -1 1 2.222607e-03 -227.2965 320.9128)" class="st2" width="15.3" height="11.3"/>
		
			<rect x="40.8" y="269.6" transform="matrix(2.222607e-03 -1 1 2.222607e-03 -227.2965 320.9128)" class="st26" width="12.8" height="9.5"/>
		
			<rect x="46.6" y="269.2" transform="matrix(2.222607e-03 -1 1 2.222607e-03 -227.8096 321.4225)" class="st2" width="1.1" height="11.3"/>
		
			<rect x="41.3" y="273.5" transform="matrix(2.222607e-03 -1 1 2.222607e-03 -226.7943 321.4184)" class="st2" width="12.8" height="1.8"/>
		
			<rect x="48.6" y="270.9" transform="matrix(2.222607e-03 -1 1 2.222607e-03 -218.2559 330.0139)" class="st24" width="15.3" height="6.9"/>
		
			<rect x="30.5" y="270.9" transform="matrix(2.222607e-03 -1 1 2.222607e-03 -236.3372 311.8117)" class="st24" width="15.3" height="6.9"/>
	</g>
	<g id="tree1">
		<polygon class="st22" points="900.1,317.7 899.5,318.1 893.9,308.4 894.5,307.9 		"/>
		<polygon class="st23" points="894.2,308.2 893.9,308.4 899.5,318.1 899.8,317.9 		"/>
		<polygon class="st22" points="900.8,315.4 900.2,315 903.6,306.5 904.2,306.8 		"/>
		<polygon class="st23" points="903.9,306.7 903.6,306.5 900.2,315 900.5,315.2 		"/>
		
			<rect x="888.2" y="309.2" transform="matrix(2.222607e-03 -1 1 2.222607e-03 587.5463 1209.8573)" class="st22" width="23.8" height="2.5"/>
		<polygon class="st23" points="900,298.6 898.8,298.6 898.8,322.5 900,322.5 900,304.4 		"/>
		<polygon class="st40" points="906.9,298.5 900.1,279.1 893.2,298.5 894.3,298.5 893.8,299.9 906.4,300 905.9,298.5 		"/>
		<polygon class="st41" points="900.1,300 900.2,279.1 893.2,298.5 894.4,298.5 893.9,299.9 		"/>
		<polygon class="st40" points="894.8,305.1 894.8,305.1 891.5,310.1 897.5,310.1 		"/>
		<polygon class="st41" points="894.8,305.1 894.8,305.1 891.5,310.1 894.8,310.1 		"/>
		<polygon class="st40" points="904.3,300.8 904.3,300.8 901.8,307.1 906.4,307.1 		"/>
		<polygon class="st41" points="904.3,300.8 904.3,300.8 901.8,307.1 904.2,307.1 		"/>
	</g>
	<g id="tree1_1_">
		<polygon class="st22" points="878.7,317.8 878.2,318.3 872.6,308.6 873.1,308.2 		"/>
		<polygon class="st23" points="872.9,308.4 872.6,308.6 878.2,318.3 878.4,318.1 		"/>
		<polygon class="st22" points="879.4,315.6 878.9,315.3 882.3,306.8 883,307.1 		"/>
		<polygon class="st23" points="882.7,306.9 882.3,306.8 878.9,315.3 879.2,315.4 		"/>
		
			<rect x="866.8" y="309.5" transform="matrix(2.222607e-03 -1 1 2.222607e-03 565.9427 1188.725)" class="st22" width="23.8" height="2.5"/>
		<polygon class="st23" points="878.7,298.9 877.4,298.9 877.4,322.6 878.7,322.6 878.7,304.5 		"/>
		<polygon class="st40" points="885.6,298.8 878.8,279.2 871.8,298.8 873,298.8 872.5,300.2 885,300.2 884.5,298.8 		"/>
		<polygon class="st41" points="878.7,300.2 878.8,279.3 871.9,298.8 873,298.8 872.5,300.2 		"/>
		<polygon class="st40" points="873.4,305.3 873.4,305.3 870.2,310.2 876.1,310.2 		"/>
		<polygon class="st41" points="873.4,305.3 873.4,305.3 870.2,310.2 873.4,310.2 		"/>
		<polygon class="st40" points="882.9,301 882.9,301 880.4,307.4 885,307.4 		"/>
		<polygon class="st41" points="883,301 883,301 880.4,307.4 883,307.4 		"/>
	</g>
	<g id="tree1_3_">
		<polygon class="st22" points="123.1,318 122.5,318.4 117,308.8 117.5,308.3 		"/>
		<polygon class="st23" points="117.2,308.6 117,308.8 122.5,318.4 122.8,318.2 		"/>
		<polygon class="st22" points="123.9,315.7 123.3,315.3 126.7,306.8 127.3,307.1 		"/>
		<polygon class="st23" points="127,307 126.7,306.8 123.3,315.3 123.6,315.5 		"/>
		
			<rect x="111.2" y="309.6" transform="matrix(2.222607e-03 -1 1 2.222607e-03 -187.9829 433.2443)" class="st22" width="23.8" height="2.5"/>
		<polygon class="st23" points="123.1,298.9 121.9,298.9 121.8,322.8 123,322.8 123.1,304.7 		"/>
		<polygon class="st40" points="130,298.9 123.1,279.4 116.2,298.8 117.3,298.8 116.8,300.3 129.4,300.3 128.9,298.9 		"/>
		<polygon class="st41" points="123.2,300.3 123.2,279.4 116.2,298.8 117.4,298.8 116.9,300.3 		"/>
		<polygon class="st40" points="117.8,305.4 117.8,305.4 114.6,310.4 120.5,310.4 		"/>
		<polygon class="st41" points="117.8,305.4 117.8,305.4 114.6,310.4 117.8,310.4 		"/>
		<polygon class="st40" points="127.3,301.1 127.3,301.1 124.9,307.4 129.4,307.5 		"/>
		<polygon class="st41" points="127.3,301.1 127.3,301.1 124.9,307.4 127.3,307.5 		"/>
	</g>
	<g id="tree1_2_">
		<polygon class="st22" points="99.7,318.1 99.2,318.7 93.6,308.9 94.1,308.5 		"/>
		<polygon class="st23" points="93.9,308.7 93.6,308.9 99.2,318.7 99.4,318.4 		"/>
		<polygon class="st22" points="100.4,315.9 99.9,315.6 103.4,307.1 104,307.4 		"/>
		<polygon class="st23" points="103.7,307.2 103.4,307.1 99.9,315.6 100.2,315.7 		"/>
		
			<rect x="87.8" y="309.8" transform="matrix(2.222607e-03 -1 1 2.222607e-03 -211.5955 410.0894)" class="st22" width="23.8" height="2.5"/>
		<polygon class="st23" points="99.8,299.2 98.5,299.2 98.4,323 99.7,323 99.8,304.8 		"/>
		<polygon class="st40" points="106.6,299.1 99.8,279.5 92.8,299.1 94,299.1 93.5,300.5 106,300.5 105.5,299.1 		"/>
		<polygon class="st41" points="99.8,300.5 99.8,279.6 92.9,299.1 94,299.1 93.5,300.5 		"/>
		<polygon class="st40" points="94.4,305.6 94.4,305.6 91.3,310.5 97.1,310.6 		"/>
		<polygon class="st41" points="94.4,305.6 94.4,305.6 91.3,310.5 94.4,310.6 		"/>
		<polygon class="st40" points="103.9,301.4 103.9,301.4 101.5,307.7 106,307.7 		"/>
		<polygon class="st41" points="104,301.4 104,301.4 101.5,307.7 104,307.7 		"/>
	</g>
	
		<rect id="footpath" x="557.8" y="-244.2" transform="matrix(2.222607e-03 -1 1 2.222607e-03 235.2667 892.9837)" class="st48" width="14.5" height="1145.5"/>
	<g id="terrain">
		
			<rect id="grass" x="1221.8" y="121.3" transform="matrix(2.222607e-03 -1 1 2.222607e-03 896.8483 1548.7297)" class="st49" width="5.3" height="407.3"/>
		<polygon id="mud" class="st50" points="1020.8,325.7 1020.8,331.6 1020.8,337.5 1428.2,338.4 1428.2,332.5 1428.2,326.6 		"/>
	</g>
</g>
</svg>
