<?xml version="1.0" encoding="utf-8"?>
<!-- Generator: Adobe Illustrator 21.1.0, SVG Export Plug-In . SVG Version: 6.00 Build 0)  -->
<svg version="1.1" id="Layer_1" xmlns="http://www.w3.org/2000/svg" xmlns:xlink="http://www.w3.org/1999/xlink" x="0px" y="0px"
	 viewBox="0 0 498.2 282.5" style="enable-background:new 0 0 498.2 282.5;" xml:space="preserve">
<style type="text/css">
	.st0{fill:#96A2A4;}
	.st1{fill:#FFFFFF;}
	.st2{opacity:0.3;fill:#231F20;enable-background:new    ;}
	.st3{fill:#809B3D;}
	.st4{opacity:0.2;fill:#FFFFFF;enable-background:new    ;}
	.st5{fill:#855222;}
	.st6{fill:#AD6729;}
	.st7{fill:#FF9D00;}
	.st8{fill:#CEAA72;}
	.st9{fill:#C0E0DE;}
	.st10{fill:none;stroke:#FFFFFF;stroke-miterlimit:10;}
	.st11{fill:#543C36;}
	.st12{fill:none;stroke:#543C36;stroke-width:4;stroke-linecap:square;stroke-miterlimit:10;}
	.st13{fill:#A40000;}
	.st14{fill:#890000;}
	.st15{fill:#B73D43;}
	.st16{fill:#4F0000;}
	.st17{fill:#CC4047;}
	.st18{fill:#604123;}
	.st19{fill:#9AB6B8;}
	.st20{fill:#FFFF00;}
	.st21{fill:#6E3E19;}
	.st22{fill:#619959;}
	.st23{fill:#CCE9EB;}
	.st24{fill:#FAAE40;}
	.st25{fill:#B7AD4E;}
	.st26{fill:#852A34;}
	.st27{fill:#44130C;}
	.st28{fill:#9AD4DA;}
	.st29{fill:#B21F24;}
	.st30{fill:#C93427;}
	.st31{fill:#DB4126;}
	.st32{fill:#F16228;}
	.st33{fill:none;stroke:#FDCA80;stroke-miterlimit:10;}
	.st34{fill:#3F8252;}
	.st35{opacity:0.2;fill:#57AE62;enable-background:new    ;}
	.st36{fill:#E74543;}
	.st37{fill:#A82D2B;}
	.st38{fill:#EAF6F7;}
	.st39{fill:#BC3734;}
	.st40{fill:#C23C39;}
	.st41{fill:#5E5F61;}
	.st42{fill:none;stroke:#FFFFFF;stroke-width:2;stroke-miterlimit:10;}
	.st43{fill:#82CB38;}
	.st44{fill:#AA5541;}
	.st45{fill:#DDDDDD;}
</style>
<g>
	<polygon class="st0" points="498.7,36.9 527.5,85.8 601.8,212.2 400.4,212.2 	"/>
	<path class="st1" d="M525.4,82.2c0,0-4-4.1-7.7,0c-3.8,4.1-14.2,4.2-18.9-1.8c-4.7-6-7.6,3-9.5,4.7c-1.9,1.7-4.5,1.1-6.9-6.7
		s-9,3.7-9,3.7l25.4-45.3L525.4,82.2z"/>
	<polygon class="st2" points="499.4,37.4 527.5,85.2 601.8,211.7 499.4,211.7 	"/>
</g>
<g>
	<polygon class="st0" points="448.7,104 466.9,131.3 514,201.9 386.3,201.9 	"/>
	<path class="st1" d="M465.5,129.3c0,0-2.5-2.3-4.9,0c-2.4,2.3-9,2.3-12-1c-3-3.3-4.8,1.7-6,2.6c-1.2,0.9-2.8,0.6-4.4-3.8
		s-5.7,2.1-5.7,2.1l16.1-25.3L465.5,129.3z"/>
	<polygon class="st2" points="449.1,104.3 466.9,131 514,201.6 449.1,201.6 	"/>
</g>
<g>
	<ellipse class="st3" cx="441.5" cy="166.3" rx="5.6" ry="4.9"/>
	<path class="st4" d="M441.5,161.4c-3.1,0-5.5,2.2-5.5,4.9s2.5,4.9,5.5,4.9V161.4z"/>
	<ellipse class="st3" cx="462.1" cy="149.7" rx="5.5" ry="4.9"/>
	<path class="st4" d="M462.1,144.8c-3.1,0-5.5,2.2-5.5,4.9s2.5,4.9,5.5,4.9V144.8z"/>
	<polygon class="st5" points="453.8,184.5 453.1,183.8 458.9,174.6 459.6,175.3 	"/>
	<polygon class="st6" points="459.3,174.9 458.9,174.6 453.1,183.8 453.4,184.1 	"/>
	<polygon class="st5" points="452.8,181.1 452.1,180.4 457.9,171.2 458.7,171.9 	"/>
	<polygon class="st6" points="458.3,171.6 457.9,171.2 452.1,180.4 452.5,180.8 	"/>
	<polygon class="st5" points="445.6,170.7 445,171.6 452.3,179 452.9,178.1 	"/>
	<polygon class="st6" points="452.6,178.6 452.3,179 445,171.6 445.3,171.2 	"/>
	<rect x="451.6" y="171.6" class="st5" width="2.8" height="28.7"/>
	<rect x="451.6" y="171.6" class="st6" width="1.4" height="28.7"/>
	<ellipse class="st3" cx="453.8" cy="160.4" rx="16.7" ry="14.8"/>
	<path class="st4" d="M453.8,145.6c-9.2,0-16.7,6.6-16.7,14.8s7.5,14.8,16.7,14.8V145.6z"/>
	<ellipse class="st3" cx="462.1" cy="171.6" rx="6.7" ry="5.9"/>
	<path class="st4" d="M462.1,165.7c-3.7,0-6.7,2.6-6.7,5.9s3,5.9,6.7,5.9V165.7z"/>
</g>
<g>
	<ellipse class="st3" cx="467.8" cy="167.7" rx="5.8" ry="4.8"/>
	<path class="st4" d="M467.8,162.9c-3.2,0-5.8,2.2-5.8,4.8s2.6,4.8,5.8,4.8V162.9z"/>
	<ellipse class="st3" cx="489" cy="151.3" rx="5.8" ry="4.8"/>
	<path class="st4" d="M489,146.5c-3.2,0-5.8,2.2-5.8,4.8s2.5,4.8,5.8,4.8V146.5z"/>
	<polygon class="st5" points="480.4,185.7 479.7,185 485.7,175.9 486.5,176.6 	"/>
	<polygon class="st6" points="486.1,176.2 485.7,175.9 479.7,185 480,185.3 	"/>
	<polygon class="st5" points="479.4,182.4 478.7,181.6 484.7,172.6 485.5,173.3 	"/>
	<polygon class="st6" points="485.1,172.9 484.7,172.6 478.7,181.6 479,182 	"/>
	<polygon class="st5" points="471.9,172.1 471.3,173 478.9,180.3 479.5,179.4 	"/>
	<polygon class="st6" points="479.2,179.8 478.9,180.3 471.3,173 471.6,172.5 	"/>
	<rect x="478.2" y="172.9" class="st5" width="2.9" height="28.3"/>
	<rect x="478.2" y="172.9" class="st6" width="1.5" height="28.3"/>
	<ellipse class="st3" cx="480.4" cy="161.9" rx="17.3" ry="14.6"/>
	<path class="st4" d="M480.4,147.3c-9.5,0-17.3,6.5-17.3,14.6s7.8,14.6,17.3,14.6V147.3z"/>
	<ellipse class="st3" cx="489" cy="172.9" rx="6.9" ry="5.8"/>
	<path class="st4" d="M489,167.1c-3.8,0-6.9,2.6-6.9,5.8s3.1,5.8,6.9,5.8V167.1z"/>
</g>
<g id="hotel-bakery">
	<g id="hotel_1_">
		<rect x="273.7" y="135.3" class="st7" width="18.5" height="7.9"/>
		<rect x="263.3" y="150.7" class="st8" width="39.2" height="49.5"/>
		<g id="_Group_6">
			<rect x="271.8" y="160.4" class="st9" width="22.3" height="10.4"/>
			<rect x="271.8" y="160.4" class="st10" width="22.3" height="10.4"/>
			<g id="_Group_7">
				<line id="_Path_11" class="st10" x1="279" y1="160.4" x2="279" y2="170.8"/>
				<line id="_Path_12" class="st10" x1="286.9" y1="160.4" x2="286.9" y2="170.8"/>
			</g>
			<rect x="270.4" y="171.2" class="st11" width="25.2" height="2"/>
		</g>
		<g id="_Group_8">
			<rect x="271.8" y="179.5" class="st9" width="22.3" height="10.4"/>
			<rect x="271.8" y="179.5" class="st10" width="22.3" height="10.4"/>
			<g id="_Group_9">
				<line id="_Path_14" class="st10" x1="279" y1="179.5" x2="279" y2="189.9"/>
				<line id="_Path_15" class="st10" x1="286.8" y1="179.5" x2="286.8" y2="189.9"/>
			</g>
			<rect x="270.4" y="190.3" class="st11" width="25.2" height="2"/>
		</g>
		<line id="_Path_16" class="st12" x1="263.3" y1="150.7" x2="302.6" y2="150.7"/>
		<path class="st1" d="M259.3,150.5"/>
		<polygon class="st13" points="259.3,150.5 306,150.5 301.5,146.2 295.9,146.2 293.3,142.9 272,142.9 269.6,146.1 263.8,146.1 		
			"/>
		<path class="st14" d="M277.5,141.4H277v-1.9h-2.2v1.9h-0.5v-4.1h0.5v1.7h2.2v-1.7h0.5V141.4z"/>
		<path class="st14" d="M282.2,139.3c0,0.6-0.1,1.1-0.5,1.6c-0.4,0.4-0.9,0.6-1.4,0.6c-0.5,0-1.1-0.2-1.4-0.6
			c-0.4-0.4-0.5-1-0.5-1.6c0-0.6,0.1-1.1,0.5-1.6c0.4-0.4,0.9-0.6,1.4-0.5c0.5,0,1,0.2,1.4,0.6C282.1,138.2,282.3,138.8,282.2,139.3
			z M278.9,139.3c0,0.4,0.1,0.9,0.4,1.3c0.5,0.6,1.5,0.6,2,0c0,0,0,0,0,0c0.3-0.4,0.4-0.8,0.4-1.3c0-0.4-0.1-0.9-0.4-1.3
			c-0.3-0.3-0.6-0.5-1-0.4c-0.4,0-0.8,0.1-1,0.4C279,138.5,278.9,138.9,278.9,139.3L278.9,139.3z"/>
		<path class="st14" d="M284.4,141.4H284v-3.7h-1.3v-0.4h3.1v0.4h-1.3V141.4z"/>
		<path class="st14" d="M288.7,141.4h-2.3v-4.1h2.3v0.4h-1.8v1.3h1.7v0.4h-1.7v1.5h1.8V141.4z"/>
		<path class="st14" d="M289.6,141.4v-4.1h0.5v3.7h1.8v0.4H289.6z"/>
	</g>
	<g id="bakery">
		<polygon class="st15" points="215.7,199.7 196.7,199.7 196.7,175.8 215.7,168 		"/>
		<path class="st16" d="M196.7,176.5c-0.3,0-0.5-0.2-0.6-0.4c-0.1-0.4,0-0.8,0.4-0.9c0,0,0,0,0,0l19-7.9c0.4-0.2,0.8,0,0.9,0.4
			c0.1,0.4,0,0.8-0.4,0.9c0,0,0,0,0,0l-19,7.9C196.9,176.5,196.8,176.5,196.7,176.5z"/>
		<rect x="215.7" y="152" class="st17" width="35.5" height="47.7"/>
		<g id="_Group_">
			<rect x="223.4" y="161.4" class="st9" width="20.2" height="10"/>
			<rect x="223.4" y="161.4" class="st10" width="20.2" height="10"/>
			<g id="_Group_2">
				<line id="_Path_2" class="st10" x1="229.9" y1="161.4" x2="229.9" y2="171.4"/>
				<line id="_Path_3" class="st10" x1="237" y1="161.4" x2="237" y2="171.4"/>
			</g>
			<rect x="222.1" y="171.8" class="st18" width="22.7" height="1.9"/>
		</g>
		<g id="_Group_3">
			<rect x="223.4" y="179.8" class="st9" width="20.2" height="10"/>
			<rect x="223.4" y="179.8" class="st10" width="20.2" height="10"/>
			<g id="_Group_4">
				<line id="_Path_5" class="st10" x1="229.9" y1="179.8" x2="229.9" y2="189.8"/>
				<line id="_Path_6" class="st10" x1="237" y1="179.8" x2="237" y2="189.8"/>
			</g>
			<rect x="222.1" y="190.2" class="st18" width="22.7" height="1.9"/>
		</g>
		<g id="_Group_5">
			<rect x="215" y="151.3" class="st16" width="36.9" height="1.4"/>
		</g>
		<rect x="201.9" y="179.6" class="st19" width="8.5" height="8.5"/>
		<rect x="201.9" y="179.6" class="st10" width="8.5" height="8.5"/>
		<path class="st20" d="M225.8,158.6v-3.4h0.9c0.2,0,0.5,0.1,0.7,0.2c0.2,0.1,0.3,0.3,0.2,0.6c0,0.4-0.2,0.7-0.6,0.8l0,0
			c0.2,0,0.4,0.1,0.5,0.3c0.1,0.2,0.2,0.4,0.2,0.6c0,0.3-0.1,0.5-0.3,0.7c-0.2,0.2-0.5,0.3-0.7,0.3L225.8,158.6z M226.1,155.6v1.1
			h0.4c0.2,0,0.3,0,0.5-0.2c0.1-0.1,0.2-0.3,0.2-0.4c0-0.3-0.2-0.5-0.6-0.5H226.1z M226.1,157v1.2h0.5c0.2,0,0.4,0,0.5-0.2
			c0.1-0.1,0.2-0.3,0.2-0.5c0-0.4-0.3-0.6-0.8-0.6H226.1z"/>
		<path class="st20" d="M230.9,158.6h-0.4l-0.3-1h-1.4l-0.3,1H228l1.2-3.4h0.4L230.9,158.6z M230,157.3l-0.5-1.4c0-0.1,0-0.1,0-0.2
			l0,0c0,0.1,0,0.2-0.1,0.2l-0.5,1.4H230z"/>
		<path class="st20" d="M233.6,158.6h-0.5l-1.2-1.6c0,0-0.1-0.1-0.1-0.1l0,0v1.7h-0.4v-3.4h0.4v1.6l0,0c0,0,0.1-0.1,0.1-0.1l1.2-1.5
			h0.5l-1.4,1.6L233.6,158.6z"/>
		<path class="st20" d="M235.7,158.6H234v-3.4h1.6v0.4h-1.3v1.1h1.2v0.4h-1.2v1.2h1.3L235.7,158.6z"/>
		<path class="st20" d="M238.7,158.6h-0.5l-0.5-1c0-0.1-0.1-0.2-0.1-0.2c0-0.1-0.1-0.1-0.1-0.2c0,0-0.1-0.1-0.2-0.1
			c-0.1,0-0.1,0-0.2,0h-0.3v1.4h-0.4v-3.4h1c0.1,0,0.3,0,0.4,0.1c0.1,0,0.2,0.1,0.3,0.2c0.1,0.1,0.2,0.2,0.2,0.3
			c0.1,0.1,0.1,0.3,0.1,0.4c0,0.1,0,0.2-0.1,0.3c0,0.1-0.1,0.2-0.1,0.3c-0.1,0.1-0.1,0.1-0.2,0.2c-0.1,0.1-0.2,0.1-0.3,0.1l0,0
			c0.1,0,0.1,0.1,0.1,0.1c0,0,0.1,0.1,0.1,0.1c0,0,0.1,0.1,0.1,0.2l0.1,0.2L238.7,158.6z M236.7,155.6v1.2h0.5c0.1,0,0.2,0,0.3,0
			c0.1,0,0.1-0.1,0.2-0.1c0.1-0.1,0.1-0.1,0.1-0.2c0-0.1,0.1-0.2,0.1-0.3c0-0.2-0.1-0.3-0.2-0.4c-0.1-0.1-0.3-0.2-0.5-0.2H236.7z"/>
		<path class="st20" d="M241.2,155.2l-1.1,2.1v1.3h-0.4v-1.2l-1-2.2h0.4l0.7,1.5c0,0,0,0.1,0.1,0.2l0,0c0-0.1,0.1-0.1,0.1-0.2
			l0.8-1.5H241.2z"/>
	</g>
</g>
<g id="house-green">
	<path class="st21" d="M84.4,179.3L84.4,179.3L84.4,179.3c-0.2-0.3-0.5-0.6-0.9-0.7l-19.4-15.3l-19.2,15.4c-0.2,0.1-0.3,0.2-0.5,0.4
		l0,0l0,0c-0.3,0.3-0.4,0.7-0.4,1.2c0,1,0.9,1.9,2,1.8c0,0,0,0,0,0h36.8c1.1,0,2-0.8,2-1.8C84.7,179.9,84.6,179.6,84.4,179.3z"/>
	<polygon class="st22" points="80.2,198.9 48.6,198.9 48.6,179.4 64.2,167.4 64.2,167.4 80.2,179.3 	"/>
	<rect x="66.4" y="189.4" class="st1" width="6" height="6.6"/>
	<rect x="66.9" y="189.9" class="st23" width="5" height="5.5"/>
	<rect x="66.4" y="192.7" class="st1" width="6" height="0.5"/>
	<rect x="69.2" y="189.9" class="st1" width="1" height="5.5"/>
	<rect x="53.8" y="188.4" class="st1" width="7.1" height="10.5"/>
	<rect x="54.4" y="189" class="st21" width="6" height="9.9"/>
	<rect x="65.1" y="195.7" class="st21" width="8.4" height="0.6"/>
	<rect x="61.3" y="175.4" class="st1" width="6" height="6.6"/>
	<rect x="61.8" y="176" class="st23" width="5" height="5.5"/>
	<rect x="61.3" y="178.7" class="st1" width="6" height="0.5"/>
	<rect x="64.1" y="176" class="st1" width="1" height="5.5"/>
	<rect x="67.3" y="175.4" class="st21" width="3.6" height="6.6"/>
	<rect x="57.7" y="175.4" class="st21" width="3.6" height="6.6"/>
</g>
<g id="house-yellow">
	<path class="st21" d="M371.9,177.5L371.9,177.5L371.9,177.5c-0.2-0.4-0.6-0.7-0.9-0.8l-20-17.2l-19.9,17.3
		c-0.2,0.1-0.4,0.3-0.5,0.4l0,0l0,0c-0.3,0.4-0.5,0.8-0.5,1.3c0,1.2,0.9,2.1,2,2.1c0,0,0,0,0,0h38c1.1,0,2-0.9,2-2.1
		C372.2,178.2,372.1,177.8,371.9,177.5z"/>
	<polygon class="st24" points="367.7,199.6 335,199.6 335,177.6 351.1,164.1 351.1,164.1 367.7,177.5 	"/>
	<rect x="353.4" y="188.9" class="st1" width="6.2" height="7.4"/>
	<rect x="353.9" y="189.5" class="st23" width="5.2" height="6.2"/>
	<rect x="353.4" y="192.6" class="st1" width="6.2" height="0.6"/>
	<rect x="356.3" y="189.5" class="st1" width="1" height="6.2"/>
	<rect x="340.3" y="188.1" class="st1" width="7.5" height="11.5"/>
	<rect x="340.9" y="188.7" class="st21" width="6.3" height="10.9"/>
	<rect x="352" y="196.1" class="st21" width="8.6" height="0.6"/>
	<rect x="348.1" y="173.2" class="st1" width="6.2" height="7.4"/>
	<rect x="348.6" y="173.8" class="st23" width="5.2" height="6.2"/>
	<rect x="348.1" y="176.9" class="st1" width="6.2" height="0.6"/>
	<rect x="351" y="173.8" class="st1" width="1" height="6.2"/>
	<rect x="354.3" y="173.2" class="st21" width="3.7" height="7.4"/>
	<rect x="344.4" y="173.2" class="st21" width="3.7" height="7.4"/>
</g>
<g id="shop">
	<path class="st25" d="M6.5,180.5h28.8c0.8,0,1.5,0.7,1.5,1.5v12.8c0,0.8-0.7,1.5-1.5,1.5H6.5c-0.8,0-1.5-0.7-1.5-1.5v-12.8
		C5,181.1,5.7,180.5,6.5,180.5z"/>
	<rect x="5.7" y="196.2" class="st26" width="30.2" height="1.4"/>
	<rect x="4.6" y="197.4" class="st27" width="32.5" height="1.4"/>
	<rect x="8" y="182.3" class="st9" width="16.2" height="10.9"/>
	<polygon class="st28" points="8.6,192.7 8.6,182.3 8,182.3 8,193.2 24.2,193.2 24.2,192.7 	"/>
	<path class="st29" d="M5,180.2v3.8c0.1,1.1,1,1.9,2.1,1.8c1-0.1,1.8-0.8,1.9-1.8v-3.8H5z"/>
	<path class="st30" d="M9,180.2v3.8c0.1,1.1,1,1.9,2.1,1.8c1-0.1,1.8-0.8,1.9-1.8v-3.8H9z"/>
	<path class="st29" d="M12.9,180.2v3.8c0.1,1.1,1,1.9,2.1,1.8c1-0.1,1.8-0.8,1.9-1.8v-3.8H12.9z"/>
	<path class="st30" d="M16.9,180.2v3.8c0,1.1,0.9,1.9,2,1.9c1.1,0,2-0.9,2-1.9v-3.8H16.9z"/>
	<path class="st29" d="M20.8,180.2v3.8c0.1,1.1,1,1.9,2.1,1.8c1-0.1,1.8-0.8,1.9-1.8v-3.8H20.8z"/>
	<path class="st30" d="M24.8,180.2v3.8c0.1,1.1,1,1.9,2.1,1.8c1-0.1,1.8-0.8,1.9-1.8v-3.8H24.8z"/>
	<path class="st29" d="M28.8,180.2v3.8c0.1,1.1,1,1.9,2.1,1.8c1-0.1,1.8-0.8,1.9-1.8v-3.8H28.8z"/>
	<path class="st30" d="M32.7,180.2v3.8c0.1,1.1,1,1.9,2.1,1.8c1-0.1,1.8-0.8,1.9-1.8v-3.8H32.7z"/>
	<path class="st31" d="M10.7,174.1L5,180.2h4l4.3-6.1H10.7z"/>
	<path class="st32" d="M13.2,174.1L9,180.2h4l2.9-6.1H13.2z"/>
	<path class="st31" d="M15.8,174.1l-2.9,6.1h4l1.4-6.1H15.8z"/>
	<path class="st32" d="M18.3,174.1l-1.4,6.1h4v-6.1H18.3z"/>
	<path class="st31" d="M20.8,174.1v6.1h4l-1.4-6.1H20.8z"/>
	<path class="st32" d="M23.4,174.1l1.4,6.1h4l-2.9-6.1H23.4z"/>
	<path class="st31" d="M25.9,174.1l2.9,6.1h4l-4.3-6.1H25.9z"/>
	<path class="st32" d="M32.7,180.2h4l-5.7-6.1h-2.5L32.7,180.2z"/>
	<rect x="10.7" y="172.8" class="st31" width="2.5" height="1.3"/>
	<rect x="13.2" y="172.8" class="st31" width="2.5" height="1.3"/>
	<rect x="15.8" y="172.8" class="st31" width="2.5" height="1.3"/>
	<rect x="18.3" y="172.8" class="st31" width="2.5" height="1.3"/>
	<rect x="20.8" y="172.8" class="st31" width="2.5" height="1.3"/>
	<rect x="23.4" y="172.8" class="st31" width="2.5" height="1.3"/>
	<rect x="25.9" y="172.8" class="st31" width="2.5" height="1.3"/>
	<rect x="28.5" y="172.8" class="st31" width="2.5" height="1.3"/>
	<rect x="25.5" y="185.3" class="st24" width="8.3" height="10.9"/>
	<rect x="26.6" y="191.3" class="st33" width="6.3" height="4.1"/>
	<rect x="26.6" y="186.3" class="st9" width="6.3" height="4.2"/>
	<polygon class="st28" points="26.9,190.3 26.9,186.3 26.6,186.3 26.6,190.5 32.9,190.5 32.9,190.3 	"/>
</g>
<g id="tree4">
	<rect x="187.7" y="191.4" class="st5" width="1.5" height="7.9"/>
	<rect x="187.7" y="191.4" class="st6" width="0.7" height="7.9"/>
	<polygon class="st34" points="193.1,194.6 188.5,174.9 183.8,194.6 184.6,194.6 184.2,196.1 192.7,196.1 192.4,194.6 	"/>
	<polygon class="st35" points="188.5,196.1 188.5,174.9 183.8,194.6 184.6,194.6 184.3,196.1 	"/>
</g>
<g id="tree3">
	<rect x="176.2" y="191.4" class="st5" width="1.5" height="7.9"/>
	<rect x="176.2" y="191.4" class="st6" width="0.7" height="7.9"/>
	<polygon class="st34" points="181.6,194.6 176.9,174.9 172.3,194.6 173,194.6 172.7,196.1 181.2,196.1 180.9,194.6 	"/>
	<polygon class="st35" points="177,196.1 177,174.9 172.3,194.6 173.1,194.6 172.8,196.1 	"/>
</g>
<g id="house-red">
	<rect x="118.3" y="158.2" class="st36" width="6.7" height="7.3"/>
	<rect x="117.1" y="155" class="st37" width="8.9" height="3.2"/>
	<polygon class="st38" points="168.6,180.6 97.5,180.6 106.2,165.1 159.5,165.1 	"/>
	<rect x="104.3" y="180.6" class="st39" width="57.1" height="16.7"/>
	<path class="st1" d="M153.2,178.9L153.2,178.9L153.2,178.9c-0.3-0.4-0.7-0.7-1.2-0.8l-19.2-30.9l-18.8,31.1
		c-0.2,0.1-0.5,0.3-0.6,0.4l0,0l0,0c-0.4,0.4-0.6,0.8-0.6,1.3c0,1.2,1.2,2.1,2.6,2.1h35.7c1.4,0,2.6-0.9,2.6-2.1
		C153.6,179.6,153.4,179.2,153.2,178.9z"/>
	<polygon class="st36" points="147.2,198.7 118.3,198.7 118.3,177.7 133.2,153.2 133.2,153.2 147.2,177.6 	"/>
	<rect x="107.7" y="186" class="st1" width="8" height="7.5"/>
	<rect x="108.3" y="186.6" class="st23" width="6.7" height="6.3"/>
	<rect x="107.7" y="189.8" class="st1" width="8" height="0.6"/>
	<rect x="111.4" y="186.6" class="st1" width="1.3" height="6.3"/>
	<rect x="150.6" y="186" class="st1" width="8" height="7.5"/>
	<rect x="151.3" y="186.6" class="st23" width="6.7" height="6.3"/>
	<rect x="150.6" y="189.8" class="st1" width="8" height="0.6"/>
	<rect x="154.3" y="186.6" class="st1" width="1.3" height="6.3"/>
	<rect x="128.8" y="164.6" class="st1" width="8" height="12"/>
	<rect x="129.4" y="165.6" class="st23" width="6.7" height="10"/>
	<rect x="128.8" y="170.6" class="st1" width="8" height="0.9"/>
	<rect x="132.5" y="165.6" class="st1" width="1.3" height="10"/>
	<path class="st1" d="M137.5,198.7v-11.5c0-1.8-2.1-3.2-4.7-3.2c-2.6,0-4.7,1.4-4.7,3.2v11.5H137.5z"/>
	<path class="st40" d="M136.6,198.7v-10.8c-0.1-1.7-1.8-3.1-3.9-3c-1.9,0.1-3.5,1.4-3.6,3v10.8H136.6z"/>
	<rect x="99.8" y="197.3" class="st38" width="66.8" height="2.5"/>
</g>
<g id="tree2">
	<polygon class="st5" points="94.3,196.4 94.1,196.6 91.9,192.4 92.1,192.2 	"/>
	<polygon class="st6" points="92,192.3 91.9,192.4 94.1,196.6 94.2,196.5 	"/>
	<polygon class="st5" points="94.6,195.4 94.4,195.3 95.8,191.6 96,191.7 	"/>
	<polygon class="st6" points="95.9,191.6 95.8,191.6 94.4,195.3 94.5,195.4 	"/>
	<rect x="93.8" y="188.1" class="st5" width="1" height="10.4"/>
	<polygon class="st6" points="94.3,188.1 93.8,188.1 93.8,198.5 94.3,198.5 94.3,190.6 	"/>
	<polygon class="st34" points="97,188.1 94.3,179.6 91.6,188.1 92.1,188.1 91.9,188.7 96.8,188.7 96.6,188.1 	"/>
	<polygon class="st35" points="94.3,188.7 94.3,179.6 91.7,188.1 92.1,188.1 91.9,188.7 	"/>
	<polygon class="st34" points="92.3,191 92.3,191 91,193.1 93.3,193.1 	"/>
	<polygon class="st35" points="92.3,191 92.3,191 91,193.1 92.3,193.1 	"/>
	<polygon class="st34" points="96,189.1 96,189.1 95,191.9 96.8,191.9 	"/>
	<polygon class="st35" points="96,189.1 96,189.1 95,191.9 96,191.9 	"/>
</g>
<g id="tree1">
	<polygon class="st5" points="322.6,196.6 322.4,196.8 319.6,192.2 319.9,191.9 	"/>
	<polygon class="st6" points="319.7,192 319.6,192.2 322.4,196.8 322.5,196.7 	"/>
	<polygon class="st5" points="323,195.5 322.7,195.4 324.4,191.2 324.7,191.4 	"/>
	<polygon class="st6" points="324.6,191.3 324.4,191.2 322.7,195.4 322.9,195.4 	"/>
	<rect x="322" y="187.4" class="st5" width="1.2" height="11.5"/>
	<polygon class="st6" points="322.6,187.4 322,187.4 322,199 322.6,199 322.6,190.2 	"/>
	<polygon class="st34" points="326,187.3 322.6,177.9 319.2,187.3 319.8,187.3 319.5,188.1 325.7,188.1 325.5,187.3 	"/>
	<polygon class="st35" points="322.6,188.1 322.6,177.9 319.2,187.3 319.8,187.3 319.6,188.1 	"/>
	<polygon class="st34" points="320,190.5 320,190.5 318.4,192.9 321.3,192.9 	"/>
	<polygon class="st35" points="320,190.5 320,190.5 318.4,192.9 320,192.9 	"/>
	<polygon class="st34" points="324.7,188.5 324.7,188.5 323.5,191.5 325.7,191.5 	"/>
	<polygon class="st35" points="324.7,188.5 324.7,188.5 323.5,191.5 324.7,191.5 	"/>
</g>
<g id="tree1_1_">
	<polygon class="st5" points="312.1,196.8 311.9,197 309.1,192.3 309.3,192.1 	"/>
	<polygon class="st6" points="309.2,192.2 309.1,192.3 311.9,197 312,196.9 	"/>
	<polygon class="st5" points="312.5,195.7 312.2,195.5 313.9,191.4 314.2,191.5 	"/>
	<polygon class="st6" points="314,191.4 313.9,191.4 312.2,195.5 312.3,195.6 	"/>
	<rect x="311.5" y="187.5" class="st5" width="1.2" height="11.5"/>
	<polygon class="st6" points="312.1,187.5 311.5,187.5 311.5,199.1 312.1,199.1 312.1,190.3 	"/>
	<polygon class="st34" points="315.5,187.5 312.1,178 308.7,187.5 309.3,187.5 309,188.2 315.2,188.2 315,187.5 	"/>
	<polygon class="st35" points="312.1,188.2 312.1,178 308.7,187.5 309.3,187.5 309,188.2 	"/>
	<polygon class="st34" points="309.5,190.7 309.5,190.7 307.9,193.1 310.8,193.1 	"/>
	<polygon class="st35" points="309.5,190.7 309.5,190.7 307.9,193.1 309.5,193.1 	"/>
	<polygon class="st34" points="314.2,188.6 314.2,188.6 313,191.7 315.2,191.7 	"/>
	<polygon class="st35" points="314.2,188.6 314.2,188.6 313,191.7 314.2,191.7 	"/>
</g>
<g id="road">
	<rect y="220.6" class="st41" width="498.1" height="62"/>
	<line class="st42" x1="11.5" y1="254.3" x2="47.4" y2="254.3"/>
	<line class="st42" x1="74.6" y1="254.3" x2="110.5" y2="254.3"/>
	<line class="st42" x1="137.7" y1="254.3" x2="173.6" y2="254.3"/>
	<line class="st42" x1="200.8" y1="254.3" x2="236.6" y2="254.3"/>
	<line class="st42" x1="263.9" y1="254.3" x2="299.7" y2="254.3"/>
	<line class="st42" x1="327" y1="254.3" x2="362.8" y2="254.3"/>
	<line class="st42" x1="390.1" y1="254.3" x2="425.9" y2="254.3"/>
	<line class="st42" x1="453.2" y1="254.3" x2="489" y2="254.3"/>
</g>
<g>
	<rect x="375" y="199.3" class="st43" width="123.1" height="7.1"/>
	<polygon class="st44" points="375,204.4 375,212.2 375,220 498.1,220 498.1,212.2 498.1,204.4 	"/>
</g>
<rect x="0.9" y="199" class="st45" width="374.1" height="21.2"/>
</svg>
