<?xml version="1.0" encoding="utf-8"?>
<!-- Generator: Adobe Illustrator 21.1.0, SVG Export Plug-In . SVG Version: 6.00 Build 0)  -->
<svg version="1.1" id="Layer_1" xmlns="http://www.w3.org/2000/svg" xmlns:xlink="http://www.w3.org/1999/xlink" x="0px" y="0px"
	 viewBox="0 0 1423 497.9" style="enable-background:new 0 0 1423 497.9;" xml:space="preserve">
<style type="text/css">
	.st0{opacity:0.1;fill:#231F20;enable-background:new    ;}
	.st1{fill:#96A2A4;}
	.st2{fill:#FFFFFF;}
	.st3{opacity:0.3;fill:#231F20;enable-background:new    ;}
	.st4{fill:#5E5F61;}
	.st5{fill:none;stroke:#FFFFFF;stroke-width:2;stroke-miterlimit:10;}
	.st6{fill:#FF9D00;}
	.st7{fill:#F05152;}
	.st8{fill:#4F0000;}
	.st9{fill:#FF6568;}
	.st10{opacity:0.21;enable-background:new    ;}
	.st11{fill:#9AB6B8;}
	.st12{opacity:0.43;enable-background:new    ;}
	.st13{fill:none;stroke:#FFFFFF;stroke-miterlimit:10;}
	.st14{fill:#604123;}
	.st15{fill:#F39B80;}
	.st16{fill:#9CACA1;}
	.st17{fill:#543C36;}
	.st18{fill:none;stroke:#543C36;stroke-width:4;stroke-linecap:square;stroke-miterlimit:10;}
	.st19{fill:#A40000;}
	.st20{fill:#890000;}
	.st21{fill:#FFFF00;}
	.st22{fill:#809B3D;}
	.st23{opacity:0.2;fill:#FFFFFF;enable-background:new    ;}
	.st24{fill:#855222;}
	.st25{fill:#AD6729;}
	.st26{fill:#6E3E19;}
	.st27{fill:#619959;}
	.st28{fill:#CCE9EB;}
	.st29{fill:#FAAE40;}
	.st30{fill:#A8745D;}
	.st31{fill:#A73330;}
	.st32{fill:#B27D62;}
	.st33{fill:#FAD00B;}
	.st34{fill:#B7AD4E;}
	.st35{fill:#852A34;}
	.st36{fill:#44130C;}
	.st37{fill:#C0E0DE;}
	.st38{fill:#9AD4DA;}
	.st39{fill:#B21F24;}
	.st40{fill:#C93427;}
	.st41{fill:#DB4126;}
	.st42{fill:#F16228;}
	.st43{fill:none;stroke:#FDCA80;stroke-miterlimit:10;}
	.st44{fill:#3F8252;}
	.st45{opacity:0.2;fill:#57AE62;enable-background:new    ;}
	.st46{fill:#E74543;}
	.st47{fill:#A82D2B;}
	.st48{fill:#EAF6F7;}
	.st49{fill:#BC3734;}
	.st50{fill:#C23C39;}
	.st51{fill:#DDDDDD;}
	.st52{fill:#82CB38;}
	.st53{fill:#AA5541;}
</style>
<title>city-view</title>
<g>
	<g id="Layer_2">
		<g id="content">
			<path class="st0" d="M1422.2,335.6L1422.2,335.6c0,2.1,0,4.2-0.1,6.3l-0.1,4.9v1.4c0,0.6,0,1.2,0,1.8c0,1.9-0.1,3.7-0.2,5.6
				c0,0.2,0,0.4,0,0.6c0,1.6-0.1,3.2-0.2,4.9c0,0.4,0,0.8,0,1.2s0,0.8,0,1.1v1h-377.4l0.6-0.8h-0.6l0.8-1l59-78.3l50.4-66.8l0.3-0.3
				l36.7-48.6l55.6-73.8v0.8l1.3-1.7l50.1,69.6l0.1,0.1l3.7,5.2l88.3,122.7l3.4,4.7l16.8,23.4l0.2,0.3l1.3,1.8l1.1,1.6l0.8,1.1
				l0.4,0.6l0.5,0.7l0.5,0.7l1.5,2.1l0.5,0.7l0.5,0.7L1422.2,335.6z"/>
			<path class="st1" d="M1422.1,238.9L1422.1,238.9c0-0.4,0-0.7,0-1V238.9z"/>
			<path class="st1" d="M1422.1,80.5c0-0.8,0-1.6,0.1-2.4l-0.1,2.8V80.5z"/>
			<path class="st1" d="M1422.3,312.2c0,1.8,0,3.6,0,5.5v0.7c0,1.6,0,3.2,0,4.8c0,0.5,0,0.9,0,1.4c0,0.8,0,1.6,0,2.4
				c0,2.6,0,5.2-0.1,7.8c0,0.3,0,0.6,0,0.9l0,0c0,2.1,0,4.2-0.1,6.3c0,0.6,0,1.3,0,1.9c0,1,0,2-0.1,3v1.4c0,0.6,0,1.2,0,1.8
				c0,1.9-0.1,3.7-0.2,5.6c0,0.2,0,0.4,0,0.6c-0.1,2-0.1,4-0.2,6.1v1.1h-223.8l0.5-0.9l0.4-0.7l22.1-41.2l0,0l0.2-0.4l81.1-151.5
				l40.2-75v-0.1l0.1-0.1l0.1-0.2c0,0,0-0.1,0.1-0.1l0.1-0.1l50-93.2l1.3,2.3l28.3,50.4V81c0,0.7,0,1.4-0.1,2.1s0,1.4,0,2.1
				s0,1.4,0,2.2c0,0.1,0,0.3,0,0.4c0,1.2,0,2.4-0.1,3.7c0,2.5,0,5-0.1,7.4c0,3.1,0,6.1-0.1,9.2c0,0.2,0,0.4,0,0.6c0,3.2,0,6.4,0,9.6
				c0,3.5,0,7,0,10.5v1c0,0.6,0,1.3,0,1.9c0,6.5,0,12.9,0.2,19.4c0,4.2,0,8.4,0.1,12.6c0.3,25,0.5,50,0.1,75.1v0.1
				c0,8.5,0,17,0.1,25.5c0,5.4,0,10.8,0.1,16.2v0.6c0,1,0,2,0,3c0,0.4,0,0.8,0,1.2v0.6c0,0.4,0,0.8,0,1.2v0.5c0,0.1,0,0.3,0,0.5v0.1
				c0,0.1,0,0.2,0,0.3l0,0l0,0l0,0v0.4c0,0.2,0,0.4,0,0.6v1.7c0,0.8,0,1.7,0,2.5v2.5C1422.4,301.5,1422.3,306.8,1422.3,312.2z"/>
			<path class="st1" d="M1421.5,362.3c0.1-2,0.1-4,0.2-6.1c0,1.6-0.1,3.2-0.2,4.9C1421.6,361.5,1421.6,361.9,1421.5,362.3
				c0,0.4,0,0.8,0,1.1L1421.5,362.3z"/>
			<path class="st1" d="M1422,343.7c0-0.6,0-1.3,0-1.9l-0.1,4.9v1.4C1422,346.7,1422,345.2,1422,343.7z"/>
			<path class="st1" d="M1422.3,318.4c0,0.6,0,1.2,0,1.9v0.9c0,0.7,0,1.4,0,2l0,0v3.8c0,2.6,0,5.2-0.1,7.8c0-2.6,0.1-5.2,0.1-7.8
				c0-0.8,0-1.6,0-2.4c0-0.5,0-0.9,0-1.4C1422.3,321.6,1422.3,320,1422.3,318.4z"/>
			<path class="st1" d="M1422.3,286v-0.6c0-0.4,0-0.8,0-1.2c0-1,0-2,0-3c0,1,0,2,0,3C1422.3,284.8,1422.3,285.4,1422.3,286v1.2
				C1422.3,286.8,1422.3,286.4,1422.3,286z"/>
			<path class="st1" d="M1422.3,290.2c0-0.5,0-0.9,0-1.4v-0.4l0,0c0-0.3,0-0.5,0-0.8c0,0.3,0,0.5,0,0.8V290.2L1422.3,290.2z"/>
			<path class="st1" d="M1422.3,296.1v1.7c0,4.8,0,9.6,0,14.4v1c0,0.9,0,1.8,0,2.6c0,0.6,0,1.2,0,1.9c0-1.8,0-3.6,0-5.5
				C1422.3,306.8,1422.3,301.5,1422.3,296.1c0-1.7,0-3.3,0-5v-0.9C1422.3,292.2,1422.3,294.1,1422.3,296.1z"/>
			<polygon class="st1" points="1423,54.2 1423,54.2 1423,54.2 			"/>
			<path class="st2" d="M1421.9,91.6c0-0.1,0-0.2,0-0.3c0,2.5,0,5-0.1,7.4l0,0c0-1.1,0-2.2,0-3.3c0-0.6,0-1.2,0-1.8
				c0-0.2,0-0.4,0-0.6C1421.9,92.6,1421.9,92.1,1421.9,91.6z"/>
			<path class="st2" d="M1422.1,81.4c0,1.3-0.1,2.5-0.1,3.8c0-1.4,0.1-2.8,0.1-4.2v-0.4C1422.1,80.8,1422.1,81.1,1422.1,81.4z"/>
			<path class="st2" d="M1422.2,78.2l-0.1,2.8v-0.4C1422.1,79.7,1422.1,79,1422.2,78.2z"/>
			<path class="st2" d="M1422.1,52.6v27.9c0,0.3,0,0.5,0,0.8c0,0.6,0,1.3,0,1.9s0,1.3,0,1.9s0,1.4,0,2.2c0,0.1,0,0.3,0,0.4l-0.1,3.9
				c0,0.5,0,1,0,1.5c0,0.2,0,0.4,0,0.6c0,0.6,0,1.2,0,1.8c0,1.1,0,2.2,0,3.3c-8.8,2.6-20.8,0.8-28-7.1c-0.4-0.5-0.9-1-1.3-1.5
				c-9.4-12.4-15,6.3-18.7,9.8s-8.8,2.4-13.7-14c-4.4-14.8-15.5,3.7-17.5,7.2l-0.1,0.1l50-93.3l1.3,2.3L1422.1,52.6z"/>
			<path class="st3" d="M1422.3,297.8c0,4.8,0,9.6,0,14.4v1c0,0.9,0,1.8,0,2.6c0,0.6,0,1.2,0,1.9v0.7c0,0.6,0,1.2,0,1.9v0.2
				c0,0.9,0,1.9,0,2.8v3.8c0,2.6,0,5.2-0.1,7.8c0,0.3,0,0.6,0,0.9l0,0c0,2.1,0,4.2-0.1,6.3c0,0.6,0,1.3,0,1.9c0,1,0,2-0.1,3v1.4
				c0,0.6,0,1.2,0,1.8c0,1.9-0.1,3.7-0.2,5.6c0,0.2,0,0.4,0,0.6c0,1.6-0.1,3.2-0.2,4.9c0,0.4,0,0.8,0,1.2h-27.7V1.1l28.3,50.4V81
				c0,0.7,0,1.4-0.1,2.1s0,1.4,0,2.1s0,1.4,0,2.2c0,0.1,0,0.3,0,0.4l-0.1,3.9c0,0.5,0,1,0,1.5c0,0.2,0,0.4,0,0.6c0,0.6,0,1.2,0,1.8
				v3.3c0,3.1,0,6.1-0.1,9.1c0,0.2,0,0.4,0,0.6c0,3.2,0,6.4,0,9.6c0,3.5,0,7,0,10.5v1c0,0.6,0,1.3,0,1.9c0,6.5,0.1,12.9,0.2,19.4
				c0,4.2,0,8.4,0.1,12.6c0.3,25,0.5,50,0.1,75.1v0.1c0,8.5,0,17,0.1,25.5c0,5.4,0,10.8,0.1,16.2v0.6c0,1,0,2,0,3v1.8
				c0,0.4,0,0.8,0,1.2v0.5c0,0.1,0,0.3,0,0.4v0.2c0,0,0,0.1,0,0.1l0,0l0,0l0,0l0,0v2.6c0,0.8,0,1.7,0,2.5s0,1.7,0,2.5
				C1422.3,296.7,1422.3,297.3,1422.3,297.8z"/>
			<path class="st3" d="M1422.1,80.5c0-0.8,0-1.6,0.1-2.4l-0.1,2.8V80.5z"/>
			<polygon class="st3" points="1423,54.2 1423,54.2 1423,54.2 			"/>
			<path class="st3" d="M1422.1,238.9L1422.1,238.9c0-0.4,0-0.7,0-1V238.9z"/>
			<path class="st3" d="M1422,343.7c0-0.6,0-1.3,0-1.9l-0.1,4.9C1422,345.8,1422,344.8,1422,343.7z"/>
			<path class="st3" d="M1422.3,315.8c0,0.8,0,1.7,0,2.5v-0.7C1422.3,317.1,1422.3,316.4,1422.3,315.8z"/>
			<path class="st3" d="M1422.3,320.4v0.8c0,0.7,0,1.4,0,2l0,0C1422.3,322.2,1422.3,321.3,1422.3,320.4z"/>
			<path class="st3" d="M1422.3,287.2c0-0.4,0-0.8,0-1.2v-1.8c0,0.6,0,1.2,0,1.8V287.2z"/>
			<path class="st3" d="M1422.3,288.8c0-0.1,0-0.2,0-0.3l0,0c0-0.3,0-0.5,0-0.8c0,0.3,0,0.5,0,0.8V288.8L1422.3,288.8z"/>
			<path class="st3" d="M1422.3,296.1v1.7C1422.3,297.3,1422.3,296.7,1422.3,296.1c0-1.7,0-3.4,0-5v-0.9
				C1422.3,292.2,1422.3,294.1,1422.3,296.1z"/>
			<path class="st3" d="M1421.9,91.6c0-0.1,0-0.2,0-0.3c0,2.5,0,5-0.1,7.4c0,3.1,0,6.1-0.1,9.2c0-3,0-6.1,0.1-9.1v-3.3
				c0-0.6,0-1.2,0-1.8c0-0.2,0-0.4,0-0.6C1421.9,92.6,1421.9,92.1,1421.9,91.6z"/>
			<polygon class="st1" points="1103.2,137.8 1143.5,200.5 1247.8,362.5 965.2,362.5 			"/>
			<path class="st2" d="M1140.6,195.9c0,0-5.6-5.2-10.9,0s-19.9,5.3-26.5-2.3s-10.6,3.9-13.3,6s-6.3,1.5-9.7-8.6s-12.6,4.8-12.6,4.8
				l35.6-58L1140.6,195.9z"/>
			<polygon class="st3" points="1104.1,138.5 1143.5,199.8 1247.8,361.9 1104.1,361.9 			"/>
			<g id="road">
				<rect y="379.9" class="st4" width="1423" height="118"/>
				<line class="st5" x1="33" y1="444.2" x2="135.3" y2="444.2"/>
				<line class="st5" x1="213.2" y1="444.2" x2="315.5" y2="444.2"/>
				<line class="st5" x1="393.5" y1="444.2" x2="495.8" y2="444.2"/>
				<line class="st5" x1="573.7" y1="444.2" x2="676" y2="444.2"/>
				<line class="st5" x1="754" y1="444.2" x2="856.3" y2="444.2"/>
				<line class="st5" x1="934.2" y1="444.2" x2="1036.5" y2="444.2"/>
				<line class="st5" x1="1114.4" y1="444.2" x2="1216.8" y2="444.2"/>
				<line class="st5" x1="1294.7" y1="444.2" x2="1397" y2="444.2"/>
			</g>
			<rect x="881" y="224.6" class="st6" width="38.5" height="16.9"/>
			<polygon class="st7" points="740.5,361.1 680,361.1 680,288.5 740.5,264.5 			"/>
			<path class="st8" d="M680,290.6c-0.9,0-1.7-0.5-2.1-1.3c-0.5-1.1,0.1-2.3,1.1-2.8c0,0,0,0,0.1,0l60.5-23.9
				c1.1-0.5,2.4,0.1,2.9,1.2c0.4,1.1-0.1,2.3-1.1,2.8c0,0,0,0-0.1,0l-60.5,23.9C680.6,290.5,680.3,290.6,680,290.6z"/>
			<rect x="740.7" y="215.8" class="st9" width="112.7" height="145.3"/>
			<rect x="740.7" y="215.8" class="st10" width="112.7" height="12.4"/>
			<g id="_Group_">
				<rect x="765" y="244.4" class="st11" width="64.1" height="30.6"/>
				<polygon id="_Path_" class="st12" points="821.1,245.7 821.1,267.3 765,267.3 765,274.9 829,274.9 829,245.7 				"/>
				<rect x="765" y="244.4" class="st13" width="64.1" height="30.6"/>
				<g id="_Group_2">
					<line id="_Path_2" class="st13" x1="785.8" y1="244.4" x2="785.8" y2="274.9"/>
					<line id="_Path_3" class="st13" x1="808.2" y1="244.4" x2="808.2" y2="274.9"/>
				</g>
				<rect x="760.9" y="276" class="st14" width="72.3" height="5.8"/>
			</g>
			<g id="_Group_3">
				<rect x="765" y="300.4" class="st11" width="64.1" height="30.6"/>
				<polygon id="_Path_4" class="st12" points="821.1,301.7 821.1,323.3 765,323.3 765,331 829,331 829,301.7 				"/>
				<rect x="765" y="300.4" class="st13" width="64.1" height="30.6"/>
				<g id="_Group_4">
					<line id="_Path_5" class="st13" x1="785.8" y1="300.4" x2="785.8" y2="331"/>
					<line id="_Path_6" class="st13" x1="808.2" y1="300.4" x2="808.2" y2="331"/>
				</g>
				<rect x="760.8" y="332.1" class="st14" width="72.3" height="5.8"/>
			</g>
			<g id="_Group_5">
				<rect x="738.4" y="213.6" class="st8" width="117.2" height="4.3"/>
			</g>
			<polygon id="_Path_7" class="st10" points="841.5,291.1 769.2,291.1 760.9,281.8 833.2,281.8 			"/>
			<polygon id="_Path_8" class="st10" points="841.5,347.1 769.2,347.1 760.9,337.9 833.2,337.9 			"/>
			<rect x="696.8" y="299.8" class="st11" width="27" height="26"/>
			<polygon id="_Path_9" class="st12" points="716.9,299.8 716.9,319.2 696.8,319.2 696.8,325.8 723.8,325.8 723.8,299.8 			"/>
			<rect x="696.8" y="299.8" class="st13" width="27" height="26"/>
			<rect x="859.3" y="257.2" class="st15" width="81.7" height="105.3"/>
			<rect x="859.3" y="257.2" class="st10" width="81.7" height="9"/>
			<g id="_Group_6">
				<rect x="876.9" y="277.9" class="st16" width="46.4" height="22.1"/>
				<polygon id="_Path_10" class="st12" points="917.6,278.9 917.6,294.5 876.9,294.5 876.9,300.1 923.4,300.1 923.4,278.9 				"/>
				<rect x="876.9" y="277.9" class="st13" width="46.4" height="22.1"/>
				<g id="_Group_7">
					<line id="_Path_11" class="st13" x1="892" y1="277.9" x2="892" y2="300.1"/>
					<line id="_Path_12" class="st13" x1="908.3" y1="277.9" x2="908.3" y2="300.1"/>
				</g>
				<rect x="874" y="300.9" class="st17" width="52.4" height="4.2"/>
			</g>
			<g id="_Group_8">
				<rect x="876.9" y="318.5" class="st16" width="46.5" height="22.2"/>
				<polygon id="_Path_13" class="st12" points="917.6,319.5 917.6,335.1 876.9,335.1 876.9,340.7 923.4,340.7 923.4,319.5 				"/>
				<rect x="876.9" y="318.5" class="st13" width="46.5" height="22.2"/>
				<g id="_Group_9">
					<line id="_Path_14" class="st13" x1="892" y1="318.5" x2="892" y2="340.7"/>
					<line id="_Path_15" class="st13" x1="908.3" y1="318.5" x2="908.3" y2="340.7"/>
				</g>
				<rect x="874" y="341.5" class="st17" width="52.4" height="4.2"/>
			</g>
			<line id="_Path_16" class="st18" x1="859.3" y1="257.2" x2="941" y2="257.2"/>
			<polygon id="_Path_17" class="st10" points="932.4,311.8 880,311.8 874,305.1 926.4,305.1 			"/>
			<polygon id="_Path_18" class="st10" points="932.4,352.4 880,352.4 874,345.7 926.4,345.7 			"/>
			<path class="st2" d="M850.9,256.8"/>
			<polygon class="st19" points="850.9,256.8 948.1,256.8 938.8,247.8 927.2,247.8 921.8,240.7 877.5,240.7 872.4,247.4 
				860.3,247.4 			"/>
			<path class="st20" d="M888.8,237.5h-1v-4.1h-4.6v4.1h-1v-8.7h1v3.7h4.6v-3.7h1V237.5z"/>
			<path class="st20" d="M898.7,233.1c0.1,1.2-0.3,2.4-1,3.3c-0.7,0.8-1.8,1.3-2.9,1.2c-1.1,0.1-2.2-0.4-3-1.2c-0.7-1-1.1-2.1-1-3.3
				c-0.1-1.2,0.3-2.4,1-3.3c0.8-0.8,1.9-1.2,3-1.2c1.1-0.1,2.2,0.4,2.9,1.2C898.4,230.8,898.7,232,898.7,233.1z M891.8,233.1
				c-0.1,1,0.2,1.9,0.8,2.7c1.1,1.2,3,1.2,4.2,0.1c0,0,0.1-0.1,0.1-0.1c0.5-0.8,0.8-1.7,0.7-2.7c0.1-0.9-0.2-1.9-0.7-2.7
				c-0.5-0.6-1.3-1-2.2-0.9c-0.8-0.1-1.6,0.3-2.2,0.9C892,231.3,891.7,232.2,891.8,233.1L891.8,233.1z"/>
			<path class="st20" d="M903.3,237.5h-1v-7.8h-2.7v-0.9h6.5v0.9h-2.7V237.5z"/>
			<path class="st20" d="M912.1,237.5h-4.8v-8.7h4.8v0.9h-3.8v2.8h3.6v0.9h-3.6v3.2h3.8V237.5z"/>
			<path class="st20" d="M914,237.5v-8.7h1v7.8h3.8v0.9H914z"/>
			<path class="st21" d="M772.5,236v-10.4h2.9c0.8,0,1.5,0.2,2.1,0.7c0.5,0.4,0.8,1,0.8,1.7c0,1.1-0.7,2.1-1.8,2.4l0,0
				c0.6,0.1,1.2,0.3,1.7,0.8c0.4,0.5,0.6,1.1,0.6,1.7c0,0.8-0.3,1.6-0.9,2.1c-0.7,0.6-1.5,0.9-2.4,0.8L772.5,236z M773.7,226.8v3.3
				h1.2c0.6,0,1.1-0.1,1.5-0.5c0.4-0.3,0.6-0.8,0.6-1.4c0-1-0.7-1.5-2-1.5H773.7z M773.7,231.2v3.7h1.6c0.6,0,1.2-0.1,1.6-0.5
				c0.4-0.3,0.6-0.9,0.6-1.4c0-1.2-0.8-1.8-2.5-1.8H773.7z"/>
			<path class="st21" d="M788.8,236h-1.3l-1.1-2.9H782l-1,2.9h-1.3l3.9-10.3h1.2L788.8,236z M786,232l-1.6-4.4
				c-0.1-0.2-0.1-0.5-0.2-0.7l0,0c0,0.2-0.1,0.5-0.2,0.7l-1.6,4.4H786z"/>
			<path class="st21" d="M797.4,236h-1.7l-4-4.7c-0.1-0.1-0.2-0.2-0.3-0.4l0,0v5.1h-1.2v-10.4h1.2v4.9l0,0c0.1-0.1,0.2-0.2,0.3-0.4
				l3.8-4.5h1.5l-4.4,5L797.4,236z"/>
			<path class="st21" d="M804.2,236h-5.4v-10.4h5.2v1.1h-4v3.4h3.7v1.1h-3.7v3.6h4.2L804.2,236z"/>
			<path class="st21" d="M813.5,236H812l-1.7-2.9c-0.1-0.2-0.3-0.5-0.5-0.7c-0.1-0.2-0.3-0.3-0.5-0.5c-0.1-0.1-0.3-0.2-0.5-0.3
				c-0.2-0.1-0.4-0.1-0.6-0.1h-1v4.4h-1.2v-10.4h3.1c0.4,0,0.8,0.1,1.2,0.2c0.4,0.1,0.7,0.3,1,0.5c0.3,0.2,0.5,0.5,0.7,0.9
				c0.2,0.4,0.2,0.8,0.2,1.2c0,0.3,0,0.7-0.2,1c-0.1,0.3-0.3,0.6-0.5,0.8c-0.2,0.2-0.4,0.4-0.7,0.6c-0.3,0.2-0.6,0.3-0.9,0.4l0,0
				c0.2,0.1,0.3,0.2,0.5,0.3c0.1,0.1,0.3,0.2,0.4,0.4c0.1,0.1,0.2,0.3,0.3,0.5l0.4,0.6L813.5,236z M807.3,226.8v3.8h1.7
				c0.3,0,0.6,0,0.8-0.1c0.2-0.1,0.5-0.2,0.7-0.4c0.2-0.2,0.3-0.4,0.4-0.6c0.1-0.3,0.2-0.5,0.2-0.8c0-0.5-0.2-1-0.5-1.3
				c-0.4-0.3-1-0.5-1.5-0.5H807.3z"/>
			<path class="st21" d="M821.5,225.6l-3.4,6.5v3.8h-1.2v-3.8l-3.3-6.6h1.4l2.3,4.7c0,0.1,0.1,0.3,0.3,0.6l0,0
				c0.1-0.2,0.2-0.4,0.3-0.6l2.4-4.7H821.5z"/>
			<ellipse class="st22" cx="1251.1" cy="303" rx="11.7" ry="8"/>
			<path class="st23" d="M1251,295.1c-6.5,0-11.7,3.6-11.7,8s5.2,8,11.7,8V295.1z"/>
			<ellipse class="st22" cx="1294.2" cy="276" rx="11.7" ry="8"/>
			<path class="st23" d="M1294.2,268c-6.5,0-11.7,3.6-11.7,8s5.2,8,11.7,8V268z"/>
			<polygon class="st24" points="1276.8,332.7 1275.3,331.5 1287.6,316.5 1289.1,317.7 			"/>
			<polygon class="st25" points="1288.3,317.1 1287.6,316.5 1275.3,331.5 1276.1,332.1 			"/>
			<polygon class="st24" points="1274.8,327.2 1273.3,326 1285.6,311 1287.1,312.2 			"/>
			<polygon class="st25" points="1286.3,311.6 1285.6,311 1273.3,326 1274.1,326.6 			"/>
			<polygon class="st24" points="1259.6,310.2 1258.3,311.7 1273.7,323.7 1274.9,322.3 			"/>
			<polygon class="st25" points="1274.3,323 1273.7,323.7 1258.3,311.7 1258.9,310.9 			"/>
			<rect x="1272.3" y="311.6" class="st24" width="5.9" height="46.8"/>
			<rect x="1272.3" y="311.6" class="st25" width="3" height="46.8"/>
			<ellipse class="st22" cx="1276.8" cy="293.5" rx="35.2" ry="24"/>
			<path class="st23" d="M1276.8,269.4c-19.4,0-35.2,10.8-35.2,24s15.8,24,35.2,24V269.4z"/>
			<ellipse class="st22" cx="1294.2" cy="311.6" rx="14.1" ry="9.6"/>
			<path class="st23" d="M1294.2,302c-7.8,0-14,4.3-14,9.6s6.3,9.6,14,9.6V302z"/>
			<ellipse class="st22" cx="1318.8" cy="307" rx="11.5" ry="7.9"/>
			<path class="st23" d="M1318.8,299.1c-6.4,0-11.5,3.5-11.5,7.9s5.2,7.9,11.5,7.9V299.1z"/>
			<ellipse class="st22" cx="1361.4" cy="280.2" rx="11.5" ry="7.9"/>
			<path class="st23" d="M1361.4,272.4c-6.4,0-11.5,3.5-11.5,7.9s5.2,7.9,11.5,7.9V272.4z"/>
			<polygon class="st24" points="1344.3,336.2 1342.7,335 1354.9,320.3 1356.4,321.4 			"/>
			<polygon class="st25" points="1355.6,320.8 1354.9,320.3 1342.7,335 1343.5,335.6 			"/>
			<polygon class="st24" points="1342.3,330.8 1340.8,329.6 1352.9,314.9 1354.4,316 			"/>
			<polygon class="st25" points="1353.7,315.4 1352.9,314.9 1340.8,329.6 1341.5,330.2 			"/>
			<polygon class="st24" points="1327.2,314 1326,315.5 1341.2,327.4 1342.4,325.9 			"/>
			<polygon class="st25" points="1341.8,326.7 1341.2,327.4 1326,315.5 1326.6,314.8 			"/>
			<rect x="1339.8" y="315.4" class="st24" width="5.9" height="46.1"/>
			<rect x="1339.8" y="315.4" class="st25" width="2.9" height="46.1"/>
			<ellipse class="st22" cx="1344.3" cy="297.5" rx="34.7" ry="23.7"/>
			<path class="st23" d="M1344.3,273.8c-19.2,0-34.7,10.6-34.7,23.7s15.6,23.7,34.7,23.7V273.8z"/>
			<ellipse class="st22" cx="1361.4" cy="315.5" rx="13.9" ry="9.5"/>
			<path class="st23" d="M1361.4,306c-7.7,0-13.9,4.2-13.9,9.5s6.2,9.5,13.9,9.5V306z"/>
			<path class="st26" d="M263.1,299.3L263.1,299.3L263.1,299.3c-0.7-1-1.6-1.8-2.7-2.2l-57.1-46.5l-56.7,46.9
				c-0.5,0.3-1,0.7-1.4,1.2l-0.1,0.1l0,0c-0.8,1-1.3,2.2-1.3,3.5c0.1,3.2,2.7,5.7,5.8,5.6c0,0,0,0,0,0h108.5
				c3.2,0.1,5.8-2.4,5.8-5.6C264,301.2,263.7,300.2,263.1,299.3z"/>
			<polygon class="st27" points="251,359 157.8,359 157.8,299.7 203.8,263 203.8,263 251,299.4 			"/>
			<rect x="210.3" y="330.1" class="st2" width="17.6" height="20"/>
			<rect x="211.7" y="331.7" class="st28" width="14.8" height="16.7"/>
			<rect x="210.3" y="340.1" class="st2" width="17.6" height="1.5"/>
			<rect x="218.5" y="331.7" class="st2" width="2.8" height="16.7"/>
			<rect x="174.4" y="321.3" class="st2" width="22.1" height="37.7"/>
			<rect x="175.8" y="322.8" class="st26" width="19.2" height="36.2"/>
			<rect x="206.3" y="349.4" class="st26" width="24.6" height="1.7"/>
			<rect x="195.1" y="287.6" class="st2" width="17.6" height="20"/>
			<rect x="196.6" y="289.2" class="st28" width="14.8" height="16.7"/>
			<rect x="195.1" y="297.6" class="st2" width="17.6" height="1.5"/>
			<rect x="203.3" y="289.2" class="st2" width="2.8" height="16.7"/>
			<rect x="212.8" y="287.6" class="st26" width="10.6" height="20"/>
			<rect x="184.5" y="287.6" class="st26" width="10.7" height="20"/>
			<path class="st26" d="M1087.5,299.3L1087.5,299.3L1087.5,299.3c-0.7-1-1.6-1.8-2.7-2.2l-57.1-46.5l-56.7,46.9
				c-0.5,0.3-1,0.7-1.4,1.2l-0.1,0.1l0,0c-0.8,1-1.3,2.2-1.3,3.5c0.1,3.2,2.7,5.7,5.8,5.6c0,0,0,0,0,0h108.5
				c3.2,0.1,5.8-2.4,5.8-5.6C1088.4,301.2,1088.1,300.2,1087.5,299.3z"/>
			<polygon class="st29" points="1075.4,359 982.2,359 982.2,299.7 1028.2,263 1028.2,263 1075.4,299.4 			"/>
			<rect x="1034.7" y="330.1" class="st2" width="17.6" height="20"/>
			<rect x="1036.1" y="331.7" class="st28" width="14.8" height="16.7"/>
			<rect x="1034.7" y="340.1" class="st2" width="17.6" height="1.5"/>
			<rect x="1042.9" y="331.7" class="st2" width="2.8" height="16.7"/>
			<rect x="998.8" y="323.8" class="st2" width="20.7" height="35.1"/>
			<rect x="1000.2" y="325.3" class="st26" width="17.9" height="34.6"/>
			<rect x="1030.7" y="349.4" class="st26" width="24.7" height="1.7"/>
			<rect x="1019.5" y="287.6" class="st2" width="17.6" height="20"/>
			<rect x="1021" y="289.2" class="st28" width="14.8" height="16.7"/>
			<rect x="1019.5" y="297.6" class="st2" width="17.6" height="1.5"/>
			<rect x="1027.7" y="289.2" class="st2" width="2.8" height="16.7"/>
			<rect x="1037.2" y="287.6" class="st26" width="10.7" height="20"/>
			<rect x="1008.9" y="287.6" class="st26" width="10.7" height="20"/>
			<ellipse class="st22" cx="1390.8" cy="315.5" rx="9.6" ry="6.6"/>
			<path class="st23" d="M1390.8,308.9c-5.3,0-9.6,3-9.6,6.6s4.3,6.6,9.6,6.6V308.9z"/>
			<path class="st22" d="M1422,299.1L1422,299.1c-3.2-1.1-5.4-3.3-5.4-5.9c0.1-2,1.2-3.7,2.9-4.7c0.8-0.5,1.6-0.9,2.5-1.2l0,0v1.2
				c0,0.2,0,0.4,0,0.6v1.6c0,0.3,0,0.5,0,0.8l0,0c0,0.1,0,0.2,0,0.3v2.3C1422,295.8,1422,297.4,1422,299.1z"/>
			<path class="st22" d="M1422,291.8c0-0.1,0-0.2,0-0.3l0,0c0-0.3,0-0.5,0-0.8c0,0.3,0,0.5,0,0.8V291.8L1422,291.8z"/>
			<path class="st22" d="M1422,299.1L1422,299.1c0-1.7,0-3.4,0-5v-0.9V299.1z"/>
			<path class="st23" d="M1422,299.1L1422,299.1c-3.2-1.1-5.4-3.3-5.4-5.9c0.1-2,1.2-3.7,2.9-4.7c0.8-0.5,1.6-0.9,2.5-1.2l0,0v1.2
				c0,0.2,0,0.4,0,0.6v1.6c0,0.3,0,0.5,0,0.8l0,0c0,0.1,0,0.2,0,0.3v2.3C1422,295.8,1422,297.4,1422,299.1z"/>
			<path class="st23" d="M1422,291.8c0-0.1,0-0.2,0-0.3l0,0c0-0.3,0-0.5,0-0.8c0,0.3,0,0.5,0,0.8V291.8L1422,291.8z"/>
			<path class="st23" d="M1422,299.1L1422,299.1c0-1.7,0-3.4,0-5v-0.9V299.1z"/>
			<polygon class="st24" points="1420.7,326.6 1410.6,338.9 1411.9,339.9 1421.9,327.6 			"/>
			<polygon class="st25" points="1420.7,326.6 1410.6,338.9 1411.3,339.4 1421.3,327.1 			"/>
			<polygon class="st24" points="1410.3,335.4 1409,334.4 1419,322.1 1420.3,323 			"/>
			<polygon class="st25" points="1419.7,322.6 1419,322.1 1409,334.4 1409.6,334.9 			"/>
			<polygon class="st24" points="1397.8,321.4 1396.8,322.6 1409.3,332.5 1410.3,331.3 			"/>
			<polygon class="st25" points="1409.8,331.9 1409.3,332.5 1396.8,322.6 1397.3,322 			"/>
			<rect x="1408.2" y="322.6" class="st24" width="4.9" height="38.5"/>
			<rect x="1408.2" y="322.6" class="st25" width="2.4" height="38.5"/>
			<path class="st22" d="M1422,318.8c0,0.8,0,1.7,0,2.5v-0.7C1422,320.1,1422,319.4,1422,318.8z"/>
			<path class="st22" d="M1422,291.5L1422,291.5c0-0.3,0-0.5,0-0.8C1422,291,1422,291.2,1422,291.5z"/>
			<path class="st22" d="M1422,299.1v1.7c0,4.8,0,9.6,0,14.4v1c0,0.9,0,1.8,0,2.6c0,0.6,0,1.2,0,1.9v0.7c0,0.6,0,1.2,0,1.9v0.9
				c0,0.7,0,1.4,0,2l0,0c-1.6,0.4-3.3,0.7-4.9,0.9l0,0c-0.1,0-0.2,0-0.3,0l-0.9,0.1l-1.1,0.1h-1c-0.3,0-0.5,0-0.8,0h-1.1
				c-0.4,0-0.9,0-1.3,0h-0.6c-0.6,0-1.2-0.1-1.8-0.1s-1.3-0.1-1.9-0.2l-0.9-0.1l-0.4-0.1l-0.4-0.1l0,0l-0.9-0.2l-0.9-0.2
				c-0.6-0.1-1.3-0.3-1.9-0.5c-0.3-0.1-0.7-0.2-1-0.3l-0.8-0.3c-0.4-0.1-0.7-0.3-1.1-0.4l-1-0.4c-1.1-0.5-2.3-1-3.3-1.6
				c-0.5-0.3-1-0.6-1.5-0.9l-0.6-0.4c-0.2-0.2-0.5-0.3-0.7-0.5c-0.1-0.1-0.2-0.2-0.4-0.3c-0.2-0.2-0.4-0.3-0.6-0.5
				c-0.6-0.5-1.1-1-1.6-1.5c-0.1-0.1-0.2-0.2-0.3-0.4s-0.4-0.4-0.5-0.6l0,0c-0.2-0.3-0.5-0.5-0.7-0.8c-0.2-0.2-0.4-0.5-0.6-0.7
				s-0.3-0.4-0.4-0.6s-0.2-0.3-0.3-0.5s-0.2-0.4-0.3-0.6s-0.2-0.4-0.3-0.6c-0.1-0.1-0.1-0.2-0.1-0.3c0-0.1-0.1-0.2-0.1-0.3
				c-0.1-0.1-0.1-0.3-0.2-0.4c-0.1-0.3-0.2-0.5-0.3-0.8c-0.1-0.3-0.2-0.6-0.3-0.9c0,0,0-0.1,0-0.1c-0.1-0.2-0.1-0.5-0.2-0.7
				c0-0.2-0.1-0.3-0.1-0.5c0-0.1-0.1-0.3-0.1-0.4c-0.1-0.3-0.1-0.6-0.1-1c0-0.3,0-0.6,0-0.9s0-0.7,0-1s0.1-0.6,0.1-0.9
				s0.1-0.3,0.1-0.5c0,0,0,0,0,0c0-0.2,0.1-0.3,0.1-0.5c0.1-0.4,0.2-0.8,0.3-1.2c0.1-0.3,0.2-0.5,0.3-0.8c0.1-0.3,0.2-0.5,0.3-0.7
				l0.1-0.3c0.4-0.9,0.8-1.7,1.4-2.4l0.3-0.4c0,0,0-0.1,0.1-0.1c0.1-0.2,0.3-0.4,0.5-0.6c0.6-0.8,1.4-1.6,2.1-2.3l0.8-0.7
				c0,0,0,0,0.1,0c0.2-0.2,0.5-0.4,0.8-0.6l0.3-0.3c0.5-0.4,1-0.8,1.6-1.1c0.2-0.1,0.4-0.3,0.6-0.4s0.6-0.4,0.9-0.5
				c0.6-0.4,1.3-0.7,2-1l0.4-0.2c0.6-0.3,1.2-0.5,1.8-0.8l0.6-0.2c0.2-0.1,0.4-0.2,0.7-0.2l0.5-0.2c0.2-0.1,0.4-0.1,0.7-0.2
				c0.3-0.1,0.6-0.2,0.8-0.2l0.5-0.1l0.8-0.2c0.6-0.2,1.3-0.3,2-0.4l1.2-0.2l0.9-0.1c0.3,0,0.7-0.1,1-0.1l0.8-0.1h0.2l0.5,0
				c0.4,0,0.9,0,1.3-0.1s1,0,1.5,0c2.5,0,5,0.2,7.5,0.7c0.8,0.2,1.7,0.3,2.5,0.5l0,0v1.6c0,0.2,0,0.4,0,0.5v2.9c0,0.8,0,1.7,0,2.5
				S1422,298.3,1422,299.1z"/>
			<path class="st23" d="M1411.9,287.8c-15.9,0-28.7,8.9-28.7,19.8s12.9,19.8,28.7,19.8V287.8z"/>
			<path class="st22" d="M1422,315.2v1c0,0.9,0,1.8,0,2.6c0,0.6,0,1.2,0,1.9v0.7c0,0.6,0,1.2,0,1.9v0.9c0,0.7,0,1.3,0,2v3.8l0,0
				c-0.5-0.1-1-0.3-1.5-0.5l-0.8-0.3c-0.3-0.1-0.5-0.2-0.7-0.4c-0.7-0.4-1.4-0.9-2.1-1.5l-0.1-0.1c-0.1-0.1-0.3-0.3-0.4-0.4
				c-0.2-0.2-0.3-0.4-0.5-0.6c-0.7-1-1.1-2.2-1.2-3.5C1414.7,319.2,1417.8,316.3,1422,315.2L1422,315.2z"/>
			<path class="st22" d="M1422,318.8c0,0.8,0,1.7,0,2.5v-0.7C1422,320.1,1422,319.4,1422,318.8z"/>
			<path class="st22" d="M1422,323.4v0.8c0,0.7,0,1.4,0,2l0,0C1422,325.2,1422,324.3,1422,323.4z"/>
			<path class="st23" d="M1422,315.2v1c0,0.9,0,1.8,0,2.6c0,0.6,0,1.2,0,1.9v0.7c0,0.6,0,1.2,0,1.9v0.9c0,0.7,0,1.3,0,2v3.8l0,0
				c-0.5-0.1-1-0.3-1.5-0.5l-0.8-0.3c-0.3-0.1-0.5-0.2-0.7-0.4c-0.7-0.4-1.4-0.9-2.1-1.5l-0.1-0.1c-0.1-0.1-0.3-0.3-0.4-0.4
				c-0.2-0.2-0.3-0.4-0.5-0.6c-0.7-1-1.1-2.2-1.2-3.5C1414.7,319.2,1417.8,316.3,1422,315.2L1422,315.2z"/>
			<path class="st23" d="M1422,318.8c0,0.8,0,1.7,0,2.5v-0.7C1422,320.1,1422,319.4,1422,318.8z"/>
			<path class="st23" d="M1422,323.4v0.8c0,0.7,0,1.4,0,2l0,0C1422,325.2,1422,324.3,1422,323.4z"/>
			<rect x="107.4" y="234.7" class="st30" width="18" height="23.3"/>
			<rect x="104.1" y="225.3" class="st31" width="24.6" height="9.4"/>
			<path class="st26" d="M143.6,271.4L143.6,271.4L143.6,271.4c-0.7-1.1-1.8-2-3.1-2.5l-65-53l-64.7,53.4c-0.6,0.4-1.2,0.8-1.6,1.3
				l-0.1,0.1l0,0c-1,1.1-1.5,2.5-1.5,4c0.1,3.6,3,6.5,6.6,6.4H138c3.6,0.1,6.6-2.8,6.6-6.4C144.6,273.6,144.3,272.4,143.6,271.4z"/>
			<polygon class="st32" points="129.7,357.9 23.5,357.9 23.5,271.9 76,230.1 76,230.1 129.7,271.6 			"/>
			<rect x="19.6" y="312.3" class="st31" width="112.4" height="8.4"/>
			<rect x="39" y="289.6" class="st2" width="20.1" height="22.7"/>
			<rect x="40.7" y="291.4" class="st33" width="16.8" height="19.1"/>
			<rect x="39" y="301" class="st2" width="20.1" height="1.7"/>
			<rect x="47" y="291.4" class="st2" width="3.2" height="19.1"/>
			<rect x="38.5" y="326.4" class="st2" width="20.1" height="22.7"/>
			<rect x="40.2" y="328.2" class="st33" width="16.8" height="19.1"/>
			<rect x="38.5" y="337.7" class="st2" width="20.1" height="1.7"/>
			<rect x="46.5" y="328.2" class="st2" width="3.2" height="19.1"/>
			<rect x="93" y="326.4" class="st2" width="20.1" height="22.7"/>
			<rect x="94.6" y="328.2" class="st33" width="16.8" height="19.1"/>
			<rect x="93" y="337.7" class="st2" width="20.1" height="1.7"/>
			<rect x="100.9" y="328.2" class="st2" width="3.2" height="19.1"/>
			<rect x="65.8" y="289.6" class="st2" width="20.1" height="22.7"/>
			<rect x="67.4" y="291.4" class="st33" width="16.8" height="19.1"/>
			<rect x="65.8" y="301" class="st2" width="20.1" height="1.7"/>
			<rect x="73.7" y="291.4" class="st2" width="3.2" height="19.1"/>
			<rect x="66.6" y="245.7" class="st2" width="20.1" height="22.7"/>
			<rect x="68.2" y="247.5" class="st33" width="16.8" height="19.1"/>
			<rect x="66.6" y="257.1" class="st2" width="20.1" height="1.7"/>
			<rect x="74.5" y="247.5" class="st2" width="3.2" height="19.1"/>
			<rect x="93" y="289.6" class="st2" width="20.1" height="22.7"/>
			<rect x="94.6" y="291.4" class="st33" width="16.8" height="19.1"/>
			<rect x="93" y="301" class="st2" width="20.1" height="1.7"/>
			<rect x="100.9" y="291.4" class="st2" width="3.2" height="19.1"/>
			<rect x="65.8" y="326.4" class="st2" width="21" height="31.6"/>
			<rect x="67.4" y="328.2" class="st31" width="17.7" height="29.7"/>
			<rect x="57.5" y="268.5" class="st31" width="39.2" height="5.7"/>
			<path class="st34" d="M282.1,302.9h85.6c2.5,0,4.5,2,4.5,4.5v39c0,2.5-2,4.5-4.5,4.5h-85.6c-2.5,0-4.5-2-4.5-4.5v-39
				C277.6,304.9,279.6,302.9,282.1,302.9z"/>
			<rect x="279.8" y="350.7" class="st35" width="89.9" height="4.3"/>
			<rect x="276.5" y="354.5" class="st36" width="96.6" height="4.3"/>
			<rect x="286.4" y="308.6" class="st37" width="48.2" height="33.1"/>
			<polygon class="st38" points="288.3,340.2 288.3,308.6 286.4,308.6 286.4,341.7 334.6,341.7 334.6,340.2 			"/>
			<path class="st39" d="M277.5,302.2v11.7c0.2,3.3,3,5.7,6.2,5.6c3-0.2,5.4-2.6,5.6-5.6v-11.7H277.5z"/>
			<path class="st40" d="M289.3,302.2v11.7c0.2,3.3,3,5.7,6.2,5.6c3-0.2,5.4-2.6,5.6-5.6v-11.7H289.3z"/>
			<path class="st39" d="M301.1,302.2v11.7c0.2,3.3,3,5.7,6.2,5.6c3-0.2,5.4-2.6,5.6-5.6v-11.7H301.1z"/>
			<path class="st40" d="M312.9,302.2v11.7c0,3.3,2.7,5.9,5.9,5.9c3.3,0,5.9-2.6,5.9-5.9v-11.7H312.9z"/>
			<path class="st39" d="M324.7,302.2v11.7c0.2,3.3,3,5.7,6.2,5.6c3-0.2,5.4-2.6,5.6-5.6v-11.7H324.7z"/>
			<path class="st40" d="M336.5,302.2v11.7c0.2,3.3,3,5.7,6.2,5.6c3-0.2,5.4-2.6,5.6-5.6v-11.7H336.5z"/>
			<path class="st39" d="M348.3,302.2v11.7c0.2,3.3,3,5.7,6.2,5.6c3-0.2,5.4-2.6,5.6-5.6v-11.7H348.3z"/>
			<path class="st40" d="M360.1,302.2v11.7c0.2,3.3,3,5.7,6.2,5.6c3-0.2,5.4-2.6,5.6-5.6v-11.7H360.1z"/>
			<path class="st41" d="M294.5,283.6l-17,18.6h11.8l12.8-18.6H294.5z"/>
			<path class="st42" d="M302.1,283.6l-12.8,18.6h11.8l8.5-18.6H302.1z"/>
			<path class="st41" d="M309.6,283.6l-8.5,18.6h11.8l4.3-18.6H309.6z"/>
			<path class="st42" d="M317.2,283.6l-4.3,18.6h11.8v-18.6H317.2z"/>
			<path class="st41" d="M324.7,283.6v18.6h11.8l-4.3-18.6H324.7z"/>
			<path class="st42" d="M332.3,283.6l4.3,18.6h11.8l-8.5-18.6H332.3z"/>
			<path class="st41" d="M339.8,283.6l8.5,18.6h11.8l-12.8-18.6H339.8z"/>
			<path class="st42" d="M360.1,302.1h11.8l-17-18.6h-7.5L360.1,302.1z"/>
			<rect x="294.5" y="279.7" class="st41" width="7.6" height="3.9"/>
			<rect x="302" y="279.7" class="st41" width="7.6" height="3.9"/>
			<rect x="309.6" y="279.7" class="st41" width="7.6" height="3.9"/>
			<rect x="317.2" y="279.7" class="st41" width="7.6" height="3.9"/>
			<rect x="324.7" y="279.7" class="st41" width="7.6" height="3.9"/>
			<rect x="332.3" y="279.7" class="st41" width="7.6" height="3.9"/>
			<rect x="339.9" y="279.7" class="st41" width="7.6" height="3.9"/>
			<rect x="347.4" y="279.7" class="st41" width="7.6" height="3.9"/>
			<rect x="338.5" y="317.6" class="st29" width="24.6" height="33.1"/>
			<rect x="341.9" y="335.9" class="st43" width="18.7" height="12.6"/>
			<rect x="341.9" y="320.7" class="st37" width="18.7" height="12.8"/>
			<polygon class="st38" points="342.6,333 342.6,320.7 341.9,320.7 341.9,333.5 360.5,333.5 360.5,333 			"/>
			<rect x="645.7" y="337.1" class="st24" width="5.7" height="24.1"/>
			<rect x="645.7" y="337.1" class="st25" width="2.8" height="24.1"/>
			<polygon class="st44" points="666.8,346.9 648.6,287.1 630.4,346.9 633.3,346.9 632.1,351.4 665.3,351.4 664,346.9 			"/>
			<polygon class="st45" points="648.7,351.4 648.7,287.1 630.5,346.9 633.5,346.9 632.2,351.4 			"/>
			<rect x="600.7" y="337.1" class="st24" width="5.7" height="24.1"/>
			<rect x="600.7" y="337.1" class="st25" width="2.8" height="24.1"/>
			<polygon class="st44" points="621.8,346.9 603.5,287.1 585.3,346.9 588.3,346.9 587.1,351.4 620.3,351.4 619,346.9 			"/>
			<polygon class="st45" points="603.7,351.4 603.7,287.1 585.5,346.9 588.4,346.9 587.2,351.4 			"/>
			<rect x="451.4" y="234.7" class="st46" width="16.9" height="22.3"/>
			<rect x="448.4" y="224.9" class="st47" width="22.6" height="9.8"/>
			<polygon class="st48" points="579,302.8 398.5,302.8 420.6,255.6 555.8,255.6 			"/>
			<rect x="415.8" y="302.8" class="st49" width="144.8" height="50.9"/>
			<path class="st2" d="M539.8,297.6L539.8,297.6L539.8,297.6c-0.7-1.1-1.8-2-3.1-2.5L488,201l-47.7,94.5c-0.6,0.4-1.2,0.8-1.6,1.4
				l-0.1,0.1l0,0c-1,1.1-1.5,2.5-1.5,4c0.1,3.6,3.1,6.5,6.7,6.4h90.4c3.6,0.1,6.6-2.8,6.7-6.4C540.8,299.8,540.5,298.6,539.8,297.6z
				"/>
			<polygon class="st46" points="524.7,357.9 451.4,357.9 451.4,294 489.1,219.6 489.1,219.6 524.7,293.6 			"/>
			<rect x="424.5" y="319.4" class="st2" width="20.2" height="22.9"/>
			<rect x="426.1" y="321.3" class="st28" width="17" height="19.2"/>
			<rect x="424.5" y="330.9" class="st2" width="20.2" height="1.7"/>
			<rect x="433.8" y="321.3" class="st2" width="3.3" height="19.2"/>
			<rect x="533.3" y="319.4" class="st2" width="20.2" height="22.9"/>
			<rect x="534.9" y="321.3" class="st28" width="17" height="19.2"/>
			<rect x="533.3" y="330.9" class="st2" width="20.2" height="1.7"/>
			<rect x="542.7" y="321.3" class="st2" width="3.3" height="19.2"/>
			<rect x="477.9" y="254.3" class="st2" width="20.2" height="36.5"/>
			<rect x="479.5" y="257.2" class="st28" width="17" height="30.6"/>
			<rect x="477.9" y="272.5" class="st2" width="20.2" height="2.8"/>
			<rect x="487.3" y="257.2" class="st2" width="3.3" height="30.6"/>
			<path class="st2" d="M500,357.9v-35c0-5.4-5.4-9.7-12-9.7s-12,4.4-12,9.7v35H500z"/>
			<path class="st50" d="M497.7,357.9v-32.9c-0.2-5.2-4.7-9.3-9.9-9.1c-4.9,0.2-8.8,4.2-9.1,9.1v32.9H497.7z"/>
			<rect x="404.5" y="353.7" class="st48" width="169.5" height="7.7"/>
			<polygon class="st24" points="391.1,355.7 390,356.5 377.6,339.9 378.8,339.1 			"/>
			<polygon class="st25" points="378.2,339.5 377.6,339.9 390,356.5 390.6,356.1 			"/>
			<polygon class="st24" points="392.8,351.8 391.5,351.2 399.1,336.6 400.3,337.2 			"/>
			<polygon class="st25" points="399.7,336.9 399.1,336.6 391.5,351.2 392.1,351.5 			"/>
			<rect x="388.3" y="323.2" class="st24" width="5.6" height="40.8"/>
			<polygon class="st25" points="391,323.2 388.3,323.2 388.3,363.9 391,363.9 391,332.9 			"/>
			<polygon class="st44" points="406.1,322.9 391,289.6 376,322.9 378.4,322.9 377.4,325.5 404.9,325.5 403.8,322.9 			"/>
			<polygon class="st45" points="391.1,325.5 391.1,289.6 376.1,322.9 378.5,322.9 377.5,325.5 			"/>
			<polygon class="st44" points="379.4,334.2 379.4,334.2 372.5,342.7 385.4,342.7 			"/>
			<polygon class="st45" points="379.4,334.2 379.4,334.2 372.5,342.7 379.4,342.7 			"/>
			<polygon class="st44" points="400.3,326.9 400.3,326.9 394.9,337.7 405,337.7 			"/>
			<polygon class="st45" points="400.3,326.9 400.3,326.9 394.9,337.7 400.3,337.7 			"/>
			<rect x="2.1" y="358.7" class="st51" width="1133.2" height="21.5"/>
			<rect x="1135.1" y="357.9" class="st52" width="286.9" height="7.9"/>
			<polygon class="st53" points="1135.1,363.6 1135.1,372.3 1135.1,381 1422,381 1422,372.3 1422,363.6 			"/>
			<polygon class="st24" points="955.6,349.7 954.5,350.5 942.2,333.9 943.3,333.1 			"/>
			<polygon class="st25" points="942.7,333.5 942.2,333.9 954.5,350.5 955.1,350.1 			"/>
			<polygon class="st24" points="957.3,345.8 956,345.2 963.6,330.6 964.8,331.2 			"/>
			<polygon class="st25" points="964.2,330.9 963.6,330.6 956,345.2 956.6,345.5 			"/>
			<rect x="952.8" y="317.2" class="st24" width="5.6" height="40.8"/>
			<polygon class="st25" points="955.5,317.2 952.8,317.2 952.8,357.9 955.5,357.9 955.5,326.9 			"/>
			<polygon class="st44" points="970.6,316.9 955.5,283.6 940.5,316.9 942.9,316.9 941.9,319.5 969.4,319.5 968.3,316.9 			"/>
			<polygon class="st45" points="955.6,319.5 955.6,283.6 940.6,316.9 943,316.9 942,319.5 			"/>
			<polygon class="st44" points="943.9,328.2 943.9,328.2 937,336.7 949.9,336.7 			"/>
			<polygon class="st45" points="943.9,328.2 943.9,328.2 937,336.7 943.9,336.7 			"/>
			<polygon class="st44" points="964.8,320.9 964.8,320.9 959.4,331.7 969.5,331.7 			"/>
			<polygon class="st45" points="964.8,320.9 964.8,320.9 959.4,331.7 964.8,331.7 			"/>
		</g>
	</g>
</g>
</svg>
