<?xml version="1.0" encoding="utf-8"?>
<!-- Generator: Adobe Illustrator 21.1.0, SVG Export Plug-In . SVG Version: 6.00 Build 0)  -->
<svg version="1.1" id="Layer_1" xmlns="http://www.w3.org/2000/svg" xmlns:xlink="http://www.w3.org/1999/xlink" x="0px" y="0px"
	 viewBox="0 0 1423 405.4" style="enable-background:new 0 0 1423 405.4;" xml:space="preserve">
<style type="text/css">
	.st0{opacity:0.1;fill:#231F20;enable-background:new    ;}
	.st1{fill:#96A2A4;}
	.st2{fill:#FFFFFF;}
	.st3{opacity:0.3;fill:#231F20;enable-background:new    ;}
	.st4{fill:#5E5F61;}
	.st5{fill:none;stroke:#FFFFFF;stroke-width:2;stroke-miterlimit:10;}
	.st6{fill:#FF9D00;}
	.st7{fill:#CEAA72;}
	.st8{fill:#C0E0DE;}
	.st9{fill:none;stroke:#FFFFFF;stroke-miterlimit:10;}
	.st10{fill:#543C36;}
	.st11{fill:none;stroke:#543C36;stroke-width:4;stroke-linecap:square;stroke-miterlimit:10;}
	.st12{fill:#A40000;}
	.st13{fill:#890000;}
	.st14{fill:#B73D43;}
	.st15{fill:#4F0000;}
	.st16{fill:#CC4047;}
	.st17{fill:#604123;}
	.st18{fill:#9AB6B8;}
	.st19{fill:#FFFF00;}
	.st20{fill:#809B3D;}
	.st21{opacity:0.2;fill:#FFFFFF;enable-background:new    ;}
	.st22{fill:#855222;}
	.st23{fill:#AD6729;}
	.st24{fill:#6E3E19;}
	.st25{fill:#619959;}
	.st26{fill:#CCE9EB;}
	.st27{fill:#FAAE40;}
	.st28{fill:#A8745D;}
	.st29{fill:#A73330;}
	.st30{fill:#B27D62;}
	.st31{fill:#B7AD4E;}
	.st32{fill:#852A34;}
	.st33{fill:#44130C;}
	.st34{fill:#9AD4DA;}
	.st35{fill:#B21F24;}
	.st36{fill:#C93427;}
	.st37{fill:#DB4126;}
	.st38{fill:#F16228;}
	.st39{fill:none;stroke:#FDCA80;stroke-miterlimit:10;}
	.st40{fill:#3F8252;}
	.st41{opacity:0.2;fill:#57AE62;enable-background:new    ;}
	.st42{fill:#E74543;}
	.st43{fill:#A82D2B;}
	.st44{fill:#EAF6F7;}
	.st45{fill:#BC3734;}
	.st46{fill:#C23C39;}
	.st47{fill:#9B805D;}
	.st48{fill:#DDDDDD;}
	.st49{fill:#82CB38;}
	.st50{fill:#AA5541;}
</style>
<g id="content">
	<g id="mountains">
		<path class="st0" d="M1474.4,295.1L1474.4,295.1c0,2.1,0,4.2-0.1,6.3l-0.1,5v1.5c0,0.6,0,1.2,0,1.8c0,1.9-0.1,3.7-0.1,5.6
			c0,0.2,0,0.4,0,0.7c0,1.6-0.1,3.3-0.1,4.9c0,0.4,0,0.8,0,1.2s0,0.8,0,1.1v1h-343.4l0.6-0.8h-0.6l0.7-1l53.7-79.1l45.8-67.5
			l0.2-0.3l33.4-49.1l50.6-74.6v0.8l1.1-1.7l45.6,70.4l0.1,0.1l3.4,5.2l80.3,124l3.1,4.7l15.3,23.6l0.2,0.3l1.2,1.8l1,1.6l0.7,1.1
			l0.4,0.6l0.4,0.7l0.4,0.7l1.4,2.2l0.4,0.7l0.4,0.7L1474.4,295.1z"/>
		<path class="st0" d="M1339.2,369.1L1339.2,369.1c0,2.1,0,4.2-0.1,6.3l-0.1,5v1.5c0,0.6,0,1.2,0,1.8c0,1.9-0.1,3.7-0.1,5.6
			c0,0.2,0,0.4,0,0.7c0,1.6-0.1,3.3-0.1,4.9c0,0.4,0,0.8,0,1.2s0,0.8,0,1.1v1H995.3l0.6-0.8h-0.6l0.7-1l53.7-79.1l45.8-67.5l0.2-0.3
			l33.4-49.1l50.6-74.6v0.8l1.1-1.7l45.6,70.4l0.1,0.1l3.4,5.2l80.3,124l3.1,4.7l15.3,23.6l0.2,0.3l1.2,1.8l1,1.6l0.7,1.1l0.4,0.6
			l0.4,0.7l0.4,0.7l1.4,2.2l0.4,0.7l0.4,0.7L1339.2,369.1z"/>
		<g>
			<polygon class="st1" points="1231.2,151.2 1260.1,201 1334.7,329.7 1132.4,329.7 			"/>
			<path class="st2" d="M1258,197.4c0,0-4-4.2-7.8,0c-3.8,4.2-14.3,4.2-19-1.9s-7.6,3.1-9.5,4.8c-1.9,1.7-4.5,1.2-7-6.9
				s-9,3.8-9,3.8l25.5-46.1L1258,197.4z"/>
			<polygon class="st3" points="1231.8,151.8 1260.1,200.4 1334.7,329.2 1231.8,329.2 			"/>
		</g>
		<path class="st1" d="M1425.7,241.5L1425.7,241.5c0-0.4,0-0.7,0-1V241.5z"/>
		<path class="st1" d="M1425.7,81.4c0-0.8,0-1.6,0.1-2.4l-0.1,2.8V81.4z"/>
		<path class="st1" d="M1425.9,315.5c0,1.8,0,3.7,0,5.5v0.7c0,1.6,0,3.2,0,4.9c0,0.5,0,0.9,0,1.4c0,0.8,0,1.6,0,2.4
			c0,2.6,0,5.2-0.1,7.8c0,0.3,0,0.6,0,0.9l0,0c0,2.1,0,4.2-0.1,6.3c0,0.6,0,1.3,0,1.9c0,1,0,2,0,3.1v1.5c0,0.6,0,1.2,0,1.8
			c0,1.9-0.1,3.7-0.1,5.6c0,0.2,0,0.4,0,0.7c-0.1,2-0.1,4-0.2,6.1v1.1h-203.7l0.4-0.9l0.3-0.7l20.1-41.6l0,0l0.2-0.4l73.8-153
			l36.6-75.8v-0.1l0-0.1l0.1-0.2c0,0,0-0.1,0-0.1l0.1-0.1L1398.8,0l1.2,2.3l25.7,50.9v28.7c0,0.7,0,1.4,0,2.1c0,0.7,0,1.4,0,2.1
			s0,1.5,0,2.2c0,0.1,0,0.3,0,0.4c0,1.2,0,2.5,0,3.7c0,2.5,0,5-0.1,7.5c0,3.1,0,6.2-0.1,9.2c0,0.2,0,0.4,0,0.6c0,3.2,0,6.5,0,9.7
			c0,3.5,0,7,0,10.6v1c0,0.6,0,1.3,0,1.9c0,6.5,0,13.1,0.1,19.6c0,4.3,0,8.5,0.1,12.8c0.2,25.3,0.5,50.5,0.1,75.9v0.1
			c0,8.6,0,17.2,0.1,25.7c0,5.5,0,10.9,0.1,16.4v0.6c0,1,0,2,0,3c0,0.4,0,0.8,0,1.2v0.6c0,0.4,0,0.8,0,1.2v0.5c0,0.2,0,0.3,0,0.5
			v0.1c0,0.1,0,0.2,0,0.3l0,0l0,0l0,0v0.4c0,0.2,0,0.4,0,0.6v1.7c0,0.8,0,1.7,0,2.5v2.5C1425.9,304.6,1425.9,310.1,1425.9,315.5z"/>
		<path class="st1" d="M1425.1,366.1c0.1-2,0.1-4.1,0.2-6.1c0,1.6-0.1,3.3-0.1,4.9C1425.2,365.3,1425.2,365.7,1425.1,366.1
			c0,0.4,0,0.8,0,1.1L1425.1,366.1z"/>
		<path class="st1" d="M1425.6,347.4c0-0.6,0-1.3,0-1.9l-0.1,5v1.5C1425.6,350.4,1425.6,348.9,1425.6,347.4z"/>
		<path class="st1" d="M1425.9,321.7c0,0.6,0,1.2,0,1.9v0.9c0,0.7,0,1.4,0,2l0,0v3.8c0,2.6,0,5.2-0.1,7.8c0-2.6,0.1-5.2,0.1-7.8
			c0-0.8,0-1.6,0-2.4c0-0.5,0-0.9,0-1.4C1425.8,325,1425.8,323.4,1425.9,321.7z"/>
		<path class="st1" d="M1425.8,289v-0.6c0-0.4,0-0.8,0-1.2c0-1,0-2,0-3c0,1,0,2,0,3C1425.8,287.8,1425.8,288.4,1425.8,289v1.2
			C1425.8,289.9,1425.8,289.5,1425.8,289z"/>
		<path class="st1" d="M1425.9,293.3c0-0.5,0-0.9,0-1.4v-0.4l0,0c0-0.3,0-0.5,0-0.8c0,0.3,0,0.6,0,0.8V293.3L1425.9,293.3z"/>
		<path class="st1" d="M1425.9,299.2v1.7c0,4.9,0,9.7,0,14.5v1c0,0.9,0,1.8,0,2.7c0,0.6,0,1.2,0,1.9c0-1.8,0-3.7,0-5.5
			C1425.9,310.1,1425.9,304.7,1425.9,299.2c0-1.7,0-3.4,0-5v-0.9C1425.9,295.3,1425.9,297.3,1425.9,299.2z"/>
		<polygon class="st1" points="1426.5,54.8 1426.5,54.8 1426.5,54.8 		"/>
		<path class="st2" d="M1425.5,92.6c0-0.1,0-0.2,0-0.3c0,2.5,0,5-0.1,7.5l0,0c0-1.1,0-2.2,0-3.3c0-0.6,0-1.2,0-1.9
			c0-0.2,0-0.4,0-0.6C1425.5,93.6,1425.5,93.1,1425.5,92.6z"/>
		<path class="st2" d="M1425.6,82.3c0,1.3,0,2.6-0.1,3.8c0-1.4,0.1-2.8,0.1-4.2v-0.4C1425.7,81.7,1425.6,82,1425.6,82.3z"/>
		<path class="st2" d="M1425.7,79l-0.1,2.8v-0.4C1425.7,80.6,1425.7,79.9,1425.7,79z"/>
		<path class="st2" d="M1425.7,53.2v28.2c0,0.3,0,0.5,0,0.8c0,0.6,0,1.3,0,1.9c0,0.6,0,1.3,0,1.9c0,0.6,0,1.5,0,2.2
			c0,0.1,0,0.3,0,0.4l-0.1,4c0,0.5,0,1,0,1.5c0,0.2,0,0.4,0,0.6c0,0.6,0,1.3,0,1.9c0,1.1,0,2.2,0,3.3c-8,2.7-19,0.8-25.5-7.2
			c-0.4-0.5-0.8-1-1.2-1.5c-8.5-12.5-13.7,6.4-17,9.9c-3.4,3.5-8,2.4-12.5-14.1c-4-15-14.1,3.8-15.9,7.3l-0.1,0.1L1399,0l1.2,2.3
			L1425.7,53.2z"/>
		<path class="st3" d="M1425.9,301c0,4.9,0,9.7,0,14.5v1c0,0.9,0,1.8,0,2.7c0,0.6,0,1.2,0,1.9v0.7c0,0.6,0,1.2,0,1.9v0.2
			c0,0.9,0,1.9,0,2.8v3.8c0,2.6,0,5.2-0.1,7.8c0,0.3,0,0.6,0,0.9l0,0c0,2.1,0,4.2-0.1,6.3c0,0.6,0,1.3,0,1.9c0,1,0,2,0,3.1v1.5
			c0,0.6,0,1.2,0,1.8c0,1.9-0.1,3.7-0.1,5.6c0,0.2,0,0.4,0,0.7c0,1.6-0.1,3.3-0.1,4.9c0,0.4,0,0.8,0,1.2h-25.2V1.2l25.7,50.9v29.8
			c0,0.7,0,1.4,0,2.1c0,0.7,0,1.4,0,2.1s0,1.5,0,2.2c0,0.1,0,0.3,0,0.4l-0.1,4c0,0.5,0,1,0,1.5c0,0.2,0,0.4,0,0.6c0,0.6,0,1.3,0,1.9
			v3.3c0,3.1,0,6.2-0.1,9.2c0,0.2,0,0.4,0,0.6c0,3.2,0,6.5,0,9.7c0,3.5,0,7,0,10.6v1c0,0.6,0,1.3,0,1.9c0,6.5,0,13.1,0.1,19.6
			c0,4.3,0,8.5,0.1,12.8c0.2,25.3,0.5,50.5,0.1,75.9v0.1c0,8.6,0,17.2,0.1,25.7c0,5.5,0,10.9,0.1,16.4v0.6c0,1,0,2,0,3v1.8
			c0,0.4,0,0.8,0,1.2v0.5c0,0.1,0,0.3,0,0.4v0.2c0,0,0,0.1,0,0.1l0,0l0,0l0,0l0,0v2.6c0,0.8,0,1.7,0,2.5s0,1.7,0,2.5
			C1425.9,299.8,1425.9,300.4,1425.9,301z"/>
		<path class="st3" d="M1425.7,81.4c0-0.8,0-1.6,0.1-2.4l-0.1,2.8V81.4z"/>
		<polygon class="st3" points="1426.5,54.8 1426.5,54.8 1426.5,54.8 		"/>
		<path class="st3" d="M1425.7,241.5L1425.7,241.5c0-0.4,0-0.7,0-1V241.5z"/>
		<path class="st3" d="M1425.6,347.4c0-0.6,0-1.3,0-1.9l-0.1,5C1425.6,349.4,1425.6,348.4,1425.6,347.4z"/>
		<path class="st3" d="M1425.9,319.2c0,0.8,0,1.7,0,2.5V321C1425.9,320.4,1425.9,319.8,1425.9,319.2z"/>
		<path class="st3" d="M1425.9,323.7v0.8c0,0.7,0,1.4,0,2l0,0C1425.8,325.6,1425.9,324.7,1425.9,323.7z"/>
		<path class="st3" d="M1425.8,290.3c0-0.4,0-0.8,0-1.2v-1.8c0,0.6,0,1.2,0,1.8V290.3z"/>
		<path class="st3" d="M1425.9,291.8c0-0.1,0-0.2,0-0.3l0,0c0-0.3,0-0.5,0-0.8c0,0.3,0,0.6,0,0.8V291.8L1425.9,291.8z"/>
		<path class="st3" d="M1425.9,299.2v1.7C1425.9,300.4,1425.9,299.8,1425.9,299.2c0-1.7,0-3.4,0-5.1v-0.9
			C1425.9,295.3,1425.9,297.3,1425.9,299.2z"/>
		<path class="st3" d="M1425.5,92.6c0-0.1,0-0.2,0-0.3c0,2.5,0,5-0.1,7.5c0,3.1,0,6.2-0.1,9.2c0-3.1,0-6.2,0.1-9.2v-3.3
			c0-0.6,0-1.2,0-1.9c0-0.2,0-0.4,0-0.6C1425.5,93.6,1425.5,93.1,1425.5,92.6z"/>
		<polygon class="st1" points="1135.4,139.3 1172.2,202.6 1267.1,366.4 1009.8,366.4 		"/>
		<path class="st2" d="M1169.5,198c0,0-5.1-5.3-9.9,0c-4.8,5.3-18.1,5.4-24.2-2.4s-9.7,3.9-12.1,6.1s-5.7,1.5-8.9-8.7
			c-3.1-10.2-11.5,4.9-11.5,4.9l32.4-58.6L1169.5,198z"/>
		<polygon class="st3" points="1136.3,140 1172.2,201.9 1267.1,365.7 1136.3,365.7 		"/>
	</g>
	<g id="road">
		<rect x="0.3" y="328.3" class="st4" width="1423" height="78"/>
		<line class="st5" x1="33.3" y1="370.8" x2="135.6" y2="370.8"/>
		<line class="st5" x1="213.5" y1="370.8" x2="315.9" y2="370.8"/>
		<line class="st5" x1="393.8" y1="370.8" x2="496.1" y2="370.8"/>
		<line class="st5" x1="574" y1="370.8" x2="676.4" y2="370.8"/>
		<line class="st5" x1="754.3" y1="370.8" x2="856.6" y2="370.8"/>
		<line class="st5" x1="934.5" y1="370.8" x2="1036.9" y2="370.8"/>
		<line class="st5" x1="1114.8" y1="370.8" x2="1217.1" y2="370.8"/>
		<line class="st5" x1="1295" y1="370.8" x2="1397.4" y2="370.8"/>
	</g>
	<g id="hotel-bakery">
		<g id="hotel_1_">
			<rect x="801.4" y="186.5" class="st6" width="37.2" height="16"/>
			<rect x="780.5" y="217.4" class="st7" width="79" height="99.6"/>
			<g id="_Group_6">
				<rect x="797.5" y="237" class="st8" width="44.9" height="20.9"/>
				<rect x="797.5" y="237" class="st9" width="44.9" height="20.9"/>
				<g id="_Group_7">
					<line id="_Path_11" class="st9" x1="812.1" y1="237" x2="812.1" y2="257.9"/>
					<line id="_Path_12" class="st9" x1="827.9" y1="237" x2="827.9" y2="257.9"/>
				</g>
				<rect x="794.7" y="258.7" class="st10" width="50.7" height="3.9"/>
			</g>
			<g id="_Group_8">
				<rect x="797.5" y="275.4" class="st8" width="44.9" height="21"/>
				<rect x="797.5" y="275.4" class="st9" width="44.9" height="21"/>
				<g id="_Group_9">
					<line id="_Path_14" class="st9" x1="812.1" y1="275.4" x2="812.1" y2="296.3"/>
					<line id="_Path_15" class="st9" x1="827.9" y1="275.4" x2="827.9" y2="296.3"/>
				</g>
				<rect x="794.7" y="297.1" class="st10" width="50.7" height="3.9"/>
			</g>
			<line id="_Path_16" class="st11" x1="780.5" y1="217.4" x2="859.5" y2="217.4"/>
			<path class="st2" d="M772.4,217"/>
			<polygon class="st12" points="772.4,217 866.4,217 857.3,208.5 846.2,208.5 840.9,201.8 798,201.8 793.1,208.1 781.4,208.1 			
				"/>
			<path class="st13" d="M809,198.8h-1v-3.9h-4.4v3.9h-1v-8.3h1v3.5h4.4v-3.5h1V198.8z"/>
			<path class="st13" d="M818.6,194.6c0.1,1.1-0.3,2.2-1,3.1c-0.7,0.8-1.8,1.2-2.8,1.1c-1.1,0.1-2.2-0.3-2.9-1.1c-0.7-0.9-1-2-1-3.1
				c-0.1-1.1,0.3-2.2,1-3.1c0.7-0.8,1.8-1.2,2.9-1.1c1.1-0.1,2.1,0.4,2.8,1.1C818.3,192.4,818.6,193.5,818.6,194.6z M811.9,194.6
				c-0.1,0.9,0.2,1.8,0.7,2.5c1.1,1.1,2.9,1.2,4.1,0.1c0,0,0.1-0.1,0.1-0.1c0.5-0.7,0.8-1.6,0.7-2.6c0.1-0.9-0.2-1.8-0.7-2.5
				c-0.5-0.6-1.3-0.9-2.1-0.9c-0.8,0-1.6,0.3-2.1,0.9C812.1,192.8,811.8,193.7,811.9,194.6L811.9,194.6z"/>
			<path class="st13" d="M823,198.8h-1v-7.4h-2.6v-0.9h6.3v0.9H823V198.8z"/>
			<path class="st13" d="M831.6,198.8h-4.7v-8.3h4.7v0.9h-3.7v2.7h3.5v0.9h-3.5v3h3.7V198.8z"/>
			<path class="st13" d="M833.4,198.8v-8.3h1v7.4h3.7v0.9H833.4z"/>
		</g>
		<g id="bakery">
			<polygon class="st14" points="684.7,316.1 646.4,316.1 646.4,268 684.7,252.2 			"/>
			<path class="st15" d="M646.4,269.5c-0.6,0-1.1-0.3-1.3-0.9c-0.3-0.7,0-1.5,0.7-1.8c0,0,0,0,0,0l38.3-15.8c0.7-0.3,1.5,0,1.8,0.8
				c0.3,0.7,0,1.5-0.7,1.8c0,0,0,0,0,0l-38.3,15.8C646.8,269.4,646.6,269.5,646.4,269.5z"/>
			<rect x="684.8" y="220" class="st16" width="71.3" height="96.1"/>
			<g id="_Group_">
				<rect x="700.2" y="238.9" class="st8" width="40.6" height="20.2"/>
				<rect x="700.2" y="238.9" class="st9" width="40.6" height="20.2"/>
				<g id="_Group_2">
					<line id="_Path_2" class="st9" x1="713.4" y1="238.9" x2="713.4" y2="259.1"/>
					<line id="_Path_3" class="st9" x1="727.6" y1="238.9" x2="727.6" y2="259.1"/>
				</g>
				<rect x="697.6" y="259.8" class="st17" width="45.8" height="3.8"/>
			</g>
			<g id="_Group_3">
				<rect x="700.2" y="276" class="st8" width="40.6" height="20.2"/>
				<rect x="700.2" y="276" class="st9" width="40.6" height="20.2"/>
				<g id="_Group_4">
					<line id="_Path_5" class="st9" x1="713.3" y1="276" x2="713.3" y2="296.2"/>
					<line id="_Path_6" class="st9" x1="727.6" y1="276" x2="727.6" y2="296.2"/>
				</g>
				<rect x="697.6" y="296.9" class="st17" width="45.8" height="3.8"/>
			</g>
			<g id="_Group_5">
				<rect x="683.4" y="218.6" class="st15" width="74.2" height="2.8"/>
			</g>
			<rect x="657" y="275.6" class="st18" width="17.1" height="17.2"/>
			<rect x="657" y="275.6" class="st9" width="17.1" height="17.2"/>
			<path class="st19" d="M704.9,233.4v-6.8h1.8c0.5,0,1,0.1,1.3,0.4c0.3,0.3,0.5,0.7,0.5,1.1c0,0.7-0.4,1.4-1.1,1.6l0,0
				c0.4,0,0.8,0.2,1,0.5c0.3,0.3,0.4,0.7,0.4,1.2c0,0.5-0.2,1.1-0.6,1.4c-0.4,0.4-1,0.6-1.5,0.5L704.9,233.4z M705.7,227.3v2.2h0.8
				c0.4,0,0.7-0.1,1-0.3c0.2-0.2,0.4-0.6,0.4-0.9c0-0.7-0.4-1-1.3-1H705.7z M705.7,230.2v2.5h1c0.4,0,0.7-0.1,1-0.3
				c0.2-0.2,0.4-0.6,0.4-0.9c0-0.8-0.5-1.2-1.6-1.2H705.7z"/>
			<path class="st19" d="M715.2,233.4h-0.8l-0.7-1.9H711l-0.6,1.9h-0.8l2.5-6.8h0.8L715.2,233.4z M713.5,230.7l-1-2.9
				c0-0.1-0.1-0.3-0.1-0.5l0,0c0,0.2-0.1,0.3-0.1,0.5l-1,2.9H713.5z"/>
			<path class="st19" d="M720.7,233.4h-1.1l-2.5-3.1c-0.1-0.1-0.1-0.2-0.2-0.2l0,0v3.4h-0.8v-6.8h0.8v3.2l0,0
				c0.1-0.1,0.1-0.2,0.2-0.2l2.4-3h0.9l-2.8,3.3L720.7,233.4z"/>
			<path class="st19" d="M725,233.4h-3.4v-6.8h3.3v0.7h-2.5v2.3h2.3v0.7h-2.3v2.4h2.7L725,233.4z"/>
			<path class="st19" d="M730.9,233.4H730l-1.1-1.9c-0.1-0.2-0.2-0.3-0.3-0.5c-0.1-0.1-0.2-0.2-0.3-0.3c-0.1-0.1-0.2-0.1-0.3-0.2
				c-0.1,0-0.3-0.1-0.4-0.1H727v2.9h-0.8v-6.8h1.9c0.3,0,0.5,0,0.8,0.1c0.2,0.1,0.4,0.2,0.6,0.3c0.2,0.2,0.3,0.3,0.4,0.6
				c0.1,0.3,0.2,0.5,0.1,0.8c0,0.2,0,0.4-0.1,0.7c-0.1,0.2-0.2,0.4-0.3,0.5c-0.1,0.2-0.3,0.3-0.4,0.4c-0.2,0.1-0.4,0.2-0.6,0.3l0,0
				c0.1,0,0.2,0.1,0.3,0.2c0.1,0.1,0.2,0.1,0.2,0.2c0.1,0.1,0.1,0.2,0.2,0.3l0.2,0.4L730.9,233.4z M727,227.3v2.5h1.1
				c0.2,0,0.4,0,0.5-0.1c0.2-0.1,0.3-0.1,0.4-0.3c0.1-0.1,0.2-0.3,0.3-0.4c0.1-0.2,0.1-0.4,0.1-0.5c0-0.3-0.1-0.6-0.3-0.9
				c-0.3-0.2-0.6-0.3-1-0.3H727z"/>
			<path class="st19" d="M736,226.5l-2.1,4.3v2.5h-0.8v-2.5l-2.1-4.3h0.9l1.4,3.1c0,0,0.1,0.2,0.2,0.4l0,0c0-0.1,0.1-0.3,0.2-0.4
				l1.5-3.1H736z"/>
		</g>
	</g>
	<g id="tree7_4_">
		<ellipse class="st20" cx="1230.2" cy="290.8" rx="4.2" ry="3.4"/>
		<path class="st21" d="M1230.2,287.4c-2.3,0-4.2,1.5-4.2,3.4s1.9,3.4,4.2,3.4V287.4z"/>
		<ellipse class="st20" cx="1245.5" cy="279.3" rx="4.2" ry="3.4"/>
		<path class="st21" d="M1245.5,276c-2.3,0-4.2,1.5-4.2,3.4s1.9,3.4,4.2,3.4V276z"/>
		<polygon class="st22" points="1239.4,303.3 1238.8,302.8 1243.2,296.5 1243.7,297 		"/>
		<polygon class="st23" points="1243.5,296.7 1243.2,296.5 1238.8,302.8 1239.1,303 		"/>
		<polygon class="st22" points="1238.7,301 1238.1,300.5 1242.5,294.2 1243,294.6 		"/>
		<polygon class="st23" points="1242.7,294.4 1242.5,294.2 1238.1,300.5 1238.4,300.7 		"/>
		<polygon class="st22" points="1233.2,293.8 1232.8,294.4 1238.2,299.5 1238.7,298.9 		"/>
		<polygon class="st23" points="1238.5,299.2 1238.2,299.5 1232.8,294.4 1233,294.1 		"/>
		<rect x="1237.8" y="294.4" class="st22" width="2.1" height="19.7"/>
		<rect x="1237.8" y="294.4" class="st23" width="1.1" height="19.7"/>
		<ellipse class="st20" cx="1239.4" cy="286.7" rx="12.5" ry="10.2"/>
		<path class="st21" d="M1239.4,276.6c-6.9,0-12.5,4.5-12.5,10.1s5.6,10.1,12.5,10.1V276.6z"/>
		<ellipse class="st20" cx="1245.5" cy="294.4" rx="5" ry="4.1"/>
		<path class="st21" d="M1245.5,290.3c-2.8,0-5,1.8-5,4.1c0,2.2,2.2,4.1,5,4.1V290.3z"/>
	</g>
	<g id="tree6_3_">
		<ellipse class="st20" cx="1194.9" cy="281.3" rx="6.5" ry="5.2"/>
		<path class="st21" d="M1194.9,276c-3.6,0-6.5,2.3-6.5,5.2c0,2.9,2.9,5.2,6.5,5.2V276z"/>
		<ellipse class="st20" cx="1218.8" cy="263.5" rx="6.5" ry="5.2"/>
		<path class="st21" d="M1218.8,258.2c-3.6,0-6.5,2.3-6.5,5.2c0,2.9,2.9,5.2,6.5,5.2V258.2z"/>
		<polygon class="st22" points="1209.1,300.7 1208.3,300 1215.1,290.1 1215.9,290.9 		"/>
		<polygon class="st23" points="1215.5,290.5 1215.1,290.1 1208.3,300 1208.7,300.3 		"/>
		<polygon class="st22" points="1208,297.1 1207.2,296.4 1214,286.5 1214.8,287.3 		"/>
		<polygon class="st23" points="1214.4,286.9 1214,286.5 1207.2,296.4 1207.6,296.7 		"/>
		<polygon class="st22" points="1199.6,286 1198.9,286.9 1207.4,294.9 1208.1,293.9 		"/>
		<polygon class="st23" points="1207.8,294.4 1207.4,294.9 1198.9,286.9 1199.3,286.5 		"/>
		<rect x="1206.7" y="286.9" class="st22" width="3.3" height="30.7"/>
		<rect x="1206.7" y="286.9" class="st23" width="1.6" height="30.7"/>
		<ellipse class="st20" cx="1209.2" cy="275" rx="19.4" ry="15.8"/>
		<path class="st21" d="M1209.2,259.2c-10.7,0-19.4,7.1-19.4,15.8c0,8.7,8.7,15.8,19.4,15.8V259.2z"/>
		<ellipse class="st20" cx="1218.8" cy="286.9" rx="7.8" ry="6.3"/>
		<path class="st21" d="M1218.8,280.6c-4.3,0-7.8,2.8-7.8,6.3c0,3.5,3.5,6.3,7.8,6.3V280.6z"/>
	</g>
	<g id="tree7_2_">
		<ellipse class="st20" cx="1160.8" cy="290.8" rx="4.2" ry="3.4"/>
		<path class="st21" d="M1160.8,287.4c-2.3,0-4.2,1.5-4.2,3.4s1.9,3.4,4.2,3.4V287.4z"/>
		<ellipse class="st20" cx="1176.1" cy="279.3" rx="4.2" ry="3.4"/>
		<path class="st21" d="M1176.1,276c-2.3,0-4.2,1.5-4.2,3.4s1.9,3.4,4.2,3.4V276z"/>
		<polygon class="st22" points="1169.9,303.3 1169.4,302.8 1173.8,296.5 1174.3,297 		"/>
		<polygon class="st23" points="1174,296.7 1173.8,296.5 1169.4,302.8 1169.7,303 		"/>
		<polygon class="st22" points="1169.2,301 1168.7,300.5 1173.1,294.2 1173.6,294.6 		"/>
		<polygon class="st23" points="1173.3,294.4 1173.1,294.2 1168.7,300.5 1169,300.7 		"/>
		<polygon class="st22" points="1163.8,293.8 1163.4,294.4 1168.8,299.5 1169.3,298.9 		"/>
		<polygon class="st23" points="1169.1,299.2 1168.8,299.5 1163.4,294.4 1163.6,294.1 		"/>
		<rect x="1168.3" y="294.4" class="st22" width="2.1" height="19.7"/>
		<rect x="1168.3" y="294.4" class="st23" width="1.1" height="19.7"/>
		<ellipse class="st20" cx="1170" cy="286.7" rx="12.5" ry="10.2"/>
		<path class="st21" d="M1170,276.6c-6.9,0-12.5,4.5-12.5,10.1s5.6,10.1,12.5,10.1V276.6z"/>
		<ellipse class="st20" cx="1176.1" cy="294.4" rx="5" ry="4.1"/>
		<path class="st21" d="M1176.1,290.3c-2.8,0-5,1.8-5,4.1s2.2,4.1,5,4.1V290.3z"/>
	</g>
	<g id="tree6_1_">
		<ellipse class="st20" cx="1336" cy="287.3" rx="3.6" ry="3.6"/>
		<path class="st21" d="M1336,283.7c-2,0-3.6,1.6-3.6,3.6c0,2,1.6,3.6,3.6,3.6V283.7z"/>
		<ellipse class="st20" cx="1349.3" cy="275.1" rx="3.6" ry="3.6"/>
		<path class="st21" d="M1349.3,271.5c-2,0-3.6,1.6-3.6,3.6c0,2,1.6,3.6,3.6,3.6V271.5z"/>
		<polygon class="st22" points="1343.9,300.6 1343.5,300.1 1347.3,293.3 1347.7,293.9 		"/>
		<polygon class="st23" points="1347.5,293.6 1347.3,293.3 1343.5,300.1 1343.7,300.3 		"/>
		<polygon class="st22" points="1343.3,298.1 1342.9,297.6 1346.6,290.9 1347.1,291.4 		"/>
		<polygon class="st23" points="1346.9,291.1 1346.6,290.9 1342.9,297.6 1343.1,297.9 		"/>
		<polygon class="st22" points="1338.6,290.5 1338.3,291.2 1343,296.6 1343.4,295.9 		"/>
		<polygon class="st23" points="1343.2,296.2 1343,296.6 1338.3,291.2 1338.4,290.8 		"/>
		<rect x="1342.6" y="291.1" class="st22" width="1.8" height="21"/>
		<rect x="1342.6" y="291.1" class="st23" width="0.9" height="21"/>
		<ellipse class="st20" cx="1344" cy="283" rx="10.8" ry="10.8"/>
		<path class="st21" d="M1344,272.1c-6,0-10.8,4.8-10.8,10.8c0,6,4.9,10.8,10.8,10.8V272.1z"/>
		<ellipse class="st20" cx="1349.3" cy="291.1" rx="4.3" ry="4.3"/>
		<path class="st21" d="M1349.3,286.8c-2.4,0-4.3,1.9-4.3,4.3c0,2.4,1.9,4.3,4.3,4.3V286.8z"/>
	</g>
	<g id="tree7">
		<ellipse class="st20" cx="1304.5" cy="279.1" rx="6.5" ry="5.3"/>
		<path class="st21" d="M1304.5,273.8c-3.6,0-6.5,2.4-6.5,5.3c0,2.9,2.9,5.3,6.5,5.3V273.8z"/>
		<ellipse class="st20" cx="1328.7" cy="261.1" rx="6.5" ry="5.3"/>
		<path class="st21" d="M1328.7,255.8c-3.6,0-6.5,2.4-6.5,5.3s2.9,5.3,6.5,5.3V255.8z"/>
		<polygon class="st22" points="1319,298.8 1318.1,298 1325,288.1 1325.8,288.9 		"/>
		<polygon class="st23" points="1325.4,288.5 1325,288.1 1318.1,298 1318.5,298.4 		"/>
		<polygon class="st22" points="1317.8,295.2 1317,294.4 1323.9,284.4 1324.7,285.2 		"/>
		<polygon class="st23" points="1324.3,284.8 1323.9,284.4 1317,294.4 1317.4,294.8 		"/>
		<polygon class="st22" points="1309.3,283.9 1308.6,284.9 1317.2,292.9 1317.9,291.9 		"/>
		<polygon class="st23" points="1317.6,292.4 1317.2,292.9 1308.6,284.9 1309,284.4 		"/>
		<rect x="1316.4" y="284.8" class="st22" width="3.3" height="31.1"/>
		<rect x="1316.4" y="284.8" class="st23" width="1.7" height="31.1"/>
		<ellipse class="st20" cx="1319" cy="272.7" rx="19.7" ry="16"/>
		<path class="st21" d="M1319,256.7c-10.9,0-19.7,7.2-19.7,16s8.8,16,19.7,16V256.7z"/>
		<ellipse class="st20" cx="1328.7" cy="284.8" rx="7.9" ry="6.4"/>
		<path class="st21" d="M1328.7,278.4c-4.3,0-7.8,2.9-7.8,6.4c0,3.5,3.5,6.4,7.8,6.4V278.4z"/>
	</g>
	<g id="tree6">
		<ellipse class="st20" cx="1365.1" cy="279.6" rx="6.5" ry="5.2"/>
		<path class="st21" d="M1365.1,274.4c-3.6,0-6.5,2.3-6.5,5.2c0,2.9,2.9,5.2,6.5,5.2V274.4z"/>
		<ellipse class="st20" cx="1388.9" cy="261.8" rx="6.5" ry="5.2"/>
		<path class="st21" d="M1388.9,256.6c-3.6,0-6.5,2.3-6.5,5.2c0,2.9,2.9,5.2,6.5,5.2V256.6z"/>
		<polygon class="st22" points="1379.3,299 1378.5,298.3 1385.3,288.4 1386.1,289.2 		"/>
		<polygon class="st23" points="1385.7,288.8 1385.3,288.4 1378.5,298.3 1378.9,298.7 		"/>
		<polygon class="st22" points="1378.2,295.4 1377.4,294.7 1384.2,284.8 1385,285.6 		"/>
		<polygon class="st23" points="1384.6,285.2 1384.2,284.8 1377.4,294.7 1377.8,295.1 		"/>
		<polygon class="st22" points="1369.8,284.3 1369.1,285.3 1377.6,293.2 1378.3,292.2 		"/>
		<polygon class="st23" points="1377.9,292.7 1377.6,293.2 1369.1,285.3 1369.5,284.8 		"/>
		<rect x="1376.8" y="285.2" class="st22" width="3.3" height="30.7"/>
		<rect x="1376.8" y="285.2" class="st23" width="1.6" height="30.7"/>
		<ellipse class="st20" cx="1379.4" cy="273.3" rx="19.4" ry="15.8"/>
		<path class="st21" d="M1379.4,257.5c-10.7,0-19.4,7.1-19.4,15.8s8.7,15.8,19.4,15.8V257.5z"/>
		<ellipse class="st20" cx="1388.9" cy="285.2" rx="7.8" ry="6.3"/>
		<path class="st21" d="M1388.9,278.9c-4.3,0-7.8,2.8-7.8,6.3c0,3.5,3.5,6.3,7.8,6.3V278.9z"/>
	</g>
	<g id="house-green">
		<path class="st24" d="M420.4,275L420.4,275L420.4,275c-0.4-0.7-1.1-1.2-1.8-1.5l-39-30.7l-38.7,31c-0.4,0.2-0.7,0.5-1,0.8
			l-0.1,0.1l0,0c-0.6,0.6-0.9,1.5-0.9,2.3c0,2.1,1.8,3.7,4,3.7c0,0,0,0,0,0h74.1c2.2,0,3.9-1.6,4-3.7
			C421,276.2,420.8,275.5,420.4,275z"/>
		<polygon class="st25" points="412.1,314.4 348.5,314.4 348.5,275.2 379.9,251 379.9,251 412.1,275 		"/>
		<rect x="384.3" y="295.3" class="st2" width="12" height="13.2"/>
		<rect x="385.3" y="296.4" class="st26" width="10.1" height="11.1"/>
		<rect x="384.3" y="301.9" class="st2" width="12" height="1"/>
		<rect x="389.9" y="296.4" class="st2" width="1.9" height="11.1"/>
		<rect x="359" y="293.4" class="st2" width="14.3" height="21"/>
		<rect x="360.1" y="294.6" class="st24" width="12" height="19.8"/>
		<rect x="381.6" y="308.1" class="st24" width="16.8" height="1.1"/>
		<rect x="374" y="267.2" class="st2" width="12" height="13.2"/>
		<rect x="375" y="268.3" class="st26" width="10.1" height="11.1"/>
		<rect x="374" y="273.8" class="st2" width="12" height="1"/>
		<rect x="379.6" y="268.3" class="st2" width="1.9" height="11.1"/>
		<rect x="386" y="267.2" class="st24" width="7.3" height="13.2"/>
		<rect x="366.7" y="267.2" class="st24" width="7.3" height="13.2"/>
	</g>
	<g id="house-yellow">
		<path class="st24" d="M999.1,271.4L999.1,271.4L999.1,271.4c-0.5-0.7-1.1-1.3-1.9-1.6l-40.2-34.6L917,270c-0.4,0.2-0.7,0.5-1,0.9
			l-0.1,0.1l0,0c-0.6,0.7-0.9,1.6-0.9,2.6c0,2.3,1.9,4.2,4.1,4.2c0,0,0,0,0,0h76.5c2.2,0,4.1-1.8,4.1-4.2
			C999.7,272.8,999.5,272,999.1,271.4z"/>
		<polygon class="st27" points="990.5,315.8 924.8,315.8 924.8,271.7 957.2,244.4 957.2,244.4 990.5,271.5 		"/>
		<rect x="961.8" y="294.3" class="st2" width="12.4" height="14.9"/>
		<rect x="962.8" y="295.5" class="st26" width="10.4" height="12.5"/>
		<rect x="961.8" y="301.8" class="st2" width="12.4" height="1.1"/>
		<rect x="967.6" y="295.5" class="st2" width="2" height="12.5"/>
		<rect x="935.5" y="292.6" class="st2" width="15.1" height="23.2"/>
		<rect x="936.6" y="294" class="st24" width="12.7" height="21.8"/>
		<rect x="959" y="308.7" class="st24" width="17.4" height="1.3"/>
		<rect x="951.1" y="262.7" class="st2" width="12.4" height="14.9"/>
		<rect x="952.1" y="263.9" class="st26" width="10.4" height="12.5"/>
		<rect x="951.1" y="270.1" class="st2" width="12.4" height="1.1"/>
		<rect x="956.9" y="263.9" class="st2" width="2" height="12.5"/>
		<rect x="963.5" y="262.7" class="st24" width="7.5" height="14.9"/>
		<rect x="943.6" y="262.7" class="st24" width="7.5" height="14.9"/>
	</g>
	<g id="tree5">
		<ellipse class="st20" cx="1408.1" cy="285.3" rx="4.5" ry="4.4"/>
		<path class="st21" d="M1408.1,280.9c-2.5,0-4.5,2-4.5,4.4c0,2.4,2,4.4,4.5,4.4V280.9z"/>
		<path class="st20" d="M1422.9,274.4L1422.9,274.4c-1.5-0.7-2.6-2.2-2.6-3.9c0.1-1.3,0.6-2.5,1.4-3.1c0.4-0.3,0.8-0.6,1.2-0.8l0,0
			v0.8c0,0.1,0,0.3,0,0.4v1.1c0,0.2,0,0.4,0,0.5l0,0c0,0.1,0,0.1,0,0.2v1.6C1422.9,272.1,1422.9,273.3,1422.9,274.4z"/>
		<path class="st20" d="M1422.9,269.5c0-0.1,0-0.1,0-0.2l0,0c0-0.2,0-0.4,0-0.5c0,0.2,0,0.4,0,0.5V269.5L1422.9,269.5z"/>
		<path class="st20" d="M1422.9,274.4L1422.9,274.4c0-1.1,0-2.2,0-3.3v-0.6V274.4z"/>
		<path class="st21" d="M1422.9,274.4L1422.9,274.4c-1.5-0.7-2.6-2.2-2.6-3.9c0.1-1.3,0.6-2.5,1.4-3.1c0.4-0.3,0.8-0.6,1.2-0.8l0,0
			v0.8c0,0.1,0,0.3,0,0.4v1.1c0,0.2,0,0.4,0,0.5l0,0c0,0.1,0,0.1,0,0.2v1.6C1422.9,272.1,1422.9,273.3,1422.9,274.4z"/>
		<path class="st21" d="M1422.9,269.5c0-0.1,0-0.1,0-0.2l0,0c0-0.2,0-0.4,0-0.5c0,0.2,0,0.4,0,0.5V269.5L1422.9,269.5z"/>
		<path class="st21" d="M1422.9,274.4L1422.9,274.4c0-1.1,0-2.2,0-3.3v-0.6V274.4z"/>
		<polygon class="st22" points="1422.3,292.7 1417.5,300.9 1418.1,301.5 1422.9,293.3 		"/>
		<polygon class="st23" points="1422.3,292.7 1417.5,300.9 1417.8,301.2 1422.6,293 		"/>
		<polygon class="st22" points="1417.3,298.5 1416.7,297.9 1421.5,289.7 1422.1,290.3 		"/>
		<polygon class="st23" points="1421.8,290 1421.5,289.7 1416.7,297.9 1417,298.2 		"/>
		<polygon class="st22" points="1411.4,289.2 1410.9,290 1416.9,296.6 1417.4,295.8 		"/>
		<polygon class="st23" points="1417.1,296.2 1416.9,296.6 1410.9,290 1411.2,289.6 		"/>
		<rect x="1416.3" y="290" class="st22" width="2.3" height="25.6"/>
		<rect x="1416.3" y="290" class="st23" width="1.2" height="25.6"/>
		<path class="st20" d="M1422.9,287.5c0,0.6,0,1.1,0,1.7v-0.4C1422.9,288.3,1422.9,287.9,1422.9,287.5z"/>
		<path class="st20" d="M1422.9,269.3L1422.9,269.3c0-0.2,0-0.4,0-0.5C1422.9,268.9,1422.9,269.1,1422.9,269.3z"/>
		<path class="st20" d="M1422.9,274.4v1.1c0,3.2,0,6.4,0,9.6v0.7c0,0.6,0,1.2,0,1.7c0,0.4,0,0.8,0,1.2v0.4c0,0.4,0,0.8,0,1.2v0.6
			c0,0.4,0,0.9,0,1.3l0,0c-0.8,0.3-1.6,0.5-2.3,0.6l0,0c0,0-0.1,0-0.1,0l-0.4,0.1l-0.5,0.1h-0.5c-0.1,0-0.2,0-0.4,0h-0.5
			c-0.2,0-0.4,0-0.6,0h-0.3c-0.3,0-0.6,0-0.9-0.1s-0.6-0.1-0.9-0.1l-0.4-0.1l-0.2,0l-0.2-0.1l0,0l-0.4-0.1l-0.4-0.1
			c-0.3-0.1-0.6-0.2-0.9-0.3c-0.2-0.1-0.3-0.1-0.5-0.2l-0.4-0.2c-0.2-0.1-0.4-0.2-0.5-0.3l-0.5-0.3c-0.5-0.3-1.1-0.7-1.6-1.1
			c-0.3-0.2-0.5-0.4-0.7-0.6l-0.3-0.3c-0.1-0.1-0.2-0.2-0.4-0.4c-0.1-0.1-0.1-0.1-0.2-0.2c-0.1-0.1-0.2-0.2-0.3-0.3
			c-0.3-0.3-0.5-0.6-0.8-1c-0.1-0.1-0.1-0.2-0.2-0.2c0-0.1-0.2-0.3-0.3-0.4l0,0c-0.1-0.2-0.2-0.4-0.3-0.5c-0.1-0.2-0.2-0.3-0.3-0.5
			c-0.1-0.2-0.1-0.3-0.2-0.4c-0.1-0.1-0.1-0.2-0.2-0.3s-0.1-0.3-0.2-0.4c-0.1-0.1-0.1-0.3-0.2-0.4c0-0.1,0-0.1-0.1-0.2
			c0-0.1,0-0.1-0.1-0.2c0-0.1-0.1-0.2-0.1-0.3c-0.1-0.2-0.1-0.4-0.1-0.6c-0.1-0.2-0.1-0.4-0.1-0.6c0,0,0-0.1,0-0.1
			c0-0.2-0.1-0.3-0.1-0.5c0-0.1,0-0.2,0-0.3c0-0.1,0-0.2,0-0.3c0-0.2,0-0.4,0-0.6c0-0.2,0-0.4,0-0.6s0-0.5,0-0.7s0-0.4,0-0.6
			c0-0.2,0-0.2,0-0.3c0,0,0,0,0,0c0-0.1,0-0.2,0-0.3c0-0.3,0.1-0.5,0.2-0.8c0-0.2,0.1-0.4,0.1-0.5c0-0.2,0.1-0.3,0.1-0.5l0.1-0.2
			c0.2-0.6,0.4-1.1,0.7-1.6l0.1-0.2c0,0,0,0,0-0.1c0.1-0.1,0.1-0.3,0.2-0.4c0.3-0.6,0.6-1.1,1-1.5l0.4-0.4c0,0,0,0,0,0
			c0.1-0.2,0.2-0.3,0.4-0.4l0.2-0.2c0.2-0.3,0.5-0.5,0.7-0.7c0.1-0.1,0.2-0.2,0.3-0.2c0.1-0.1,0.3-0.2,0.4-0.3
			c0.3-0.2,0.6-0.5,0.9-0.7l0.2-0.1c0.3-0.2,0.6-0.4,0.9-0.5l0.3-0.1c0.1-0.1,0.2-0.1,0.3-0.2l0.2-0.1c0.1-0.1,0.2-0.1,0.3-0.1
			c0.1-0.1,0.3-0.1,0.4-0.2l0.2-0.1l0.4-0.1c0.3-0.1,0.6-0.2,0.9-0.3l0.6-0.1l0.4-0.1c0.2,0,0.3-0.1,0.5-0.1l0.4-0.1h0.1l0.3,0
			c0.2,0,0.4,0,0.6,0c0.2,0,0.5,0,0.7,0c1.2,0,2.4,0.2,3.6,0.5c0.4,0.1,0.8,0.2,1.2,0.4l0,0v1.1c0,0.1,0,0.2,0,0.4v1.9
			c0,0.6,0,1.1,0,1.7C1423,273.3,1422.9,273.8,1422.9,274.4z"/>
		<path class="st21" d="M1418.1,266.8c-7.5,0-13.6,5.9-13.6,13.2s6.1,13.2,13.6,13.2V266.8z"/>
		<path class="st20" d="M1422.9,285.1v0.7c0,0.6,0,1.2,0,1.7c0,0.4,0,0.8,0,1.2v0.4c0,0.4,0,0.8,0,1.2v0.6c0,0.4,0,0.9,0,1.3v2.5
			l0,0c-0.2-0.1-0.5-0.2-0.7-0.3l-0.4-0.2c-0.1-0.1-0.2-0.2-0.3-0.2c-0.4-0.3-0.7-0.6-1-1l-0.1-0.1c-0.1-0.1-0.1-0.2-0.2-0.3
			c-0.1-0.1-0.2-0.3-0.2-0.4c-0.4-0.7-0.5-1.5-0.6-2.3C1419.5,287.7,1420.9,285.8,1422.9,285.1L1422.9,285.1z"/>
		<path class="st20" d="M1422.9,287.5c0,0.6,0,1.1,0,1.7v-0.4C1422.9,288.3,1422.9,287.9,1422.9,287.5z"/>
		<path class="st20" d="M1422.9,290.5v0.5c0,0.4,0,0.9,0,1.3l0,0C1422.9,291.7,1422.9,291.1,1422.9,290.5z"/>
		<path class="st21" d="M1422.9,285.1v0.7c0,0.6,0,1.2,0,1.7c0,0.4,0,0.8,0,1.2v0.4c0,0.4,0,0.8,0,1.2v0.6c0,0.4,0,0.9,0,1.3v2.5
			l0,0c-0.2-0.1-0.5-0.2-0.7-0.3l-0.4-0.2c-0.1-0.1-0.2-0.2-0.3-0.2c-0.4-0.3-0.7-0.6-1-1l-0.1-0.1c-0.1-0.1-0.1-0.2-0.2-0.3
			c-0.1-0.1-0.2-0.3-0.2-0.4c-0.4-0.7-0.5-1.5-0.6-2.3C1419.5,287.7,1420.9,285.8,1422.9,285.1L1422.9,285.1z"/>
		<path class="st21" d="M1422.9,287.5c0,0.6,0,1.1,0,1.7v-0.4C1422.9,288.3,1422.9,287.9,1422.9,287.5z"/>
		<path class="st21" d="M1422.9,290.5v0.5c0,0.4,0,0.9,0,1.3l0,0C1422.9,291.7,1422.9,291.1,1422.9,290.5z"/>
	</g>
	<g id="house-brown">
		<rect x="215.9" y="214.1" class="st28" width="14" height="18.8"/>
		<rect x="213.3" y="206.6" class="st29" width="19.2" height="7.6"/>
		<path class="st24" d="M244.2,243.8L244.2,243.8L244.2,243.8c-0.6-0.9-1.4-1.6-2.4-2L191,199l-50.5,43.2c-0.5,0.3-0.9,0.7-1.3,1.1
			l-0.1,0.1l0,0c-0.7,0.9-1.2,2-1.2,3.2c0.1,2.9,2.4,5.2,5.2,5.2h96.6c2.8,0.1,5.1-2.3,5.2-5.2C245,245.6,244.7,244.6,244.2,243.8z"
			/>
		<polygon class="st30" points="233.3,313.7 150.4,313.7 150.4,244.2 191.3,210.4 191.3,210.4 233.3,244 		"/>
		<rect x="147.3" y="276.9" class="st29" width="87.8" height="6.8"/>
		<rect x="162.5" y="258.5" class="st2" width="15.7" height="18.4"/>
		<rect x="163.8" y="260" class="st8" width="13.1" height="15.4"/>
		<rect x="162.5" y="267.7" class="st2" width="15.7" height="1.4"/>
		<rect x="168.7" y="260" class="st2" width="2.5" height="15.4"/>
		<rect x="162.1" y="288.2" class="st2" width="15.7" height="18.4"/>
		<rect x="163.4" y="289.7" class="st8" width="13.1" height="15.4"/>
		<rect x="162.1" y="297.4" class="st2" width="15.7" height="1.4"/>
		<rect x="168.3" y="289.7" class="st2" width="2.5" height="15.4"/>
		<rect x="204.6" y="288.2" class="st2" width="15.7" height="18.4"/>
		<rect x="205.9" y="289.7" class="st8" width="13.1" height="15.4"/>
		<rect x="204.6" y="297.4" class="st2" width="15.7" height="1.4"/>
		<rect x="210.8" y="289.7" class="st2" width="2.5" height="15.4"/>
		<rect x="183.4" y="258.5" class="st2" width="15.7" height="18.4"/>
		<rect x="184.6" y="260" class="st8" width="13.1" height="15.4"/>
		<rect x="183.4" y="267.7" class="st2" width="15.7" height="1.4"/>
		<rect x="189.6" y="260" class="st2" width="2.5" height="15.4"/>
		<rect x="184" y="223.1" class="st2" width="15.7" height="18.4"/>
		<rect x="185.3" y="224.6" class="st8" width="13.1" height="15.4"/>
		<rect x="184" y="232.3" class="st2" width="15.7" height="1.4"/>
		<rect x="190.2" y="224.6" class="st2" width="2.5" height="15.4"/>
		<rect x="204.6" y="258.5" class="st2" width="15.7" height="18.4"/>
		<rect x="205.9" y="260" class="st8" width="13.1" height="15.4"/>
		<rect x="204.6" y="267.7" class="st2" width="15.7" height="1.4"/>
		<rect x="210.8" y="260" class="st2" width="2.5" height="15.4"/>
		<rect x="183.4" y="288.2" class="st2" width="16.4" height="25.5"/>
		<rect x="184.6" y="289.7" class="st29" width="13.8" height="24"/>
		<rect x="176.9" y="241.4" class="st29" width="30.6" height="4.6"/>
	</g>
	<g id="shop">
		<path class="st31" d="M263.8,277.4h57.9c1.7,0,3,1.3,3,3v25.8c0,1.6-1.4,3-3,3h-57.9c-1.7,0-3-1.3-3-3v-25.8
			C260.7,278.7,262.1,277.4,263.8,277.4z"/>
		<rect x="262.2" y="308.9" class="st32" width="60.8" height="2.8"/>
		<rect x="260" y="311.4" class="st33" width="65.3" height="2.8"/>
		<rect x="266.7" y="281.1" class="st8" width="32.6" height="21.9"/>
		<polygon class="st34" points="268,302 268,281.1 266.7,281.1 266.7,303 299.3,303 299.3,302 		"/>
		<path class="st35" d="M260.7,276.9v7.7c0.1,2.2,2,3.8,4.2,3.7c2-0.1,3.6-1.7,3.8-3.7v-7.7H260.7z"/>
		<path class="st36" d="M268.7,276.9v7.7c0.1,2.2,2,3.8,4.2,3.7c2-0.1,3.6-1.7,3.8-3.7v-7.7H268.7z"/>
		<path class="st35" d="M276.7,276.9v7.7c0.1,2.2,2,3.8,4.2,3.7c2-0.1,3.6-1.7,3.8-3.7v-7.7H276.7z"/>
		<path class="st36" d="M284.6,276.9v7.7c0,2.2,1.8,3.9,4,3.9c2.2,0,4-1.7,4-3.9v-7.7H284.6z"/>
		<path class="st35" d="M292.6,276.9v7.7c0.1,2.2,2,3.8,4.2,3.7c2-0.1,3.6-1.7,3.8-3.7v-7.7H292.6z"/>
		<path class="st36" d="M300.6,276.9v7.7c0.1,2.2,2,3.8,4.2,3.7c2-0.1,3.6-1.7,3.8-3.7v-7.7H300.6z"/>
		<path class="st35" d="M308.6,276.9v7.7c0.1,2.2,2,3.8,4.2,3.7c2-0.1,3.6-1.7,3.8-3.7v-7.7H308.6z"/>
		<path class="st36" d="M316.6,276.9v7.7c0.1,2.2,2,3.8,4.2,3.7c2-0.1,3.6-1.7,3.8-3.7v-7.7H316.6z"/>
		<path class="st37" d="M272.2,264.6l-11.5,12.3h8l8.6-12.3H272.2z"/>
		<path class="st38" d="M277.3,264.6l-8.6,12.3h8l5.8-12.3H277.3z"/>
		<path class="st37" d="M282.4,264.6l-5.8,12.3h8l2.9-12.3H282.4z"/>
		<path class="st38" d="M287.5,264.6l-2.9,12.3h8v-12.3H287.5z"/>
		<path class="st37" d="M292.6,264.6v12.3h8l-2.9-12.3H292.6z"/>
		<path class="st38" d="M297.7,264.6l2.9,12.3h8l-5.8-12.3H297.7z"/>
		<path class="st37" d="M302.8,264.6l5.8,12.3h8l-8.6-12.3H302.8z"/>
		<path class="st38" d="M316.6,276.8h8L313,264.6h-5.1L316.6,276.8z"/>
		<rect x="272.2" y="262" class="st37" width="5.1" height="2.6"/>
		<rect x="277.3" y="262" class="st37" width="5.1" height="2.6"/>
		<rect x="282.4" y="262" class="st37" width="5.1" height="2.6"/>
		<rect x="287.5" y="262" class="st37" width="5.1" height="2.6"/>
		<rect x="292.6" y="262" class="st37" width="5.1" height="2.6"/>
		<rect x="297.7" y="262" class="st37" width="5.1" height="2.6"/>
		<rect x="302.8" y="262" class="st37" width="5.1" height="2.6"/>
		<rect x="308" y="262" class="st37" width="5.1" height="2.6"/>
		<rect x="301.9" y="287" class="st27" width="16.6" height="21.9"/>
		<rect x="304.2" y="299.2" class="st39" width="12.6" height="8.3"/>
		<rect x="304.2" y="289.1" class="st8" width="12.6" height="8.5"/>
		<polygon class="st34" points="304.7,297.2 304.7,289.1 304.2,289.1 304.2,297.6 316.8,297.6 316.8,297.2 		"/>
	</g>
	<g id="tree4">
		<rect x="628.4" y="299.3" class="st22" width="2.9" height="15.9"/>
		<rect x="628.4" y="299.3" class="st23" width="1.5" height="15.9"/>
		<polygon class="st40" points="639.2,305.8 629.9,266.2 620.5,305.8 622,305.8 621.4,308.8 638.5,308.8 637.8,305.8 		"/>
		<polygon class="st41" points="629.9,308.8 629.9,266.2 620.6,305.8 622.1,305.8 621.4,308.8 		"/>
	</g>
	<g id="tree3">
		<rect x="605.2" y="299.3" class="st22" width="2.9" height="15.9"/>
		<rect x="605.2" y="299.3" class="st23" width="1.5" height="15.9"/>
		<polygon class="st40" points="616.1,305.8 606.7,266.2 597.3,305.8 598.9,305.8 598.2,308.8 615.3,308.8 614.6,305.8 		"/>
		<polygon class="st41" points="606.8,308.8 606.8,266.2 597.4,305.8 598.9,305.8 598.3,308.8 		"/>
	</g>
	<g id="house-red">
		<rect x="488.7" y="232.6" class="st42" width="13.4" height="14.7"/>
		<rect x="486.4" y="226.1" class="st43" width="17.9" height="6.4"/>
		<polygon class="st44" points="590,277.6 446.8,277.6 464.3,246.4 571.5,246.4 		"/>
		<rect x="460.5" y="277.6" class="st45" width="114.8" height="33.6"/>
		<path class="st2" d="M558.9,274.2L558.9,274.2L558.9,274.2c-0.6-0.8-1.5-1.3-2.5-1.7l-38.7-62.2l-37.9,62.5
			c-0.5,0.2-0.9,0.5-1.3,0.9l-0.1,0.1l0,0c-0.8,0.7-1.2,1.7-1.2,2.6c0.1,2.4,2.4,4.3,5.3,4.3h71.7c2.9,0,5.3-1.9,5.3-4.3
			C559.7,275.6,559.4,274.8,558.9,274.2z"/>
		<polygon class="st42" points="546.8,314 488.7,314 488.7,271.8 518.6,222.6 518.6,222.6 546.8,271.5 		"/>
		<rect x="467.4" y="288.6" class="st2" width="16.1" height="15.2"/>
		<rect x="468.7" y="289.8" class="st26" width="13.5" height="12.7"/>
		<rect x="467.4" y="296.2" class="st2" width="16.1" height="1.1"/>
		<rect x="474.8" y="289.8" class="st2" width="2.6" height="12.7"/>
		<rect x="553.7" y="288.6" class="st2" width="16.1" height="15.2"/>
		<rect x="555" y="289.8" class="st26" width="13.5" height="12.7"/>
		<rect x="553.7" y="296.2" class="st2" width="16.1" height="1.1"/>
		<rect x="561.2" y="289.8" class="st2" width="2.6" height="12.7"/>
		<rect x="509.8" y="245.5" class="st2" width="16.1" height="24.1"/>
		<rect x="511.1" y="247.4" class="st26" width="13.5" height="20.2"/>
		<rect x="509.8" y="257.5" class="st2" width="16.1" height="1.8"/>
		<rect x="517.2" y="247.4" class="st2" width="2.6" height="20.2"/>
		<path class="st2" d="M527.3,314v-23.1c0-3.5-4.3-6.4-9.5-6.4s-9.5,2.9-9.5,6.4V314H527.3z"/>
		<path class="st46" d="M525.5,314v-21.8c-0.2-3.5-3.7-6.2-7.9-6c-3.9,0.1-7,2.7-7.2,6V314H525.5z"/>
		<rect x="451.5" y="311.2" class="st44" width="134.5" height="5.1"/>
	</g>
	<g id="tree2">
		<polygon class="st22" points="440.5,309.5 440.1,309.9 435.7,301.4 436.1,301 		"/>
		<polygon class="st23" points="435.9,301.2 435.7,301.4 440.1,309.9 440.3,309.7 		"/>
		<polygon class="st22" points="441.1,307.5 440.6,307.2 443.3,299.7 443.8,300 		"/>
		<polygon class="st23" points="443.6,299.9 443.3,299.7 440.6,307.2 440.9,307.3 		"/>
		<rect x="439.5" y="292.8" class="st22" width="2" height="20.9"/>
		<polygon class="st23" points="440.5,292.8 439.5,292.8 439.5,313.7 440.5,313.7 440.5,297.8 		"/>
		<polygon class="st40" points="445.9,292.7 440.5,275.6 435.1,292.7 435.9,292.7 435.6,294 445.4,294 445,292.7 		"/>
		<polygon class="st41" points="440.5,294 440.5,275.6 435.1,292.7 436,292.7 435.6,294 		"/>
		<polygon class="st40" points="436.3,298.5 436.3,298.5 433.8,302.8 438.4,302.8 		"/>
		<polygon class="st41" points="436.3,298.5 436.3,298.5 433.8,302.8 436.3,302.8 		"/>
		<polygon class="st40" points="443.8,294.7 443.8,294.7 441.8,300.3 445.4,300.3 		"/>
		<polygon class="st41" points="443.8,294.7 443.8,294.7 441.8,300.3 443.8,300.3 		"/>
	</g>
	<g id="house-light-brown">
		<path class="st24" d="M92.2,270.7L92.2,270.7L92.2,270.7c-0.4-0.7-1-1.3-1.7-1.6l-36.4-34.6L18,269.4c-0.3,0.2-0.6,0.5-0.9,0.9
			l-0.1,0.1l0,0c-0.5,0.7-0.8,1.6-0.8,2.6c0,2.3,1.7,4.2,3.7,4.2c0,0,0,0,0,0h69.2c2,0,3.7-1.8,3.7-4.2
			C92.8,272.1,92.6,271.4,92.2,270.7z"/>
		<polygon class="st47" points="84.5,315.2 25,315.2 25,271 54.4,243.7 54.4,243.7 84.5,270.8 		"/>
		<rect x="58.5" y="293.7" class="st2" width="11.2" height="14.9"/>
		<rect x="59.4" y="294.9" class="st26" width="9.4" height="12.5"/>
		<rect x="58.5" y="301.1" class="st2" width="11.2" height="1.1"/>
		<rect x="63.7" y="294.9" class="st2" width="1.8" height="12.5"/>
		<rect x="34.7" y="292.8" class="st2" width="13.6" height="22.4"/>
		<rect x="35.8" y="294.1" class="st24" width="11.4" height="21.1"/>
		<rect x="56" y="308.1" class="st24" width="15.7" height="1.3"/>
		<rect x="48.9" y="262" class="st2" width="11.2" height="14.9"/>
		<rect x="49.8" y="263.2" class="st26" width="9.4" height="12.5"/>
		<rect x="48.9" y="269.4" class="st2" width="11.2" height="1.1"/>
		<rect x="54.1" y="263.2" class="st2" width="1.8" height="12.5"/>
		<rect x="60.1" y="262" class="st24" width="6.8" height="14.9"/>
		<rect x="42.1" y="262" class="st24" width="6.8" height="14.9"/>
	</g>
	<g id="tree1">
		<polygon class="st22" points="899.9,309.9 899.3,310.3 893.8,300.9 894.3,300.4 		"/>
		<polygon class="st23" points="894,300.7 893.8,300.9 899.3,310.3 899.6,310.1 		"/>
		<polygon class="st22" points="900.6,307.7 900,307.3 903.4,299 904,299.3 		"/>
		<polygon class="st23" points="903.7,299.2 903.4,299 900,307.3 900.3,307.5 		"/>
		<rect x="898.6" y="291.3" class="st22" width="2.5" height="23.2"/>
		<polygon class="st23" points="899.8,291.3 898.6,291.3 898.6,314.6 899.8,314.6 899.8,296.9 		"/>
		<polygon class="st40" points="906.6,291.2 899.8,272.2 893,291.2 894.1,291.2 893.6,292.6 906.1,292.6 905.6,291.2 		"/>
		<polygon class="st41" points="899.9,292.6 899.9,272.2 893,291.2 894.2,291.2 893.7,292.6 		"/>
		<polygon class="st40" points="894.6,297.6 894.6,297.6 891.4,302.5 897.3,302.5 		"/>
		<polygon class="st41" points="894.6,297.6 894.6,297.6 891.4,302.5 894.6,302.5 		"/>
		<polygon class="st40" points="904,293.4 904,293.4 901.6,299.6 906.1,299.6 		"/>
		<polygon class="st41" points="904,293.4 904,293.4 901.6,299.6 904,299.6 		"/>
	</g>
	<g id="tree1_1_">
		<polygon class="st22" points="878.7,310.1 878.2,310.6 872.6,301.1 873.1,300.7 		"/>
		<polygon class="st23" points="872.9,300.9 872.6,301.1 878.2,310.6 878.4,310.4 		"/>
		<polygon class="st22" points="879.4,307.9 878.9,307.6 882.3,299.3 882.9,299.6 		"/>
		<polygon class="st23" points="882.6,299.4 882.3,299.3 878.9,307.6 879.2,307.7 		"/>
		<rect x="877.4" y="291.6" class="st22" width="2.5" height="23.2"/>
		<polygon class="st23" points="878.7,291.6 877.4,291.6 877.4,314.8 878.7,314.8 878.7,297.1 		"/>
		<polygon class="st40" points="885.5,291.5 878.7,272.4 871.8,291.5 873,291.5 872.5,292.9 884.9,292.9 884.4,291.5 		"/>
		<polygon class="st41" points="878.7,292.9 878.7,272.5 871.9,291.5 873,291.5 872.5,292.9 		"/>
		<polygon class="st40" points="873.4,297.9 873.4,297.9 870.3,302.7 876.1,302.7 		"/>
		<polygon class="st41" points="873.4,297.9 873.4,297.9 870.3,302.7 873.4,302.7 		"/>
		<polygon class="st40" points="882.8,293.7 882.8,293.7 880.4,299.9 884.9,299.9 		"/>
		<polygon class="st41" points="882.9,293.7 882.9,293.7 880.4,299.9 882.9,299.9 		"/>
	</g>
	<g id="tree1_3_">
		<polygon class="st22" points="129.9,311.9 129.3,312.3 123.8,302.9 124.3,302.4 		"/>
		<polygon class="st23" points="124,302.7 123.8,302.9 129.3,312.3 129.6,312.1 		"/>
		<polygon class="st22" points="130.6,309.7 130,309.3 133.4,301 134,301.3 		"/>
		<polygon class="st23" points="133.7,301.2 133.4,301 130,309.3 130.3,309.5 		"/>
		<rect x="128.6" y="293.3" class="st22" width="2.5" height="23.2"/>
		<polygon class="st23" points="129.8,293.3 128.6,293.3 128.6,316.6 129.8,316.6 129.8,298.9 		"/>
		<polygon class="st40" points="136.6,293.2 129.8,274.2 123,293.2 124.1,293.2 123.6,294.6 136.1,294.6 135.6,293.2 		"/>
		<polygon class="st41" points="129.9,294.6 129.9,274.2 123,293.2 124.2,293.2 123.7,294.6 		"/>
		<polygon class="st40" points="124.6,299.6 124.6,299.6 121.4,304.5 127.3,304.5 		"/>
		<polygon class="st41" points="124.6,299.6 124.6,299.6 121.4,304.5 124.6,304.5 		"/>
		<polygon class="st40" points="134,295.4 134,295.4 131.6,301.6 136.1,301.6 		"/>
		<polygon class="st41" points="134,295.4 134,295.4 131.6,301.6 134,301.6 		"/>
	</g>
	<g id="tree1_2_">
		<polygon class="st22" points="106.7,312.1 106.2,312.6 100.6,303.1 101.1,302.7 		"/>
		<polygon class="st23" points="100.9,302.9 100.6,303.1 106.2,312.6 106.4,312.4 		"/>
		<polygon class="st22" points="107.4,309.9 106.9,309.6 110.3,301.3 110.9,301.6 		"/>
		<polygon class="st23" points="110.6,301.4 110.3,301.3 106.9,309.6 107.2,309.7 		"/>
		<rect x="105.4" y="293.6" class="st22" width="2.5" height="23.2"/>
		<polygon class="st23" points="106.7,293.6 105.4,293.6 105.4,316.8 106.7,316.8 106.7,299.1 		"/>
		<polygon class="st40" points="113.5,293.5 106.7,274.4 99.8,293.5 101,293.5 100.5,294.9 112.9,294.9 112.4,293.5 		"/>
		<polygon class="st41" points="106.7,294.9 106.7,274.5 99.9,293.5 101,293.5 100.5,294.9 		"/>
		<polygon class="st40" points="101.4,299.9 101.4,299.9 98.3,304.7 104.1,304.7 		"/>
		<polygon class="st41" points="101.4,299.9 101.4,299.9 98.3,304.7 101.4,304.7 		"/>
		<polygon class="st40" points="110.8,295.7 110.8,295.7 108.4,301.9 112.9,301.9 		"/>
		<polygon class="st41" points="110.9,295.7 110.9,295.7 108.4,301.9 110.9,301.9 		"/>
	</g>
	<rect id="footpath" x="0.3" y="314.2" class="st48" width="1135.3" height="14.2"/>
	<g id="terrain">
		<rect id="grass" x="1019.6" y="313.7" class="st49" width="403.7" height="5.2"/>
		<polygon id="mud" class="st50" points="1019.6,317.5 1019.6,323.2 1019.6,329 1423.3,329 1423.3,323.2 1423.3,317.5 		"/>
	</g>
</g>
</svg>
