<svg xmlns="http://www.w3.org/2000/svg" xmlns:xlink="http://www.w3.org/1999/xlink" viewBox="0 0 114.36 46.41"><defs><style>.cls-1,.cls-5{fill:none;}.cls-2{fill:#f6f9f8;}.cls-3{fill:#d8e5e1;}.cls-4{clip-path:url(#clip-path);}.cls-5{stroke:#d8e5e1;stroke-miterlimit:10;stroke-width:2px;}.cls-6{clip-path:url(#clip-path-2);}</style><clipPath id="clip-path"><rect class="cls-1" x="4.89" y="16.63" width="24.63" height="8.8"/></clipPath><clipPath id="clip-path-2"><rect class="cls-1" x="48.52" y="16.63" width="23.92" height="8.8"/></clipPath></defs><title>cloud-top-left</title><g id="Layer_2" data-name="Layer 2"><g id="content"><g id="group3"><path class="cls-2" d="M113.78,46.41H0v-27c.78.1,1.57.19,2.36.31C8.6,3.7,39.6-6.37,60,4.6c7.15,3.84,10.82,9.52,16.47,14.61C96.37,11.81,118.18,26.73,113.78,46.41Z"/><path id="bezier2" class="cls-3" d="M38.68,31.38c4.4,0,8-3.27,8-7.3H30.71C30.71,28.11,34.28,31.38,38.68,31.38Z"/><g id="group"><g id="group2"><g class="cls-4"><g id="sVGID"><path id="bezier4" class="cls-5" d="M22.7,21.31a6.69,6.69,0,0,1,0,9.87,7.77,7.77,0,0,1-10.5,0,6.71,6.71,0,0,1,0-9.87A7.77,7.77,0,0,1,22.7,21.31Z"/></g></g></g><g id="group4"><g class="cls-6"><g id="sVGID-2" data-name="sVGID"><path id="bezier6" class="cls-5" d="M65.66,21.34a6.92,6.92,0,0,1,0,9.88,7.19,7.19,0,0,1-10,0,6.92,6.92,0,0,1,0-9.88A7.19,7.19,0,0,1,65.66,21.34Z"/></g></g></g></g></g></g></g></svg>