<svg xmlns="http://www.w3.org/2000/svg" xmlns:xlink="http://www.w3.org/1999/xlink" viewBox="0 0 163.6 46.41"><defs><style>.cls-1,.cls-5{fill:none;}.cls-2{fill:#f6f9f8;}.cls-3{fill:#d8e5e1;}.cls-4{clip-path:url(#clip-path);}.cls-5{stroke:#d8e5e1;stroke-miterlimit:10;stroke-width:2px;}.cls-6{clip-path:url(#clip-path-2);}</style><clipPath id="clip-path"><rect class="cls-1" x="54.13" y="16.63" width="24.63" height="8.8"/></clipPath><clipPath id="clip-path-2"><rect class="cls-1" x="97.76" y="16.63" width="23.92" height="8.8"/></clipPath></defs><title>cloud-top-right</title><g id="Layer_2" data-name="Layer 2"><g id="content"><g id="group3"><path id="bezier" class="cls-2" d="M0,46.41C-.25,36,6.83,31.82,18.67,32.31,23,19.05,36.09,17.37,51.6,19.71c6.24-16,37.23-26.08,57.64-15.11,7.14,3.84,10.82,9.52,16.47,14.61,19.9-7.4,41.72,7.52,37.32,27.2Z"/><path id="bezier2" class="cls-3" d="M87.92,31.38c4.4,0,8-3.27,8-7.3H80C80,28.11,83.52,31.38,87.92,31.38Z"/><g id="group"><g id="group2"><g class="cls-4"><g id="sVGID"><path id="bezier4" class="cls-5" d="M71.94,21.31a6.69,6.69,0,0,1,0,9.87,7.77,7.77,0,0,1-10.5,0,6.71,6.71,0,0,1,0-9.87A7.77,7.77,0,0,1,71.94,21.31Z"/></g></g></g><g id="group4"><g class="cls-6"><g id="sVGID-2" data-name="sVGID"><path id="bezier6" class="cls-5" d="M114.9,21.34a6.92,6.92,0,0,1,0,9.88,7.19,7.19,0,0,1-10,0,6.92,6.92,0,0,1,0-9.88A7.19,7.19,0,0,1,114.9,21.34Z"/></g></g></g></g></g></g></g></svg>