<?xml version="1.0" encoding="utf-8"?>
<!-- Generator: Adobe Illustrator 21.1.0, SVG Export Plug-In . SVG Version: 6.00 Build 0)  -->
<svg version="1.1" id="Layer_1" xmlns="http://www.w3.org/2000/svg" xmlns:xlink="http://www.w3.org/1999/xlink" x="0px" y="0px"
	 viewBox="0 0 228 62.5" style="enable-background:new 0 0 228 62.5;" xml:space="preserve">
<style type="text/css">
	.st0{fill:#FFFFFF;}
	.st1{fill:#8CCEA8;}
	.st2{fill:#EEEDED;}
	.st3{fill:#104960;}
	.st4{fill:#F5AD40;stroke:#FFFFFF;stroke-miterlimit:10;}
	.st5{fill:#F36F44;}
	.st6{fill:none;stroke:#231F20;stroke-miterlimit:10;}
</style>
<g id="plane">
	<rect x="176.8" y="41.9" class="st0" width="1.9" height="8"/>
	<path class="st1" d="M190.4,27.3c2.8,0,5.7,0.9,8.1,2.2c4.6,2.5,15.1,15.9,4.2,16.3c-2.1,0.1-4.2,0-6.2,0c-10.5,0-21.1,0-31.6,0
		c-8.5,0-17.1,0-25.6,0c-6.8,0-13-1-18.9-4.3c-5.6-3.2-10-8.1-12-14.2C108.3,27.3,190.4,27.3,190.4,27.3z"/>
	<g>
		<path class="st2" d="M112.7,35.1c-1.9-2.3-3.4-4.9-4.4-7.8c0,0,82.1,0,82.1,0c2.8,0,5.7,0.9,8.1,2.2c1.6,0.9,3.9,3.1,5.8,5.6
			H112.7z"/>
		<path class="st2" d="M207.5,42c0.1,2.1-1.2,3.7-4.8,3.8c-2.1,0.1-4.2,0-6.2,0c-10.5,0-21.1,0-31.6,0c-8.5,0-17.1,0-25.6,0
			c-6.4,0-12.3-0.9-18-3.8H207.5z"/>
	</g>
	<path class="st3" d="M191.5,31.8h9.9c1.9,1.8,3.8,4.3,5,6.7c-0.2,0.1-0.4,0.1-0.7,0.1h-14.2c-1.5,0-2.7-1.2-2.7-2.6v-1.6
		C188.8,32.9,190,31.8,191.5,31.8z"/>
	<g>
		<circle class="st0" cx="165.2" cy="35.1" r="3.8"/>
		<circle class="st3" cx="165.2" cy="35.1" r="2.8"/>
	</g>
	<g>
		<circle class="st0" cx="151.9" cy="35.1" r="3.8"/>
		<circle class="st3" cx="151.9" cy="35.1" r="2.8"/>
	</g>
	<g>
		<circle class="st0" cx="140.5" cy="35.1" r="3.8"/>
		<circle class="st3" cx="140.5" cy="35.1" r="2.8"/>
	</g>
	<g>
		<circle class="st0" cx="128.2" cy="35.1" r="3.8"/>
		<circle class="st3" cx="128.2" cy="35.1" r="2.8"/>
	</g>
	<path class="st4" d="M182,37.4c0,1.4-1.2,2.6-2.6,2.6h-1.1c-1.4,0-2.6-1.2-2.6-2.6v-4.5c0-1.4,1.2-2.6,2.6-2.6h1.1
		c1.4,0,2.6,1.2,2.6,2.6V37.4z"/>
	<polygon class="st1" points="125.4,27.3 108,27.3 103,31.3 114.2,31.8 	"/>
	<path class="st2" d="M114.9,32.3c0,0.6-0.5,1.1-1.1,1.1h-12.2c-0.6,0-1.1-0.5-1.1-1.1l0,0c0-0.6,0.5-1.1,1.1-1.1h12.2
		C114.3,31.3,114.9,31.7,114.9,32.3L114.9,32.3z"/>
	<path class="st2" d="M119.3,14.5c0,0.6-0.5,1.1-1.1,1.1H106c-0.6,0-1.1-0.5-1.1-1.1l0,0c0-0.6,0.5-1.1,1.1-1.1h12.2
		C118.8,13.5,119.3,13.9,119.3,14.5L119.3,14.5z"/>
	<polygon class="st5" points="108.3,27.2 107.2,15.6 116.5,15.6 125.4,27.2 	"/>
	<g>
		<path class="st5" d="M171.4,41.9L171.4,41.9l5.4,0v8h-5.4v0c-1.9-0.1-9.9-0.3-15.8-1.4l15.6-6.6L171.4,41.9z"/>
	</g>
	<g>
		<path class="st3" d="M181.4,45.9c0,1.7-1.2,3.1-2.8,3.5v-7C180.3,42.7,181.4,44.2,181.4,45.9z"/>
	</g>
	<polygon class="st1" points="173.7,41.9 153.2,41.9 137.9,50.8 150.1,51.9 	"/>
	<path class="st2" d="M151.9,51.9c0,0.6-0.6,1.1-1.3,1.1h-13.7c-0.7,0-1.3-0.5-1.3-1.1l0,0c0-0.6,0.6-1.1,1.3-1.1h13.7
		C151.3,50.8,151.9,51.3,151.9,51.9L151.9,51.9z"/>
</g>
<g id="lines">
	<line class="st6" x1="124" y1="52.3" x2="82.5" y2="52.3"/>
	<line class="st6" x1="94" y1="13.3" x2="38.5" y2="13.3"/>
	<line class="st6" x1="89" y1="32.3" x2="12.5" y2="32.3"/>
	<line class="st6" x1="110" y1="42.3" x2="55.5" y2="42.3"/>
</g>
</svg>
